<svg width="1524" height="309" viewBox="0 0 1524 309" fill="none" xmlns="http://www.w3.org/2000/svg">
<g clip-path="url(#clip0_3029_445)">
<path d="M-1.5 224C52.5 221.78 294.86 225.44 384.55 225.48C415.94 225.5 447.34 225.51 478.73 225.56C508.57 225.6 538.41 225.67 568.35 226.13C581.84 225.82 592.96 216.1 603.43 207.59C622.57 192.03 644.341 178.57 668.651 174.4C674.361 173.42 680.63 173.07 685.55 176.14C689.04 178.32 691.441 182.15 691.891 186.24C692.511 191.93 689.52 197.41 685.91 201.86C679.71 209.51 671.571 215.3 664.151 221.78C644.151 239.27 628.73 262.49 605.42 275.26C604.61 275.71 603.75 276.17 603.1 277.01C600.43 279.26 596.56 279.18 593.07 278.97C584.27 278.45 575.351 277.91 566.951 275.23C565.021 274.61 563.08 273.86 561.55 272.54C560.31 271.47 559.401 270.09 558.331 268.85C557.151 267.48 555.771 266.29 554.641 264.88C553.321 263.24 552.37 261.33 551.6 259.38C547.33 248.62 548.371 235.9 554.201 225.9" stroke="#540317" stroke-width="3" stroke-miterlimit="10" stroke-linecap="round" stroke-linejoin="round"/>
<path d="M686.63 200.79C694.16 197.16 701.69 193.54 709.22 189.91C713.64 187.78 718.14 185.63 722.98 184.83C727.82 184.03 733.14 184.75 736.93 187.88C741.85 191.94 743.09 199.25 741.47 205.43C739.85 211.61 735.88 216.87 731.76 221.74C727.23 227.08 722.41 232.17 717.6 237.25C705.39 250.14 693.17 263.02 680.96 275.91C677.29 279.78 673.58 283.69 669.2 286.73C659.91 293.17 647.72 295.26 636.81 292.28C625.9 289.3 616.47 281.3 611.75 271.02" stroke="#540317" stroke-width="3" stroke-miterlimit="10" stroke-linecap="round" stroke-linejoin="round"/>
<path d="M739.58 212.72C744.14 211.72 748.11 209.25 757.36 210.11C763.57 210.68 767.89 217.41 769.38 223.47C771.29 231.28 768.11 239.45 763.93 246.31C758.81 254.71 753.16 264.57 746.55 271.86C737.25 282.13 727.02 292.95 713.45 295.74" stroke="#540317" stroke-width="3" stroke-miterlimit="10" stroke-linecap="round" stroke-linejoin="round"/>
<path d="M673.66 283.56C677.21 293.45 687.53 299.64 697.91 301.29C708.29 302.94 720.11 301.86 730.41 299.78C735.99 298.66 737.44 298.61 741.71 297.75C752.87 295.5 765.48 291.73 769.96 281.26" stroke="#540317" stroke-width="3" stroke-miterlimit="10" stroke-linecap="round" stroke-linejoin="round"/>
<path d="M650.48 74.93C670.06 80.93 691.22 74.09 709.66 65.18C728.1 56.27 745.96 45.07 766.17 41.7C776.43 39.99 786.901 40.39 797.281 39.81C831.291 37.9 864.031 25.53 898.021 23.39C904.881 22.96 911.95 22.98 918.38 25.41C924.81 27.84 930.52 33.14 931.74 39.9C933.21 48.04 927.86 56.11 921.01 60.74C914.16 65.37 905.951 67.42 898.151 70.15C886.701 74.16 875.82 79.78 865.93 86.8" stroke="#540317" stroke-width="3" stroke-miterlimit="10" stroke-linecap="round" stroke-linejoin="round"/>
<path d="M840.021 76.7C867.371 89.62 890.97 109.72 912.36 131.11C932.17 150.92 989.69 166.35 1028.7 196.99C1035.89 202.64 1039.89 212.7 1038.3 221.7C1036.47 232.06 1025.96 239.05 1015.53 240.43C1005.1 241.81 994.65 238.86 984.47 236.2C964.82 231.07 944.91 226.92 924.85 223.78" stroke="#540317" stroke-width="3" stroke-miterlimit="10" stroke-linecap="round" stroke-linejoin="round"/>
<path d="M940.901 226.52C934.501 236.48 928.921 245.14 919.591 252.42C911.931 258.4 902.471 262.4 896.631 270.17C892.821 275.24 890.711 281.73 885.681 285.59C876.561 292.59 866.401 291.98 852.401 292.7C849.471 292.85 842.741 301.07 837.131 304.07C826.321 309.86 813.121 304.68 802.121 299.24C786.841 291.69 771.701 283.58 758.471 272.84" stroke="#540317" stroke-width="3" stroke-miterlimit="10" stroke-linecap="round" stroke-linejoin="round"/>
<path d="M824.351 36.04C815.601 24.75 798.921 17.84 784.801 15.72C770.681 13.6 756.141 13.62 742.491 9.45001C733.611 6.74001 725.041 2.24999 715.761 2.04999C701.891 1.75999 689.741 10.99 676.301 14.42C658.501 18.96 638.071 13.42 622.381 22.98C615.231 27.33 610.111 34.31 605.721 41.44C594.941 58.96 587.451 78.51 583.791 98.75C582.351 106.72 581.851 115.96 587.421 121.83C591.641 126.27 598.481 127.48 604.451 126.14C610.431 124.8 615.681 121.25 620.371 117.31C635.211 104.86 645.961 87.62 650.611 68.81" stroke="#540317" stroke-width="3" stroke-miterlimit="10" stroke-linecap="round" stroke-linejoin="round"/>
</g>
<line x1="0.01282" y1="222.5" x2="118.013" y2="223.509" stroke="#540317" stroke-width="3"/>
<line x1="930.992" y1="37.5" x2="1523.99" y2="34.5051" stroke="#540317" stroke-width="3"/>
<defs>
<clipPath id="clip0_3029_445">
<rect width="1300" height="309" fill="white" transform="translate(113)"/>
</clipPath>
</defs>
</svg>
