<svg width="343" height="215" viewBox="0 0 343 215" fill="none" xmlns="http://www.w3.org/2000/svg">
<path d="M59.7858 137.429C61.6758 132.779 63.3989 128.223 65.4097 123.796C66.4465 121.512 66.7824 121.589 68.8681 122.933C75.333 127.095 82.1073 130.56 89.7661 131.945C94.1719 132.743 98.5946 132.765 102.957 131.675C107.803 130.464 110.495 127.552 110.708 123.525C110.86 120.644 109.656 118.431 107.355 116.785C103.397 113.95 98.7275 112.949 94.1453 111.702C88.9564 110.288 83.6395 109.186 78.6489 107.248C65.5426 102.158 59.4257 92.0804 59.1599 78.2805C58.9013 64.8505 64.9916 55.0601 76.7203 48.7498C84.4443 44.5954 92.8571 43.4523 101.521 43.6069C110.971 43.7761 120.201 45.1295 129.005 48.6846C131.134 49.545 133.099 50.8017 135.153 51.8482C136.606 52.5877 136.961 53.784 136.533 55.2317C135.939 57.2569 135.429 59.3354 134.571 61.2519C132.794 65.2226 130.805 69.0992 128.92 73.0216C128.249 74.4209 127.407 74.5248 126.001 73.8651C117.716 69.9813 109.064 67.4316 99.8199 67.7893C97.1203 67.8932 94.3435 68.4974 91.7962 69.4134C88.6302 70.5541 87.0013 73.1473 86.9457 76.5864C86.8901 79.9312 88.751 82.0991 91.6584 83.1624C95.8056 84.6754 100.035 86.0142 104.313 87.1066C111.735 89.0038 118.987 91.2007 125.725 95.0023C144.497 105.595 144.774 132.378 129.225 145.213C122.248 150.973 114.101 153.762 105.265 154.789C90.7134 156.48 76.8991 153.863 63.7639 147.478C63.0147 147.113 62.2848 146.705 61.5646 146.286C57.8162 144.097 57.8186 144.094 59.0197 139.969C59.2542 139.169 59.5007 138.374 59.7858 137.429Z" fill="#0294AE"/>
<path d="M208.654 44.0057C216.746 44.8757 224.455 46.582 231.374 50.6543C237.305 54.1441 236.653 53.3756 234.601 58.8955C232.578 64.3357 230.002 69.5849 227.401 74.7859C226.07 77.4491 225.811 77.3017 223.126 75.9217C216.265 72.3981 209.118 69.8266 201.29 69.771C187.329 69.6719 176.296 78.2225 173.128 91.8459C171.064 100.72 171.697 109.491 175.933 117.679C180.951 127.375 190.98 132.4 201.882 131.273C209.246 130.512 215.762 127.776 221.71 123.508C222.283 123.097 222.858 122.694 223.957 121.829C224.593 122.691 225.304 123.511 225.855 124.427C229.253 130.075 232.605 135.752 236 141.402C236.638 142.463 236.232 143.118 235.452 143.877C231.188 148.014 226.145 150.907 220.668 153.046C206.051 158.759 191.203 159.591 176.223 154.641C163.874 150.559 154.903 142.398 149.441 130.725C142.268 115.393 140.542 99.2727 144.972 82.9183C150.173 63.7194 162.917 51.5823 181.958 45.9947C190.644 43.4402 199.526 43.1888 208.654 44.0057Z" fill="#0294AE"/>
<path d="M234.812 107.473C233.929 98.0788 234.418 88.9796 237.431 80.1487C243.669 61.8778 256.384 50.4416 274.952 45.7023C289.641 41.9538 304.246 42.8456 318.413 48.4115C321.243 49.5232 323.79 51.3551 326.456 52.8753C327.495 53.4674 327.715 54.3133 327.382 55.4854C325.393 62.4868 322.669 69.1596 318.795 75.3465C317.872 76.8232 317.031 77.1906 315.274 76.2287C308.456 72.4947 301.227 69.9185 293.341 69.7734C281.216 69.5535 272.158 74.8511 267.078 85.7701C261.761 97.1991 262.368 108.87 268.847 119.673C274.331 128.815 283.208 132.01 293.61 131.23C300.99 130.676 307.489 127.759 313.437 123.491C314.007 123.08 314.582 122.674 315.421 122.075C316.451 123.271 317.666 124.344 318.464 125.666C321.577 130.817 324.547 136.054 327.597 141.243C328.228 142.313 328.015 143.062 327.128 143.908C322.882 147.956 317.92 150.864 312.506 152.988C297.771 158.769 282.799 159.639 267.704 154.561C254.878 150.245 246.013 141.506 240.411 129.33C237.24 122.44 235.657 115.139 234.812 107.473Z" fill="#0294AE"/>
<path d="M12.5721 91.1089C9.78073 86.007 6.68966 81.0406 4.28013 75.7647C1.77875 70.2883 0.756456 64.4107 2.04944 58.3445C3.67835 50.7026 8.10831 45.2456 15.5327 42.9158C24.9291 39.9673 34.5721 39.8102 43.8453 43.404C51.7482 46.466 55.7697 52.7593 56.4512 61.1649C57.0675 68.7488 54.6266 75.5496 50.9337 81.9879C49.3097 84.8204 47.4971 87.5417 45.6361 90.5119C43.4175 93.5982 41.3318 96.4886 39.1398 99.4323C35.8022 103.422 32.571 107.362 29.2286 111.366C26.7103 114.039 24.3539 116.693 21.8574 119.209C21.3692 119.699 20.3469 119.794 19.559 119.832C17.2099 119.953 14.8536 119.958 12.4996 120.006C9.23937 119.958 5.97429 120.004 2.72372 119.803C1.79325 119.745 0.906294 118.974 0 118.53C0.432604 117.701 0.688785 116.688 1.32682 116.074C4.97133 112.577 8.70526 109.177 12.5939 105.585C14.7907 103.244 16.8039 101.061 18.9307 98.8184C20.0714 97.4481 21.1251 96.1575 22.1184 94.8235C24.3636 91.8001 26.5798 88.7549 28.8637 85.4899C28.6558 85.1998 28.39 85.1394 28.0033 85.1201C25.0451 88.8733 22.2296 92.6025 19.3415 96.2735C18.8968 96.8391 18.1138 97.1363 17.4347 97.4384C15.7792 95.2512 14.1769 93.1801 12.5721 91.1089ZM36.549 70.2013C36.885 67.4921 37.4384 64.7853 37.494 62.0712C37.5447 59.6278 36.5659 57.3585 34.3183 56.0582C31.162 54.2336 27.7568 54.2263 24.5279 55.6933C21.4151 57.1071 20.5596 60.0484 20.5403 63.2192C20.4967 70.4019 23.7908 76.3786 27.5175 82.1934C28.0589 83.0368 28.4359 83.9866 29.0014 85.1104C32.5106 80.8303 34.6809 75.7671 36.549 70.2013Z" fill="#FDC210"/>
<path d="M12.499 120.173C14.853 119.956 17.2093 119.951 19.5585 119.83C20.3463 119.789 21.3686 119.697 21.8568 119.206C24.3534 116.691 26.7097 114.037 29.3392 111.436C29.6582 111.683 29.75 111.922 29.8395 112.152C29.837 112.142 29.8491 112.159 29.7428 112.176C29.5784 112.319 29.5229 112.444 29.5253 112.684C31.6955 114.89 33.7546 117.046 35.9587 119.037C36.5412 119.564 37.5635 119.774 38.3997 119.825C40.8141 119.968 43.2357 119.953 45.6573 119.999C45.4132 130.882 45.1522 141.765 44.9492 152.647C44.9226 154.069 44.3184 154.823 42.9892 155.004C40.7706 155.306 38.5399 155.792 36.3189 155.768C29.3996 155.693 22.4803 155.403 15.5611 155.219C13.705 155.168 12.9316 154.472 12.922 152.423C12.8736 141.728 12.6561 131.034 12.499 120.173Z" fill="#0394AD"/>
<path d="M42.7439 5.76734C49.9822 13.385 49.5085 25.0146 43.22 31.7478C37.7919 37.5577 31.0708 39.4041 23.5812 37.1469C15.8741 34.8243 11.2919 29.2802 10.3372 21.2952C9.41404 13.5784 12.3915 7.29958 18.9603 3.04121C26.5345 -1.86728 35.6941 -0.745893 42.7439 5.76734Z" fill="#FFC210"/>
<path d="M45.8292 119.953C43.236 119.951 40.8144 119.968 38.4 119.825C37.5614 119.777 36.5415 119.564 35.9591 119.037C33.755 117.043 31.6959 114.89 29.5957 112.618C29.7117 112.367 29.7939 112.27 29.8519 112.157C29.8519 112.157 29.8374 112.14 29.9703 112.14C33.3465 108.125 36.5923 104.113 39.983 100.036C40.5824 100.326 41.0827 100.633 41.4814 101.039C42.8783 102.468 44.2414 103.93 45.6166 105.38C49.4351 108.991 53.2874 112.567 57.0431 116.243C57.6787 116.867 57.8962 117.916 58.3071 118.769C57.4153 119.134 56.5356 119.772 55.6293 119.813C52.4246 119.956 49.2103 119.893 45.8292 119.953Z" fill="#FCC212"/>
<path d="M45.6772 105.228C44.2416 103.93 42.8785 102.468 41.4816 101.039C41.0828 100.633 40.5826 100.324 39.9663 99.9107C39.6183 99.6932 39.4322 99.5337 39.2461 99.3766C41.3318 96.4861 43.415 93.5957 45.5684 90.6617C45.6699 95.4372 45.7037 100.256 45.6772 105.228Z" fill="#1099B2"/>
<path d="M12.5464 91.278C14.1777 93.18 15.7801 95.2512 17.4597 97.581C17.9624 98.1852 18.3902 98.5332 18.818 98.8812C16.8048 101.064 14.7916 103.246 12.6648 105.472C12.5392 100.827 12.5295 96.1382 12.5464 91.278Z" fill="#0D99B1"/>
<path d="M36.5057 70.3486C34.6811 75.767 32.5108 80.8302 29.0016 85.1079C28.4361 83.9841 28.0567 83.0367 27.5177 82.1908C23.7935 76.3736 20.497 70.3994 20.5405 63.2167C20.5598 60.0459 21.4153 57.1046 24.5282 55.6908C27.757 54.2238 31.1647 54.2311 34.3186 56.0557C36.5662 57.356 37.5425 59.6253 37.4942 62.0687C37.441 64.7852 36.8852 67.4895 36.5057 70.3486Z" fill="#0594AB"/>
<path d="M18.9318 98.8183C18.3905 98.5331 17.9627 98.1851 17.5107 97.6993C18.1149 97.1386 18.898 96.8413 19.3427 96.2758C22.2307 92.6047 25.0439 88.8756 28.1011 85.248C28.4805 85.4607 28.6449 85.5912 28.8068 85.7217C26.5785 88.7572 24.3647 91.8024 22.1196 94.8257C21.1263 96.1574 20.0701 97.448 18.9318 98.8183Z" fill="#389B92"/>
<path d="M39.1396 99.4297C39.432 99.5337 39.6181 99.6932 39.8187 99.9759C36.5923 104.113 33.3466 108.125 29.9727 112.149C29.7504 111.92 29.6586 111.68 29.4531 111.369C32.5708 107.359 35.802 103.422 39.1396 99.4297Z" fill="#389B92"/>
<path d="M28.8606 85.4898C28.6407 85.5888 28.4788 85.4583 28.2178 85.2046C28.3869 85.1393 28.6528 85.1997 28.8606 85.4898Z" fill="#0594AB"/>
<path d="M29.7428 112.173C29.7935 112.27 29.7114 112.364 29.5374 112.505C29.5229 112.444 29.5784 112.318 29.7428 112.173Z" fill="#389B92"/>
<path d="M335.497 214.61C335.108 214.61 334.913 214.416 334.913 214.026V201.565C334.913 201.175 335.108 200.981 335.497 200.981H336.588C336.977 200.981 337.172 201.175 337.172 201.565V203.122H337.224C337.639 202.344 338.128 201.755 338.69 201.357C339.253 200.959 339.954 200.76 340.793 200.76C341.347 200.76 341.737 200.807 341.962 200.903C342.161 200.981 342.234 201.11 342.182 201.292L341.884 202.357C341.84 202.512 341.728 202.573 341.546 202.538C341.243 202.478 340.958 202.447 340.69 202.447C339.677 202.447 338.842 202.906 338.184 203.823C337.527 204.732 337.198 205.974 337.198 207.549V214.026C337.198 214.416 337.003 214.61 336.614 214.61H335.497Z" fill="#149BB3"/>
<path d="M318.06 207.795C318.06 205.649 318.596 203.94 319.669 202.668C320.742 201.396 322.278 200.76 324.277 200.76C325.939 200.76 327.315 201.344 328.405 202.512C329.504 203.672 330.054 205.528 330.054 208.081C330.054 208.47 329.876 208.665 329.522 208.665H320.474C320.621 210.335 321.071 211.499 321.824 212.157C322.577 212.806 323.429 213.131 324.381 213.131C325.385 213.131 326.155 212.962 326.692 212.624C327.228 212.287 327.622 211.954 327.873 211.625C328.15 211.261 328.418 211.192 328.678 211.417L329.444 212.079C329.643 212.252 329.643 212.49 329.444 212.793C329.279 213.044 328.808 213.446 328.029 214C327.259 214.554 326.043 214.831 324.381 214.831C322.218 214.831 320.621 214.195 319.591 212.923C318.57 211.651 318.06 209.942 318.06 207.795ZM320.422 206.978H327.756C327.722 205.766 327.41 204.706 326.822 203.797C326.233 202.88 325.368 202.421 324.225 202.421C323.222 202.421 322.369 202.759 321.668 203.434C320.967 204.1 320.552 205.282 320.422 206.978Z" fill="#149BB3"/>
<path d="M302.88 207.795C302.88 205.762 303.382 204.083 304.386 202.759C305.398 201.426 306.943 200.76 309.02 200.76C310.422 200.76 311.49 201.011 312.226 201.513C312.97 202.006 313.507 202.512 313.836 203.032C314.017 203.317 313.978 203.546 313.719 203.72L312.901 204.252C312.641 204.433 312.382 204.317 312.122 203.901C311.871 203.503 311.516 203.161 311.058 202.876C310.608 202.59 309.928 202.447 309.02 202.447C307.834 202.447 306.917 202.884 306.268 203.758C305.619 204.632 305.294 205.978 305.294 207.795C305.294 209.613 305.619 210.958 306.268 211.832C306.917 212.707 307.834 213.144 309.02 213.144C309.98 213.144 310.716 212.962 311.227 212.598C311.737 212.226 312.109 211.824 312.343 211.391C312.568 210.984 312.823 210.868 313.109 211.041L313.978 211.56C314.238 211.716 314.277 211.949 314.095 212.261C313.879 212.633 313.386 213.157 312.615 213.832C311.854 214.498 310.655 214.831 309.02 214.831C306.943 214.831 305.398 214.169 304.386 212.845C303.382 211.512 302.88 209.829 302.88 207.795Z" fill="#149BB3"/>
<path d="M287.7 214.61C287.311 214.61 287.116 214.416 287.116 214.026V201.565C287.116 201.175 287.311 200.981 287.7 200.981H288.791C289.18 200.981 289.375 201.175 289.375 201.565V202.603H289.427C289.989 201.98 290.595 201.517 291.244 201.214C291.893 200.911 292.702 200.76 293.672 200.76C295.247 200.76 296.376 201.206 297.059 202.097C297.752 202.98 298.098 204.191 298.098 205.732V214.026C298.098 214.416 297.903 214.61 297.514 214.61H296.397C296.008 214.61 295.813 214.416 295.813 214.026V206.355C295.813 204.658 295.532 203.585 294.97 203.135C294.407 202.677 293.693 202.447 292.828 202.447C291.703 202.447 290.85 202.785 290.271 203.46C289.691 204.126 289.401 205.273 289.401 206.9V214.026C289.401 214.416 289.206 214.61 288.817 214.61H287.7Z" fill="#149BB3"/>
<path d="M270.651 210.976C270.651 209.435 271.37 208.306 272.806 207.588C274.251 206.87 276.406 206.45 279.271 206.329V205.446C279.271 204.632 279.085 203.932 278.712 203.343C278.349 202.746 277.622 202.447 276.532 202.447C275.839 202.447 275.286 202.517 274.87 202.655C274.455 202.785 274.074 202.962 273.728 203.187C273.39 203.404 273.066 203.685 272.754 204.031C272.521 204.291 272.3 204.304 272.092 204.07L271.417 203.291C271.227 203.075 271.292 202.815 271.612 202.512C272.071 202.08 272.516 201.755 272.949 201.539C273.382 201.322 273.918 201.141 274.559 200.994C275.208 200.838 275.865 200.76 276.532 200.76C278.34 200.76 279.63 201.227 280.4 202.162C281.17 203.088 281.555 204.36 281.555 205.978V214.026C281.555 214.416 281.361 214.61 280.971 214.61H279.803C279.465 214.61 279.297 214.416 279.297 214.026V213.39H279.271C278.587 213.927 277.916 214.303 277.259 214.52C276.61 214.727 275.883 214.831 275.078 214.831C273.659 214.831 272.564 214.494 271.794 213.819C271.032 213.135 270.651 212.187 270.651 210.976ZM273.014 211.028C273.014 211.564 273.126 211.997 273.351 212.326C273.576 212.646 273.888 212.854 274.286 212.949C274.684 213.035 275.099 213.079 275.532 213.079C276.198 213.079 276.83 213.014 277.427 212.884C278.024 212.754 278.639 212.412 279.271 211.858V208.029C277.523 208.159 276.276 208.319 275.532 208.509C274.788 208.691 274.182 209.011 273.715 209.47C273.248 209.92 273.014 210.439 273.014 211.028Z" fill="#149BB3"/>
<path d="M250.683 205.303C250.683 202.274 251.431 199.903 252.928 198.19C254.434 196.468 256.593 195.607 259.406 195.607C261.05 195.607 262.409 195.888 263.482 196.45C264.555 197.004 265.325 197.766 265.792 198.735C266.035 199.237 265.996 199.583 265.675 199.774L264.65 200.371C264.304 200.57 263.997 200.405 263.728 199.877C263.443 199.332 262.975 198.822 262.326 198.346C261.677 197.87 260.747 197.632 259.536 197.632C257.372 197.632 255.797 198.307 254.811 199.657C253.833 200.998 253.344 202.88 253.344 205.303C253.344 207.726 253.833 209.613 254.811 210.963C255.797 212.304 257.372 212.975 259.536 212.975C260.782 212.975 261.777 212.689 262.521 212.118C263.274 211.547 263.819 210.95 264.157 210.327C264.425 209.825 264.736 209.674 265.091 209.873L266.169 210.483C266.48 210.664 266.506 211.011 266.247 211.521C265.736 212.516 264.905 213.347 263.754 214.013C262.603 214.671 261.154 215 259.406 215C256.593 215 254.434 214.143 252.928 212.43C251.431 210.708 250.683 208.332 250.683 205.303Z" fill="#149BB3"/>
<path d="M224.698 214.611C224.309 214.611 224.114 214.416 224.114 214.026V196.035C224.114 195.646 224.309 195.451 224.698 195.451H225.815C226.204 195.451 226.399 195.646 226.399 196.035V201.824C226.399 202.084 226.39 202.344 226.373 202.603H226.425C226.987 201.98 227.593 201.517 228.242 201.214C228.891 200.912 229.7 200.76 230.67 200.76C232.245 200.76 233.374 201.206 234.058 202.097C234.75 202.98 235.096 204.191 235.096 205.732V214.026C235.096 214.416 234.901 214.611 234.512 214.611H233.396C233.006 214.611 232.811 214.416 232.811 214.026V206.355C232.811 204.659 232.53 203.586 231.968 203.136C231.405 202.677 230.691 202.448 229.826 202.448C228.701 202.448 227.848 202.785 227.269 203.46C226.689 204.126 226.399 205.273 226.399 206.9V214.026C226.399 214.416 226.204 214.611 225.815 214.611H224.698Z" fill="#149BB3"/>
<path d="M211.752 202.694C211.363 202.694 211.168 202.543 211.168 202.24V201.435C211.168 201.132 211.363 200.981 211.752 200.981H213.284V199.812C213.284 199.639 213.327 199.475 213.414 199.319L214.322 197.671C214.487 197.368 214.621 197.216 214.725 197.216H215.179C215.439 197.216 215.568 197.368 215.568 197.671V200.981H218.333C218.723 200.981 218.917 201.132 218.917 201.435V202.24C218.917 202.543 218.723 202.694 218.333 202.694H215.568V210.963C215.568 211.872 215.703 212.464 215.971 212.741C216.248 213.01 216.577 213.144 216.957 213.144C217.252 213.144 217.602 213.057 218.009 212.884C218.424 212.711 218.71 212.564 218.866 212.443C219.021 212.322 219.142 212.361 219.229 212.56L219.657 213.559C219.727 213.732 219.675 213.871 219.502 213.974C219.164 214.174 218.671 214.368 218.022 214.559C217.373 214.74 216.724 214.831 216.075 214.831C215.175 214.831 214.482 214.507 213.998 213.858C213.522 213.209 213.284 212.291 213.284 211.106V202.694H211.752Z" fill="#149BB3"/>
<path d="M205.167 214.611C204.778 214.611 204.583 214.416 204.583 214.027V201.565C204.583 201.176 204.778 200.981 205.167 200.981H206.283C206.673 200.981 206.868 201.176 206.868 201.565V214.027C206.868 214.416 206.673 214.611 206.283 214.611H205.167ZM205.167 198.514C204.778 198.514 204.583 198.32 204.583 197.93V196.814C204.583 196.425 204.778 196.23 205.167 196.23H206.283C206.673 196.23 206.868 196.425 206.868 196.814V197.93C206.868 198.32 206.673 198.514 206.283 198.514H205.167Z" fill="#149BB3"/>
<path d="M182.887 201.617C182.775 201.193 182.891 200.981 183.238 200.981H184.601C184.912 200.981 185.107 201.15 185.185 201.487L187.093 210.054C187.153 210.305 187.244 210.699 187.365 211.236C187.495 211.772 187.586 212.166 187.638 212.417H187.69C187.733 212.175 187.807 211.811 187.911 211.327C188.023 210.842 188.127 210.418 188.222 210.054L190.507 201.487C190.593 201.15 190.788 200.981 191.091 200.981H192.259C192.562 200.981 192.757 201.15 192.843 201.487L195.128 210.054C195.223 210.418 195.323 210.842 195.427 211.327C195.539 211.811 195.617 212.175 195.66 212.417H195.712C195.764 212.166 195.851 211.772 195.972 211.236C196.102 210.699 196.197 210.305 196.257 210.054L198.165 201.487C198.243 201.15 198.438 200.981 198.75 200.981H200.113C200.459 200.981 200.576 201.193 200.463 201.617L197.244 213.819C197.105 214.347 196.872 214.611 196.543 214.611H194.985C194.656 214.611 194.423 214.347 194.284 213.819L192.077 205.239C191.922 204.633 191.822 204.209 191.779 203.966C191.744 203.724 191.714 203.495 191.688 203.278H191.662C191.636 203.495 191.602 203.724 191.558 203.966C191.524 204.209 191.428 204.633 191.273 205.239L189.066 213.819C188.927 214.347 188.694 214.611 188.365 214.611H186.807C186.478 214.611 186.245 214.347 186.106 213.819L182.887 201.617Z" fill="#149BB3"/>
<path d="M157.344 214.61C156.954 214.61 156.76 214.416 156.76 214.026V201.565C156.76 201.175 156.954 200.981 157.344 200.981H158.434C158.824 200.981 159.018 201.175 159.018 201.565V202.603H159.07C159.633 201.98 160.239 201.517 160.888 201.214C161.537 200.911 162.346 200.76 163.315 200.76C164.89 200.76 166.019 201.206 166.703 202.097C167.395 202.98 167.742 204.191 167.742 205.732V214.026C167.742 214.416 167.547 214.61 167.157 214.61H166.041C165.652 214.61 165.457 214.416 165.457 214.026V206.355C165.457 204.658 165.176 203.585 164.613 203.135C164.051 202.677 163.337 202.447 162.471 202.447C161.346 202.447 160.494 202.785 159.914 203.46C159.334 204.126 159.044 205.273 159.044 206.9V214.026C159.044 214.416 158.85 214.61 158.46 214.61H157.344Z" fill="#149BB3"/>
<path d="M139.906 207.795C139.906 205.649 140.443 203.94 141.516 202.668C142.589 201.396 144.125 200.76 146.124 200.76C147.786 200.76 149.162 201.344 150.252 202.512C151.351 203.672 151.9 205.528 151.9 208.081C151.9 208.47 151.723 208.665 151.368 208.665H142.321C142.468 210.335 142.918 211.499 143.671 212.157C144.424 212.806 145.276 213.131 146.228 213.131C147.232 213.131 148.002 212.962 148.538 212.624C149.075 212.287 149.469 211.954 149.72 211.625C149.997 211.261 150.265 211.192 150.525 211.417L151.29 212.079C151.489 212.252 151.489 212.49 151.29 212.793C151.126 213.044 150.654 213.446 149.875 214C149.105 214.554 147.889 214.831 146.228 214.831C144.064 214.831 142.468 214.195 141.438 212.923C140.417 211.651 139.906 209.942 139.906 207.795ZM142.269 206.978H149.603C149.568 205.766 149.257 204.706 148.668 203.797C148.08 202.88 147.214 202.421 146.072 202.421C145.068 202.421 144.216 202.759 143.515 203.434C142.814 204.1 142.399 205.282 142.269 206.978Z" fill="#149BB3"/>
<path d="M129.996 214.61C129.607 214.61 129.412 214.416 129.412 214.026V201.565C129.412 201.175 129.607 200.981 129.996 200.981H131.087C131.476 200.981 131.671 201.175 131.671 201.565V203.122H131.723C132.138 202.344 132.627 201.755 133.19 201.357C133.752 200.959 134.453 200.76 135.292 200.76C135.846 200.76 136.236 200.807 136.461 200.903C136.66 200.981 136.733 201.11 136.681 201.292L136.383 202.357C136.34 202.512 136.227 202.573 136.045 202.538C135.742 202.478 135.457 202.447 135.189 202.447C134.176 202.447 133.341 202.906 132.683 203.823C132.026 204.732 131.697 205.974 131.697 207.549V214.026C131.697 214.416 131.502 214.61 131.113 214.61H129.996Z" fill="#149BB3"/>
<path d="M112.273 207.796C112.273 205.935 112.723 204.299 113.623 202.889C114.523 201.47 115.839 200.76 117.57 200.76C118.565 200.76 119.361 200.924 119.958 201.253C120.555 201.582 121.092 202.032 121.568 202.603H121.594C121.576 202.344 121.568 202.08 121.568 201.812V196.035C121.568 195.646 121.762 195.451 122.152 195.451H123.268C123.658 195.451 123.852 195.646 123.852 196.035V214.026C123.852 214.416 123.658 214.611 123.268 214.611H122.178C121.866 214.611 121.697 214.416 121.672 214.026L121.594 212.988H121.568C121.092 213.559 120.555 214.009 119.958 214.338C119.361 214.667 118.565 214.831 117.57 214.831C115.839 214.831 114.523 214.126 113.623 212.715C112.723 211.296 112.273 209.656 112.273 207.796ZM114.688 207.796C114.688 209.388 114.96 210.677 115.506 211.664C116.059 212.65 116.994 213.144 118.309 213.144C119.244 213.144 120.019 212.828 120.633 212.196C121.256 211.556 121.568 210.587 121.568 209.288V206.303C121.568 205.005 121.256 204.04 120.633 203.408C120.019 202.768 119.244 202.448 118.309 202.448C116.994 202.448 116.059 202.941 115.506 203.927C114.96 204.914 114.688 206.203 114.688 207.796Z" fill="#149BB3"/>
<path d="M105.767 214.611C105.377 214.611 105.183 214.416 105.183 214.026V197.826C105.183 197.653 105.226 197.489 105.312 197.333L106.221 195.685C106.386 195.382 106.52 195.23 106.623 195.23H107.078C107.337 195.23 107.467 195.382 107.467 195.685V214.026C107.467 214.416 107.273 214.611 106.883 214.611H105.767Z" fill="#149BB3"/>
<path d="M97.9347 214.611C97.5453 214.611 97.3506 214.416 97.3506 214.027V201.565C97.3506 201.176 97.5453 200.981 97.9347 200.981H99.0511C99.4405 200.981 99.6352 201.176 99.6352 201.565V214.027C99.6352 214.416 99.4405 214.611 99.0511 214.611H97.9347ZM97.9347 198.514C97.5453 198.514 97.3506 198.32 97.3506 197.93V196.814C97.3506 196.425 97.5453 196.23 97.9347 196.23H99.0511C99.4405 196.23 99.6352 196.425 99.6352 196.814V197.93C99.6352 198.32 99.4405 198.514 99.0511 198.514H97.9347Z" fill="#149BB3"/>
<path d="M81.4298 214.611C81.0404 214.611 80.8457 214.416 80.8457 214.026V196.035C80.8457 195.646 81.0404 195.451 81.4298 195.451H82.5462C82.9356 195.451 83.1303 195.646 83.1303 196.035V201.824C83.1303 202.084 83.1217 202.344 83.1044 202.603H83.1563C83.7188 201.98 84.3246 201.517 84.9736 201.214C85.6226 200.912 86.4318 200.76 87.401 200.76C88.976 200.76 90.1053 201.206 90.789 202.097C91.4813 202.98 91.8274 204.191 91.8274 205.732V214.026C91.8274 214.416 91.6327 214.611 91.2433 214.611H90.127C89.7375 214.611 89.5428 214.416 89.5428 214.026V206.355C89.5428 204.659 89.2616 203.586 88.6991 203.136C88.1366 202.677 87.4226 202.448 86.5572 202.448C85.4322 202.448 84.5798 202.785 84 203.46C83.4202 204.126 83.1303 205.273 83.1303 206.9V214.026C83.1303 214.416 82.9356 214.611 82.5462 214.611H81.4298Z" fill="#149BB3"/>
<path d="M60.1387 205.303C60.1387 202.274 60.8872 199.903 62.3843 198.19C63.8901 196.468 66.0493 195.607 68.8618 195.607C70.506 195.607 71.8646 195.888 72.9377 196.45C74.0108 197.004 74.781 197.766 75.2483 198.735C75.4906 199.237 75.4517 199.583 75.1315 199.774L74.106 200.371C73.7598 200.57 73.4526 200.405 73.1843 199.877C72.8988 199.332 72.4315 198.822 71.7824 198.346C71.1334 197.87 70.2031 197.632 68.9916 197.632C66.8281 197.632 65.2531 198.307 64.2666 199.657C63.2887 200.998 62.7997 202.88 62.7997 205.303C62.7997 207.726 63.2887 209.613 64.2666 210.963C65.2531 212.304 66.8281 212.975 68.9916 212.975C70.2377 212.975 71.2329 212.689 71.9771 212.118C72.73 211.547 73.2752 210.95 73.6127 210.327C73.881 209.825 74.1925 209.674 74.5473 209.873L75.6247 210.483C75.9363 210.664 75.9622 211.011 75.7026 211.521C75.192 212.516 74.3613 213.347 73.2103 214.013C72.0593 214.671 70.6098 215 68.8618 215C66.0493 215 63.8901 214.143 62.3843 212.43C60.8872 210.708 60.1387 208.332 60.1387 205.303Z" fill="#149BB3"/>
<path d="M39.424 214.61C39.0346 214.61 38.8398 214.416 38.8398 214.026V201.565C38.8398 201.175 39.0346 200.981 39.424 200.981H40.5144C40.9038 200.981 41.0985 201.175 41.0985 201.565V203.122H41.1504C41.5658 202.344 42.0547 201.755 42.6172 201.357C43.1797 200.959 43.8807 200.76 44.7201 200.76C45.274 200.76 45.6634 200.807 45.8884 200.903C46.0874 200.981 46.161 201.11 46.1091 201.292L45.8105 202.357C45.7672 202.512 45.6547 202.573 45.473 202.538C45.1701 202.478 44.8846 202.447 44.6163 202.447C43.6038 202.447 42.7687 202.906 42.111 203.823C41.4533 204.732 41.1245 205.974 41.1245 207.549V214.026C41.1245 214.416 40.9297 214.61 40.5403 214.61H39.424Z" fill="#149BB3"/>
<path d="M21.3379 207.795C21.3379 205.762 21.8744 204.083 22.9475 202.759C24.0292 201.426 25.6086 200.76 27.6855 200.76C29.7624 200.76 31.3374 201.426 32.4105 202.759C33.4922 204.083 34.0331 205.762 34.0331 207.795C34.0331 209.829 33.4922 211.512 32.4105 212.845C31.3374 214.169 29.7624 214.831 27.6855 214.831C25.6086 214.831 24.0292 214.169 22.9475 212.845C21.8744 211.512 21.3379 209.829 21.3379 207.795ZM23.7523 207.795C23.7523 209.613 24.1114 210.958 24.8297 211.832C25.548 212.707 26.4999 213.144 27.6855 213.144C28.8711 213.144 29.823 212.707 30.5413 211.832C31.2595 210.958 31.6187 209.613 31.6187 207.795C31.6187 205.978 31.2595 204.632 30.5413 203.758C29.823 202.884 28.8711 202.447 27.6855 202.447C26.4999 202.447 25.548 202.884 24.8297 203.758C24.1114 204.632 23.7523 205.978 23.7523 207.795Z" fill="#149BB3"/>
<path d="M11.0773 202.694C10.6879 202.694 10.4932 202.543 10.4932 202.24V201.435C10.4932 201.132 10.6879 200.981 11.0773 200.981H12.4662V199.047C12.4662 197.601 12.8557 196.606 13.6345 196.061C14.4134 195.507 15.3047 195.23 16.3086 195.23C16.9057 195.23 17.386 195.261 17.7494 195.321C18.1215 195.382 18.5586 195.516 19.0605 195.723C19.2509 195.801 19.3071 195.94 19.2292 196.139L18.8268 197.164C18.7576 197.337 18.6061 197.372 18.3725 197.268C18.1821 197.182 17.9485 197.104 17.6715 197.035C17.3946 196.957 17.0961 196.918 16.7759 196.918C16.0576 196.918 15.5384 197.091 15.2182 197.437C14.9066 197.783 14.7509 198.445 14.7509 199.423V200.981H17.1263C17.5158 200.981 17.7105 201.132 17.7105 201.435V202.24C17.7105 202.543 17.5158 202.694 17.1263 202.694H14.7509V214.026C14.7509 214.416 14.5561 214.611 14.1667 214.611H13.0504C12.661 214.611 12.4662 214.416 12.4662 214.026V202.694H11.0773Z" fill="#149BB3"/>
<path d="M279.756 173.34C279.6 172.916 279.717 172.704 280.107 172.704H281.522C281.807 172.704 282.002 172.873 282.106 173.211L284.832 181.778C284.91 182.012 285.026 182.379 285.182 182.881C285.347 183.375 285.463 183.816 285.533 184.205H285.559C285.628 183.816 285.71 183.465 285.805 183.154C285.909 182.834 286.061 182.375 286.26 181.778L289.012 173.211C289.124 172.873 289.319 172.704 289.596 172.704H291.011C291.4 172.704 291.517 172.916 291.361 173.34L286.987 185.542C286.164 187.836 285.429 189.441 284.78 190.358C284.131 191.284 283.162 191.747 281.872 191.747C281.197 191.747 280.661 191.648 280.262 191.449C280.081 191.362 280.02 191.228 280.081 191.046L280.418 189.995C280.479 189.813 280.596 189.761 280.769 189.839C281.124 189.986 281.465 190.06 281.794 190.06C282.4 190.06 282.893 189.731 283.274 189.073C283.655 188.424 283.958 187.771 284.183 187.113L284.442 186.347L279.756 173.34Z" fill="#149BB3"/>
<path d="M268.342 174.418C267.953 174.418 267.758 174.266 267.758 173.964V173.159C267.758 172.856 267.953 172.704 268.342 172.704H269.874V171.536C269.874 171.363 269.917 171.199 270.003 171.043L270.912 169.394C271.077 169.091 271.211 168.94 271.315 168.94H271.769C272.028 168.94 272.158 169.091 272.158 169.394V172.704H274.923C275.313 172.704 275.507 172.856 275.507 173.159V173.964C275.507 174.266 275.313 174.418 274.923 174.418H272.158V182.687C272.158 183.595 272.292 184.188 272.561 184.465C272.838 184.733 273.166 184.867 273.547 184.867C273.841 184.867 274.192 184.781 274.599 184.608C275.014 184.435 275.3 184.288 275.455 184.166C275.611 184.045 275.732 184.084 275.819 184.283L276.247 185.283C276.316 185.456 276.265 185.594 276.091 185.698C275.754 185.897 275.261 186.092 274.612 186.282C273.963 186.464 273.314 186.555 272.665 186.555C271.765 186.555 271.072 186.23 270.588 185.581C270.112 184.932 269.874 184.015 269.874 182.829V174.418H268.342Z" fill="#149BB3"/>
<path d="M252.149 179.519C252.149 177.373 252.686 175.664 253.759 174.392C254.832 173.12 256.368 172.484 258.367 172.484C260.029 172.484 261.405 173.068 262.495 174.236C263.594 175.396 264.144 177.252 264.144 179.805C264.144 180.194 263.966 180.389 263.611 180.389H254.564C254.711 182.059 255.161 183.223 255.914 183.881C256.667 184.53 257.519 184.854 258.471 184.854C259.475 184.854 260.245 184.686 260.782 184.348C261.318 184.011 261.712 183.677 261.963 183.349C262.24 182.985 262.508 182.916 262.768 183.141L263.534 183.803C263.733 183.976 263.733 184.214 263.534 184.517C263.369 184.768 262.897 185.17 262.119 185.724C261.348 186.278 260.133 186.555 258.471 186.555C256.308 186.555 254.711 185.919 253.681 184.647C252.66 183.375 252.149 181.665 252.149 179.519ZM254.512 178.701H261.846C261.811 177.49 261.5 176.43 260.911 175.521C260.323 174.604 259.458 174.145 258.315 174.145C257.311 174.145 256.459 174.483 255.758 175.158C255.057 175.824 254.642 177.005 254.512 178.701Z" fill="#149BB3"/>
<path d="M245.642 186.334C245.252 186.334 245.058 186.14 245.058 185.75V173.289C245.058 172.899 245.252 172.704 245.642 172.704H246.758C247.148 172.704 247.342 172.899 247.342 173.289V185.75C247.342 186.14 247.148 186.334 246.758 186.334H245.642ZM245.642 170.238C245.252 170.238 245.058 170.043 245.058 169.654V168.538C245.058 168.148 245.252 167.953 245.642 167.953H246.758C247.148 167.953 247.342 168.148 247.342 168.538V169.654C247.342 170.043 247.148 170.238 246.758 170.238H245.642Z" fill="#149BB3"/>
<path d="M229.139 179.519C229.139 177.486 229.641 175.807 230.644 174.483C231.657 173.15 233.202 172.484 235.279 172.484C236.681 172.484 237.749 172.735 238.485 173.237C239.229 173.73 239.766 174.236 240.094 174.755C240.276 175.041 240.237 175.27 239.978 175.443L239.16 175.975C238.9 176.157 238.641 176.04 238.381 175.625C238.13 175.227 237.775 174.885 237.317 174.6C236.867 174.314 236.187 174.171 235.279 174.171C234.093 174.171 233.176 174.608 232.527 175.482C231.878 176.356 231.553 177.702 231.553 179.519C231.553 181.337 231.878 182.682 232.527 183.556C233.176 184.43 234.093 184.867 235.279 184.867C236.239 184.867 236.975 184.686 237.485 184.322C237.996 183.95 238.368 183.548 238.602 183.115C238.827 182.708 239.082 182.591 239.368 182.764L240.237 183.284C240.497 183.439 240.536 183.673 240.354 183.985C240.138 184.357 239.644 184.88 238.874 185.555C238.113 186.222 236.914 186.555 235.279 186.555C233.202 186.555 231.657 185.893 230.644 184.569C229.641 183.236 229.139 181.553 229.139 179.519Z" fill="#149BB3"/>
<path d="M212.375 179.519C212.375 177.486 212.912 175.807 213.985 174.483C215.066 173.15 216.646 172.484 218.723 172.484C220.8 172.484 222.375 173.15 223.448 174.483C224.529 175.807 225.07 177.486 225.07 179.519C225.07 181.553 224.529 183.236 223.448 184.569C222.375 185.893 220.8 186.555 218.723 186.555C216.646 186.555 215.066 185.893 213.985 184.569C212.912 183.236 212.375 181.553 212.375 179.519ZM214.789 179.519C214.789 181.337 215.149 182.682 215.867 183.556C216.585 184.43 217.537 184.867 218.723 184.867C219.908 184.867 220.86 184.43 221.578 183.556C222.297 182.682 222.656 181.337 222.656 179.519C222.656 177.702 222.297 176.356 221.578 175.482C220.86 174.608 219.908 174.171 218.723 174.171C217.537 174.171 216.585 174.608 215.867 175.482C215.149 176.356 214.789 177.702 214.789 179.519Z" fill="#149BB3"/>
<path d="M195.678 184.932C195.22 184.517 195.099 184.153 195.315 183.842L195.99 182.868C196.224 182.531 196.6 182.557 197.119 182.946C197.803 183.457 198.513 183.876 199.248 184.205C199.992 184.534 200.892 184.699 201.948 184.699C202.727 184.699 203.385 184.582 203.921 184.348C204.458 184.114 204.886 183.781 205.206 183.349C205.535 182.907 205.7 182.375 205.7 181.752C205.7 181.302 205.63 180.887 205.492 180.506C205.362 180.116 205.15 179.792 204.856 179.532C204.562 179.273 204.254 179.069 203.934 178.922C203.406 178.68 202.614 178.399 201.559 178.078C200.512 177.758 199.594 177.412 198.807 177.04C198.028 176.668 197.405 176.218 196.938 175.69C196.479 175.162 196.172 174.621 196.016 174.067C195.869 173.505 195.795 172.864 195.795 172.146C195.795 171.047 196.115 170.1 196.756 169.303C197.396 168.507 198.179 167.979 199.105 167.72C200.04 167.46 200.988 167.33 201.948 167.33C203.047 167.33 204.003 167.473 204.817 167.759C205.63 168.044 206.357 168.416 206.998 168.875C207.448 169.195 207.551 169.533 207.309 169.888L206.647 170.835C206.448 171.121 206.059 171.06 205.479 170.653C205.038 170.342 204.497 170.052 203.856 169.784C203.225 169.507 202.597 169.368 201.974 169.368C201.178 169.368 200.516 169.463 199.988 169.654C199.46 169.836 199.045 170.147 198.742 170.588C198.439 171.03 198.288 171.54 198.288 172.12C198.288 172.484 198.322 172.821 198.391 173.133C198.461 173.436 198.638 173.747 198.924 174.067C199.209 174.388 199.555 174.634 199.962 174.807C200.507 175.041 201.351 175.318 202.493 175.638C203.644 175.95 204.648 176.335 205.505 176.793C206.301 177.217 206.872 177.663 207.218 178.13C207.573 178.589 207.846 179.091 208.036 179.636C208.235 180.173 208.335 180.778 208.335 181.453C208.335 182.682 208.019 183.708 207.387 184.53C206.755 185.352 206.007 185.923 205.141 186.243C204.276 186.564 203.19 186.724 201.883 186.724C200.317 186.724 199.019 186.542 197.989 186.178C196.959 185.815 196.189 185.4 195.678 184.932Z" fill="#149BB3"/>
<path d="M177.404 186.334C177.015 186.334 176.82 186.139 176.82 185.75V169.55C176.82 169.377 176.864 169.213 176.95 169.057L177.859 167.408C178.023 167.105 178.157 166.954 178.261 166.954H178.716C178.975 166.954 179.105 167.105 179.105 167.408V185.75C179.105 186.139 178.91 186.334 178.521 186.334H177.404Z" fill="#149BB3"/>
<path d="M160.355 182.7C160.355 181.159 161.074 180.03 162.51 179.312C163.955 178.593 166.11 178.174 168.975 178.052V177.17C168.975 176.356 168.789 175.655 168.417 175.067C168.053 174.47 167.326 174.171 166.236 174.171C165.543 174.171 164.99 174.24 164.574 174.379C164.159 174.509 163.778 174.686 163.432 174.911C163.094 175.127 162.77 175.409 162.458 175.755C162.225 176.014 162.004 176.027 161.796 175.794L161.121 175.015C160.931 174.799 160.996 174.539 161.316 174.236C161.775 173.803 162.22 173.479 162.653 173.262C163.086 173.046 163.622 172.864 164.263 172.717C164.912 172.562 165.569 172.484 166.236 172.484C168.044 172.484 169.334 172.951 170.104 173.886C170.874 174.812 171.259 176.084 171.259 177.702V185.75C171.259 186.139 171.065 186.334 170.675 186.334H169.507C169.169 186.334 169.001 186.139 169.001 185.75V185.114H168.975C168.291 185.65 167.62 186.027 166.963 186.243C166.314 186.451 165.587 186.555 164.782 186.555C163.363 186.555 162.268 186.217 161.498 185.542C160.736 184.859 160.355 183.911 160.355 182.7ZM162.718 182.751C162.718 183.288 162.83 183.721 163.055 184.05C163.28 184.37 163.592 184.577 163.99 184.673C164.388 184.759 164.804 184.802 165.236 184.802C165.903 184.802 166.534 184.737 167.131 184.608C167.729 184.478 168.343 184.136 168.975 183.582V179.753C167.227 179.883 165.98 180.043 165.236 180.233C164.492 180.415 163.886 180.735 163.419 181.194C162.952 181.644 162.718 182.163 162.718 182.751Z" fill="#149BB3"/>
<path d="M145.177 186.334C144.787 186.334 144.593 186.139 144.593 185.75V173.288C144.593 172.899 144.787 172.704 145.177 172.704H146.267C146.657 172.704 146.851 172.899 146.851 173.288V174.327H146.903C147.466 173.704 148.072 173.241 148.721 172.938C149.37 172.635 150.179 172.484 151.148 172.484C152.723 172.484 153.852 172.929 154.536 173.821C155.228 174.703 155.575 175.915 155.575 177.455V185.75C155.575 186.139 155.38 186.334 154.99 186.334H153.874C153.485 186.334 153.29 186.139 153.29 185.75V178.078C153.29 176.382 153.009 175.309 152.446 174.859C151.884 174.4 151.17 174.171 150.304 174.171C149.179 174.171 148.327 174.509 147.747 175.184C147.167 175.85 146.877 176.997 146.877 178.624V185.75C146.877 186.139 146.683 186.334 146.293 186.334H145.177Z" fill="#149BB3"/>
<path d="M127.091 179.519C127.091 177.486 127.627 175.807 128.7 174.483C129.782 173.15 131.361 172.484 133.438 172.484C135.515 172.484 137.09 173.15 138.163 174.483C139.245 175.807 139.786 177.486 139.786 179.519C139.786 181.553 139.245 183.236 138.163 184.569C137.09 185.893 135.515 186.555 133.438 186.555C131.361 186.555 129.782 185.893 128.7 184.569C127.627 183.236 127.091 181.553 127.091 179.519ZM129.505 179.519C129.505 181.337 129.864 182.682 130.583 183.556C131.301 184.43 132.253 184.867 133.438 184.867C134.624 184.867 135.576 184.43 136.294 183.556C137.012 182.682 137.372 181.337 137.372 179.519C137.372 177.702 137.012 176.356 136.294 175.482C135.576 174.608 134.624 174.171 133.438 174.171C132.253 174.171 131.301 174.608 130.583 175.482C129.864 176.356 129.505 177.702 129.505 179.519Z" fill="#149BB3"/>
<path d="M120.581 186.334C120.192 186.334 119.997 186.14 119.997 185.75V173.289C119.997 172.899 120.192 172.704 120.581 172.704H121.698C122.087 172.704 122.282 172.899 122.282 173.289V185.75C122.282 186.14 122.087 186.334 121.698 186.334H120.581ZM120.581 170.238C120.192 170.238 119.997 170.043 119.997 169.654V168.538C119.997 168.148 120.192 167.953 120.581 167.953H121.698C122.087 167.953 122.282 168.148 122.282 168.538V169.654C122.282 170.043 122.087 170.238 121.698 170.238H120.581Z" fill="#149BB3"/>
<path d="M107.635 174.418C107.245 174.418 107.051 174.266 107.051 173.964V173.159C107.051 172.856 107.245 172.704 107.635 172.704H109.167V171.536C109.167 171.363 109.21 171.199 109.296 171.043L110.205 169.394C110.37 169.091 110.504 168.94 110.608 168.94H111.062C111.321 168.94 111.451 169.091 111.451 169.394V172.704H114.216C114.606 172.704 114.8 172.856 114.8 173.159V173.964C114.8 174.266 114.606 174.418 114.216 174.418H111.451V182.687C111.451 183.595 111.585 184.188 111.854 184.465C112.131 184.733 112.459 184.867 112.84 184.867C113.134 184.867 113.485 184.781 113.892 184.608C114.307 184.435 114.593 184.288 114.748 184.166C114.904 184.045 115.025 184.084 115.112 184.283L115.54 185.283C115.609 185.456 115.558 185.594 115.384 185.698C115.047 185.897 114.554 186.092 113.905 186.282C113.256 186.464 112.607 186.555 111.958 186.555C111.058 186.555 110.365 186.23 109.881 185.581C109.405 184.932 109.167 184.015 109.167 182.829V174.418H107.635Z" fill="#149BB3"/>
<path d="M91.833 182.7C91.833 181.159 92.5513 180.03 93.9878 179.312C95.433 178.593 97.5878 178.174 100.452 178.052V177.17C100.452 176.356 100.266 175.655 99.8941 175.067C99.5306 174.47 98.8037 174.171 97.7133 174.171C97.021 174.171 96.4671 174.24 96.0518 174.379C95.6364 174.509 95.2556 174.686 94.9095 174.911C94.572 175.127 94.2474 175.409 93.9359 175.755C93.7022 176.014 93.4816 176.027 93.2739 175.794L92.5989 175.015C92.4085 174.799 92.4734 174.539 92.7936 174.236C93.2522 173.803 93.6979 173.479 94.1306 173.262C94.5633 173.046 95.0998 172.864 95.7402 172.717C96.3893 172.562 97.047 172.484 97.7133 172.484C99.522 172.484 100.811 172.951 101.582 173.886C102.352 174.812 102.737 176.084 102.737 177.702V185.75C102.737 186.139 102.542 186.334 102.153 186.334H100.984C100.647 186.334 100.478 186.139 100.478 185.75V185.114H100.452C99.7686 185.65 99.0979 186.027 98.4402 186.243C97.7912 186.451 97.0643 186.555 96.2595 186.555C94.8402 186.555 93.7455 186.217 92.9753 185.542C92.2138 184.859 91.833 183.911 91.833 182.7ZM94.1955 182.751C94.1955 183.288 94.308 183.721 94.533 184.05C94.758 184.37 95.0695 184.577 95.4676 184.673C95.8657 184.759 96.2811 184.802 96.7138 184.802C97.3801 184.802 98.0119 184.737 98.609 184.608C99.2061 184.478 99.8205 184.136 100.452 183.582V179.753C98.7042 179.883 97.458 180.043 96.7138 180.233C95.9695 180.415 95.3638 180.735 94.8965 181.194C94.4292 181.644 94.1955 182.163 94.1955 182.751Z" fill="#149BB3"/>
<path d="M76.6535 186.334C76.264 186.334 76.0693 186.139 76.0693 185.75V173.288C76.0693 172.899 76.264 172.704 76.6535 172.704H77.7439C78.1333 172.704 78.328 172.899 78.328 173.288V174.327H78.3799C78.9424 173.704 79.5482 173.241 80.1972 172.938C80.8463 172.635 81.6554 172.484 82.6246 172.484C84.1996 172.484 85.329 172.929 86.0126 173.821C86.7049 174.703 87.0511 175.915 87.0511 177.455V185.75C87.0511 186.139 86.8564 186.334 86.4669 186.334H85.3506C84.9612 186.334 84.7665 186.139 84.7665 185.75V178.078C84.7665 176.382 84.4852 175.309 83.9227 174.859C83.3602 174.4 82.6463 174.171 81.7809 174.171C80.6559 174.171 79.8035 174.509 79.2237 175.184C78.6439 175.85 78.354 176.997 78.354 178.624V185.75C78.354 186.139 78.1592 186.334 77.7698 186.334H76.6535Z" fill="#149BB3"/>
<path d="M65.421 186.334C65.0316 186.334 64.8369 186.139 64.8369 185.75V173.288C64.8369 172.899 65.0316 172.704 65.421 172.704H66.5114C66.9009 172.704 67.0956 172.899 67.0956 173.288V174.846H67.1475C67.5629 174.067 68.0518 173.479 68.6143 173.081C69.1768 172.683 69.8778 172.484 70.7172 172.484C71.2711 172.484 71.6605 172.531 71.8855 172.626C72.0845 172.704 72.1581 172.834 72.1061 173.016L71.8076 174.08C71.7643 174.236 71.6518 174.297 71.4701 174.262C71.1672 174.201 70.8816 174.171 70.6134 174.171C69.6009 174.171 68.7658 174.63 68.1081 175.547C67.4504 176.456 67.1215 177.698 67.1215 179.273V185.75C67.1215 186.139 66.9268 186.334 66.5374 186.334H65.421Z" fill="#149BB3"/>
<path d="M47.9834 179.519C47.9834 177.373 48.5199 175.664 49.593 174.392C50.6661 173.12 52.2022 172.484 54.2012 172.484C55.8627 172.484 57.2387 173.068 58.3291 174.236C59.4281 175.396 59.9776 177.252 59.9776 179.805C59.9776 180.194 59.8002 180.389 59.4454 180.389H50.3978C50.5449 182.059 50.9949 183.223 51.7478 183.881C52.5007 184.53 53.3531 184.854 54.305 184.854C55.3089 184.854 56.0791 184.686 56.6156 184.348C57.1522 184.011 57.5459 183.677 57.7969 183.349C58.0738 182.985 58.3421 182.916 58.6017 183.141L59.3675 183.803C59.5666 183.976 59.5666 184.214 59.3675 184.517C59.2031 184.768 58.7315 185.17 57.9526 185.724C57.1824 186.278 55.9666 186.555 54.305 186.555C52.1416 186.555 50.5449 185.919 49.5151 184.647C48.494 183.375 47.9834 181.665 47.9834 179.519ZM50.3459 178.701H57.68C57.6454 177.49 57.3339 176.43 56.7454 175.521C56.157 174.604 55.2916 174.145 54.1493 174.145C53.1454 174.145 52.293 174.483 51.5921 175.158C50.8911 175.824 50.4757 177.005 50.3459 178.701Z" fill="#149BB3"/>
<path d="M36.3605 174.418C35.9711 174.418 35.7764 174.266 35.7764 173.964V173.159C35.7764 172.856 35.9711 172.704 36.3605 172.704H37.8922V171.536C37.8922 171.363 37.9355 171.199 38.022 171.043L38.9307 169.394C39.0951 169.091 39.2293 168.94 39.3331 168.94H39.7874C40.047 168.94 40.1768 169.091 40.1768 169.394V172.704H42.9418C43.3312 172.704 43.5259 172.856 43.5259 173.159V173.964C43.5259 174.266 43.3312 174.418 42.9418 174.418H40.1768V182.687C40.1768 183.595 40.311 184.188 40.5793 184.465C40.8562 184.733 41.185 184.867 41.5658 184.867C41.86 184.867 42.2105 184.781 42.6172 184.608C43.0326 184.435 43.3182 184.288 43.474 184.166C43.6297 184.045 43.7509 184.084 43.8374 184.283L44.2658 185.283C44.335 185.456 44.2831 185.594 44.11 185.698C43.7725 185.897 43.2793 186.092 42.6302 186.282C41.9812 186.464 41.3321 186.555 40.6831 186.555C39.7831 186.555 39.0908 186.23 38.6062 185.581C38.1302 184.932 37.8922 184.015 37.8922 182.829V174.418H36.3605Z" fill="#149BB3"/>
<path d="M21.1037 186.334C20.7142 186.334 20.5195 186.139 20.5195 185.75V173.288C20.5195 172.899 20.7142 172.704 21.1037 172.704H22.1941C22.5835 172.704 22.7782 172.899 22.7782 173.288V174.327H22.8301C23.3926 173.704 23.9984 173.241 24.6474 172.938C25.2965 172.635 26.1056 172.484 27.0748 172.484C28.6498 172.484 29.7791 172.929 30.4628 173.821C31.1551 174.703 31.5013 175.915 31.5013 177.455V185.75C31.5013 186.139 31.3066 186.334 30.9171 186.334H29.8008C29.4114 186.334 29.2166 186.139 29.2166 185.75V178.078C29.2166 176.382 28.9354 175.309 28.3729 174.859C27.8104 174.4 27.0965 174.171 26.2311 174.171C25.1061 174.171 24.2537 174.509 23.6739 175.184C23.0941 175.85 22.8041 176.997 22.8041 178.624V185.75C22.8041 186.139 22.6094 186.334 22.22 186.334H21.1037Z" fill="#149BB3"/>
<path d="M12.7652 186.334C12.3326 186.334 12.1162 186.096 12.1162 185.62V168.434C12.1162 167.958 12.3326 167.72 12.7652 167.72H13.9595C14.3922 167.72 14.6085 167.958 14.6085 168.434V185.62C14.6085 186.096 14.3922 186.334 13.9595 186.334H12.7652Z" fill="#149BB3"/>
</svg>
