<svg width="1363" height="163" viewBox="0 0 1363 163" fill="none" xmlns="http://www.w3.org/2000/svg">
<path d="M58.3694 126.028C50.1688 126.028 42.4505 124.701 35.3352 122.168C28.2199 119.636 21.9488 115.897 16.7631 111.194C11.5774 106.37 7.35648 100.46 4.46213 93.7067C1.56777 86.8325 0 79.1141 0 70.5514C0 61.9888 1.44718 54.0291 4.34153 47.2755C7.23588 40.4013 11.3362 34.4918 16.6425 29.7884C21.8282 25.085 28.0993 21.3464 35.2146 18.8138C42.3299 16.2811 50.0482 15.0751 58.3694 15.0751C66.6907 15.0751 74.409 16.4017 81.5243 18.8138C88.6395 21.3464 94.9106 24.9644 100.096 29.7884C105.282 34.4918 109.382 40.4013 112.397 47.2755C115.292 54.1497 116.739 61.9888 116.739 70.5514C116.739 79.1141 115.292 86.8325 112.277 93.7067C109.382 100.581 105.161 106.49 99.9758 111.194C94.79 116.018 88.5189 119.636 81.4037 122.168C74.2884 124.701 66.5701 126.028 58.3694 126.028ZM58.3694 31.8386C54.8721 31.8386 51.7366 32.321 49.204 33.4064C46.6714 34.4918 44.3801 35.8184 42.6917 37.6274C40.8827 39.4365 39.4356 41.4867 38.2296 43.8987C37.0236 46.4313 36.0588 49.2051 35.3352 51.9789C34.6116 54.8733 34.1292 57.8884 33.888 61.1446C33.6468 64.4008 33.5262 67.5364 33.5262 70.5514C33.5262 73.5664 33.6468 76.7021 33.888 79.8377C34.1292 82.9733 34.6116 85.9883 35.3352 88.8827C36.0588 91.7771 37.0236 94.4303 38.2296 96.963C39.4356 99.375 40.8827 101.546 42.6917 103.355C44.5007 105.164 46.6714 106.611 49.204 107.576C51.7366 108.661 54.7515 109.144 58.2488 109.144C61.7462 109.144 64.5199 108.661 67.0525 107.576C69.5851 106.49 71.7558 105.043 73.5648 103.234C75.3738 101.425 76.9415 99.1338 78.1475 96.7217C79.3535 94.1891 80.4389 91.4153 81.1625 88.5209C81.886 85.6265 82.489 82.6115 82.7302 79.4759C83.092 76.3402 83.2126 73.3252 83.2126 70.4308C83.2126 67.5364 83.092 64.2802 82.8508 61.1446C82.6096 58.009 82.1272 54.9939 81.4037 52.0995C80.6801 49.2051 79.7153 46.4313 78.5093 43.8987C77.3033 41.4867 75.8562 39.3159 74.0472 37.5068C72.2382 35.6978 70.0675 34.3712 67.5349 33.2858C65.0023 32.2004 61.9874 31.718 58.49 31.718L58.3694 31.8386Z" fill="url(#paint0_linear_3136_36)"/>
<path d="M114.32 70.5516C114.32 78.7525 112.873 86.1091 110.099 92.7421C107.326 99.3752 103.346 104.923 98.4014 109.506C93.4569 114.088 87.5476 117.586 80.6735 119.998C73.7994 122.41 66.4429 123.616 58.4834 123.616C50.5239 123.616 43.1675 122.41 36.2934 119.998C29.4193 117.586 23.51 114.088 18.5654 109.506C13.6209 104.923 9.64118 99.3752 6.86742 92.7421C4.09366 86.1091 2.64648 78.7525 2.64648 70.5516C2.64648 62.3508 4.09366 54.7529 6.86742 48.2405C9.64118 41.7281 13.5003 36.0598 18.5654 31.5976C23.6306 27.1354 29.4193 23.5173 36.2934 21.1053C43.1675 18.6933 50.5239 17.4873 58.604 17.4873C66.6841 17.4873 74.1612 18.6933 80.9147 21.1053C87.6682 23.5173 93.6981 27.0148 98.6426 31.5976C103.587 36.1804 107.446 41.7281 110.341 48.2405C113.235 54.7529 114.562 62.2302 114.562 70.5516H114.32ZM85.7386 70.5516C85.7386 67.416 85.618 64.2804 85.2562 61.0242C84.8944 57.768 84.412 54.6323 83.6884 51.4967C82.9648 48.3611 81.8794 45.5873 80.6735 42.9341C79.4675 40.2808 77.6585 37.8688 75.729 35.9392C73.7994 34.0096 71.2668 32.3212 68.3725 31.2358C65.4781 30.1504 62.222 29.5474 58.3628 29.5474C54.5037 29.5474 51.1269 30.1504 48.2326 31.2358C45.3382 32.3212 42.9263 34.0096 40.8761 35.9392C38.8259 37.8688 37.2581 40.2808 35.9316 42.9341C34.605 45.5873 33.6402 48.4817 32.9166 51.4967C32.193 54.5117 31.7106 57.6474 31.3488 61.0242C30.987 64.401 30.8664 67.5366 30.8664 70.6722C30.8664 73.8078 30.987 76.9435 31.3488 80.1997C31.7106 83.4559 32.193 86.5915 32.9166 89.6065C33.6402 92.6215 34.7256 95.516 35.9316 98.1692C37.1375 100.822 38.9465 103.234 40.8761 105.164C42.8057 107.094 45.3382 108.782 48.2326 109.988C51.1269 111.194 54.3831 111.797 58.2422 111.797C62.1014 111.797 65.2369 111.194 68.0107 109.988C70.7844 108.782 73.1964 107.214 75.2466 105.164C77.2967 103.114 78.9851 100.702 80.3117 98.0486C81.6383 95.3954 82.7236 92.501 83.4472 89.4859C84.1708 86.4709 84.7738 83.3353 85.1356 80.0791C85.4974 76.8229 85.618 73.8078 85.618 70.7928L85.7386 70.5516Z" fill="url(#paint1_linear_3136_36)"/>
<path d="M158.829 125.907C152.92 125.907 147.613 124.942 143.151 122.892C138.689 120.962 134.83 118.188 131.815 114.57C128.8 111.073 126.629 106.852 125.061 102.028C123.614 97.3245 122.891 92.1387 122.891 86.4705C122.891 82.6113 123.252 78.6314 123.855 74.531C124.458 70.4306 125.423 66.3302 126.629 62.2298C127.835 58.1293 129.282 54.1495 131.091 50.0491C132.78 46.0693 134.83 42.21 137.001 38.592L137.724 37.386H159.914L158.829 40.5216C157.623 44.019 156.658 47.6371 155.693 51.3757C154.849 55.1143 154.005 58.9735 153.402 62.7122C152.799 66.4508 152.317 70.1894 151.955 73.8074C151.593 77.4254 151.472 80.6817 151.472 83.8173C151.472 85.6263 151.472 87.5559 151.714 89.4855C151.834 91.5357 152.196 93.4653 152.558 95.5155C152.92 97.4452 153.523 99.3748 154.246 101.184C154.97 102.872 155.814 104.44 156.899 105.646C157.864 106.852 159.07 107.817 160.638 108.54C162.085 109.264 163.773 109.626 165.824 109.626C167.874 109.626 169.441 109.264 171.009 108.299C172.577 107.334 174.024 106.128 175.23 104.681C176.436 103.113 177.642 101.304 178.486 99.3748C179.451 97.3246 180.175 95.1537 180.778 92.8623C181.381 90.6915 181.863 88.4001 182.104 86.3499C182.345 84.1791 182.587 82.3701 182.587 80.6816V37.386H211.289V123.857H198.264L188.858 107.576C187.893 109.385 186.808 110.952 185.602 112.52C183.551 115.294 181.139 117.585 178.486 119.636C175.833 121.565 172.818 123.133 169.441 124.218C166.185 125.304 162.567 125.786 158.829 125.786V125.907Z" fill="url(#paint2_linear_3136_36)"/>
<path d="M125.308 86.712C125.308 82.9734 125.669 79.1142 126.272 75.1343C126.875 71.1545 127.84 67.1747 129.046 63.0743C130.252 58.9738 131.699 55.1146 133.388 51.2554C135.076 47.3962 137.006 43.6575 139.056 40.0395H156.543C155.337 43.5369 154.372 47.2756 153.407 51.1348C152.442 54.994 151.719 58.8532 151.116 62.7124C150.513 66.5717 150.03 70.3103 149.668 73.9283C149.307 77.5463 149.186 81.0438 149.186 84.1794C149.186 85.9884 149.186 88.0386 149.427 90.0888C149.668 92.139 149.91 94.3098 150.271 96.3601C150.633 98.4103 151.236 100.46 152.08 102.39C152.925 104.32 153.889 106.008 155.095 107.455C156.301 108.903 157.869 110.109 159.557 110.953C161.246 111.797 163.417 112.279 165.829 112.279C168.241 112.279 170.291 111.797 172.1 110.712C173.909 109.626 175.597 108.3 177.044 106.491C178.491 104.682 179.697 102.752 180.662 100.581C181.627 98.4102 182.471 96.1188 183.074 93.7068C183.677 91.2948 184.159 89.124 184.521 86.8326C184.883 84.5412 185.004 82.6116 185.004 80.8026V39.9189H208.882V121.566H199.717L188.742 102.511C187.416 105.646 185.727 108.541 183.798 111.073C181.868 113.606 179.577 115.897 177.165 117.706C174.753 119.515 171.858 120.963 168.843 121.927C165.829 122.892 162.572 123.375 158.954 123.375C153.286 123.375 148.342 122.41 144.241 120.601C140.141 118.792 136.523 116.259 133.749 113.003C130.976 109.747 128.926 105.888 127.478 101.425C126.031 96.9631 125.428 92.0184 125.428 86.5914L125.308 86.712Z" fill="url(#paint3_linear_3136_36)"/>
<path d="M226.237 123.977V37.5067H239.261L247.341 53.5466C248.186 51.9788 249.03 50.5315 249.874 49.2049C251.683 46.4311 253.854 44.0191 256.145 42.0895C258.557 40.0393 261.331 38.4715 264.346 37.3861C267.361 36.3007 270.858 35.6977 274.717 35.6977C276.647 35.6977 278.818 35.8183 281.229 36.1801C283.641 36.5419 286.053 37.0243 288.345 37.8685C290.636 38.7127 292.928 39.6775 294.857 41.0041C297.028 42.3307 298.716 44.1397 299.922 46.0693L300.646 47.2753L283.641 75.4959L282.074 70.3101C281.471 68.5011 280.868 66.4508 279.903 64.1594C279.059 61.9886 277.973 59.9384 276.767 58.0088C275.561 56.1998 274.235 54.632 272.546 53.426C271.099 52.3406 269.531 51.8582 267.602 51.8582C265.914 51.8582 264.466 52.22 263.26 53.0642C261.934 54.029 260.728 55.235 259.763 56.8028C258.798 58.4912 257.833 60.3002 257.23 62.3504C256.507 64.5212 256.025 66.692 255.663 68.9835C255.301 71.2749 255.06 73.3251 254.939 75.4959C254.819 77.5461 254.698 79.3551 254.698 80.9229V124.219H225.875L226.237 123.977Z" fill="url(#paint4_linear_3136_36)"/>
<path d="M297.996 47.1546L284.609 69.4658C284.006 67.5361 283.283 65.486 282.439 63.0739C281.594 60.6619 280.388 58.4911 279.062 56.4409C277.735 54.3907 276.167 52.7023 274.359 51.2551C272.55 49.8078 270.379 49.2048 267.967 49.2048C265.796 49.2048 263.866 49.8079 262.178 50.8933C260.49 51.9787 259.163 53.5465 258.078 55.3555C256.992 57.1645 256.028 59.2147 255.304 61.5061C254.58 63.7975 253.977 66.089 253.616 68.3804C253.254 70.6718 252.892 72.9632 252.771 75.134C252.651 77.3048 252.53 79.1138 252.53 80.6816V121.565H228.531V39.9186H237.697L247.345 58.9735C248.671 55.9585 250.118 53.0641 251.927 50.5315C253.736 47.9988 255.545 45.7074 257.837 43.8984C260.128 42.0894 262.54 40.6422 265.314 39.5568C268.087 38.4714 271.344 37.989 274.841 37.989C276.65 37.989 278.7 38.1096 280.991 38.4714C283.283 38.8332 285.454 39.3156 287.624 40.0392C289.795 40.7628 291.845 41.7276 293.654 42.9336C295.463 44.1396 296.91 45.5868 297.996 47.2752V47.1546Z" fill="url(#paint5_linear_3136_36)"/>
<path d="M348.173 123.978V17.3667H405.578C410.522 17.3667 415.346 18.0903 419.929 19.4169C424.512 20.7435 428.733 22.7938 432.23 25.5676C435.848 28.3414 438.742 31.8388 440.913 36.0598C443.084 40.2809 444.169 45.2255 444.169 50.8937C444.169 54.3911 443.687 57.768 442.602 60.9036C441.637 64.0392 440.19 66.9336 438.381 69.4662C436.572 71.9988 434.522 74.4108 432.11 76.4611C429.698 78.5113 427.044 80.3203 424.15 81.6469C421.256 83.0941 418.241 84.1795 415.105 84.9031C411.97 85.6267 408.714 85.9885 405.457 85.9885H380.976V123.978H348.053H348.173ZM393.398 71.5164C396.654 71.5164 399.307 71.034 401.598 70.0692C403.769 69.1044 405.457 67.7778 406.905 65.9688C408.352 64.1598 409.317 61.989 410.04 59.4564C410.764 56.9237 411.126 54.0293 411.126 50.8937C411.126 44.9843 409.678 40.2809 406.784 37.0246C403.89 33.7684 399.548 32.2006 393.518 32.2006H381.217V71.5164H393.518H393.398Z" fill="url(#paint6_linear_3136_36)"/>
<path d="M378.555 121.566H350.456V19.7787H405.449C410.152 19.7787 414.735 20.3817 419.076 21.7083C423.418 23.0349 427.277 24.8439 430.654 27.4971C434.031 30.1503 436.684 33.286 438.734 37.1452C440.784 41.0044 441.749 45.5872 441.749 50.773C441.749 54.0293 441.266 57.1649 440.302 60.0593C439.337 62.9537 438.01 65.6069 436.322 68.0189C434.633 70.431 432.704 72.6017 430.413 74.5314C428.121 76.461 425.709 78.0288 422.936 79.3554C420.162 80.682 417.388 81.6468 414.373 82.3704C411.358 83.094 408.343 83.4558 405.328 83.4558H378.435V121.445L378.555 121.566ZM413.408 50.8936C413.408 44.3812 411.72 39.1954 408.464 35.4568C405.208 31.7182 400.142 29.7885 393.389 29.7885H378.676V73.9284H393.389C397.007 73.9284 400.022 73.3254 402.554 72.24C405.087 71.1546 407.137 69.4661 408.705 67.4159C410.273 65.3657 411.479 62.9537 412.202 60.0593C412.926 57.1649 413.288 54.1499 413.288 50.8936H413.408Z" fill="url(#paint7_linear_3136_36)"/>
<path d="M498.075 135.073L499.281 132.902C500.487 130.61 501.693 128.078 502.778 125.304C503.864 122.41 504.828 119.395 505.793 116.259C506.637 113.003 507.482 109.747 508.205 106.249C508.929 102.752 509.532 99.3749 510.014 95.9981C510.496 92.6212 510.858 89.365 511.099 86.2294C511.341 83.0938 511.461 80.0788 511.461 77.4256C511.461 75.6166 511.461 73.6869 511.22 71.6367C511.099 69.7071 510.858 67.6569 510.376 65.7273C510.014 63.7977 509.411 61.8681 508.687 60.0591C508.084 58.3707 507.12 56.9234 506.155 55.7174C505.07 54.5114 503.864 53.5466 502.416 52.823C500.969 52.0994 499.281 51.7376 497.231 51.7376C495.181 51.7376 493.613 52.0994 492.166 52.9436C490.598 53.9084 489.151 55.1144 487.945 56.5616C486.618 58.1294 485.533 59.9385 484.688 61.9887C483.724 64.0389 483 66.2097 482.397 68.5011C481.794 70.6719 481.312 72.8427 481.071 75.0135C480.829 77.1844 480.709 79.114 480.709 80.8024V124.098H451.886V7.59778H480.588V45.3458C482.879 43.0544 485.412 41.1248 488.306 39.5569C493.13 36.9037 498.437 35.5771 504.225 35.5771C510.014 35.5771 515.441 36.5419 519.903 38.5921C524.365 40.5218 528.224 43.4162 531.239 46.9136C534.254 50.411 536.425 54.632 537.872 59.4561C539.319 64.1595 540.043 69.3453 540.043 74.8929C540.043 80.4406 539.319 86.5912 537.993 92.6212C536.666 98.6513 534.737 104.802 532.204 110.591C529.792 116.5 526.777 122.048 523.4 127.234C519.903 132.419 516.165 137.002 511.944 140.741L510.617 141.947L498.075 135.073Z" fill="url(#paint8_linear_3136_36)"/>
<path d="M537.627 74.7723C537.627 80.3199 536.904 85.9881 535.577 92.0182C534.25 98.0482 532.321 103.837 529.909 109.626C527.497 115.415 524.603 120.721 521.346 125.786C518.09 130.852 514.352 135.193 510.372 138.932L501.448 134.108C502.774 131.696 503.98 129.163 505.066 126.148C506.151 123.133 507.236 120.118 508.081 116.862C508.925 113.606 509.769 110.229 510.613 106.731C511.457 103.234 511.94 99.7366 512.422 96.3598C512.905 92.983 513.266 89.6062 513.508 86.35C513.749 83.0937 513.869 80.0787 513.869 77.3049C513.869 75.4959 513.869 73.4457 513.628 71.3955C513.387 69.3453 513.146 67.1744 512.784 65.1242C512.422 63.074 511.699 61.0238 510.975 59.0942C510.251 57.1646 509.166 55.4762 507.96 54.029C506.754 52.5817 505.186 51.3757 503.377 50.5315C501.568 49.6873 499.518 49.2049 497.106 49.2049C494.694 49.2049 492.644 49.6873 490.835 50.7727C489.026 51.8581 487.338 53.1847 486.011 54.9938C484.685 56.8028 483.358 58.7324 482.393 60.9032C481.429 63.074 480.584 65.3654 479.861 67.7774C479.137 70.1894 478.775 72.3603 478.534 74.6517C478.293 76.9431 478.052 78.9933 478.052 80.6817V121.565H454.053V9.88907H477.931V51.9787C480.946 47.5165 484.805 44.0191 489.147 41.6071C493.488 39.1951 498.553 37.9891 503.98 37.9891C509.407 37.9891 514.593 38.9539 518.693 40.7629C522.914 42.5719 526.412 45.1045 529.185 48.4813C531.959 51.8581 534.009 55.5968 535.456 60.1796C536.904 64.7624 537.507 69.5864 537.507 74.8929L537.627 74.7723Z" fill="url(#paint9_linear_3136_36)"/>
<path d="M551.007 123.978V37.6276H579.83V123.978H551.007ZM565.358 35.6979C563.187 35.6979 561.258 35.3361 559.328 34.4919C557.519 33.6477 555.831 32.5623 554.504 31.2357C553.057 29.7885 551.972 28.2207 551.248 26.2911C550.404 24.3615 550.042 22.3113 550.042 20.2611C550.042 18.2108 550.404 16.1606 551.248 14.231C552.092 12.422 553.178 10.7336 554.504 9.40699C555.951 8.08038 557.519 6.87438 559.328 6.15077C561.258 5.30657 563.187 4.94476 565.358 4.94476C567.529 4.94476 569.458 5.30657 571.388 6.15077C573.317 6.99498 574.885 8.08038 576.332 9.40699C577.659 10.8542 578.865 12.422 579.589 14.231C580.433 16.1606 580.795 18.0902 580.795 20.2611C580.795 22.4319 580.433 24.3615 579.589 26.2911C578.744 28.2207 577.659 29.7885 576.332 31.2357C574.885 32.6829 573.317 33.7683 571.388 34.4919C569.458 35.3361 567.408 35.6979 565.358 35.6979Z" fill="url(#paint10_linear_3136_36)"/>
<path d="M578.387 20.2611C578.387 22.0702 578.025 23.7586 577.422 25.3264C576.819 26.8942 575.854 28.3414 574.648 29.5474C573.442 30.7534 572.116 31.5976 570.427 32.3212C568.859 33.0448 567.171 33.286 565.362 33.286C563.553 33.286 561.865 32.9242 560.297 32.3212C558.729 31.7182 557.282 30.7534 556.197 29.5474C555.111 28.3414 554.146 27.0148 553.423 25.3264C552.699 23.638 552.458 22.0702 552.458 20.2611C552.458 18.4521 552.82 16.7637 553.423 15.1959C554.026 13.6281 554.991 12.1809 556.197 11.0955C557.403 10.0101 558.729 9.04529 560.297 8.32169C561.865 7.59808 563.553 7.35687 565.362 7.35687C567.171 7.35687 568.859 7.71869 570.427 8.32169C571.995 9.04529 573.442 9.88949 574.648 11.0955C575.854 12.3015 576.698 13.6281 577.422 15.1959C578.145 16.7637 578.387 18.4521 578.387 20.2611ZM577.422 121.566H553.423V40.0396H577.422V121.566Z" fill="url(#paint11_linear_3136_36)"/>
<path d="M594.914 123.978V0H607.939L623.737 26.5322V123.978H594.914Z" fill="url(#paint12_linear_3136_36)"/>
<path d="M621.206 121.566H597.327V2.41217H606.493L621.206 27.2559V121.686V121.566Z" fill="url(#paint13_linear_3136_36)"/>
<path d="M676.193 125.666C669.68 125.666 663.771 124.46 658.465 122.168C653.279 119.877 648.817 116.621 645.199 112.52C641.581 108.42 638.807 103.596 636.998 98.1688C635.069 92.7418 634.225 86.8323 634.225 80.6817C634.225 74.5311 635.189 68.6217 636.998 63.1946C638.928 57.7676 641.702 52.9436 645.199 48.8431C648.817 44.7427 653.279 41.4865 658.465 39.1951C663.651 36.9037 669.56 35.6977 676.193 35.6977C679.569 35.6977 682.826 36.1801 685.961 37.2655C688.976 38.2303 691.87 39.7981 694.403 41.6071C696.936 43.4161 699.227 45.7075 701.157 48.3607C702.121 49.6873 703.086 51.1345 703.81 52.5818L712.734 37.7479H725.758V124.219H697.056V118.309C695.006 120.118 692.715 121.686 690.303 122.771C686.082 124.822 681.258 125.786 676.193 125.786V125.666ZM679.931 51.8582C677.64 51.8582 675.59 52.22 674.022 53.0642C672.334 53.9084 670.886 54.9938 669.68 56.3204C668.474 57.7676 667.389 59.456 666.545 61.265C665.701 63.1946 664.977 65.3654 664.495 67.5362C664.012 69.707 663.651 71.9985 663.409 74.1693C663.168 76.4607 663.048 78.5109 663.048 80.5611C663.048 82.6113 663.048 84.6615 663.409 86.953C663.651 89.2444 664.012 91.4152 664.495 93.586C664.977 95.7568 665.701 97.807 666.545 99.8572C667.389 101.787 668.354 103.475 669.68 104.802C670.886 106.128 672.334 107.334 674.022 108.058C675.71 108.902 677.64 109.264 679.931 109.264C681.981 109.264 683.79 108.902 685.358 108.058C686.926 107.214 688.373 106.008 689.7 104.561C691.026 102.993 692.112 101.304 692.956 99.3748C693.921 97.3246 694.644 95.2744 695.247 93.1036C695.85 90.9328 696.212 88.762 696.574 86.5911C696.815 84.4203 696.936 82.3701 696.936 80.6817C696.936 78.6315 696.936 76.4607 696.574 74.1693C696.333 71.8779 695.971 69.707 695.488 67.5362C695.006 65.3654 694.282 63.3152 693.438 61.3856C692.594 59.5766 691.629 57.8882 690.303 56.441C689.097 55.1144 687.65 54.029 685.841 53.1848C684.152 52.4612 682.102 51.9788 679.811 51.9788L679.931 51.8582Z" fill="url(#paint14_linear_3136_36)"/>
<path d="M723.35 121.565H699.471V111.797C696.697 115.656 693.2 118.55 689.22 120.359C685.241 122.168 680.899 123.133 676.075 123.133C669.804 123.133 664.257 122.048 659.433 119.756C654.609 117.465 650.388 114.57 647.011 110.711C643.634 106.852 640.981 102.39 639.293 97.2039C637.604 92.0181 636.64 86.4705 636.64 80.561C636.64 74.6516 637.484 69.104 639.293 63.9181C641.102 58.7323 643.634 54.2701 647.011 50.4109C650.388 46.5516 654.488 43.5366 659.433 41.3658C664.377 39.195 669.925 37.989 676.075 37.989C679.211 37.989 682.226 38.4714 685.12 39.4362C688.014 40.401 690.547 41.7276 692.959 43.416C695.371 45.1044 697.421 47.1546 699.23 49.6872C701.039 52.2199 702.486 54.7525 703.451 57.7675L714.064 40.0392H723.229V121.686L723.35 121.565ZM699.351 80.561C699.351 78.3902 699.351 76.2194 698.989 73.8074C698.627 71.3954 698.386 69.104 697.903 66.8126C697.421 64.5211 696.697 62.3503 695.733 60.1795C694.768 58.0087 693.683 56.1997 692.235 54.6319C690.788 53.0641 689.1 51.7375 687.05 50.7727C684.999 49.8078 682.708 49.3254 679.934 49.3254C677.161 49.3254 674.869 49.8078 672.94 50.7727C671.01 51.7375 669.322 53.0641 667.875 54.6319C666.427 56.1997 665.342 58.1293 664.377 60.3001C663.412 62.4709 662.689 64.6417 662.206 66.9332C661.724 69.2246 661.362 71.516 661.121 73.928C660.88 76.34 660.759 78.5108 660.759 80.561C660.759 82.6112 660.759 84.9027 661.121 87.1941C661.483 89.4855 661.724 91.8975 662.206 94.1889C662.689 96.4803 663.412 98.7717 664.377 100.822C665.342 102.872 666.427 104.802 667.875 106.49C669.322 108.179 671.01 109.385 672.94 110.349C674.869 111.314 677.281 111.797 679.934 111.797C682.346 111.797 684.517 111.314 686.447 110.229C688.376 109.143 690.065 107.817 691.512 106.128C692.959 104.44 694.165 102.51 695.13 100.34C696.094 98.1688 696.939 95.8773 697.542 93.5859C698.145 91.2945 698.627 89.0031 698.868 86.7117C699.109 84.4203 699.351 82.3701 699.351 80.4405V80.561Z" fill="url(#paint15_linear_3136_36)"/>
<path d="M787.263 135.073L788.469 132.902C789.675 130.61 790.881 128.078 791.967 125.304C793.052 122.41 794.017 119.394 794.982 116.259C795.826 113.003 796.67 109.746 797.394 106.249C798.117 102.752 798.72 99.3748 799.203 95.998C799.685 92.6212 800.047 89.3649 800.288 86.2293C800.529 83.0937 800.65 80.0787 800.65 77.4255C800.65 75.6165 800.65 73.6869 800.408 71.6366C800.288 69.707 800.047 67.6568 799.564 65.7272C799.203 63.7976 798.6 61.868 797.876 60.059C797.273 58.3706 796.308 56.9234 795.343 55.7174C794.258 54.5114 793.052 53.5466 791.605 52.823C790.158 52.0993 788.469 51.7375 786.419 51.7375C784.369 51.7375 782.801 52.0993 781.354 52.9436C779.786 53.9084 778.339 55.1144 777.133 56.5616C775.806 58.1294 774.721 59.9384 773.877 61.9886C772.912 64.0388 772.189 66.2096 771.586 68.501C770.983 70.6718 770.5 72.8427 770.259 75.0135C770.018 77.1843 769.897 79.1139 769.897 80.8023V124.098H741.074V37.6273H754.099L763.505 53.9084C764.47 52.2199 765.556 50.5315 766.762 48.9637C768.812 46.1899 771.344 43.7779 773.997 41.8483C776.651 39.9187 779.666 38.3509 783.042 37.2655C786.298 36.1801 789.916 35.6977 793.655 35.6977C799.564 35.6977 804.871 36.6625 809.333 38.7127C813.795 40.6423 817.654 43.5367 820.669 47.0341C823.684 50.5315 825.855 54.7526 827.302 59.5766C828.749 64.28 829.473 69.4658 829.473 75.0135C829.473 80.5611 828.749 86.7117 827.422 92.7417C826.096 98.7718 824.166 104.922 821.634 110.711C819.222 116.621 816.207 122.168 812.83 127.354C809.333 132.54 805.594 137.123 801.373 140.861L800.047 142.067L787.504 135.193L787.263 135.073Z" fill="url(#paint16_linear_3136_36)"/>
<path d="M826.697 74.7722C826.697 80.3198 825.974 85.988 824.647 92.018C823.321 98.0481 821.391 103.837 818.979 109.626C816.567 115.415 813.673 120.721 810.417 125.786C807.161 130.851 803.422 135.193 799.442 138.932L790.518 134.108C791.845 131.696 793.051 129.163 794.136 126.148C795.221 123.133 796.307 120.118 797.151 116.862C797.995 113.606 798.839 110.229 799.684 106.731C800.528 103.234 801.01 99.7365 801.492 96.3597C801.975 92.9829 802.337 89.606 802.578 86.3498C802.819 83.0936 802.94 80.0786 802.94 77.3048C802.94 75.4958 802.94 73.4456 802.698 71.3954C802.457 69.3451 802.216 67.1743 801.854 65.1241C801.493 63.0739 800.769 61.0237 800.045 59.0941C799.322 57.1645 798.236 55.4761 797.03 54.0289C795.824 52.5816 794.257 51.3756 792.448 50.5314C790.639 49.6872 788.588 49.2048 786.177 49.2048C783.765 49.2048 781.714 49.6872 779.905 50.7726C778.097 51.858 776.408 53.1846 775.082 54.9937C773.755 56.8027 772.428 58.7323 771.464 60.9031C770.499 63.0739 769.655 65.3653 768.931 67.7773C768.207 70.1893 767.846 72.3601 767.604 74.6516C767.363 76.943 767.122 78.9932 767.122 80.6816V121.565H743.123V39.9186H752.288L763.263 58.9735C764.589 55.8379 766.278 52.9434 768.207 50.4108C770.137 47.8782 772.428 45.5868 774.961 43.7778C777.493 41.9688 780.267 40.5216 783.282 39.5568C786.297 38.592 789.553 38.1096 793.171 38.1096C798.839 38.1096 803.784 39.0744 807.884 40.8834C811.985 42.6924 815.602 45.225 818.376 48.6018C821.15 51.9786 823.2 55.7173 824.647 60.3001C826.094 64.8829 826.697 69.7069 826.697 75.0134V74.7722Z" fill="url(#paint17_linear_3136_36)"/>
<path d="M846.002 123.977V51.8581H831.169V37.5066H846.002V7.47699H874.825V37.5066H899.548V51.8581H874.825V123.977H846.002Z" fill="url(#paint18_linear_3136_36)"/>
<path d="M872.398 121.565H848.399V49.4461H833.565V39.9186H848.399V9.88907H872.398V39.9186H897.121V49.4461H872.398V121.565Z" fill="url(#paint19_linear_3136_36)"/>
<path d="M952.129 135.073L953.335 132.902C954.541 130.61 955.746 128.078 956.832 125.304C957.917 122.41 958.882 119.395 959.847 116.259C960.691 113.003 961.535 109.747 962.259 106.249C962.982 102.752 963.585 99.3749 964.068 95.9981C964.55 92.6212 964.912 89.365 965.153 86.2294C965.394 83.0938 965.515 80.0788 965.515 77.4256C965.515 75.6166 965.515 73.6869 965.274 71.6367C965.153 69.7071 964.912 67.6569 964.43 65.7273C964.068 63.7977 963.465 61.8681 962.741 60.0591C962.138 58.3707 961.173 56.9234 960.209 55.7174C959.123 54.5114 957.917 53.5466 956.47 52.823C955.023 52.0994 953.335 51.7376 951.284 51.7376C949.234 51.7376 947.666 52.0994 946.219 52.9436C944.651 53.9084 943.204 55.1144 941.998 56.5616C940.672 58.1294 939.586 59.9385 938.742 61.9887C937.777 64.0389 937.054 66.2097 936.451 68.5011C935.848 70.6719 935.365 72.8427 935.124 75.0135C934.883 77.1844 934.762 79.114 934.762 80.8024V124.098H905.939V7.59778H934.642V45.3458C936.933 43.0544 939.466 41.1248 942.36 39.5569C947.184 36.9037 952.49 35.5771 958.279 35.5771C964.068 35.5771 969.495 36.5419 973.957 38.5921C978.419 40.5218 982.278 43.4162 985.293 46.9136C988.308 50.411 990.479 54.632 991.926 59.4561C993.373 64.1595 994.097 69.3453 994.097 74.8929C994.097 80.4406 993.373 86.5912 992.047 92.6212C990.72 98.6513 988.79 104.802 986.258 110.591C983.846 116.5 980.831 122.048 977.454 127.234C973.957 132.419 970.218 137.002 965.997 140.741L964.671 141.947L952.129 135.073Z" fill="url(#paint20_linear_3136_36)"/>
<path d="M991.68 74.7723C991.68 80.3199 990.956 85.9881 989.63 92.0182C988.303 98.0482 986.374 103.837 983.962 109.626C981.55 115.415 978.655 120.721 975.399 125.786C972.143 130.852 968.404 135.193 964.425 138.932L955.5 134.108C956.827 131.696 958.033 129.163 959.118 126.148C960.204 123.133 961.289 120.118 962.133 116.862C962.978 113.606 963.822 110.229 964.666 106.731C965.51 103.234 965.992 99.7366 966.475 96.3598C966.957 92.983 967.319 89.6062 967.56 86.35C967.801 83.0937 967.922 80.0787 967.922 77.3049C967.922 75.4959 967.922 73.4457 967.681 71.3955C967.44 69.3453 967.199 67.1744 966.837 65.1242C966.475 63.074 965.751 61.0238 965.028 59.0942C964.304 57.1646 963.219 55.4762 962.013 54.029C960.807 52.5817 959.239 51.3757 957.43 50.5315C955.621 49.6873 953.571 49.2049 951.159 49.2049C948.747 49.2049 946.697 49.6873 944.888 50.7727C943.079 51.8581 941.391 53.1847 940.064 54.9938C938.737 56.8028 937.411 58.7324 936.446 60.9032C935.481 63.074 934.637 65.3654 933.913 67.7774C933.19 70.1894 932.828 72.3603 932.587 74.6517C932.346 76.9431 932.104 78.9933 932.104 80.6817V121.565H908.105V9.88907H931.984V51.9787C934.999 47.5165 938.858 44.0191 943.199 41.6071C947.541 39.1951 952.606 37.9891 958.033 37.9891C963.46 37.9891 968.646 38.9539 972.746 40.7629C976.967 42.5719 980.464 45.1045 983.238 48.4813C986.012 51.8581 988.062 55.5968 989.509 60.1796C990.956 64.7624 991.559 69.5864 991.559 74.8929L991.68 74.7723Z" fill="url(#paint21_linear_3136_36)"/>
<path d="M1005.07 123.977V37.5067H1018.09L1026.17 53.5466C1027.02 51.9788 1027.86 50.5315 1028.71 49.2049C1030.51 46.4311 1032.68 44.0191 1034.98 42.0895C1037.39 40.0393 1040.16 38.4715 1043.18 37.3861C1046.19 36.3007 1049.69 35.6977 1053.55 35.6977C1055.48 35.6977 1057.65 35.8183 1060.06 36.1801C1062.47 36.5419 1064.88 37.0243 1067.18 37.8685C1069.47 38.7127 1071.76 39.6775 1073.69 41.0041C1075.86 42.3307 1077.55 44.1397 1078.75 46.0693L1079.48 47.2753L1062.47 75.4959L1060.9 70.3101C1060.3 68.5011 1059.7 66.4508 1058.73 64.1594C1057.89 61.9886 1056.8 59.9384 1055.6 58.0088C1054.39 56.1998 1053.07 54.632 1051.38 53.426C1049.93 52.3406 1048.36 51.8582 1046.43 51.8582C1044.74 51.8582 1043.3 52.22 1042.09 53.0642C1040.76 54.029 1039.56 55.235 1038.59 56.8028C1037.63 58.4912 1036.66 60.3002 1036.06 62.3504C1035.34 64.5212 1034.86 66.692 1034.49 68.9835C1034.13 71.2749 1033.89 73.3251 1033.77 75.4959C1033.65 77.5461 1033.53 79.3551 1033.53 80.9229V124.219H1004.71L1005.07 123.977Z" fill="url(#paint22_linear_3136_36)"/>
<path d="M1076.82 47.1546L1063.44 69.4658C1062.83 67.5361 1062.11 65.486 1061.27 63.0739C1060.42 60.6619 1059.22 58.4911 1057.89 56.4409C1056.56 54.3907 1055 52.7023 1053.19 51.2551C1051.38 49.8078 1049.21 49.2048 1046.8 49.2048C1044.62 49.2048 1042.69 49.8079 1041.01 50.8933C1039.32 51.9787 1037.99 53.5465 1036.91 55.3555C1035.82 57.1645 1034.86 59.2147 1034.13 61.5061C1033.41 63.7975 1032.81 66.089 1032.44 68.3804C1032.08 70.6718 1031.72 72.9632 1031.6 75.134C1031.48 77.3048 1031.36 79.1138 1031.36 80.6816V121.565H1007.36V39.9186H1016.52L1026.17 58.9735C1027.5 55.9585 1028.95 53.0641 1030.76 50.5315C1032.56 47.9988 1034.37 45.7074 1036.66 43.8984C1038.96 42.0894 1041.37 40.6422 1044.14 39.5568C1046.92 38.4714 1050.17 37.989 1053.67 37.989C1055.48 37.989 1057.53 38.1096 1059.82 38.4714C1062.11 38.8332 1064.28 39.3156 1066.45 40.0392C1068.62 40.7628 1070.67 41.7276 1072.48 42.9336C1074.29 44.1396 1075.74 45.5868 1076.82 47.2752V47.1546Z" fill="url(#paint23_linear_3136_36)"/>
<path d="M1125.3 125.666C1121.08 125.666 1116.85 125.183 1112.88 124.219C1108.9 123.254 1105.04 121.807 1101.54 119.998C1098.04 118.188 1094.66 115.897 1091.77 113.244C1088.76 110.591 1086.22 107.576 1084.05 104.199C1082 100.822 1080.31 97.204 1079.11 93.2242C1077.9 89.2444 1077.3 85.0233 1077.3 80.6817C1077.3 76.3401 1077.9 71.9985 1079.11 68.1392C1080.31 64.1594 1082 60.5414 1084.05 57.1646C1086.22 53.7878 1088.76 50.7727 1091.77 48.1195C1094.79 45.4663 1098.04 43.1749 1101.54 41.3659C1105.04 39.5569 1108.9 38.1097 1112.88 37.1449C1116.85 36.1801 1121.08 35.6977 1125.3 35.6977C1129.52 35.6977 1133.74 36.1801 1137.72 37.1449C1141.7 38.1097 1145.56 39.5569 1149.05 41.3659C1152.55 43.1749 1155.93 45.4663 1158.82 48.1195C1161.84 50.7727 1164.37 53.7878 1166.54 57.1646C1168.59 60.5414 1170.28 64.1594 1171.49 68.1392C1172.69 72.1191 1173.29 76.3401 1173.29 80.6817C1173.29 85.0233 1172.69 89.365 1171.49 93.3448C1170.28 97.204 1168.59 100.943 1166.54 104.199C1164.37 107.576 1161.84 110.591 1158.82 113.244C1155.81 115.897 1152.55 118.188 1149.05 119.998C1145.56 121.807 1141.7 123.254 1137.72 124.219C1133.74 125.183 1129.52 125.666 1125.3 125.666ZM1125.3 50.0491C1123.01 50.0491 1120.83 50.5315 1119.03 51.3757C1117.22 52.22 1115.53 53.426 1114.2 54.9938C1112.75 56.5616 1111.55 58.3706 1110.7 60.3002C1109.74 62.471 1108.9 64.6418 1108.29 66.9332C1107.69 69.2246 1107.21 71.5161 1106.97 73.9281C1106.72 76.3401 1106.6 78.5109 1106.6 80.5611C1106.6 82.6113 1106.72 84.9027 1106.97 87.1941C1107.21 89.4855 1107.69 91.8976 1108.29 94.189C1108.9 96.4804 1109.74 98.7718 1110.7 100.822C1111.67 102.872 1112.88 104.681 1114.2 106.128C1115.53 107.576 1117.22 108.782 1119.03 109.746C1120.83 110.591 1122.88 111.073 1125.3 111.073C1127.71 111.073 1129.88 110.591 1131.81 109.746C1133.74 108.902 1135.31 107.696 1136.63 106.249C1138.08 104.802 1139.17 102.993 1140.13 100.943C1141.1 98.8924 1141.94 96.7216 1142.54 94.3096C1143.15 92.0182 1143.63 89.6062 1143.87 87.1941C1144.11 84.7821 1144.23 82.4907 1144.23 80.3199C1144.23 78.1491 1144.11 75.8577 1143.87 73.4457C1143.63 71.0336 1143.15 68.6216 1142.66 66.3302C1142.06 64.0388 1141.34 61.868 1140.37 59.8178C1139.41 57.7676 1138.2 56.0792 1136.87 54.5114C1135.55 53.0642 1133.86 51.8582 1132.05 51.0139C1130.24 50.1697 1128.07 49.6873 1125.54 49.6873L1125.3 50.0491Z" fill="url(#paint24_linear_3136_36)"/>
<path d="M1170.88 80.5615C1170.88 84.7825 1170.28 88.7623 1169.19 92.501C1168.11 96.2396 1166.54 99.6164 1164.49 102.873C1162.44 106.129 1160.03 108.903 1157.25 111.435C1154.48 113.968 1151.34 116.139 1147.97 117.827C1144.59 119.515 1140.97 120.963 1137.11 121.807C1133.26 122.651 1129.28 123.254 1125.3 123.254C1121.32 123.254 1117.34 122.772 1113.48 121.807C1109.62 120.842 1106.12 119.515 1102.74 117.827C1099.37 116.139 1096.23 113.968 1093.46 111.435C1090.68 108.903 1088.27 106.129 1086.22 102.873C1084.17 99.6164 1082.6 96.2396 1081.52 92.501C1080.43 88.7623 1079.83 84.7825 1079.83 80.5615C1079.83 76.3405 1080.43 72.3606 1081.52 68.622C1082.6 64.8834 1084.17 61.386 1086.22 58.2504C1088.27 55.1148 1090.68 52.2203 1093.46 49.6877C1096.23 47.1551 1099.37 44.9843 1102.74 43.2959C1106.12 41.6075 1109.74 40.1603 1113.48 39.3161C1117.22 38.4719 1121.2 37.8689 1125.3 37.8689C1129.4 37.8689 1133.26 38.3513 1137.11 39.3161C1140.97 40.2809 1144.59 41.6075 1147.97 43.2959C1151.34 44.9843 1154.48 47.1551 1157.25 49.6877C1160.03 52.2203 1162.44 54.9942 1164.49 58.2504C1166.54 61.5066 1168.11 64.8834 1169.19 68.622C1170.28 72.3606 1170.88 76.3405 1170.88 80.5615ZM1146.52 80.5615C1146.52 78.2701 1146.4 75.8581 1146.16 73.446C1145.92 71.034 1145.44 68.5014 1144.83 65.9688C1144.23 63.4362 1143.39 61.2654 1142.3 58.974C1141.21 56.6826 1139.89 54.753 1138.32 53.0646C1136.75 51.3761 1134.94 50.0495 1132.77 49.0847C1130.6 48.1199 1128.07 47.5169 1125.17 47.5169C1122.28 47.5169 1119.99 47.9993 1117.94 49.0847C1115.89 50.1701 1113.96 51.4967 1112.39 53.1851C1110.82 54.8736 1109.5 56.9238 1108.41 59.2152C1107.33 61.5066 1106.48 63.798 1105.88 66.21C1105.28 68.622 1104.79 71.034 1104.43 73.5666C1104.07 76.0993 1103.95 78.3907 1103.95 80.5615C1103.95 82.7323 1104.07 85.0237 1104.43 87.5563C1104.79 90.0889 1105.16 92.501 1105.88 94.913C1106.6 97.325 1107.45 99.737 1108.41 101.908C1109.38 104.079 1110.82 106.129 1112.39 107.817C1113.96 109.506 1115.77 110.953 1117.94 111.918C1120.11 112.882 1122.52 113.485 1125.17 113.485C1127.83 113.485 1130.48 113.003 1132.65 111.918C1134.82 110.832 1136.63 109.506 1138.32 107.817C1140.01 106.129 1141.21 104.199 1142.3 101.908C1143.39 99.6164 1144.23 97.325 1144.83 94.913C1145.44 92.501 1145.92 89.9684 1146.16 87.4357C1146.4 84.9031 1146.52 82.6117 1146.52 80.3203V80.5615Z" fill="url(#paint25_linear_3136_36)"/>
<path d="M1183.55 161.605V37.507H1196.57L1205.5 52.3408C1206.34 50.8936 1207.19 49.4464 1208.15 48.1198C1210.08 45.4666 1212.37 43.2958 1214.9 41.3662C1217.44 39.4366 1220.33 38.11 1223.35 37.0246C1226.48 36.0597 1229.74 35.4568 1233.11 35.4568C1239.63 35.4568 1245.54 36.6628 1250.84 38.9542C1256.03 41.2456 1260.49 44.5018 1264.11 48.6022C1267.73 52.7026 1270.5 57.5267 1272.31 62.9537C1274.24 68.3807 1275.08 74.2902 1275.08 80.4408C1275.08 86.5914 1274.12 92.5008 1272.31 97.9279C1270.38 103.355 1267.61 108.179 1264.11 112.279C1260.49 116.38 1256.03 119.636 1250.84 121.927C1245.66 124.219 1239.75 125.425 1233.11 125.425C1228.05 125.425 1223.23 124.46 1219 122.41C1216.59 121.204 1214.3 119.757 1212.25 117.948V161.484H1183.55V161.605ZM1229.26 51.8584C1226.84 51.8584 1224.79 52.2202 1223.23 53.0644C1221.54 53.9086 1220.09 54.9941 1218.88 56.3207C1217.68 57.7679 1216.59 59.4563 1215.75 61.2653C1214.9 63.1949 1214.18 65.2451 1213.7 67.4159C1213.22 69.5867 1212.85 71.8781 1212.61 74.0489C1212.37 76.3404 1212.25 78.5112 1212.25 80.5614C1212.25 82.3704 1212.37 84.3 1212.61 86.4708C1212.85 88.6416 1213.34 90.8124 1213.94 92.9832C1214.54 95.154 1215.27 97.3249 1216.23 99.2545C1217.08 101.184 1218.28 102.993 1219.49 104.44C1220.69 105.888 1222.14 107.094 1223.83 107.938C1225.4 108.782 1227.21 109.144 1229.26 109.144C1231.55 109.144 1233.6 108.782 1235.16 107.938C1236.85 107.094 1238.3 106.008 1239.51 104.681C1240.71 103.234 1241.8 101.546 1242.64 99.7369C1243.49 97.8073 1244.21 95.6365 1244.69 93.4657C1245.17 91.2948 1245.54 89.0034 1245.78 86.8326C1246.02 84.5412 1246.14 82.3704 1246.14 80.4408C1246.14 78.5112 1246.14 76.3404 1245.78 74.0489C1245.54 71.8781 1245.17 69.5867 1244.69 67.4159C1244.21 65.2451 1243.49 63.1949 1242.64 61.1447C1241.8 59.2151 1240.83 57.5267 1239.51 56.2001C1238.3 54.8735 1236.85 53.6674 1235.16 52.9438C1233.48 52.0996 1231.55 51.7378 1229.26 51.7378V51.8584Z" fill="url(#paint26_linear_3136_36)"/>
<path d="M1272.68 80.5615C1272.68 86.4709 1271.83 92.0185 1270.02 97.2044C1268.21 102.39 1265.68 106.852 1262.3 110.712C1258.93 114.571 1254.83 117.586 1249.88 119.757C1244.94 121.927 1239.39 123.134 1233.24 123.134C1228.54 123.134 1224.07 122.169 1220.1 120.36C1216.12 118.551 1212.74 115.656 1209.84 111.797V159.193H1185.97V39.9191H1195.13L1205.74 57.6474C1206.83 54.6323 1208.16 51.9791 1209.96 49.5671C1211.77 47.1551 1213.82 45.1049 1216.24 43.2959C1218.65 41.4869 1221.18 40.2809 1224.07 39.3161C1226.97 38.3513 1229.98 37.8689 1233.12 37.8689C1239.39 37.8689 1244.94 38.9543 1249.76 41.2457C1254.59 43.5371 1258.81 46.4315 1262.18 50.2907C1265.56 54.1499 1268.21 58.6122 1269.9 63.798C1271.59 68.9838 1272.56 74.5315 1272.56 80.4409L1272.68 80.5615ZM1248.44 80.5615C1248.44 78.5113 1248.44 76.3405 1248.07 73.9285C1247.71 71.5164 1247.47 69.225 1246.99 66.9336C1246.51 64.6422 1245.78 62.3508 1244.82 60.3006C1243.85 58.2504 1242.77 56.3208 1241.32 54.6323C1239.87 52.9439 1238.18 51.7379 1236.26 50.7731C1234.33 49.8083 1231.91 49.3259 1229.26 49.3259C1226.61 49.3259 1224.2 49.8083 1222.15 50.7731C1220.1 51.7379 1218.41 52.9439 1216.96 54.6323C1215.51 56.3208 1214.31 58.1298 1213.46 60.18C1212.62 62.2302 1211.77 64.5216 1211.29 66.813C1210.81 69.1044 1210.45 71.3958 1210.21 73.8078C1209.96 76.2199 1209.84 78.3907 1209.84 80.5615C1209.84 82.4911 1209.96 84.5413 1210.33 86.8327C1210.69 89.1241 1211.05 91.4155 1211.65 93.7069C1212.26 95.9984 1213.1 98.2898 1214.07 100.461C1215.03 102.631 1216.24 104.561 1217.68 106.249C1219.13 107.938 1220.82 109.264 1222.75 110.35C1224.68 111.435 1226.85 111.918 1229.26 111.918C1231.91 111.918 1234.33 111.435 1236.26 110.47C1238.18 109.506 1239.87 108.179 1241.32 106.611C1242.77 105.043 1243.85 103.114 1244.82 100.943C1245.78 98.7722 1246.51 96.6014 1246.99 94.31C1247.47 92.0186 1247.83 89.7271 1248.07 87.3151C1248.31 84.9031 1248.44 82.7323 1248.44 80.6821V80.5615Z" fill="url(#paint27_linear_3136_36)"/>
<path d="M1292.21 154.49C1292.21 154.49 1295.95 147.857 1297.52 145.083C1299.08 142.309 1300.65 139.535 1302.22 136.52C1303.79 133.626 1305.11 130.731 1306.44 127.837C1307.53 125.425 1308.49 123.134 1309.09 121.083L1272.31 37.6276H1301.5L1323.81 88.5211L1341.05 37.6276H1362.88L1331.77 112.762C1328.39 120.963 1324.53 129.284 1320.31 137.244C1316.09 145.324 1311.5 153.163 1306.68 160.64L1305.35 162.57L1292.09 154.49H1292.21Z" fill="url(#paint28_linear_3136_36)"/>
<path d="M1359.39 39.9189L1329.72 111.676C1326.34 119.877 1322.61 127.957 1318.38 136.038C1314.16 144.118 1309.7 151.836 1304.88 159.193L1295.59 153.525C1296.8 151.354 1298.12 148.942 1299.81 146.168C1301.5 143.394 1302.95 140.5 1304.52 137.605C1306.08 134.711 1307.53 131.696 1308.86 128.802C1310.18 125.907 1311.15 123.254 1311.87 120.842L1276.17 39.9189H1300.05L1324.29 95.154L1342.99 39.9189H1359.51H1359.39Z" fill="url(#paint29_linear_3136_36)"/>
<defs>
<linearGradient id="paint0_linear_3136_36" x1="58.3694" y1="126.028" x2="58.3694" y2="14.9545" gradientUnits="userSpaceOnUse">
<stop stop-color="#FFF33B"/>
<stop offset="0.04" stop-color="#FCED40"/>
<stop offset="0.16" stop-color="#F7E14C"/>
<stop offset="0.28" stop-color="#F6DE50"/>
<stop offset="0.67" stop-color="#9A5724"/>
<stop offset="0.89" stop-color="#B4792E"/>
</linearGradient>
<linearGradient id="paint1_linear_3136_36" x1="58.3628" y1="123.616" x2="58.3628" y2="17.3667" gradientUnits="userSpaceOnUse">
<stop offset="0.11" stop-color="#B4792E"/>
<stop offset="0.33" stop-color="#9A5724"/>
<stop offset="0.72" stop-color="#F6DE50"/>
<stop offset="0.84" stop-color="#F7E14C"/>
<stop offset="0.96" stop-color="#FCED40"/>
<stop offset="1" stop-color="#FFF33B"/>
</linearGradient>
<linearGradient id="paint2_linear_3136_36" x1="167.03" y1="125.907" x2="167.03" y2="37.5066" gradientUnits="userSpaceOnUse">
<stop stop-color="#FFF33B"/>
<stop offset="0.04" stop-color="#FCED40"/>
<stop offset="0.16" stop-color="#F7E14C"/>
<stop offset="0.28" stop-color="#F6DE50"/>
<stop offset="0.67" stop-color="#9A5724"/>
<stop offset="0.89" stop-color="#B4792E"/>
</linearGradient>
<linearGradient id="paint3_linear_3136_36" x1="167.035" y1="123.495" x2="167.035" y2="39.9189" gradientUnits="userSpaceOnUse">
<stop offset="0.11" stop-color="#B4792E"/>
<stop offset="0.33" stop-color="#9A5724"/>
<stop offset="0.72" stop-color="#F6DE50"/>
<stop offset="0.84" stop-color="#F7E14C"/>
<stop offset="0.96" stop-color="#FCED40"/>
<stop offset="1" stop-color="#FFF33B"/>
</linearGradient>
<linearGradient id="paint4_linear_3136_36" x1="263.502" y1="123.977" x2="263.502" y2="35.5771" gradientUnits="userSpaceOnUse">
<stop stop-color="#FFF33B"/>
<stop offset="0.04" stop-color="#FCED40"/>
<stop offset="0.16" stop-color="#F7E14C"/>
<stop offset="0.28" stop-color="#F6DE50"/>
<stop offset="0.67" stop-color="#9A5724"/>
<stop offset="0.89" stop-color="#B4792E"/>
</linearGradient>
<linearGradient id="paint5_linear_3136_36" x1="263.384" y1="121.565" x2="263.384" y2="37.989" gradientUnits="userSpaceOnUse">
<stop offset="0.11" stop-color="#B4792E"/>
<stop offset="0.33" stop-color="#9A5724"/>
<stop offset="0.72" stop-color="#F6DE50"/>
<stop offset="0.84" stop-color="#F7E14C"/>
<stop offset="0.96" stop-color="#FCED40"/>
<stop offset="1" stop-color="#FFF33B"/>
</linearGradient>
<linearGradient id="paint6_linear_3136_36" x1="396.171" y1="123.978" x2="396.171" y2="17.3667" gradientUnits="userSpaceOnUse">
<stop stop-color="#FFF33B"/>
<stop offset="0.04" stop-color="#FCED40"/>
<stop offset="0.16" stop-color="#F7E14C"/>
<stop offset="0.28" stop-color="#F6DE50"/>
<stop offset="0.67" stop-color="#9A5724"/>
<stop offset="0.89" stop-color="#B4792E"/>
</linearGradient>
<linearGradient id="paint7_linear_3136_36" x1="396.163" y1="121.566" x2="396.163" y2="19.7787" gradientUnits="userSpaceOnUse">
<stop offset="0.11" stop-color="#B4792E"/>
<stop offset="0.33" stop-color="#9A5724"/>
<stop offset="0.72" stop-color="#F6DE50"/>
<stop offset="0.84" stop-color="#F7E14C"/>
<stop offset="0.96" stop-color="#FCED40"/>
<stop offset="1" stop-color="#FFF33B"/>
</linearGradient>
<linearGradient id="paint8_linear_3136_36" x1="495.904" y1="141.947" x2="495.904" y2="7.47718" gradientUnits="userSpaceOnUse">
<stop stop-color="#FFF33B"/>
<stop offset="0.04" stop-color="#FCED40"/>
<stop offset="0.16" stop-color="#F7E14C"/>
<stop offset="0.28" stop-color="#F6DE50"/>
<stop offset="0.67" stop-color="#9A5724"/>
<stop offset="0.89" stop-color="#B4792E"/>
</linearGradient>
<linearGradient id="paint9_linear_3136_36" x1="495.9" y1="138.932" x2="495.9" y2="9.88907" gradientUnits="userSpaceOnUse">
<stop offset="0.11" stop-color="#B4792E"/>
<stop offset="0.33" stop-color="#9A5724"/>
<stop offset="0.72" stop-color="#F6DE50"/>
<stop offset="0.84" stop-color="#F7E14C"/>
<stop offset="0.96" stop-color="#FCED40"/>
<stop offset="1" stop-color="#FFF33B"/>
</linearGradient>
<linearGradient id="paint10_linear_3136_36" x1="565.358" y1="123.978" x2="565.358" y2="4.82416" gradientUnits="userSpaceOnUse">
<stop stop-color="#FFF33B"/>
<stop offset="0.04" stop-color="#FCED40"/>
<stop offset="0.16" stop-color="#F7E14C"/>
<stop offset="0.28" stop-color="#F6DE50"/>
<stop offset="0.67" stop-color="#9A5724"/>
<stop offset="0.89" stop-color="#B4792E"/>
</linearGradient>
<linearGradient id="paint11_linear_3136_36" x1="565.362" y1="121.566" x2="565.362" y2="7.23628" gradientUnits="userSpaceOnUse">
<stop offset="0.11" stop-color="#B4792E"/>
<stop offset="0.33" stop-color="#9A5724"/>
<stop offset="0.72" stop-color="#F6DE50"/>
<stop offset="0.84" stop-color="#F7E14C"/>
<stop offset="0.96" stop-color="#FCED40"/>
<stop offset="1" stop-color="#FFF33B"/>
</linearGradient>
<linearGradient id="paint12_linear_3136_36" x1="609.265" y1="123.978" x2="609.265" y2="0" gradientUnits="userSpaceOnUse">
<stop stop-color="#FFF33B"/>
<stop offset="0.04" stop-color="#FCED40"/>
<stop offset="0.16" stop-color="#F7E14C"/>
<stop offset="0.28" stop-color="#F6DE50"/>
<stop offset="0.67" stop-color="#9A5724"/>
<stop offset="0.89" stop-color="#B4792E"/>
</linearGradient>
<linearGradient id="paint13_linear_3136_36" x1="609.266" y1="121.566" x2="609.266" y2="2.41217" gradientUnits="userSpaceOnUse">
<stop offset="0.11" stop-color="#B4792E"/>
<stop offset="0.33" stop-color="#9A5724"/>
<stop offset="0.72" stop-color="#F6DE50"/>
<stop offset="0.84" stop-color="#F7E14C"/>
<stop offset="0.96" stop-color="#FCED40"/>
<stop offset="1" stop-color="#FFF33B"/>
</linearGradient>
<linearGradient id="paint14_linear_3136_36" x1="679.931" y1="125.666" x2="679.931" y2="35.5771" gradientUnits="userSpaceOnUse">
<stop stop-color="#FFF33B"/>
<stop offset="0.04" stop-color="#FCED40"/>
<stop offset="0.16" stop-color="#F7E14C"/>
<stop offset="0.28" stop-color="#F6DE50"/>
<stop offset="0.67" stop-color="#9A5724"/>
<stop offset="0.89" stop-color="#B4792E"/>
</linearGradient>
<linearGradient id="paint15_linear_3136_36" x1="679.934" y1="123.254" x2="679.934" y2="37.989" gradientUnits="userSpaceOnUse">
<stop offset="0.11" stop-color="#B4792E"/>
<stop offset="0.33" stop-color="#9A5724"/>
<stop offset="0.72" stop-color="#F6DE50"/>
<stop offset="0.84" stop-color="#F7E14C"/>
<stop offset="0.96" stop-color="#FCED40"/>
<stop offset="1" stop-color="#FFF33B"/>
</linearGradient>
<linearGradient id="paint16_linear_3136_36" x1="784.972" y1="141.947" x2="784.972" y2="35.5771" gradientUnits="userSpaceOnUse">
<stop stop-color="#FFF33B"/>
<stop offset="0.04" stop-color="#FCED40"/>
<stop offset="0.16" stop-color="#F7E14C"/>
<stop offset="0.28" stop-color="#F6DE50"/>
<stop offset="0.67" stop-color="#9A5724"/>
<stop offset="0.89" stop-color="#B4792E"/>
</linearGradient>
<linearGradient id="paint17_linear_3136_36" x1="784.971" y1="138.932" x2="784.971" y2="37.989" gradientUnits="userSpaceOnUse">
<stop offset="0.11" stop-color="#B4792E"/>
<stop offset="0.33" stop-color="#9A5724"/>
<stop offset="0.72" stop-color="#F6DE50"/>
<stop offset="0.84" stop-color="#F7E14C"/>
<stop offset="0.96" stop-color="#FCED40"/>
<stop offset="1" stop-color="#FFF33B"/>
</linearGradient>
<linearGradient id="paint18_linear_3136_36" x1="865.419" y1="123.977" x2="865.419" y2="7.47699" gradientUnits="userSpaceOnUse">
<stop stop-color="#FFF33B"/>
<stop offset="0.04" stop-color="#FCED40"/>
<stop offset="0.16" stop-color="#F7E14C"/>
<stop offset="0.28" stop-color="#F6DE50"/>
<stop offset="0.67" stop-color="#9A5724"/>
<stop offset="0.89" stop-color="#B4792E"/>
</linearGradient>
<linearGradient id="paint19_linear_3136_36" x1="865.403" y1="121.565" x2="865.403" y2="9.88907" gradientUnits="userSpaceOnUse">
<stop offset="0.11" stop-color="#B4792E"/>
<stop offset="0.33" stop-color="#9A5724"/>
<stop offset="0.72" stop-color="#F6DE50"/>
<stop offset="0.84" stop-color="#F7E14C"/>
<stop offset="0.96" stop-color="#FCED40"/>
<stop offset="1" stop-color="#FFF33B"/>
</linearGradient>
<linearGradient id="paint20_linear_3136_36" x1="949.958" y1="141.947" x2="949.958" y2="7.47718" gradientUnits="userSpaceOnUse">
<stop stop-color="#FFF33B"/>
<stop offset="0.04" stop-color="#FCED40"/>
<stop offset="0.16" stop-color="#F7E14C"/>
<stop offset="0.28" stop-color="#F6DE50"/>
<stop offset="0.67" stop-color="#9A5724"/>
<stop offset="0.89" stop-color="#B4792E"/>
</linearGradient>
<linearGradient id="paint21_linear_3136_36" x1="949.953" y1="138.932" x2="949.953" y2="9.88907" gradientUnits="userSpaceOnUse">
<stop offset="0.11" stop-color="#B4792E"/>
<stop offset="0.33" stop-color="#9A5724"/>
<stop offset="0.72" stop-color="#F6DE50"/>
<stop offset="0.84" stop-color="#F7E14C"/>
<stop offset="0.96" stop-color="#FCED40"/>
<stop offset="1" stop-color="#FFF33B"/>
</linearGradient>
<linearGradient id="paint22_linear_3136_36" x1="1042.33" y1="123.977" x2="1042.33" y2="35.5771" gradientUnits="userSpaceOnUse">
<stop stop-color="#FFF33B"/>
<stop offset="0.04" stop-color="#FCED40"/>
<stop offset="0.16" stop-color="#F7E14C"/>
<stop offset="0.28" stop-color="#F6DE50"/>
<stop offset="0.67" stop-color="#9A5724"/>
<stop offset="0.89" stop-color="#B4792E"/>
</linearGradient>
<linearGradient id="paint23_linear_3136_36" x1="1042.09" y1="121.565" x2="1042.09" y2="37.989" gradientUnits="userSpaceOnUse">
<stop offset="0.11" stop-color="#B4792E"/>
<stop offset="0.33" stop-color="#9A5724"/>
<stop offset="0.72" stop-color="#F6DE50"/>
<stop offset="0.84" stop-color="#F7E14C"/>
<stop offset="0.96" stop-color="#FCED40"/>
<stop offset="1" stop-color="#FFF33B"/>
</linearGradient>
<linearGradient id="paint24_linear_3136_36" x1="1125.3" y1="125.666" x2="1125.3" y2="35.5771" gradientUnits="userSpaceOnUse">
<stop stop-color="#FFF33B"/>
<stop offset="0.04" stop-color="#FCED40"/>
<stop offset="0.16" stop-color="#F7E14C"/>
<stop offset="0.28" stop-color="#F6DE50"/>
<stop offset="0.67" stop-color="#9A5724"/>
<stop offset="0.89" stop-color="#B4792E"/>
</linearGradient>
<linearGradient id="paint25_linear_3136_36" x1="1125.3" y1="123.254" x2="1125.3" y2="37.9895" gradientUnits="userSpaceOnUse">
<stop offset="0.11" stop-color="#B4792E"/>
<stop offset="0.33" stop-color="#9A5724"/>
<stop offset="0.72" stop-color="#F6DE50"/>
<stop offset="0.84" stop-color="#F7E14C"/>
<stop offset="0.96" stop-color="#FCED40"/>
<stop offset="1" stop-color="#FFF33B"/>
</linearGradient>
<linearGradient id="paint26_linear_3136_36" x1="1229.26" y1="161.605" x2="1229.26" y2="35.5774" gradientUnits="userSpaceOnUse">
<stop stop-color="#FFF33B"/>
<stop offset="0.04" stop-color="#FCED40"/>
<stop offset="0.16" stop-color="#F7E14C"/>
<stop offset="0.28" stop-color="#F6DE50"/>
<stop offset="0.67" stop-color="#9A5724"/>
<stop offset="0.89" stop-color="#B4792E"/>
</linearGradient>
<linearGradient id="paint27_linear_3136_36" x1="1229.26" y1="159.193" x2="1229.26" y2="37.9895" gradientUnits="userSpaceOnUse">
<stop offset="0.11" stop-color="#B4792E"/>
<stop offset="0.33" stop-color="#9A5724"/>
<stop offset="0.72" stop-color="#F6DE50"/>
<stop offset="0.84" stop-color="#F7E14C"/>
<stop offset="0.96" stop-color="#FCED40"/>
<stop offset="1" stop-color="#FFF33B"/>
</linearGradient>
<linearGradient id="paint28_linear_3136_36" x1="1317.66" y1="162.57" x2="1317.66" y2="37.507" gradientUnits="userSpaceOnUse">
<stop stop-color="#FFF33B"/>
<stop offset="0.04" stop-color="#FCED40"/>
<stop offset="0.16" stop-color="#F7E14C"/>
<stop offset="0.28" stop-color="#F6DE50"/>
<stop offset="0.67" stop-color="#9A5724"/>
<stop offset="0.89" stop-color="#B4792E"/>
</linearGradient>
<linearGradient id="paint29_linear_3136_36" x1="1317.66" y1="159.193" x2="1317.66" y2="39.9189" gradientUnits="userSpaceOnUse">
<stop offset="0.11" stop-color="#B4792E"/>
<stop offset="0.33" stop-color="#9A5724"/>
<stop offset="0.72" stop-color="#F6DE50"/>
<stop offset="0.84" stop-color="#F7E14C"/>
<stop offset="0.96" stop-color="#FCED40"/>
<stop offset="1" stop-color="#FFF33B"/>
</linearGradient>
</defs>
</svg>
