<svg width="654" height="187" viewBox="0 0 654 187" fill="none" xmlns="http://www.w3.org/2000/svg">
<path d="M32.0026 143.18V40.7695H0V20.176H101.852V40.7695H69.9883V143.18H32.0026Z" fill="url(#paint0_linear_3136_6377)"/>
<path d="M67.2059 140.258H34.7858V37.8475H2.7832V22.8198H99.0694V37.8475H67.0667V140.258H67.2059Z" fill="url(#paint1_linear_3136_6377)"/>
<path d="M144.986 144.989C137.472 144.989 130.654 143.597 124.532 140.953C118.549 138.31 113.401 134.553 109.226 129.822C105.052 125.091 101.852 119.525 99.7647 113.264C97.5384 107.002 96.5645 100.184 96.5645 93.0877C96.5645 85.9913 97.6776 79.1732 99.7647 72.9117C101.991 66.6502 105.191 61.0844 109.226 56.3535C113.401 51.6226 118.549 47.8657 124.532 45.222C130.515 42.5782 137.333 41.1868 144.986 41.1868C148.882 41.1868 152.639 41.7433 156.256 42.9956C159.735 44.1088 163.074 45.9177 165.996 48.0048C168.918 50.092 171.562 52.7357 173.788 55.7969C174.901 57.3275 176.014 58.9973 176.849 60.667L187.146 43.5522H202.173V143.319H169.057V136.501C166.692 138.588 164.048 140.397 161.265 141.649C156.395 144.015 150.83 145.128 144.986 145.128V144.989ZM149.299 59.8321C146.656 59.8321 144.29 60.2495 142.481 61.2235C140.533 62.1975 138.864 63.4499 137.472 64.9805C136.081 66.6502 134.828 68.5982 133.854 70.6854C132.88 72.9117 132.046 75.4164 131.489 77.921C130.932 80.4256 130.515 83.0692 130.237 85.5738C129.959 88.2176 129.819 90.5831 129.819 92.9486C129.819 95.3141 129.819 97.6795 130.237 100.323C130.515 102.967 130.932 105.472 131.489 107.976C132.046 110.481 132.88 112.846 133.854 115.212C134.828 117.438 135.942 119.386 137.472 120.917C138.864 122.447 140.533 123.839 142.481 124.674C144.429 125.648 146.656 126.065 149.299 126.065C151.665 126.065 153.752 125.648 155.561 124.674C157.369 123.7 159.039 122.308 160.57 120.638C162.1 118.829 163.353 116.881 164.327 114.655C165.44 112.29 166.275 109.924 166.97 107.42C167.666 104.915 168.083 102.41 168.501 99.9058C168.779 97.4012 168.918 95.0357 168.918 93.0877C168.918 90.7222 168.918 88.2176 168.501 85.5738C168.223 82.9301 167.805 80.4256 167.249 77.921C166.692 75.4164 165.857 73.0509 164.883 70.8245C163.909 68.7374 162.796 66.7894 161.265 65.1197C159.874 63.5891 158.204 62.3367 156.117 61.3627C154.169 60.5278 151.804 59.9713 149.16 59.9713L149.299 59.8321Z" fill="url(#paint2_linear_3136_6377)"/>
<path d="M199.391 140.258H171.841V128.987C168.64 133.44 164.605 136.779 160.013 138.866C155.422 140.954 150.413 142.067 144.847 142.067C137.612 142.067 131.211 140.815 125.645 138.171C120.08 135.527 115.21 132.188 111.314 127.735C107.418 123.282 104.357 118.134 102.409 112.151C100.461 106.167 99.3477 99.7668 99.3477 92.9487C99.3477 86.1306 100.322 79.7299 102.409 73.7467C104.496 67.7635 107.418 62.6152 111.314 58.1626C115.21 53.7099 119.941 50.2313 125.645 47.7267C131.35 45.2221 137.751 43.8306 144.847 43.8306C148.465 43.8306 151.943 44.3872 155.283 45.5003C158.622 46.6135 161.544 48.1441 164.327 50.0921C167.11 52.0402 169.475 54.4056 171.562 57.3276C173.649 60.2497 175.319 63.1718 176.432 66.6504L188.677 46.1961H199.252V140.397L199.391 140.258ZM171.701 93.0878C171.701 90.5832 171.701 88.0786 171.284 85.2957C170.867 82.5128 170.588 79.8691 170.032 77.2253C169.475 74.5816 168.64 72.077 167.527 69.5724C166.414 67.0678 165.162 64.9807 163.492 63.1718C161.822 61.3629 159.874 59.8323 157.509 58.7191C155.144 57.606 152.5 57.0494 149.3 57.0494C146.099 57.0494 143.456 57.606 141.229 58.7191C139.003 59.8323 137.055 61.3629 135.385 63.1718C133.716 64.9807 132.463 67.2069 131.35 69.7115C130.237 72.2161 129.402 74.7207 128.846 77.3645C128.289 80.0082 127.872 82.652 127.593 85.4349C127.315 88.2178 127.176 90.7223 127.176 93.0878C127.176 95.4533 127.176 98.097 127.593 100.741C128.011 103.385 128.289 106.167 128.846 108.811C129.402 111.455 130.237 114.099 131.35 116.464C132.463 118.83 133.716 121.056 135.385 123.004C137.055 124.952 139.003 126.343 141.229 127.457C143.456 128.57 146.238 129.126 149.3 129.126C152.082 129.126 154.587 128.57 156.813 127.317C159.04 126.065 160.987 124.535 162.657 122.587C164.327 120.638 165.718 118.412 166.831 115.908C167.945 113.403 168.919 110.759 169.614 108.115C170.31 105.472 170.867 102.828 171.145 100.184C171.423 97.5405 171.701 95.175 171.701 92.9487V93.0878Z" fill="url(#paint3_linear_3136_6377)"/>
<path d="M276.892 145.267C272.996 145.267 269.24 144.71 265.622 143.458C262.143 142.345 258.804 140.536 255.882 138.449C252.96 136.362 250.316 133.718 248.09 130.796C246.977 129.265 245.864 127.596 245.029 125.926L234.732 143.041H219.705V8.62695H252.821V50.0921C255.186 48.0049 257.83 46.196 260.613 44.9437C265.483 42.7174 271.048 41.4651 276.892 41.4651C284.406 41.4651 291.224 42.8566 297.346 45.5003C303.329 48.1441 308.478 51.901 312.652 56.6319C316.826 61.2237 320.026 66.7894 322.113 73.1901C324.34 79.4516 325.314 86.2697 325.314 93.3661C325.314 100.463 324.201 107.281 322.113 113.542C319.887 119.804 316.687 125.369 312.652 130.1C308.478 134.831 303.329 138.588 297.346 141.232C291.363 143.876 284.545 145.267 276.892 145.267ZM272.44 60.2496C270.074 60.2496 267.987 60.6671 266.178 61.6412C264.37 62.6152 262.7 64.0066 261.169 65.6764C259.639 67.4852 258.387 69.4332 257.413 71.6595C256.299 74.0249 255.465 76.3905 254.769 78.8951C254.073 81.3997 253.656 83.9043 253.238 86.4089C252.96 88.9135 252.821 91.1398 252.821 93.227C252.821 95.5924 252.821 98.097 253.238 100.741C253.517 103.385 253.934 105.889 254.491 108.533C255.047 111.037 255.882 113.403 256.856 115.629C257.83 117.716 258.943 119.664 260.474 121.334C261.865 122.865 263.535 124.117 265.483 125.091C267.431 126.065 269.796 126.483 272.44 126.483C275.084 126.483 277.31 126.065 279.258 125.091C281.206 124.117 282.875 122.865 284.267 121.334C285.658 119.664 286.911 117.716 287.885 115.49C288.859 113.125 289.693 110.759 290.25 108.255C290.807 105.75 291.224 103.106 291.502 100.602C291.781 97.9578 291.92 95.5924 291.92 93.227C291.92 90.8615 291.92 88.496 291.502 85.8523C291.224 83.3477 290.807 80.7039 290.25 78.1993C289.693 75.6947 288.859 73.3293 287.885 70.9638C286.911 68.7375 285.797 66.7894 284.267 65.2588C282.875 63.7282 281.206 62.3368 279.258 61.502C277.31 60.528 275.084 60.1105 272.44 60.1105V60.2496Z" fill="url(#paint4_linear_3136_6377)"/>
<path d="M322.531 93.3661C322.531 100.184 321.557 106.585 319.47 112.568C317.383 118.551 314.461 123.7 310.565 128.152C306.669 132.605 301.938 136.084 296.233 138.588C290.528 141.093 284.128 142.484 277.031 142.484C273.414 142.484 269.935 141.928 266.596 140.814C263.256 139.701 260.334 138.171 257.552 136.223C254.769 134.275 252.403 131.909 250.316 129.126C248.229 126.343 246.559 123.282 245.446 119.804L233.202 140.258H222.627V11.4099H250.177V57.3276C253.377 52.875 257.412 49.5355 262.004 47.4483C266.596 45.3612 271.605 44.2481 277.171 44.2481C284.406 44.2481 290.806 45.5004 296.372 48.1441C301.938 50.7878 306.808 54.1273 310.704 58.5799C314.6 63.0326 317.661 68.1809 319.609 74.1641C321.557 80.1473 322.67 86.548 322.67 93.3661H322.531ZM294.563 93.3661C294.563 91.0007 294.563 88.496 294.146 85.7131C293.728 82.9302 293.45 80.2865 292.894 77.6427C292.337 74.999 291.502 72.3553 290.389 69.9898C289.276 67.6243 288.024 65.398 286.354 63.45C284.684 61.502 282.736 60.1105 280.51 58.9974C278.284 57.8842 275.501 57.3276 272.44 57.3276C269.657 57.3276 267.152 57.8842 264.926 59.1365C262.7 60.3888 260.752 61.9194 259.082 63.8674C257.412 65.8154 256.021 68.0418 254.908 70.5464C253.795 73.051 252.821 75.6947 252.125 78.3385C251.429 80.9822 250.873 83.626 250.594 86.2697C250.316 88.9135 250.038 91.279 250.038 93.5053C250.038 96.0099 250.038 98.5145 250.455 101.297C250.873 104.08 251.151 106.724 251.708 109.368C252.264 112.012 253.099 114.655 254.212 117.021C255.325 119.386 256.578 121.612 258.247 123.421C259.917 125.23 261.865 126.761 264.23 127.874C266.596 128.987 269.239 129.544 272.44 129.544C275.64 129.544 278.145 128.987 280.51 127.874C282.875 126.761 284.823 125.23 286.354 123.421C287.884 121.612 289.276 119.386 290.389 116.882C291.502 114.377 292.337 111.872 292.894 109.229C293.45 106.585 293.868 103.941 294.146 101.158C294.424 98.3753 294.563 95.8708 294.563 93.5053V93.3661Z" fill="url(#paint5_linear_3136_6377)"/>
<path d="M337.559 143.18V0H352.447L370.674 30.6118V143.18H337.559Z" fill="url(#paint6_linear_3136_6377)"/>
<path d="M367.891 140.258H340.341V2.78271H350.916L367.891 31.4465V140.397V140.258Z" fill="url(#paint7_linear_3136_6377)"/>
<path d="M388.206 143.18V43.5524H421.461V143.18H388.206ZM404.764 41.3262C402.259 41.3262 400.033 40.9087 397.807 39.9346C395.72 38.9606 393.772 37.7084 392.241 36.1778C390.571 34.508 389.319 32.6991 388.484 30.4728C387.51 28.2465 387.093 25.881 387.093 23.5156C387.093 21.1501 387.51 18.7846 388.484 16.5583C389.458 14.4712 390.71 12.5232 392.241 10.9926C393.911 9.46204 395.72 8.07053 397.807 7.23566C400.033 6.26165 402.259 5.84424 404.764 5.84424C407.268 5.84424 409.495 6.26165 411.721 7.23566C413.947 8.20968 415.756 9.46204 417.426 10.9926C418.956 12.6624 420.348 14.4712 421.183 16.5583C422.157 18.7846 422.574 21.011 422.574 23.5156C422.574 26.0202 422.157 28.2465 421.183 30.4728C420.209 32.6991 418.956 34.508 417.426 36.1778C415.756 37.8475 413.947 39.0998 411.721 39.9346C409.495 40.9087 407.129 41.3262 404.764 41.3262Z" fill="url(#paint8_linear_3136_6377)"/>
<path d="M419.791 23.3763C419.791 25.4634 419.373 27.4114 418.677 29.2203C417.982 31.0292 416.869 32.6989 415.477 34.0904C414.086 35.4818 412.555 36.4559 410.607 37.2907C408.659 38.1256 406.85 38.4038 404.763 38.4038C402.676 38.4038 400.728 37.9865 398.919 37.2907C397.11 36.595 395.441 35.4818 394.188 34.0904C392.936 32.6989 391.823 31.1683 390.988 29.2203C390.153 27.2723 389.875 25.4634 389.875 23.3763C389.875 21.2891 390.292 19.341 390.988 17.5321C391.684 15.7232 392.797 14.0535 394.188 12.8012C395.58 11.5489 397.11 10.4357 398.919 9.60087C400.728 8.766 402.676 8.48779 404.763 8.48779C406.85 8.48779 408.798 8.90515 410.607 9.60087C412.416 10.2966 414.086 11.4098 415.477 12.8012C416.869 14.1927 417.843 15.7232 418.677 17.5321C419.512 19.341 419.791 21.2891 419.791 23.3763ZM418.538 140.258H390.849V46.196H418.538V140.258Z" fill="url(#paint9_linear_3136_6377)"/>
<path d="M492.284 155.842L493.675 153.337C495.066 150.694 496.458 147.772 497.71 144.571C498.962 141.232 500.075 137.753 501.189 134.135C502.163 130.379 503.137 126.622 503.971 122.586C504.806 118.551 505.502 114.655 506.059 110.759C506.615 106.863 507.033 103.106 507.311 99.4883C507.589 95.8706 507.728 92.392 507.728 89.3308C507.728 87.2436 507.728 85.0173 507.45 82.6518C507.311 80.4255 507.033 78.0601 506.476 75.8338C506.059 73.6074 505.363 71.3811 504.528 69.2939C503.832 67.3459 502.719 65.6762 501.606 64.2847C500.354 62.8933 498.962 61.7802 497.293 60.9453C495.623 60.1104 493.675 59.693 491.31 59.693C488.944 59.693 487.135 60.1104 485.466 61.0845C483.657 62.1976 481.987 63.589 480.596 65.2587C479.065 67.0676 477.813 69.1549 476.839 71.5203C475.726 73.8858 474.891 76.3904 474.195 79.0341C473.499 81.5387 472.943 84.0434 472.665 86.548C472.386 89.0526 472.247 91.2788 472.247 93.2269V143.18H438.992V43.413H454.02L464.873 62.1976C465.986 60.2496 467.238 58.3015 468.629 56.4927C470.995 53.2923 473.917 50.5095 476.978 48.2832C480.039 46.0569 483.518 44.2479 487.414 42.9956C491.17 41.7433 495.345 41.1868 499.658 41.1868C506.476 41.1868 512.598 42.2999 517.746 44.6654C522.895 46.8917 527.347 50.2311 530.826 54.2663C534.304 58.3015 536.809 63.1716 538.479 68.7374C540.148 74.164 540.983 80.1473 540.983 86.548C540.983 92.9486 540.148 100.045 538.618 107.002C537.087 113.959 534.861 121.056 531.939 127.735C529.156 134.553 525.678 140.953 521.782 146.937C517.746 152.92 513.433 158.207 508.563 162.521L507.033 163.912L492.562 155.981L492.284 155.842Z" fill="url(#paint10_linear_3136_6377)"/>
<path d="M537.922 86.4089C537.922 92.8095 537.088 99.3493 535.557 106.307C534.026 113.264 531.8 119.943 529.017 126.622C526.234 133.301 522.895 139.423 519.138 145.267C515.381 151.111 511.068 156.12 506.476 160.434L496.18 154.868C497.71 152.085 499.102 149.163 500.354 145.685C501.606 142.206 502.859 138.727 503.833 134.97C504.807 131.213 505.781 127.317 506.755 123.282C507.729 119.247 508.285 115.212 508.842 111.316C509.398 107.42 509.816 103.524 510.094 99.7668C510.372 96.0099 510.511 92.5312 510.511 89.3309C510.511 87.2437 510.511 84.8783 510.233 82.5129C509.955 80.1474 509.677 77.6427 509.259 75.2773C508.842 72.9118 508.007 70.5463 507.172 68.32C506.337 66.0937 505.085 64.1457 503.693 62.476C502.302 60.8062 500.493 59.4148 498.406 58.4408C496.319 57.4668 493.954 56.9102 491.171 56.9102C488.388 56.9102 486.022 57.4668 483.935 58.7191C481.848 59.9714 479.9 61.502 478.37 63.5892C476.839 65.6763 475.309 67.9026 474.195 70.4072C473.082 72.9118 472.108 75.5556 471.273 78.3385C470.439 81.1214 470.021 83.626 469.743 86.2697C469.465 88.9135 469.186 91.2789 469.186 93.2269V140.397H441.497V46.1961H452.072L464.734 68.1809C466.264 64.5631 468.212 61.2236 470.439 58.3016C472.665 55.3796 475.309 52.7359 478.231 50.6487C481.153 48.5615 484.353 46.8918 487.831 45.7787C491.31 44.6655 495.067 44.1089 499.241 44.1089C505.781 44.1089 511.485 45.222 516.216 47.3092C520.947 49.3963 525.121 52.3185 528.322 56.2145C531.522 60.1106 533.887 64.424 535.557 69.7115C537.227 74.999 537.922 80.5648 537.922 86.6871V86.4089Z" fill="url(#paint11_linear_3136_6377)"/>
<path d="M601.232 186.593C596.64 186.593 592.048 186.036 587.457 185.062C582.865 184.088 578.413 182.419 574.238 180.331C570.064 178.105 566.307 175.461 562.968 172.122C559.628 168.782 556.985 164.747 555.037 160.155L553.924 157.512L571.177 150.972L572.151 153.477C573.125 155.842 574.377 158.207 575.769 160.155C577.299 162.103 578.969 163.912 580.917 165.304C582.865 166.695 584.952 167.808 587.318 168.643C589.683 169.478 592.048 169.896 594.692 169.896C599.562 169.896 603.736 168.922 606.937 166.974C610.276 165.026 612.92 162.382 614.868 159.181C616.955 155.842 618.346 152.085 619.32 147.911C620.155 144.154 620.572 140.258 620.712 136.362C618.346 138.449 615.703 140.258 612.92 141.51C608.05 143.876 602.484 144.989 596.64 144.989C589.126 144.989 582.308 143.597 576.186 140.953C570.203 138.31 565.055 134.553 560.881 129.822C556.706 125.091 553.506 119.525 551.419 113.264C549.193 107.002 548.219 100.184 548.219 93.0877C548.219 85.9913 549.332 79.1732 551.419 72.9117C553.645 66.6502 556.846 61.0844 560.881 56.3535C565.055 51.6226 570.203 47.8657 576.186 45.222C582.169 42.5782 588.987 41.1868 596.64 41.1868C600.536 41.1868 604.293 41.7433 607.911 42.9956C611.389 44.1088 614.729 45.9177 617.651 48.0048C620.572 50.092 623.216 52.7357 625.442 55.7969C626.556 57.3275 627.669 58.9973 628.504 60.667L638.8 43.5522H653.827V129.126C653.827 136.918 652.714 144.293 650.349 151.25C647.983 158.207 644.644 164.33 640.192 169.617C635.739 174.905 630.173 179.079 623.634 182.14C617.094 185.201 609.58 186.732 601.371 186.732L601.232 186.593ZM600.814 59.8321C598.171 59.8321 595.805 60.2495 593.996 61.2235C592.048 62.1975 590.379 63.4499 588.987 64.9805C587.596 66.6502 586.344 68.5982 585.37 70.6854C584.396 72.9117 583.561 75.4164 583.004 77.921C582.448 80.4256 582.03 83.0692 581.752 85.5739C581.474 88.2176 581.335 90.5831 581.335 92.9486C581.335 95.3141 581.335 97.6795 581.752 100.323C582.03 102.967 582.448 105.472 583.004 107.976C583.561 110.481 584.396 112.846 585.37 115.212C586.344 117.438 587.457 119.386 588.987 120.917C590.379 122.447 592.048 123.839 593.996 124.674C595.944 125.648 598.171 126.065 600.814 126.065C603.18 126.065 605.267 125.648 607.076 124.674C608.885 123.7 610.554 122.308 612.085 120.638C613.615 118.829 614.868 116.881 615.842 114.655C616.955 112.29 617.79 109.924 618.485 107.42C619.181 104.915 619.599 102.41 620.016 99.9058C620.294 97.4012 620.433 95.0357 620.433 93.0877C620.433 90.7222 620.433 88.2176 620.016 85.5739C619.738 82.9301 619.32 80.4256 618.764 77.921C618.207 75.4164 617.372 73.0509 616.398 70.8245C615.424 68.7374 614.311 66.7894 612.781 65.1197C611.389 63.5891 609.719 62.3367 607.632 61.3627C605.684 60.5278 603.319 59.9713 600.675 59.9713L600.814 59.8321Z" fill="url(#paint12_linear_3136_6377)"/>
<path d="M650.905 128.987C650.905 136.501 649.792 143.597 647.566 150.137C645.34 156.677 642.139 162.521 637.826 167.53C633.513 172.539 628.364 176.435 622.242 179.357C616.12 182.28 609.024 183.671 601.232 183.671C596.918 183.671 592.466 183.114 588.013 182.14C583.561 181.166 579.386 179.636 575.49 177.549C571.594 175.461 567.977 172.957 564.916 169.756C561.855 166.556 559.35 162.938 557.541 158.764L569.507 154.311C570.481 156.955 571.873 159.46 573.542 161.686C575.212 163.912 577.16 165.86 579.247 167.391C581.334 168.922 583.839 170.313 586.483 171.148C589.126 171.983 591.77 172.539 594.692 172.539C600.119 172.539 604.71 171.426 608.328 169.2C611.946 166.974 615.007 164.052 617.233 160.434C619.459 156.816 621.129 152.781 622.103 148.189C623.077 143.597 623.634 139.005 623.634 134.414V128.848C620.433 133.301 616.398 136.64 611.806 138.727C607.215 140.814 602.206 141.928 596.64 141.928C589.405 141.928 583.004 140.675 577.438 138.031C571.873 135.388 567.003 132.048 563.107 127.596C559.211 123.143 556.15 117.995 554.202 112.011C552.254 106.028 551.141 99.6275 551.141 92.8095C551.141 85.9914 552.115 79.5908 554.202 73.6075C556.289 67.6243 559.211 62.4759 563.107 58.0233C567.003 53.5707 571.734 50.092 577.438 47.5874C583.143 45.0828 589.544 43.6914 596.64 43.6914C600.258 43.6914 603.736 44.2479 607.076 45.3611C610.415 46.4742 613.337 48.0048 616.12 49.9529C618.903 51.9009 621.268 54.2664 623.355 57.1885C625.442 60.1105 627.112 63.0325 628.225 66.5111L640.47 46.0568H651.044V128.848L650.905 128.987ZM623.216 93.0877C623.216 90.5831 623.216 88.0785 622.799 85.2956C622.381 82.5127 622.103 79.869 621.546 77.2252C620.99 74.5815 620.155 72.0769 619.042 69.5723C617.929 67.0677 616.676 64.9806 615.007 63.1717C613.337 61.3628 611.389 59.8322 609.024 58.7191C606.658 57.6059 604.015 57.0493 600.814 57.0493C597.614 57.0493 594.97 57.6059 592.744 58.7191C590.518 59.8322 588.57 61.3628 586.9 63.1717C585.23 64.9806 583.978 67.2068 582.865 69.7114C581.752 72.216 580.917 74.7206 580.36 77.3644C579.804 80.0081 579.386 82.6519 579.108 85.4348C578.83 88.2177 578.691 90.7222 578.691 93.0877C578.691 95.4532 578.691 98.097 579.108 100.741C579.526 103.384 579.804 106.167 580.36 108.811C580.917 111.455 581.752 114.099 582.865 116.464C583.978 118.829 585.23 121.056 586.9 123.004C588.57 124.952 590.518 126.343 592.744 127.456C594.97 128.57 597.753 129.126 600.814 129.126C603.597 129.126 606.102 128.57 608.328 127.317C610.554 126.065 612.502 124.534 614.172 122.586C615.842 120.638 617.233 118.412 618.346 115.907C619.459 113.403 620.433 110.759 621.129 108.115C621.825 105.472 622.381 102.828 622.66 100.184C622.938 97.5404 623.216 95.1749 623.216 92.9486V93.0877Z" fill="url(#paint13_linear_3136_6377)"/>
<defs>
<linearGradient id="paint0_linear_3136_6377" x1="50.9259" y1="20.176" x2="50.9259" y2="143.18" gradientUnits="userSpaceOnUse">
<stop offset="0.11" stop-color="#B4792E"/>
<stop offset="0.33" stop-color="#9A5724"/>
<stop offset="0.72" stop-color="#F6DE50"/>
<stop offset="0.84" stop-color="#F7E14C"/>
<stop offset="0.96" stop-color="#FCED40"/>
<stop offset="1" stop-color="#FFF33B"/>
</linearGradient>
<linearGradient id="paint1_linear_3136_6377" x1="50.9263" y1="22.959" x2="50.9263" y2="140.258" gradientUnits="userSpaceOnUse">
<stop stop-color="#FFF33B"/>
<stop offset="0.04" stop-color="#FCED40"/>
<stop offset="0.16" stop-color="#F7E14C"/>
<stop offset="0.28" stop-color="#F6DE50"/>
<stop offset="0.67" stop-color="#9A5724"/>
<stop offset="0.89" stop-color="#B4792E"/>
</linearGradient>
<linearGradient id="paint2_linear_3136_6377" x1="149.299" y1="41.0476" x2="149.299" y2="144.989" gradientUnits="userSpaceOnUse">
<stop offset="0.11" stop-color="#B4792E"/>
<stop offset="0.33" stop-color="#9A5724"/>
<stop offset="0.72" stop-color="#F6DE50"/>
<stop offset="0.84" stop-color="#F7E14C"/>
<stop offset="0.96" stop-color="#FCED40"/>
<stop offset="1" stop-color="#FFF33B"/>
</linearGradient>
<linearGradient id="paint3_linear_3136_6377" x1="149.3" y1="43.8306" x2="149.3" y2="142.206" gradientUnits="userSpaceOnUse">
<stop stop-color="#FFF33B"/>
<stop offset="0.04" stop-color="#FCED40"/>
<stop offset="0.16" stop-color="#F7E14C"/>
<stop offset="0.28" stop-color="#F6DE50"/>
<stop offset="0.67" stop-color="#9A5724"/>
<stop offset="0.89" stop-color="#B4792E"/>
</linearGradient>
<linearGradient id="paint4_linear_3136_6377" x1="272.44" y1="8.7661" x2="272.44" y2="145.267" gradientUnits="userSpaceOnUse">
<stop offset="0.11" stop-color="#B4792E"/>
<stop offset="0.33" stop-color="#9A5724"/>
<stop offset="0.72" stop-color="#F6DE50"/>
<stop offset="0.84" stop-color="#F7E14C"/>
<stop offset="0.96" stop-color="#FCED40"/>
<stop offset="1" stop-color="#FFF33B"/>
</linearGradient>
<linearGradient id="paint5_linear_3136_6377" x1="272.44" y1="11.5491" x2="272.44" y2="142.484" gradientUnits="userSpaceOnUse">
<stop stop-color="#FFF33B"/>
<stop offset="0.04" stop-color="#FCED40"/>
<stop offset="0.16" stop-color="#F7E14C"/>
<stop offset="0.28" stop-color="#F6DE50"/>
<stop offset="0.67" stop-color="#9A5724"/>
<stop offset="0.89" stop-color="#B4792E"/>
</linearGradient>
<linearGradient id="paint6_linear_3136_6377" x1="354.116" y1="0" x2="354.116" y2="143.18" gradientUnits="userSpaceOnUse">
<stop stop-color="#FFF33B"/>
<stop offset="0.04" stop-color="#FCED40"/>
<stop offset="0.16" stop-color="#F7E14C"/>
<stop offset="0.28" stop-color="#F6DE50"/>
<stop offset="0.67" stop-color="#9A5724"/>
<stop offset="0.89" stop-color="#B4792E"/>
</linearGradient>
<linearGradient id="paint7_linear_3136_6377" x1="354.116" y1="140.397" x2="354.116" y2="2.78271" gradientUnits="userSpaceOnUse">
<stop offset="0.11" stop-color="#B4792E"/>
<stop offset="0.33" stop-color="#9A5724"/>
<stop offset="0.72" stop-color="#F6DE50"/>
<stop offset="0.84" stop-color="#F7E14C"/>
<stop offset="0.96" stop-color="#FCED40"/>
<stop offset="1" stop-color="#FFF33B"/>
</linearGradient>
<linearGradient id="paint8_linear_3136_6377" x1="404.833" y1="5.84424" x2="404.833" y2="143.18" gradientUnits="userSpaceOnUse">
<stop stop-color="#FFF33B"/>
<stop offset="0.04" stop-color="#FCED40"/>
<stop offset="0.16" stop-color="#F7E14C"/>
<stop offset="0.28" stop-color="#F6DE50"/>
<stop offset="0.67" stop-color="#9A5724"/>
<stop offset="0.89" stop-color="#B4792E"/>
</linearGradient>
<linearGradient id="paint9_linear_3136_6377" x1="404.833" y1="140.258" x2="404.833" y2="8.48779" gradientUnits="userSpaceOnUse">
<stop offset="0.11" stop-color="#B4792E"/>
<stop offset="0.33" stop-color="#9A5724"/>
<stop offset="0.72" stop-color="#F6DE50"/>
<stop offset="0.84" stop-color="#F7E14C"/>
<stop offset="0.96" stop-color="#FCED40"/>
<stop offset="1" stop-color="#FFF33B"/>
</linearGradient>
<linearGradient id="paint10_linear_3136_6377" x1="489.779" y1="41.0476" x2="489.779" y2="163.773" gradientUnits="userSpaceOnUse">
<stop offset="0.11" stop-color="#B4792E"/>
<stop offset="0.33" stop-color="#9A5724"/>
<stop offset="0.72" stop-color="#F6DE50"/>
<stop offset="0.84" stop-color="#F7E14C"/>
<stop offset="0.96" stop-color="#FCED40"/>
<stop offset="1" stop-color="#FFF33B"/>
</linearGradient>
<linearGradient id="paint11_linear_3136_6377" x1="489.779" y1="43.8306" x2="489.779" y2="160.434" gradientUnits="userSpaceOnUse">
<stop stop-color="#FFF33B"/>
<stop offset="0.04" stop-color="#FCED40"/>
<stop offset="0.16" stop-color="#F7E14C"/>
<stop offset="0.28" stop-color="#F6DE50"/>
<stop offset="0.67" stop-color="#9A5724"/>
<stop offset="0.89" stop-color="#B4792E"/>
</linearGradient>
<linearGradient id="paint12_linear_3136_6377" x1="600.814" y1="41.0476" x2="600.814" y2="186.593" gradientUnits="userSpaceOnUse">
<stop offset="0.11" stop-color="#B4792E"/>
<stop offset="0.33" stop-color="#9A5724"/>
<stop offset="0.72" stop-color="#F6DE50"/>
<stop offset="0.84" stop-color="#F7E14C"/>
<stop offset="0.96" stop-color="#FCED40"/>
<stop offset="1" stop-color="#FFF33B"/>
</linearGradient>
<linearGradient id="paint13_linear_3136_6377" x1="600.814" y1="43.8306" x2="600.814" y2="183.81" gradientUnits="userSpaceOnUse">
<stop stop-color="#FFF33B"/>
<stop offset="0.04" stop-color="#FCED40"/>
<stop offset="0.16" stop-color="#F7E14C"/>
<stop offset="0.28" stop-color="#F6DE50"/>
<stop offset="0.67" stop-color="#9A5724"/>
<stop offset="0.89" stop-color="#B4792E"/>
</linearGradient>
</defs>
</svg>
