<svg width="756" height="223" viewBox="0 0 756 223" fill="none" xmlns="http://www.w3.org/2000/svg">
<path d="M0 210.53L2.18968 207.498C5.89529 202.276 9.26403 196.381 12.1275 189.812C14.9909 183.074 17.5174 176.169 19.3702 168.926C21.223 161.683 22.739 154.44 23.7496 147.197C24.7602 139.955 25.2655 132.88 25.2655 126.48V17.6694H71.2488V118.563C71.2488 127.996 70.0697 137.596 67.7116 147.197C65.3535 156.798 61.9848 166.231 57.7739 175.326C53.5629 184.422 48.3414 192.844 42.2777 200.76C36.2139 208.677 29.6449 215.583 22.4021 221.478L20.5493 222.994L0.168437 210.698L0 210.53Z" fill="url(#paint0_linear_5001_2)"/>
<path d="M67.7117 118.563C67.7117 127.659 66.5327 136.923 64.1745 146.524C61.8164 156.125 58.6161 165.052 54.4052 173.979C50.1943 182.906 45.1412 191.159 39.4143 198.739C33.6875 206.319 27.1184 213.225 20.0441 218.952L4.88477 209.856C8.75881 204.466 12.296 198.402 15.3279 191.496C18.3597 184.59 20.7178 177.516 22.7391 170.105C24.7603 162.694 26.2763 155.282 27.1184 147.871C27.9606 140.46 28.6344 133.386 28.6344 126.648V21.2066H67.8802V118.732L67.7117 118.563Z" fill="url(#paint1_linear_5001_2)"/>
<path d="M153.783 168.757C147.888 168.757 141.992 168.084 136.434 166.736C130.876 165.389 125.486 163.367 120.601 160.841C115.716 158.314 111 155.114 106.958 151.408C102.747 147.703 99.2094 143.492 96.1776 138.776C93.3142 134.059 90.956 129.006 89.2717 123.448C87.5873 117.889 86.7451 111.994 86.7451 105.93C86.7451 99.8666 87.5873 93.8029 89.2717 88.4129C90.956 82.8545 93.3142 77.8014 96.1776 73.0851C99.2094 68.3689 102.747 64.1579 106.958 60.4523C111.168 56.7467 115.716 53.5464 120.601 51.0199C125.486 48.4933 130.876 46.4721 136.434 45.1246C141.992 43.7771 147.888 43.1033 153.783 43.1033C159.678 43.1033 165.574 43.7771 171.132 45.1246C176.69 46.4721 182.08 48.4933 186.965 51.0199C191.85 53.5464 196.566 56.7467 200.608 60.4523C204.819 64.1579 208.357 68.3689 211.388 73.0851C214.252 77.8014 216.61 82.8545 218.294 88.4129C219.979 93.9713 220.821 99.8666 220.821 105.93C220.821 111.994 219.979 118.058 218.294 123.616C216.61 129.006 214.252 134.228 211.388 138.776C208.357 143.492 204.819 147.703 200.608 151.408C196.398 155.114 191.85 158.314 186.965 160.841C182.08 163.367 176.69 165.389 171.132 166.736C165.574 168.084 159.678 168.757 153.783 168.757ZM153.783 63.1473C150.583 63.1473 147.551 63.8211 145.024 65.0001C142.498 66.1792 140.14 67.8636 138.287 70.0533C136.266 72.2429 134.581 74.7695 133.402 77.4645C132.055 80.4964 130.876 83.5282 130.033 86.7285C129.191 89.9288 128.517 93.1291 128.181 96.4979C127.844 99.8666 127.675 102.898 127.675 105.762C127.675 108.625 127.844 111.826 128.181 115.026C128.517 118.226 129.191 121.595 130.033 124.795C130.876 127.996 132.055 131.196 133.402 134.059C134.75 136.923 136.434 139.449 138.287 141.471C140.14 143.492 142.498 145.176 145.024 146.524C147.551 147.703 150.414 148.376 153.783 148.376C157.152 148.376 160.184 147.703 162.879 146.524C165.574 145.345 167.763 143.66 169.616 141.639C171.637 139.618 173.153 137.091 174.501 134.228C175.848 131.364 177.027 128.332 177.869 124.964C178.712 121.763 179.385 118.395 179.722 115.026C180.059 111.657 180.228 108.457 180.228 105.425C180.228 102.393 180.059 99.1928 179.722 95.8241C179.385 92.4553 178.712 89.0866 178.038 85.8863C177.196 82.686 176.185 79.6542 174.838 76.7907C173.49 73.9273 171.806 71.5692 169.953 69.3795C168.1 67.3582 165.742 65.6739 163.215 64.4948C160.689 63.3158 157.657 62.642 154.12 62.642L153.783 63.1473Z" fill="url(#paint2_linear_5001_2)"/>
<path d="M217.452 105.93C217.452 111.826 216.61 117.384 215.094 122.606C213.578 127.827 211.388 132.543 208.525 137.091C205.661 141.639 202.293 145.513 198.419 149.05C194.545 152.587 190.165 155.619 185.449 157.977C180.733 160.335 175.68 162.357 170.29 163.536C164.9 164.715 159.341 165.557 153.783 165.557C148.225 165.557 142.666 164.883 137.276 163.536C131.886 162.188 127.001 160.335 122.285 157.977C117.569 155.619 113.19 152.587 109.316 149.05C105.442 145.513 102.073 141.639 99.2094 137.091C96.3459 132.543 94.1563 127.827 92.6403 122.606C91.1244 117.384 90.2822 111.826 90.2822 105.93C90.2822 100.035 91.1244 94.4766 92.6403 89.2551C94.1563 84.0335 96.3459 79.1488 99.2094 74.7695C102.073 70.3901 105.442 66.3476 109.316 62.8105C113.19 59.2733 117.569 56.2414 122.285 53.8833C127.001 51.5252 132.055 49.504 137.276 48.3249C142.498 47.1458 148.056 46.3036 153.783 46.3036C159.51 46.3036 164.9 46.9774 170.29 48.3249C175.68 49.6724 180.733 51.5252 185.449 53.8833C190.165 56.2414 194.545 59.2733 198.419 62.8105C202.293 66.3476 205.661 70.2217 208.525 74.7695C211.388 79.3173 213.578 84.0335 215.094 89.2551C216.61 94.4766 217.452 100.035 217.452 105.93ZM183.596 105.93C183.596 102.73 183.428 99.3613 183.091 95.9925C182.754 92.6238 182.08 89.0866 181.238 85.5495C180.396 82.0123 179.217 78.9804 177.701 75.7801C176.185 72.5798 174.332 69.8848 172.143 67.5267C169.953 65.1686 167.426 63.3158 164.394 61.9683C161.363 60.6208 157.825 59.7786 153.783 59.7786C149.74 59.7786 146.54 60.4523 143.677 61.9683C140.813 63.4842 138.118 65.337 135.929 67.6952C133.739 70.0533 131.886 72.9167 130.37 76.117C128.854 79.3173 127.675 82.5176 126.833 85.8863C125.991 89.2551 125.317 92.6238 124.812 96.161C124.306 99.6982 124.138 102.898 124.138 105.93C124.138 108.962 124.306 112.162 124.812 115.7C125.317 119.237 125.822 122.606 126.833 125.974C127.844 129.343 129.023 132.712 130.37 135.744C131.718 138.776 133.739 141.639 135.929 143.997C138.118 146.355 140.645 148.376 143.677 149.724C146.709 151.071 150.077 151.914 153.783 151.914C157.489 151.914 161.194 151.24 164.226 149.724C167.258 148.208 169.784 146.355 172.143 143.997C174.501 141.639 176.185 138.944 177.701 135.744C179.217 132.543 180.396 129.343 181.238 125.974C182.08 122.606 182.754 119.068 183.091 115.531C183.428 111.994 183.596 108.794 183.596 105.593V105.93Z" fill="url(#paint3_linear_5001_2)"/>
<path d="M235.306 166.399V45.7983H275.563V166.399H235.306ZM255.35 43.2718C252.319 43.2718 249.624 42.7665 246.929 41.5874C244.402 40.4084 242.044 38.8924 240.191 37.0396C238.17 35.0184 236.654 32.8287 235.643 30.1337C234.464 27.4387 233.959 24.5753 233.959 21.7119C233.959 18.8484 234.464 15.985 235.643 13.29C236.822 10.7635 238.338 8.40535 240.191 6.55254C242.212 4.69973 244.402 3.01537 246.929 2.00475C249.624 0.825691 252.319 0.320374 255.35 0.320374C258.382 0.320374 261.077 0.825691 263.772 2.00475C266.467 3.18381 268.657 4.69973 270.678 6.55254C272.531 8.57378 274.215 10.7635 275.226 13.29C276.405 15.985 276.91 18.68 276.91 21.7119C276.91 24.7437 276.405 27.4387 275.226 30.1337C274.047 32.8287 272.531 35.0184 270.678 37.0396C268.657 39.0609 266.467 40.5768 263.772 41.5874C261.077 42.7665 258.214 43.2718 255.35 43.2718Z" fill="url(#paint4_linear_5001_2)"/>
<path d="M273.541 21.5434C273.541 24.0699 273.036 26.4281 272.194 28.6177C271.351 30.8074 270.004 32.8287 268.32 34.513C266.635 36.1974 264.782 37.3765 262.424 38.3871C260.066 39.3977 257.876 39.7346 255.35 39.7346C252.823 39.7346 250.465 39.2293 248.276 38.3871C246.086 37.5449 244.065 36.1974 242.549 34.513C241.033 32.8287 239.685 30.9759 238.675 28.6177C237.664 26.2596 237.327 24.0699 237.327 21.5434C237.327 19.0168 237.832 16.6587 238.675 14.469C239.517 12.2794 240.864 10.2581 242.549 8.74218C244.233 7.22625 246.086 5.87876 248.276 4.86814C250.465 3.85752 252.823 3.52063 255.35 3.52063C257.876 3.52063 260.235 4.02596 262.424 4.86814C264.614 5.71032 266.635 7.05781 268.32 8.74218C270.004 10.4266 271.183 12.2794 272.194 14.469C273.204 16.6587 273.541 19.0168 273.541 21.5434ZM272.025 163.03H238.506V49.167H272.025V163.03Z" fill="url(#paint5_linear_5001_2)"/>
<path d="M361.297 181.895L362.982 178.864C364.666 175.663 366.351 172.126 367.866 168.252C369.382 164.21 370.73 159.999 372.077 155.619C373.256 151.071 374.436 146.524 375.446 141.639C376.457 136.754 377.299 132.038 377.973 127.322C378.646 122.606 379.152 118.058 379.489 113.678C379.826 109.299 379.994 105.088 379.994 101.383C379.994 98.856 379.994 96.161 379.657 93.2975C379.489 90.6025 379.152 87.7391 378.478 85.0441C377.973 82.3491 377.131 79.6542 376.12 77.1276C375.278 74.7695 373.93 72.7482 372.583 71.0639C371.067 69.3795 369.382 68.032 367.361 67.0214C365.34 66.0108 362.982 65.5054 360.118 65.5054C357.255 65.5054 355.065 66.0108 353.044 67.1898C350.854 68.5373 348.833 70.2217 347.149 72.2429C345.296 74.4326 343.78 76.9592 342.601 79.8226C341.253 82.686 340.243 85.7179 339.401 88.9182C338.558 91.95 337.885 94.9819 337.548 98.0138C337.211 101.046 337.043 103.741 337.043 106.099V166.568H296.786V45.7983H314.977L328.115 68.5373C329.463 66.1792 330.979 63.8211 332.663 61.6314C335.527 57.7574 339.064 54.3886 342.769 51.6936C346.475 48.9986 350.686 46.8089 355.402 45.293C359.95 43.7771 365.003 43.1033 370.225 43.1033C378.478 43.1033 385.889 44.4508 392.121 47.3143C398.354 50.0092 403.744 54.0517 407.954 58.9364C412.165 63.8211 415.197 69.7164 417.219 76.4538C419.24 83.0229 420.25 90.2657 420.25 98.0138C420.25 105.762 419.24 114.352 417.387 122.774C415.534 131.196 412.839 139.786 409.302 147.871C405.933 156.125 401.722 163.873 397.006 171.115C392.121 178.358 386.9 184.759 381.005 189.98L379.152 191.665L361.634 182.064L361.297 181.895Z" fill="url(#paint6_linear_5001_2)"/>
<path d="M416.544 97.8454C416.544 105.593 415.534 113.51 413.681 121.932C411.828 130.354 409.133 138.439 405.764 146.524C402.395 154.609 398.353 162.02 393.805 169.094C389.257 176.169 384.036 182.232 378.477 187.454L366.013 180.716C367.866 177.348 369.55 173.81 371.066 169.6C372.582 165.389 374.098 161.178 375.277 156.63C376.456 152.082 377.635 147.366 378.814 142.481C379.993 137.596 380.667 132.712 381.341 127.996C382.015 123.279 382.52 118.563 382.857 114.015C383.194 109.468 383.362 105.257 383.362 101.383C383.362 98.856 383.362 95.9925 383.025 93.1291C382.688 90.2657 382.351 87.2338 381.846 84.3704C381.341 81.507 380.33 78.6436 379.32 75.9486C378.309 73.2536 376.793 70.8955 375.109 68.8742C373.424 66.853 371.235 65.1686 368.708 63.9895C366.182 62.8105 363.318 62.1367 359.949 62.1367C356.581 62.1367 353.717 62.8105 351.191 64.3264C348.664 65.8423 346.306 67.6952 344.453 70.2217C342.6 72.7483 340.748 75.4433 339.4 78.4751C338.053 81.507 336.874 84.7073 335.863 88.076C334.852 91.4448 334.347 94.4766 334.01 97.6769C333.673 100.877 333.336 103.741 333.336 106.099V163.199H299.817V49.1671H312.619L327.946 75.7801C329.799 71.4008 332.157 67.3583 334.852 63.8211C337.547 60.2839 340.748 57.0836 344.285 54.5571C347.822 52.0305 351.696 50.0093 355.907 48.6618C360.118 47.3143 364.666 46.6405 369.719 46.6405C377.635 46.6405 384.541 47.988 390.268 50.5146C395.995 53.0411 401.048 56.5783 404.922 61.2945C408.796 66.0108 411.659 71.2323 413.681 77.6329C415.702 84.0335 416.544 90.771 416.544 98.1822V97.8454Z" fill="url(#paint7_linear_5001_2)"/>
<path d="M559.548 169.6C552.136 169.6 545.062 168.589 538.661 166.399C532.261 164.378 526.366 161.346 520.976 157.64C515.586 153.935 510.869 149.556 506.658 144.502C502.447 139.449 499.079 133.891 496.215 127.996C493.52 122.1 491.331 115.7 489.983 109.131C488.636 102.562 487.962 95.8241 487.962 89.0866V87.2338C487.962 81.8439 488.636 76.117 489.646 70.3901C490.657 64.6633 492.004 58.9364 493.689 53.0411C495.373 47.3143 497.394 41.5874 499.921 35.8605C502.279 30.1337 504.974 24.7437 508.006 19.5222L509.017 17.8378H544.388L542.872 22.2172C541.188 27.4387 539.672 32.8287 538.325 38.3871C536.977 43.9455 535.966 49.6724 535.124 55.2308C534.282 60.7892 533.608 66.3477 533.271 71.7376C532.935 77.1276 532.598 82.3492 532.598 87.2338V99.3613C532.598 103.741 532.935 108.288 533.44 112.836C533.945 117.384 534.619 121.763 535.798 125.974C536.809 130.017 538.325 133.722 540.346 136.923C542.199 139.955 544.725 142.481 547.757 144.166C550.62 145.85 554.326 146.861 558.874 146.861C562.916 146.861 566.285 146.187 569.149 144.839C572.012 143.492 574.37 141.639 576.391 139.449C578.413 137.091 580.097 134.396 581.276 131.364C582.623 128.164 583.466 124.795 584.308 121.258C584.982 117.721 585.487 114.015 585.655 110.31C585.824 106.604 585.992 102.898 585.992 99.5297V17.8378H631.975V93.466C631.975 104.078 630.291 114.184 626.754 123.448C623.385 132.712 618.501 140.797 612.1 147.703C605.868 154.609 598.12 159.999 589.192 163.873C580.265 167.747 570.328 169.768 559.548 169.768V169.6Z" fill="url(#paint8_linear_5001_2)"/>
<path d="M539.672 21.0381C537.819 26.4281 536.303 31.8181 534.956 37.5449C533.608 43.2718 532.598 48.9987 531.755 54.5571C530.913 60.1155 530.239 65.8424 529.903 71.4008C529.566 76.9592 529.229 82.1807 529.229 87.0654C529.229 90.6026 529.229 94.8135 529.229 99.1929C529.229 103.572 529.566 108.288 530.071 113.005C530.576 117.721 531.419 122.269 532.429 126.648C533.44 131.027 535.293 135.07 537.482 138.607C539.672 142.144 542.535 144.839 545.904 147.029C549.273 149.219 553.652 150.229 558.705 150.229C563.253 150.229 567.127 149.387 570.328 147.871C573.528 146.355 576.391 144.166 578.581 141.639C580.771 139.112 582.623 135.912 583.971 132.543C585.318 129.175 586.329 125.469 587.171 121.763C588.013 118.058 588.35 114.184 588.687 110.31C589.024 106.436 589.024 102.73 589.024 99.3613V21.0381H628.27V93.2976C628.27 103.572 626.585 113.173 623.385 122.1C620.185 131.027 615.469 138.776 609.405 145.176C603.341 151.577 596.098 156.798 587.676 160.504C579.255 164.21 569.822 166.062 559.379 166.062C552.305 166.062 545.736 165.052 539.504 163.03C533.271 161.009 527.713 158.314 522.66 154.777C517.607 151.24 513.059 147.029 509.016 142.313C504.974 137.596 501.774 132.207 499.079 126.48C496.384 120.753 494.362 114.689 493.015 108.288C491.667 101.888 490.994 95.4872 491.162 88.9182V86.897C491.162 81.6754 491.836 76.117 492.678 70.5586C493.52 65.0001 495.036 59.2733 496.721 53.7149C498.405 48.1565 500.426 42.4296 502.784 36.8712C505.142 31.3128 507.837 25.9228 510.701 20.8697H539.504L539.672 21.0381Z" fill="url(#paint9_linear_5001_2)"/>
<path d="M699.35 168.757C693.454 168.757 688.233 168.42 683.853 167.578C679.306 166.736 674.926 165.557 670.715 163.873C666.504 162.188 662.462 159.999 658.419 157.304C654.377 154.777 649.998 151.577 645.113 147.703L641.744 145.176L667.683 123.953L669.536 127.659C671.052 130.691 673.242 133.386 675.937 135.912C678.632 138.439 681.495 140.797 684.527 142.65C687.391 144.502 690.254 145.85 693.117 146.861C696.318 148.04 698.17 148.208 699.181 148.208C700.697 148.208 702.381 148.208 704.066 148.208C705.919 148.208 707.771 147.871 709.624 147.703C711.477 147.366 713.161 147.029 715.014 146.524C716.53 146.018 718.046 145.345 719.225 144.502C720.236 143.829 721.078 142.818 721.752 141.807C722.257 140.797 722.594 139.449 722.594 137.933C722.594 136.417 722.257 135.07 721.415 133.891C720.573 132.543 719.225 131.364 717.878 130.354C716.193 129.343 714.34 128.332 712.319 127.49C709.961 126.648 707.771 125.974 705.413 125.301C703.055 124.627 700.866 124.122 698.676 123.616C696.318 123.111 694.296 122.606 692.612 122.1L683.011 119.574C679.642 118.732 676.105 117.552 672.737 116.373C669.199 115.194 665.999 113.678 662.799 111.994C659.598 110.31 656.567 108.12 654.208 105.762C651.682 103.235 649.492 100.372 647.976 97.0032C646.46 93.6344 645.618 89.5919 645.618 85.0441C645.618 77.1276 647.303 70.2217 650.503 64.8317C653.703 59.4417 657.914 55.0624 663.136 51.6936C668.189 48.4933 674.084 46.1352 680.653 44.9561C686.885 43.6087 693.454 42.9349 700.023 42.9349C704.571 42.9349 709.456 43.4402 714.34 44.2824C719.394 45.1246 724.278 46.6405 728.994 48.3249C733.711 50.1777 738.258 52.3674 742.301 55.0624C746.512 57.7574 750.049 60.9577 752.913 64.3264L755.102 66.853L729.331 87.9076L727.647 83.5282C726.299 79.991 724.615 76.7907 722.594 74.4326C720.404 71.9061 718.215 69.7164 715.688 68.2004C713.161 66.5161 710.803 65.337 708.277 64.6633C705.75 63.9895 703.392 63.4842 701.371 63.4842C699.013 63.4842 696.486 63.4842 693.623 63.8211C690.928 63.9895 688.401 64.4948 686.212 65.337C684.022 66.0108 682.337 67.1898 680.821 68.7058C679.642 69.8848 679.137 71.7376 679.137 74.0957C679.137 75.7801 679.474 77.1276 680.148 78.3067C680.99 79.6542 682.169 80.8332 683.517 81.6754C685.032 82.686 686.885 83.6967 688.907 84.3704C691.096 85.2126 693.286 85.8863 695.644 86.3916C698.002 87.0654 700.192 87.5707 702.381 87.9076C704.74 88.4129 706.761 88.9182 708.614 89.4235C711.645 90.2657 714.846 91.1079 718.214 91.9501C721.752 92.7922 725.12 93.9713 728.489 95.1504C731.858 96.3294 735.227 97.6769 738.427 99.3613C741.796 101.046 744.828 103.235 747.354 105.593C749.881 108.12 752.07 111.152 753.586 114.521C755.102 117.889 755.944 121.932 755.944 126.48C755.944 131.87 755.102 136.754 753.586 140.965C752.07 145.176 749.881 149.05 747.017 152.082C744.322 155.282 740.953 157.809 737.248 159.999C733.711 162.02 729.668 163.704 725.626 165.052C721.583 166.231 717.204 167.241 712.825 167.747C708.445 168.252 704.066 168.589 699.686 168.589L699.35 168.757Z" fill="url(#paint10_linear_5001_2)"/>
<path d="M752.407 126.648C752.407 131.701 751.734 136.081 750.218 139.955C748.702 143.829 746.849 147.197 744.322 150.061C741.796 152.924 738.932 155.282 735.395 157.304C731.858 159.325 728.321 160.841 724.447 162.02C720.573 163.199 716.362 164.041 712.151 164.546C707.94 165.052 703.561 165.389 699.35 165.389C693.623 165.389 688.738 165.052 684.359 164.378C679.979 163.704 675.937 162.525 671.894 160.841C667.852 159.156 663.978 157.135 660.104 154.609C656.23 152.082 651.85 148.882 646.966 145.176L666.336 129.343C668.189 132.712 670.547 135.744 673.41 138.439C676.274 141.134 679.306 143.492 682.506 145.513C685.706 147.534 688.738 149.05 691.602 150.061C694.465 151.071 696.992 151.577 698.844 151.577C700.36 151.577 702.045 151.577 703.898 151.577C705.75 151.577 707.772 151.24 709.793 150.903C711.814 150.566 713.667 150.229 715.688 149.556C717.709 148.882 719.225 148.208 720.741 147.197C722.257 146.187 723.436 144.839 724.278 143.323C725.121 141.807 725.626 139.955 725.626 137.765C725.626 135.575 725.121 133.554 723.941 131.87C722.762 130.185 721.246 128.669 719.394 127.49C717.541 126.311 715.52 125.132 712.993 124.29C710.467 123.448 708.277 122.606 705.919 122.1C703.561 121.595 701.202 120.921 699.013 120.416C696.823 119.911 694.802 119.405 693.118 119.068C690.086 118.226 686.885 117.384 683.517 116.373C680.148 115.363 676.779 114.521 673.579 113.342C670.379 112.163 667.178 110.815 664.146 109.299C661.115 107.783 658.588 105.762 656.23 103.572C653.872 101.383 652.187 98.6875 650.84 95.8241C649.492 92.9607 648.819 89.2551 648.819 85.381C648.819 77.9698 650.335 71.9061 653.198 66.853C656.061 61.7999 659.935 57.9258 664.82 54.8939C669.705 51.8621 675.095 49.8408 681.158 48.4933C687.222 47.1458 693.454 46.6405 699.855 46.6405C704.234 46.6405 708.782 47.1458 713.498 47.988C718.215 48.8302 722.931 50.1777 727.479 51.8621C732.026 53.5465 736.237 55.7361 740.28 58.2627C744.322 60.7892 747.523 63.6527 750.218 66.853L730.847 82.8545C729.331 78.9804 727.479 75.4433 725.121 72.7483C722.762 70.0533 720.236 67.5267 717.541 65.8424C714.846 64.158 711.982 62.642 709.119 61.7999C706.256 60.9577 703.561 60.4524 701.203 60.4524C698.844 60.4524 696.149 60.4524 693.286 60.7892C690.423 61.1261 687.559 61.463 684.864 62.4736C682.169 63.4842 679.979 64.8317 678.295 66.6845C676.611 68.5373 675.6 71.0639 675.6 74.4326C675.6 76.7908 676.105 78.812 677.284 80.4963C678.464 82.1807 679.811 83.6967 681.495 84.8757C683.18 86.0548 685.369 87.0654 687.559 87.9076C689.749 88.7498 692.107 89.4235 694.465 90.0973C696.823 90.771 699.181 91.2763 701.371 91.7816C703.561 92.2869 705.582 92.7922 707.435 93.2976C710.467 94.1397 713.667 94.9819 717.036 95.9925C720.404 97.0032 723.773 97.8454 726.973 99.0244C730.174 100.203 733.374 101.551 736.574 103.067C739.775 104.583 742.301 106.436 744.659 108.794C747.017 111.152 748.87 113.678 750.218 116.71C751.565 119.742 752.239 123.279 752.239 127.322L752.407 126.648Z" fill="url(#paint11_linear_5001_2)"/>
<defs>
<linearGradient id="paint0_linear_5001_2" x1="35.5402" y1="222.826" x2="35.5402" y2="17.6694" gradientUnits="userSpaceOnUse">
<stop stop-color="#FFF33B"/>
<stop offset="0.04" stop-color="#FCED40"/>
<stop offset="0.16" stop-color="#F7E14C"/>
<stop offset="0.28" stop-color="#F6DE50"/>
<stop offset="0.67" stop-color="#9A5724"/>
<stop offset="0.89" stop-color="#B4792E"/>
</linearGradient>
<linearGradient id="paint1_linear_5001_2" x1="36.3825" y1="218.783" x2="36.3825" y2="21.0381" gradientUnits="userSpaceOnUse">
<stop offset="0.11" stop-color="#B4792E"/>
<stop offset="0.33" stop-color="#9A5724"/>
<stop offset="0.72" stop-color="#F6DE50"/>
<stop offset="0.84" stop-color="#F7E14C"/>
<stop offset="0.96" stop-color="#FCED40"/>
<stop offset="1" stop-color="#FFF33B"/>
</linearGradient>
<linearGradient id="paint2_linear_5001_2" x1="153.951" y1="168.757" x2="153.951" y2="42.9349" gradientUnits="userSpaceOnUse">
<stop stop-color="#FFF33B"/>
<stop offset="0.04" stop-color="#FCED40"/>
<stop offset="0.16" stop-color="#F7E14C"/>
<stop offset="0.28" stop-color="#F6DE50"/>
<stop offset="0.67" stop-color="#9A5724"/>
<stop offset="0.89" stop-color="#B4792E"/>
</linearGradient>
<linearGradient id="paint3_linear_5001_2" x1="153.951" y1="165.389" x2="153.951" y2="46.3036" gradientUnits="userSpaceOnUse">
<stop offset="0.11" stop-color="#B4792E"/>
<stop offset="0.33" stop-color="#9A5724"/>
<stop offset="0.72" stop-color="#F6DE50"/>
<stop offset="0.84" stop-color="#F7E14C"/>
<stop offset="0.96" stop-color="#FCED40"/>
<stop offset="1" stop-color="#FFF33B"/>
</linearGradient>
<linearGradient id="paint4_linear_5001_2" x1="255.35" y1="166.399" x2="255.35" y2="-0.0165006" gradientUnits="userSpaceOnUse">
<stop stop-color="#FFF33B"/>
<stop offset="0.04" stop-color="#FCED40"/>
<stop offset="0.16" stop-color="#F7E14C"/>
<stop offset="0.28" stop-color="#F6DE50"/>
<stop offset="0.67" stop-color="#9A5724"/>
<stop offset="0.89" stop-color="#B4792E"/>
</linearGradient>
<linearGradient id="paint5_linear_5001_2" x1="255.35" y1="163.03" x2="255.35" y2="3.3522" gradientUnits="userSpaceOnUse">
<stop offset="0.11" stop-color="#B4792E"/>
<stop offset="0.33" stop-color="#9A5724"/>
<stop offset="0.72" stop-color="#F6DE50"/>
<stop offset="0.84" stop-color="#F7E14C"/>
<stop offset="0.96" stop-color="#FCED40"/>
<stop offset="1" stop-color="#FFF33B"/>
</linearGradient>
<linearGradient id="paint6_linear_5001_2" x1="358.266" y1="191.496" x2="358.266" y2="42.9349" gradientUnits="userSpaceOnUse">
<stop stop-color="#FFF33B"/>
<stop offset="0.04" stop-color="#FCED40"/>
<stop offset="0.16" stop-color="#F7E14C"/>
<stop offset="0.28" stop-color="#F6DE50"/>
<stop offset="0.67" stop-color="#9A5724"/>
<stop offset="0.89" stop-color="#B4792E"/>
</linearGradient>
<linearGradient id="paint7_linear_5001_2" x1="358.265" y1="187.454" x2="358.265" y2="46.3037" gradientUnits="userSpaceOnUse">
<stop offset="0.11" stop-color="#B4792E"/>
<stop offset="0.33" stop-color="#9A5724"/>
<stop offset="0.72" stop-color="#F6DE50"/>
<stop offset="0.84" stop-color="#F7E14C"/>
<stop offset="0.96" stop-color="#FCED40"/>
<stop offset="1" stop-color="#FFF33B"/>
</linearGradient>
<linearGradient id="paint8_linear_5001_2" x1="559.884" y1="169.6" x2="559.884" y2="-206.689" gradientUnits="userSpaceOnUse">
<stop stop-color="#FFF33B"/>
<stop offset="0.04" stop-color="#FCED40"/>
<stop offset="0.16" stop-color="#F7E14C"/>
<stop offset="0.178876" stop-color="#F6DE50"/>
<stop offset="0.288504" stop-color="#9A5724"/>
<stop offset="0.89" stop-color="#B4792E"/>
</linearGradient>
<linearGradient id="paint9_linear_5001_2" x1="559.884" y1="166.231" x2="559.884" y2="-206.689" gradientUnits="userSpaceOnUse">
<stop offset="0.0333454" stop-color="#B4792E"/>
<stop offset="0.141482" stop-color="#9A5724"/>
<stop offset="0.29515" stop-color="#F6DE50"/>
<stop offset="0.37483" stop-color="#FFF33B"/>
<stop offset="0.84" stop-color="#F7E14C"/>
<stop offset="0.96" stop-color="#FCED40"/>
</linearGradient>
<linearGradient id="paint10_linear_5001_2" x1="698.676" y1="168.757" x2="698.676" y2="42.9349" gradientUnits="userSpaceOnUse">
<stop stop-color="#FFF33B"/>
<stop offset="0.04" stop-color="#FCED40"/>
<stop offset="0.16" stop-color="#F7E14C"/>
<stop offset="0.28" stop-color="#F6DE50"/>
<stop offset="0.67" stop-color="#9A5724"/>
<stop offset="0.89" stop-color="#B4792E"/>
</linearGradient>
<linearGradient id="paint11_linear_5001_2" x1="699.687" y1="165.389" x2="699.687" y2="46.3037" gradientUnits="userSpaceOnUse">
<stop offset="0.11" stop-color="#B4792E"/>
<stop offset="0.33" stop-color="#9A5724"/>
<stop offset="0.72" stop-color="#F6DE50"/>
<stop offset="0.84" stop-color="#F7E14C"/>
<stop offset="0.96" stop-color="#FCED40"/>
<stop offset="1" stop-color="#FFF33B"/>
</linearGradient>
</defs>
</svg>
