<svg width="228" height="55" viewBox="0 0 228 55" fill="none" xmlns="http://www.w3.org/2000/svg">
<path d="M16.182 36.878C16.182 40.5153 15.4793 43.6153 14.074 46.178C12.71 48.7407 10.8293 50.6833 8.432 52.006C6.03467 53.37 3.286 54.114 0.186 54.238V48.41C3.07933 48.2447 5.456 47.2113 7.316 45.31C9.21733 43.45 10.168 40.5773 10.168 36.692V0.173997H16.182V36.878ZM31.0145 31.918C31.0145 29.3553 31.6139 27.0407 32.8125 24.974C34.0525 22.9073 35.7472 21.2747 37.8965 20.076C40.0459 18.8773 42.4845 18.278 45.2125 18.278C48.0232 18.278 50.4825 18.8773 52.5905 20.076C54.6985 21.2747 56.3312 22.9073 57.4885 24.974C58.6459 27.0407 59.2245 29.3553 59.2245 31.918C59.2245 34.4807 58.6459 36.816 57.4885 38.924C56.3312 40.9907 54.6779 42.6233 52.5285 43.822C50.4205 45.0207 47.9612 45.62 45.1505 45.62C42.4225 45.62 39.9839 45.062 37.8345 43.946C35.7265 42.7887 34.0525 41.1973 32.8125 39.172C31.6139 37.1053 31.0145 34.6873 31.0145 31.918ZM36.7805 31.98C36.7805 33.6333 37.1525 35.142 37.8965 36.506C38.6405 37.8287 39.6325 38.8827 40.8725 39.668C42.1539 40.4533 43.5592 40.846 45.0885 40.846C46.7005 40.846 48.1265 40.4533 49.3665 39.668C50.6479 38.8827 51.6399 37.8287 52.3425 36.506C53.0452 35.142 53.3965 33.6333 53.3965 31.98C53.3965 30.3267 53.0452 28.8387 52.3425 27.516C51.6399 26.152 50.6479 25.0773 49.3665 24.292C48.1265 23.4653 46.7005 23.052 45.0885 23.052C43.5179 23.052 42.0919 23.4653 40.8105 24.292C39.5705 25.1187 38.5785 26.214 37.8345 27.578C37.1319 28.9007 36.7805 30.368 36.7805 31.98ZM72.6117 19.332H78.3777V45H72.6117V19.332ZM72.1777 10.032C72.1777 9.12267 72.529 8.358 73.2317 7.738C73.9757 7.118 74.7817 6.808 75.6497 6.808C76.5177 6.808 77.2824 7.118 77.9437 7.738C78.6464 8.358 78.9977 9.12267 78.9977 10.032C78.9977 10.9827 78.6464 11.768 77.9437 12.388C77.2824 12.9667 76.5177 13.256 75.6497 13.256C74.7817 13.256 73.9757 12.946 73.2317 12.326C72.529 11.706 72.1777 10.9413 72.1777 10.032ZM99.0799 19.332L99.5759 25.594L99.3279 24.602C100.155 22.7007 101.498 21.192 103.358 20.076C105.218 18.9187 107.367 18.34 109.806 18.34C112.245 18.34 114.229 19.0633 115.758 20.51C117.329 21.9153 118.135 23.7547 118.176 26.028V45H112.348V28.074C112.307 26.6687 111.893 25.532 111.108 24.664C110.364 23.7547 109.186 23.3 107.574 23.3C106.086 23.3 104.743 23.7133 103.544 24.54C102.345 25.3667 101.395 26.5033 100.692 27.95C100.031 29.3967 99.6999 31.0707 99.6999 32.972V45H93.9339V19.332H99.0799ZM165.801 29.128C165.801 31.1533 166.276 32.972 167.227 34.584C168.219 36.1547 169.521 37.3947 171.133 38.304C172.745 39.2133 174.563 39.668 176.589 39.668C178.697 39.668 180.577 39.2133 182.231 38.304C183.884 37.3947 185.186 36.1547 186.137 34.584C187.087 32.972 187.563 31.1533 187.563 29.128V0.173997H193.453V29.314C193.453 32.5793 192.688 35.4313 191.159 37.87C189.671 40.3087 187.645 42.1893 185.083 43.512C182.561 44.8347 179.73 45.496 176.589 45.496C173.447 45.496 170.616 44.8347 168.095 43.512C165.573 42.1893 163.569 40.3087 162.081 37.87C160.593 35.4313 159.849 32.5793 159.849 29.314V0.173997H165.801V29.128ZM217.102 45.496C215.284 45.496 213.506 45.186 211.77 44.566C210.076 43.9047 208.67 42.9333 207.554 41.652L209.972 38.304C211.047 39.3373 212.142 40.1227 213.258 40.66C214.416 41.156 215.552 41.404 216.668 41.404C217.495 41.404 218.26 41.3007 218.962 41.094C219.665 40.8873 220.223 40.5567 220.636 40.102C221.091 39.606 221.318 38.9447 221.318 38.118C221.318 37.2087 221.008 36.4853 220.388 35.948C219.81 35.4107 219.045 34.9767 218.094 34.646C217.185 34.3153 216.214 34.0053 215.18 33.716C213.072 33.0133 211.46 32.042 210.344 30.802C209.228 29.562 208.67 28.0533 208.67 26.276C208.67 24.912 209.001 23.6513 209.662 22.494C210.365 21.2953 211.378 20.324 212.7 19.58C214.064 18.836 215.738 18.464 217.722 18.464C219.5 18.464 221.091 18.6913 222.496 19.146C223.902 19.5593 225.224 20.262 226.464 21.254L224.17 24.85C223.426 24.0647 222.538 23.486 221.504 23.114C220.471 22.742 219.541 22.5353 218.714 22.494C218.012 22.4527 217.33 22.556 216.668 22.804C216.048 23.052 215.532 23.4033 215.118 23.858C214.705 24.3127 214.498 24.85 214.498 25.47C214.498 26.338 214.788 27.0407 215.366 27.578C215.945 28.1153 216.689 28.5493 217.598 28.88C218.549 29.1693 219.479 29.4793 220.388 29.81C221.67 30.182 222.806 30.678 223.798 31.298C224.79 31.918 225.576 32.6827 226.154 33.592C226.774 34.5013 227.084 35.638 227.084 37.002C227.084 38.5313 226.712 39.9573 225.968 41.28C225.266 42.5613 224.17 43.5947 222.682 44.38C221.236 45.124 219.376 45.496 217.102 45.496Z" fill="black"/>
</svg>
