<svg width="592" height="173" viewBox="0 0 592 173" fill="none" xmlns="http://www.w3.org/2000/svg">
<path d="M60.0216 134.68C54.4411 134.68 49.1086 133.936 43.9001 132.571C38.8156 131.207 33.9792 129.223 29.5148 126.743C25.0503 124.263 20.958 121.162 17.3616 117.566C13.7653 113.969 10.665 109.877 8.06075 105.536C5.45651 101.196 3.47233 96.3594 2.1082 91.1508C0.74407 86.0662 0 80.6095 0 75.0289C0 69.4483 0.74407 64.1157 2.1082 58.9071C3.47233 53.8225 5.45651 48.9859 8.06075 44.5214C10.665 40.1809 13.7653 36.0884 17.3616 32.492C20.958 28.8956 25.0503 25.7953 29.5148 23.315C33.9792 20.8347 38.8156 18.8505 43.9001 17.4863C48.9846 16.1222 54.4411 15.3781 60.0216 15.3781C65.6021 15.3781 70.5626 15.9982 75.6471 17.2383C80.8556 18.4785 85.692 20.4627 90.1564 23.067C94.6209 25.6713 98.7132 29.0196 102.31 32.8641C105.906 36.8325 108.758 41.5451 110.742 46.8777L112.479 51.3422L90.5285 60.5193L88.9163 55.3107C88.0483 52.5824 86.9322 50.1021 85.568 47.8699C84.2039 45.7616 82.5917 43.9014 80.8556 42.2892C78.9954 40.801 77.0112 39.5609 74.655 38.8168C72.2988 37.9487 69.8185 37.5767 66.9663 37.5767C63.99 37.5767 61.2617 38.0727 58.7815 39.0648C56.3013 40.0569 53.9451 41.4211 52.0849 43.1573C50.1007 44.8935 48.2405 47.0017 46.7524 49.358C45.1402 51.8383 43.7761 54.4425 42.784 57.2949C41.6679 60.1472 40.9238 63.1235 40.3038 66.0999C39.8077 69.0762 39.4357 72.1766 39.4357 75.0289C39.4357 79.7414 39.9317 84.454 41.0478 89.0426C42.0399 93.5071 43.7761 97.5995 46.0083 101.072C48.1165 104.42 50.9688 107.149 54.4411 109.257C57.7894 111.241 61.8818 112.233 66.8423 112.233C68.8264 112.233 70.3146 111.861 71.1827 111.117C71.5547 110.869 71.9267 109.629 71.9267 107.521V70.4404H110.742V132.323H94.6209L90.7765 126.123C86.9322 128.479 82.7158 130.339 78.3753 131.703C72.4228 133.564 66.0982 134.432 59.8976 134.432L60.0216 134.68Z" fill="url(#paint0_linear_3136_515)"/>
<path d="M60.0058 132.199C54.6733 132.199 49.4648 131.579 44.6283 130.214C39.6679 128.85 35.0794 126.99 30.863 124.634C26.6466 122.153 22.6783 119.177 19.2059 115.829C15.7336 112.356 12.7573 108.512 10.2771 104.295C7.79687 100.079 5.93669 95.4903 4.57256 90.5298C3.20844 85.5692 2.58838 80.4846 2.58838 75.152C2.58838 69.8194 3.20844 64.6108 4.57256 59.7743C5.93669 54.8137 7.79687 50.2252 10.2771 46.0087C12.7573 41.7922 15.7336 37.9478 19.2059 34.4754C22.6783 31.003 26.5226 28.0266 30.863 25.6703C35.0794 23.3141 39.7919 21.3298 44.6283 20.0896C49.5888 18.7255 54.6733 18.1055 60.0058 18.1055C65.3383 18.1055 70.1747 18.7256 75.1352 19.9657C80.0956 21.2058 84.6841 23.066 89.0245 25.5463C93.3649 28.0266 97.2092 31.127 100.558 34.8474C103.906 38.5678 106.634 43.1563 108.494 48.1169L109.362 50.3492L92.2488 57.542L91.3807 54.9377C90.5126 51.9614 89.2725 49.2331 87.7844 46.8768C86.2962 44.5205 84.5601 42.4123 82.4519 40.8001C80.4677 39.1879 78.1115 37.8238 75.5072 36.8317C72.903 35.8395 70.0507 35.4675 66.9504 35.4675C63.6021 35.4675 60.6258 35.9635 57.8976 37.0796C55.1693 38.1958 52.6891 39.6839 50.4569 41.5442C48.2247 43.4044 46.2405 45.6366 44.6283 48.2409C42.8922 50.8452 41.528 53.6976 40.4119 56.5499C39.2958 59.5262 38.4277 62.6266 37.8077 65.851C37.1876 69.0753 36.9396 72.1757 36.9396 75.2761C36.9396 80.1126 37.5597 85.0732 38.6758 89.9098C39.7919 94.6223 41.528 98.9628 44.0083 102.683C46.3645 106.404 49.4648 109.38 53.3091 111.736C57.0295 113.968 61.6179 115.085 66.9504 115.085C69.5547 115.085 71.5388 114.589 72.903 113.472C74.0191 112.48 74.6391 110.62 74.6391 107.892V73.2918H108.494V130.214H96.2172L91.7527 123.146C87.4123 125.998 82.8239 128.23 77.8634 129.718C72.0349 131.455 66.0823 132.323 60.0058 132.323V132.199Z" fill="url(#paint1_linear_3136_515)"/>
<path d="M106.151 48.8612L93.7494 54.0699C92.7573 50.9696 91.5172 47.9932 89.905 45.3889C88.2928 42.7846 86.3087 40.5523 84.0765 38.6921C81.8442 36.8319 79.24 35.3437 76.3877 34.3516C73.5355 33.3595 70.4352 32.7395 66.9629 32.7395C63.3665 32.7395 60.0182 33.3596 56.9179 34.5997C53.8176 35.8398 51.2134 37.452 48.7331 39.5602C46.2529 41.6684 44.2687 44.0247 42.4086 46.753C40.5484 49.4813 39.1842 52.4577 37.9441 55.558C36.704 58.6584 35.8359 61.8827 35.2159 65.2311C34.5958 68.5795 34.3478 71.8039 34.3478 75.0282C34.3478 80.1128 34.9679 85.1974 36.084 90.158C37.2001 95.1185 39.1842 99.707 41.7885 103.799C44.3927 107.892 47.741 111.116 51.8334 113.597C55.9258 116.077 60.8863 117.317 66.8388 117.317C70.0631 117.317 72.5434 116.573 74.2795 115.209C76.0157 113.845 77.0078 111.24 77.0078 107.644V75.5243H105.902V127.486H97.5937L92.5092 119.301C87.7968 122.898 82.7123 125.502 77.1318 127.114C71.5513 128.726 65.8467 129.594 60.0182 129.594C54.9337 129.594 49.9733 128.974 45.2608 127.734C40.5484 126.494 36.084 124.634 32.1156 122.402C28.1472 120.169 24.3029 117.317 21.0786 113.969C17.8542 110.62 14.878 107.024 12.5218 103.055C10.1655 99.087 8.30536 94.6225 7.06524 89.91C5.82512 85.1974 5.08105 80.2368 5.08105 75.1523C5.08105 70.0677 5.70111 65.1071 7.06524 60.3946C8.42937 55.682 10.1655 51.3416 12.5218 47.2491C14.878 43.1566 17.7302 39.5602 21.0786 36.2119C24.4269 32.8635 28.1472 30.1352 32.1156 27.7789C36.084 25.4226 40.5484 23.6864 45.2608 22.4463C49.9733 21.2061 54.9337 20.5861 60.0182 20.5861C65.1027 20.5861 69.8151 21.2061 74.5276 22.3222C79.24 23.4384 83.7044 25.2987 87.6728 27.5309C91.6412 29.7632 95.3615 32.8635 98.5858 36.3359C101.81 39.8083 104.29 44.0247 106.151 48.8612Z" fill="url(#paint2_linear_3136_515)"/>
<path d="M159.973 134.183C152.905 134.183 146.456 132.943 140.751 130.339C135.047 127.735 130.21 124.262 126.242 119.798C122.398 115.333 119.297 110.125 117.313 104.172C115.329 98.3432 114.213 92.0185 114.213 85.4458C114.213 78.873 115.205 72.5483 117.313 66.7196C119.297 60.767 122.398 55.5583 126.242 51.0938C130.21 46.6293 135.047 43.0329 140.751 40.5527C146.456 37.9484 152.905 36.7083 159.973 36.7083C163.694 36.7083 167.414 37.3283 170.762 38.4444C174.11 39.5606 177.335 41.1727 180.187 43.281C183.039 45.3892 185.52 47.8695 187.752 50.7218C188 51.0939 188.248 51.4659 188.496 51.7139L196.185 38.6924H213.422V132.571H178.947V128.975C177.831 129.719 176.715 130.339 175.475 130.835C170.762 133.067 165.43 134.183 159.849 134.183H159.973ZM163.818 58.2867C161.833 58.2867 160.097 58.6587 158.857 59.2788C157.493 60.0229 156.253 60.8909 155.137 62.1311C154.021 63.3712 153.029 64.9834 152.408 66.5956C151.54 68.4558 150.92 70.4401 150.424 72.5483C149.928 74.6566 149.556 76.8888 149.432 79.121C149.184 81.3533 149.184 83.4616 149.184 85.4458C149.184 87.43 149.184 89.5382 149.432 91.7704C149.68 94.0027 149.928 96.111 150.424 98.3433C150.92 100.452 151.54 102.436 152.408 104.296C153.153 106.032 154.021 107.52 155.137 108.76C156.129 109.877 157.369 110.869 158.857 111.613C160.221 112.233 161.833 112.605 163.818 112.605C165.554 112.605 167.042 112.233 168.158 111.613C169.522 110.869 170.762 109.877 171.878 108.636C173.118 107.272 174.11 105.66 174.855 103.8C175.723 101.816 176.467 99.8314 177.087 97.7232C177.707 95.6149 178.079 93.3827 178.327 91.2745C178.575 89.1662 178.699 87.182 178.699 85.4458C178.699 83.4616 178.699 81.2293 178.451 78.997C178.203 76.7648 177.955 74.6565 177.459 72.4243C176.963 70.316 176.343 68.4559 175.599 66.4717C174.855 64.8595 173.986 63.2473 172.746 62.0071C171.754 60.891 170.514 59.8989 169.026 59.2788C167.662 58.6587 165.926 58.2867 163.818 58.2867Z" fill="url(#paint3_linear_3136_515)"/>
<path d="M159.957 131.703C153.261 131.703 147.184 130.463 141.728 128.107C136.395 125.751 131.807 122.402 128.086 118.186C124.366 113.969 121.514 109.009 119.654 103.428C117.669 97.8475 116.801 91.7709 116.801 85.4461C116.801 79.1214 117.793 73.0447 119.654 67.464C121.638 61.8834 124.49 56.9229 128.086 52.7064C131.807 48.4899 136.395 45.1415 141.728 42.7852C147.06 40.4289 153.137 39.1888 159.957 39.1888C163.43 39.1888 166.778 39.6849 170.002 40.801C173.103 41.7931 176.079 43.4052 178.683 45.2655C181.287 47.1257 183.644 49.482 185.628 52.2103C186.62 53.5745 187.612 55.0626 188.356 56.5508L197.533 41.297H210.926V130.215H181.411V124.139C179.303 125.999 176.947 127.611 174.467 128.727C170.126 130.835 165.166 131.827 159.957 131.827V131.703ZM163.802 55.8067C161.445 55.8067 159.337 56.1788 157.725 57.0469C155.989 57.915 154.501 59.031 153.261 60.3952C152.021 61.8834 150.904 63.6196 150.036 65.4798C149.168 67.4641 148.424 69.6963 147.928 71.9285C147.432 74.1608 147.06 76.5171 146.812 78.7494C146.564 81.1056 146.44 83.2139 146.44 85.3221C146.44 87.4303 146.44 89.5386 146.812 91.8948C147.06 94.2511 147.432 96.4834 147.928 98.7157C148.424 100.948 149.168 103.056 150.036 105.164C150.904 107.149 151.897 108.885 153.261 110.249C154.501 111.613 155.989 112.853 157.725 113.597C159.461 114.465 161.445 114.837 163.802 114.837C165.91 114.837 167.77 114.465 169.382 113.597C170.994 112.729 172.483 111.489 173.847 110.001C175.211 108.389 176.327 106.653 177.195 104.668C178.187 102.56 178.931 100.452 179.551 98.2196C180.171 95.9873 180.543 93.7551 180.915 91.5228C181.163 89.2905 181.287 87.1823 181.287 85.4461C181.287 83.3379 181.287 81.1056 180.915 78.7494C180.667 76.3931 180.295 74.1608 179.799 71.9285C179.303 69.6963 178.559 67.5881 177.691 65.6039C176.823 63.7437 175.831 62.0074 174.467 60.5192C173.227 59.1551 171.738 58.039 169.878 57.1709C168.142 56.4268 166.034 55.9307 163.678 55.9307L163.802 55.8067Z" fill="url(#paint4_linear_3136_515)"/>
<path d="M208.458 127.61H183.904V117.565C181.052 121.533 177.455 124.51 173.363 126.37C169.271 128.23 164.806 129.222 159.846 129.222C153.397 129.222 147.693 128.106 142.732 125.75C137.772 123.394 133.431 120.417 129.959 116.449C126.487 112.48 123.758 107.892 122.022 102.559C120.286 97.2267 119.294 91.522 119.294 85.4453C119.294 79.3686 120.162 73.6639 122.022 68.3313C123.882 62.9987 126.487 58.4102 129.959 54.4417C133.431 50.4733 137.648 47.3729 142.732 45.1407C147.817 42.9084 153.521 41.6683 159.846 41.6683C163.07 41.6683 166.17 42.1643 169.147 43.1564C172.123 44.1485 174.727 45.5127 177.207 47.2489C179.688 48.9851 181.796 51.0933 183.656 53.6976C185.516 56.3019 187.004 58.9063 187.996 62.0066L198.909 43.7765H208.334V127.734L208.458 127.61ZM183.78 85.4453C183.78 83.2131 183.78 80.9808 183.408 78.5005C183.036 76.0202 182.788 73.664 182.292 71.3077C181.796 68.9514 181.052 66.7191 180.06 64.4869C179.068 62.2546 177.951 60.3944 176.463 58.7822C174.975 57.17 173.239 55.8059 171.131 54.8138C169.023 53.8217 166.666 53.3256 163.814 53.3256C160.962 53.3256 158.606 53.8217 156.621 54.8138C154.637 55.8059 152.901 57.17 151.413 58.7822C149.925 60.3944 148.809 62.3787 147.817 64.6109C146.824 66.8432 146.08 69.0754 145.584 71.4316C145.088 73.7879 144.716 76.1442 144.468 78.6245C144.22 81.1048 144.096 83.3371 144.096 85.4453C144.096 87.5536 144.096 89.9098 144.468 92.2661C144.84 94.6223 145.088 97.1026 145.584 99.4589C146.08 101.815 146.824 104.172 147.817 106.28C148.809 108.388 149.925 110.372 151.413 112.108C152.901 113.845 154.637 115.085 156.621 116.077C158.606 117.069 161.086 117.565 163.814 117.565C166.294 117.565 168.527 117.069 170.511 115.953C172.495 114.837 174.231 113.473 175.719 111.736C177.207 110 178.447 108.016 179.44 105.784C180.432 103.551 181.3 101.195 181.92 98.8389C182.54 96.4826 183.036 94.1263 183.284 91.77C183.532 89.4137 183.78 87.3055 183.78 85.3213V85.4453Z" fill="url(#paint5_linear_3136_515)"/>
<path d="M223.978 132.571V0H241.216L258.453 29.1433V132.571H223.978Z" fill="url(#paint6_linear_3136_515)"/>
<path d="M226.432 130.091V2.4805H239.825L255.947 29.7636V130.091H226.432Z" fill="url(#paint7_linear_3136_515)"/>
<path d="M253.479 127.611H228.925V5.0845H238.35L253.479 30.6315V127.735V127.611Z" fill="url(#paint8_linear_3136_515)"/>
<path d="M268.977 132.571V0H286.214L303.576 29.1433V132.571H268.977Z" fill="url(#paint9_linear_3136_515)"/>
<path d="M271.47 130.091V2.4805H284.863L301.109 29.7636V130.091H271.47Z" fill="url(#paint10_linear_3136_515)"/>
<path d="M298.612 127.611H274.058V5.0845H283.483L298.612 30.6315V127.735V127.611Z" fill="url(#paint11_linear_3136_515)"/>
<path d="M358.53 134.183C351.586 134.183 345.013 132.943 338.937 130.587C332.86 128.231 327.652 124.758 323.311 120.418C318.971 116.077 315.498 110.869 313.018 104.916C310.538 98.9634 309.298 92.3906 309.298 85.3218C309.298 78.253 310.538 71.6802 313.018 65.7275C315.498 59.7749 318.971 54.5663 323.311 50.2258C327.652 45.8853 332.984 42.5369 338.937 40.0566C344.889 37.7004 351.462 36.4602 358.53 36.4602C361.879 36.4602 365.227 36.7083 368.699 37.2044C372.172 37.7004 375.644 38.4445 378.992 39.4366C382.341 40.4287 385.565 41.7928 388.541 43.529C391.642 45.2652 394.494 47.4975 396.85 50.1018C399.206 52.7061 401.19 55.8065 402.555 59.2789C404.043 62.7512 404.663 66.7197 404.663 71.0602C404.663 75.1526 403.919 78.873 402.555 82.0974C401.19 85.3218 399.33 88.1741 397.098 90.6544C394.866 93.0107 392.262 95.1189 389.285 96.7311C388.665 97.1031 387.921 97.4752 387.177 97.8473L403.919 104.048L401.935 108.76C400.074 113.101 397.47 117.069 394.246 120.294C391.146 123.394 387.549 125.998 383.581 128.107C379.736 130.091 375.52 131.579 371.18 132.571C366.963 133.563 362.623 134.059 358.406 134.059L358.53 134.183ZM347.121 102.684C348.113 105.04 349.354 107.024 350.842 108.76C352.33 110.373 354.19 111.737 356.298 112.729C358.53 113.721 361.135 114.217 364.359 114.217C366.343 114.217 368.327 113.969 370.064 113.349C371.924 112.729 373.66 111.861 375.148 110.745C376.636 109.629 378 108.264 379.24 106.776C380.48 105.164 381.473 103.428 382.217 101.568L382.713 100.203C381.969 100.451 381.101 100.824 380.356 101.072C377.256 102.064 373.908 102.808 370.684 103.18C367.459 103.552 364.235 103.8 361.259 103.8C357.414 103.8 353.57 103.552 349.85 102.932C348.982 102.808 347.989 102.684 347.121 102.436C347.121 102.56 347.121 102.684 347.245 102.808L347.121 102.684ZM344.145 83.7096C345.757 83.9577 347.245 84.2057 348.858 84.4537C351.71 84.8257 354.438 84.9498 357.29 84.9498C360.143 84.9498 362.747 84.7018 365.103 84.2057C367.211 83.7097 368.947 82.9656 370.436 81.9735C371.8 80.9813 372.792 79.7411 373.66 78.129C374.528 76.5168 374.9 74.1605 374.9 71.4322C374.9 69.0759 374.652 66.9677 374.032 65.1075C373.412 63.3713 372.668 62.0071 371.552 60.767C370.56 59.6508 369.195 58.6588 367.707 58.0387C366.095 57.4187 364.111 57.0466 361.879 57.0466C359.895 57.0466 358.034 57.4186 356.546 58.1627C354.934 58.9068 353.446 59.8989 352.206 61.263C350.842 62.6272 349.726 64.2394 348.734 66.0996C347.741 68.0838 346.873 70.1921 346.129 72.4243C345.385 74.6566 344.889 76.8888 344.641 79.1211C344.393 80.7333 344.269 82.3454 344.269 83.8336L344.145 83.7096Z" fill="url(#paint12_linear_3136_515)"/>
<path d="M358.532 131.703C351.836 131.703 345.635 130.587 339.93 128.355C334.226 126.123 329.265 122.898 325.049 118.806C320.957 114.713 317.608 109.753 315.252 104.172C312.896 98.5915 311.656 92.2668 311.656 85.57C311.656 78.8733 312.896 72.6726 315.252 66.9679C317.608 61.2633 320.833 56.4268 325.049 52.3343C329.141 48.2418 334.226 45.0174 339.93 42.7852C345.635 40.5529 351.836 39.4368 358.532 39.4368C361.756 39.4368 364.981 39.6848 368.329 40.0568C371.677 40.5529 375.026 41.297 378.126 42.1651C381.35 43.1572 384.451 44.3974 387.179 46.0096C390.155 47.6218 392.759 49.73 394.868 52.0862C397.1 54.4425 398.836 57.2948 400.076 60.5192C401.316 63.7436 402.06 67.34 402.06 71.4324C402.06 75.1529 401.44 78.6252 400.2 81.6016C398.96 84.5779 397.348 87.1823 395.116 89.4145C393.007 91.6468 390.651 93.507 387.923 94.9951C385.319 96.4833 382.342 97.7235 379.366 98.5916C376.39 99.5837 373.29 100.204 370.065 100.576C366.965 100.948 363.865 101.196 360.888 101.196C357.168 101.196 353.448 100.948 349.727 100.452C347.495 100.08 345.139 99.7077 342.907 99.0876C343.279 100.7 343.899 102.188 344.395 103.8C345.387 106.404 346.875 108.637 348.611 110.621C350.347 112.481 352.456 113.969 354.936 115.085C357.416 116.202 360.516 116.698 363.989 116.698C366.221 116.698 368.453 116.326 370.561 115.705C372.67 114.961 374.53 114.093 376.266 112.729C378.002 111.489 379.49 110.001 380.854 108.265C382.218 106.528 383.335 104.544 384.079 102.436L384.947 100.204L400.324 105.908L399.332 108.265C397.596 112.357 395.24 115.954 392.263 118.93C389.287 121.906 385.939 124.387 382.218 126.247C378.498 128.107 374.53 129.595 370.437 130.463C366.345 131.331 362.253 131.827 358.16 131.827L358.532 131.703ZM341.419 85.6941C343.775 86.1901 346.255 86.5622 348.611 86.9342C351.464 87.3062 354.44 87.4303 357.416 87.4303C360.392 87.4303 363.245 87.1822 365.725 86.5622C368.081 86.0661 370.189 85.198 371.925 83.9579C373.662 82.7177 374.902 81.2296 375.894 79.2454C376.886 77.2612 377.382 74.6568 377.382 71.4324C377.382 68.8281 377.01 66.4719 376.39 64.3636C375.77 62.3794 374.778 60.5192 373.414 59.155C372.173 57.7909 370.561 56.6748 368.701 55.8067C366.841 54.9386 364.485 54.5665 361.88 54.5665C359.524 54.5665 357.292 55.0626 355.432 55.8067C353.572 56.6748 351.836 57.915 350.347 59.4031C348.859 60.8913 347.495 62.7514 346.503 64.8597C345.387 66.9679 344.519 69.2002 343.775 71.5565C343.031 73.9127 342.535 76.269 342.163 78.6253C341.791 80.9815 341.667 83.3379 341.667 85.4461L341.419 85.6941Z" fill="url(#paint13_linear_3136_515)"/>
<path d="M399.829 71.1837C399.829 74.6561 399.333 77.6324 398.217 80.3607C397.101 83.089 395.613 85.4453 393.629 87.4295C391.645 89.4137 389.536 91.15 386.932 92.6382C384.328 94.1264 381.724 95.2425 378.871 96.1106C376.019 96.9787 373.043 97.5987 370.067 98.0947C367.09 98.5908 364.114 98.7149 361.262 98.7149C357.665 98.7149 354.069 98.4668 350.473 97.9707C346.876 97.4746 343.404 96.6066 340.056 95.4905C340.552 98.7148 341.42 101.691 342.66 104.667C343.9 107.644 345.388 110.124 347.372 112.232C349.357 114.341 351.713 116.077 354.565 117.317C357.417 118.557 360.766 119.177 364.61 119.177C367.214 119.177 369.57 118.805 371.927 118.061C374.283 117.317 376.391 116.201 378.375 114.837C380.359 113.473 381.972 111.736 383.46 109.876C384.948 108.016 386.188 105.784 387.056 103.427L397.721 107.396C396.109 111.24 393.877 114.589 391.149 117.317C388.42 120.045 385.196 122.402 381.724 124.262C378.251 126.122 374.531 127.362 370.563 128.354C366.594 129.346 362.75 129.718 358.781 129.718C352.333 129.718 346.504 128.602 341.048 126.494C335.591 124.386 331.003 121.285 327.034 117.441C323.066 113.597 320.09 108.884 317.858 103.551C315.625 98.2188 314.509 92.2661 314.509 85.9414C314.509 79.6167 315.625 73.6639 317.858 68.3313C320.09 62.9987 323.19 58.2862 327.034 54.4417C330.879 50.5973 335.591 47.4969 341.048 45.3886C346.504 43.2804 352.333 42.1642 358.781 42.1642C361.882 42.1642 365.106 42.4123 368.33 42.7844C371.555 43.1564 374.779 43.9005 377.755 44.8926C380.732 45.8847 383.708 47.0009 386.436 48.613C389.164 50.2252 391.521 51.9614 393.505 54.1937C395.489 56.4259 397.101 58.9062 398.341 61.8826C399.581 64.8589 400.077 68.0833 400.077 71.8038L399.829 71.1837ZM339.312 87.6776C342.288 88.2977 345.264 88.9177 348.364 89.2897C351.465 89.6618 354.441 89.9098 357.417 89.9098C360.394 89.9098 363.618 89.6618 366.346 89.0417C369.074 88.4217 371.431 87.4296 373.415 85.9414C375.399 84.4532 377.011 82.593 378.127 80.2367C379.243 77.8805 379.863 74.904 379.863 71.4316C379.863 68.5793 379.491 65.975 378.747 63.6188C378.003 61.2625 376.763 59.1543 375.275 57.5421C373.787 55.9299 371.927 54.5658 369.694 53.5736C367.462 52.5815 364.858 52.2095 361.882 52.2095C359.153 52.2095 356.673 52.7055 354.441 53.6976C352.209 54.6897 350.349 56.0539 348.612 57.7901C346.876 59.5263 345.512 61.5106 344.272 63.7428C343.032 65.9751 342.164 68.4554 341.296 70.8116C340.428 73.1679 339.932 75.7722 339.684 78.2525C339.436 80.7328 339.188 83.089 339.188 85.3213V86.4375C339.188 86.4375 339.188 87.1815 339.188 87.5535L339.312 87.6776Z" fill="url(#paint14_linear_3136_515)"/>
<path d="M410.098 132.571V38.6924H427.583L434.528 52.458C434.528 52.458 434.776 51.962 434.9 51.838C436.884 48.8617 439.24 46.1334 441.845 43.9011C444.573 41.6688 447.673 39.8086 451.021 38.5685C454.494 37.3283 458.338 36.7083 462.555 36.7083C464.663 36.7083 467.019 36.8323 469.499 37.2043C472.103 37.5764 474.708 38.1964 477.188 39.0645C479.792 39.9326 482.272 41.0488 484.505 42.5369C486.985 44.1491 489.093 46.1333 490.457 48.6136L492.069 51.2179L470.863 86.314L467.639 75.5247C467.143 73.6645 466.399 71.6802 465.531 69.324C464.787 67.2157 463.795 65.2315 462.555 63.4953C461.562 61.8831 460.322 60.5189 458.834 59.5268C457.842 58.7827 456.726 58.4108 455.238 58.4108C453.998 58.4108 453.006 58.6588 452.138 59.2788C451.021 60.0229 450.029 61.1391 449.285 62.3792C448.293 63.8674 447.549 65.6036 446.929 67.5878C446.309 69.696 445.689 71.8043 445.317 74.0366C444.945 76.2688 444.697 78.377 444.573 80.4853C444.449 82.5935 444.325 84.3297 444.325 85.8179V132.819H409.726L410.098 132.571Z" fill="url(#paint15_linear_3136_515)"/>
<path d="M412.59 130.091V41.1725H425.983L434.292 57.6663C435.16 56.0542 436.028 54.5661 436.896 53.2019C438.756 50.3496 440.989 47.8693 443.345 45.885C445.825 43.7768 448.677 42.1646 451.778 41.0485C454.878 39.9324 458.474 39.3123 462.443 39.3123C464.427 39.3123 466.659 39.4363 469.139 39.8084C471.619 40.1804 474.1 40.6765 476.456 41.5446C478.812 42.4127 481.168 43.4048 483.152 44.769C485.385 46.1331 487.121 47.9933 488.361 49.9775L489.105 51.2177L471.619 80.237L470.007 74.9044C469.387 73.0442 468.767 70.9359 467.775 68.5796C466.907 66.3474 465.791 64.2391 464.551 62.2549C463.311 60.3947 461.946 58.7825 460.21 57.5424C458.722 56.4263 457.11 55.9302 455.126 55.9302C453.39 55.9302 451.902 56.3023 450.661 57.1704C449.297 58.1625 448.057 59.4026 447.065 61.0148C446.073 62.751 445.081 64.6112 444.461 66.7194C443.717 68.9517 443.221 71.184 442.849 73.5402C442.477 75.8965 442.229 78.0047 442.105 80.237C441.981 82.3452 441.857 84.2054 441.857 85.8176V130.339H412.218L412.59 130.091Z" fill="url(#paint16_linear_3136_515)"/>
<path d="M486.506 51.0933L472.741 74.036C472.121 72.0517 471.377 69.9434 470.508 67.4631C469.64 64.9829 468.4 62.7507 467.036 60.6424C465.672 58.5342 464.06 56.798 462.2 55.3098C460.339 53.8216 458.107 53.2016 455.627 53.2016C453.395 53.2016 451.411 53.8217 449.674 54.9378C447.938 56.0539 446.574 57.666 445.458 59.5262C444.342 61.3865 443.35 63.4947 442.606 65.851C441.862 68.2073 441.242 70.5635 440.87 72.9198C440.498 75.2761 440.126 77.6323 440.002 79.8646C439.878 82.0968 439.754 83.957 439.754 85.5692V127.61H415.075V43.6525H424.5L434.421 63.2467C435.785 60.1464 437.273 57.17 439.133 54.5657C440.994 51.9614 442.854 49.6052 445.21 47.7449C447.566 45.8847 450.047 44.3966 452.899 43.2804C455.751 42.1643 459.099 41.6683 462.696 41.6683C464.556 41.6683 466.664 41.7922 469.02 42.1642C471.377 42.5363 473.609 43.0324 475.841 43.7765C478.073 44.5206 480.181 45.5127 482.042 46.7528C483.902 47.9929 485.39 49.4811 486.506 51.2173V51.0933Z" fill="url(#paint17_linear_3136_515)"/>
<path d="M511.919 162.211L518.616 150.429C520.228 147.577 521.84 144.725 523.328 141.748C524.94 138.772 526.304 135.796 527.668 132.943C528.66 130.835 529.404 128.975 530.025 127.115L490.961 38.6926H526.304L547.386 86.6861L563.632 38.6926H591.658L558.299 119.426C554.827 127.983 550.734 136.54 546.394 144.849C542.054 153.282 537.217 161.343 532.257 169.032L529.653 173L511.919 162.211Z" fill="url(#paint18_linear_3136_515)"/>
<path d="M515.276 161.342C515.276 161.342 519.121 154.521 520.733 151.669C522.345 148.816 523.957 145.964 525.569 142.864C527.181 139.887 528.546 136.911 529.91 133.935C531.026 131.454 532.018 129.098 532.638 126.99L494.814 41.1721H524.825L547.767 93.5061L565.501 41.1721H587.947L555.952 118.433C552.48 126.866 548.512 135.423 544.171 143.608C539.831 151.917 535.118 159.978 530.158 167.667L528.794 169.651L515.152 161.342H515.276Z" fill="url(#paint19_linear_3136_515)"/>
<path d="M584.234 43.6526L553.727 117.441C550.254 125.874 546.41 134.183 542.07 142.492C537.729 150.801 533.141 158.738 528.18 166.303L518.631 160.474C519.872 158.242 521.236 155.761 522.972 152.909C524.708 150.057 526.196 147.08 527.808 144.104C529.42 141.128 530.909 138.027 532.273 135.051C533.637 132.075 534.629 129.346 535.373 126.866L498.666 43.6526H523.22L548.146 100.451L567.368 43.6526H584.358H584.234Z" fill="url(#paint20_linear_3136_515)"/>
<defs>
<linearGradient id="paint0_linear_3136_515" x1="56.3013" y1="15.5021" x2="56.3013" y2="134.68" gradientUnits="userSpaceOnUse">
<stop offset="0.11" stop-color="#B4792E"/>
<stop offset="0.33" stop-color="#9A5724"/>
<stop offset="0.72" stop-color="#F6DE50"/>
<stop offset="0.84" stop-color="#F7E14C"/>
<stop offset="0.96" stop-color="#FCED40"/>
<stop offset="1" stop-color="#FFF33B"/>
</linearGradient>
<linearGradient id="paint1_linear_3136_515" x1="56.0374" y1="17.9815" x2="56.0374" y2="132.199" gradientUnits="userSpaceOnUse">
<stop stop-color="#FFF33B"/>
<stop offset="0.04" stop-color="#FCED40"/>
<stop offset="0.16" stop-color="#F7E14C"/>
<stop offset="0.28" stop-color="#F6DE50"/>
<stop offset="0.67" stop-color="#9A5724"/>
<stop offset="0.89" stop-color="#B4792E"/>
</linearGradient>
<linearGradient id="paint2_linear_3136_515" x1="55.6778" y1="20.462" x2="55.6778" y2="129.718" gradientUnits="userSpaceOnUse">
<stop stop-color="#FFF33B"/>
<stop offset="0.04" stop-color="#FCED40"/>
<stop offset="0.16" stop-color="#F7E14C"/>
<stop offset="0.28" stop-color="#F6DE50"/>
<stop offset="0.67" stop-color="#9A5724"/>
<stop offset="0.89" stop-color="#B4792E"/>
</linearGradient>
<linearGradient id="paint3_linear_3136_515" x1="163.818" y1="36.5842" x2="163.818" y2="134.183" gradientUnits="userSpaceOnUse">
<stop offset="0.11" stop-color="#B4792E"/>
<stop offset="0.33" stop-color="#9A5724"/>
<stop offset="0.72" stop-color="#F6DE50"/>
<stop offset="0.84" stop-color="#F7E14C"/>
<stop offset="0.96" stop-color="#FCED40"/>
<stop offset="1" stop-color="#FFF33B"/>
</linearGradient>
<linearGradient id="paint4_linear_3136_515" x1="163.802" y1="39.0648" x2="163.802" y2="131.703" gradientUnits="userSpaceOnUse">
<stop stop-color="#FFF33B"/>
<stop offset="0.04" stop-color="#FCED40"/>
<stop offset="0.16" stop-color="#F7E14C"/>
<stop offset="0.28" stop-color="#F6DE50"/>
<stop offset="0.67" stop-color="#9A5724"/>
<stop offset="0.89" stop-color="#B4792E"/>
</linearGradient>
<linearGradient id="paint5_linear_3136_515" x1="163.814" y1="41.5443" x2="163.814" y2="129.222" gradientUnits="userSpaceOnUse">
<stop stop-color="#FFF33B"/>
<stop offset="0.04" stop-color="#FCED40"/>
<stop offset="0.16" stop-color="#F7E14C"/>
<stop offset="0.28" stop-color="#F6DE50"/>
<stop offset="0.67" stop-color="#9A5724"/>
<stop offset="0.89" stop-color="#B4792E"/>
</linearGradient>
<linearGradient id="paint6_linear_3136_515" x1="241.216" y1="0" x2="241.216" y2="132.571" gradientUnits="userSpaceOnUse">
<stop offset="0.11" stop-color="#B4792E"/>
<stop offset="0.33" stop-color="#9A5724"/>
<stop offset="0.72" stop-color="#F6DE50"/>
<stop offset="0.84" stop-color="#F7E14C"/>
<stop offset="0.96" stop-color="#FCED40"/>
<stop offset="1" stop-color="#FFF33B"/>
</linearGradient>
<linearGradient id="paint7_linear_3136_515" x1="241.19" y1="2.4805" x2="241.19" y2="130.091" gradientUnits="userSpaceOnUse">
<stop stop-color="#FFF33B"/>
<stop offset="0.04" stop-color="#FCED40"/>
<stop offset="0.16" stop-color="#F7E14C"/>
<stop offset="0.28" stop-color="#F6DE50"/>
<stop offset="0.67" stop-color="#9A5724"/>
<stop offset="0.89" stop-color="#B4792E"/>
</linearGradient>
<linearGradient id="paint8_linear_3136_515" x1="241.202" y1="4.96049" x2="241.202" y2="127.611" gradientUnits="userSpaceOnUse">
<stop stop-color="#FFF33B"/>
<stop offset="0.04" stop-color="#FCED40"/>
<stop offset="0.16" stop-color="#F7E14C"/>
<stop offset="0.28" stop-color="#F6DE50"/>
<stop offset="0.67" stop-color="#9A5724"/>
<stop offset="0.89" stop-color="#B4792E"/>
</linearGradient>
<linearGradient id="paint9_linear_3136_515" x1="286.214" y1="0" x2="286.214" y2="132.571" gradientUnits="userSpaceOnUse">
<stop offset="0.11" stop-color="#B4792E"/>
<stop offset="0.33" stop-color="#9A5724"/>
<stop offset="0.72" stop-color="#F6DE50"/>
<stop offset="0.84" stop-color="#F7E14C"/>
<stop offset="0.96" stop-color="#FCED40"/>
<stop offset="1" stop-color="#FFF33B"/>
</linearGradient>
<linearGradient id="paint10_linear_3136_515" x1="286.227" y1="2.4805" x2="286.227" y2="130.091" gradientUnits="userSpaceOnUse">
<stop stop-color="#FFF33B"/>
<stop offset="0.04" stop-color="#FCED40"/>
<stop offset="0.16" stop-color="#F7E14C"/>
<stop offset="0.28" stop-color="#F6DE50"/>
<stop offset="0.67" stop-color="#9A5724"/>
<stop offset="0.89" stop-color="#B4792E"/>
</linearGradient>
<linearGradient id="paint11_linear_3136_515" x1="286.211" y1="4.96049" x2="286.211" y2="127.611" gradientUnits="userSpaceOnUse">
<stop stop-color="#FFF33B"/>
<stop offset="0.04" stop-color="#FCED40"/>
<stop offset="0.16" stop-color="#F7E14C"/>
<stop offset="0.28" stop-color="#F6DE50"/>
<stop offset="0.67" stop-color="#9A5724"/>
<stop offset="0.89" stop-color="#B4792E"/>
</linearGradient>
<linearGradient id="paint12_linear_3136_515" x1="357.042" y1="36.5842" x2="357.042" y2="134.183" gradientUnits="userSpaceOnUse">
<stop offset="0.11" stop-color="#B4792E"/>
<stop offset="0.33" stop-color="#9A5724"/>
<stop offset="0.72" stop-color="#F6DE50"/>
<stop offset="0.84" stop-color="#F7E14C"/>
<stop offset="0.96" stop-color="#FCED40"/>
<stop offset="1" stop-color="#FFF33B"/>
</linearGradient>
<linearGradient id="paint13_linear_3136_515" x1="357.044" y1="39.0648" x2="357.044" y2="131.703" gradientUnits="userSpaceOnUse">
<stop stop-color="#FFF33B"/>
<stop offset="0.04" stop-color="#FCED40"/>
<stop offset="0.16" stop-color="#F7E14C"/>
<stop offset="0.28" stop-color="#F6DE50"/>
<stop offset="0.67" stop-color="#9A5724"/>
<stop offset="0.89" stop-color="#B4792E"/>
</linearGradient>
<linearGradient id="paint14_linear_3136_515" x1="357.045" y1="41.5442" x2="357.045" y2="129.222" gradientUnits="userSpaceOnUse">
<stop stop-color="#FFF33B"/>
<stop offset="0.04" stop-color="#FCED40"/>
<stop offset="0.16" stop-color="#F7E14C"/>
<stop offset="0.28" stop-color="#F6DE50"/>
<stop offset="0.67" stop-color="#9A5724"/>
<stop offset="0.89" stop-color="#B4792E"/>
</linearGradient>
<linearGradient id="paint15_linear_3136_515" x1="451.145" y1="36.5842" x2="451.145" y2="132.571" gradientUnits="userSpaceOnUse">
<stop offset="0.11" stop-color="#B4792E"/>
<stop offset="0.33" stop-color="#9A5724"/>
<stop offset="0.72" stop-color="#F6DE50"/>
<stop offset="0.84" stop-color="#F7E14C"/>
<stop offset="0.96" stop-color="#FCED40"/>
<stop offset="1" stop-color="#FFF33B"/>
</linearGradient>
<linearGradient id="paint16_linear_3136_515" x1="451.033" y1="39.0643" x2="451.033" y2="130.091" gradientUnits="userSpaceOnUse">
<stop stop-color="#FFF33B"/>
<stop offset="0.04" stop-color="#FCED40"/>
<stop offset="0.16" stop-color="#F7E14C"/>
<stop offset="0.28" stop-color="#F6DE50"/>
<stop offset="0.67" stop-color="#9A5724"/>
<stop offset="0.89" stop-color="#B4792E"/>
</linearGradient>
<linearGradient id="paint17_linear_3136_515" x1="450.791" y1="41.5443" x2="450.791" y2="127.61" gradientUnits="userSpaceOnUse">
<stop stop-color="#FFF33B"/>
<stop offset="0.04" stop-color="#FCED40"/>
<stop offset="0.16" stop-color="#F7E14C"/>
<stop offset="0.28" stop-color="#F6DE50"/>
<stop offset="0.67" stop-color="#9A5724"/>
<stop offset="0.89" stop-color="#B4792E"/>
</linearGradient>
<linearGradient id="paint18_linear_3136_515" x1="541.31" y1="38.6926" x2="541.31" y2="173" gradientUnits="userSpaceOnUse">
<stop offset="0.11" stop-color="#B4792E"/>
<stop offset="0.33" stop-color="#9A5724"/>
<stop offset="0.72" stop-color="#F6DE50"/>
<stop offset="0.84" stop-color="#F7E14C"/>
<stop offset="0.96" stop-color="#FCED40"/>
<stop offset="1" stop-color="#FFF33B"/>
</linearGradient>
<linearGradient id="paint19_linear_3136_515" x1="541.319" y1="41.1721" x2="541.319" y2="169.651" gradientUnits="userSpaceOnUse">
<stop stop-color="#FFF33B"/>
<stop offset="0.04" stop-color="#FCED40"/>
<stop offset="0.16" stop-color="#F7E14C"/>
<stop offset="0.28" stop-color="#F6DE50"/>
<stop offset="0.67" stop-color="#9A5724"/>
<stop offset="0.89" stop-color="#B4792E"/>
</linearGradient>
<linearGradient id="paint20_linear_3136_515" x1="541.45" y1="43.6526" x2="541.45" y2="166.303" gradientUnits="userSpaceOnUse">
<stop stop-color="#FFF33B"/>
<stop offset="0.04" stop-color="#FCED40"/>
<stop offset="0.16" stop-color="#F7E14C"/>
<stop offset="0.28" stop-color="#F6DE50"/>
<stop offset="0.67" stop-color="#9A5724"/>
<stop offset="0.89" stop-color="#B4792E"/>
</linearGradient>
</defs>
</svg>
