<svg width="627" height="157" viewBox="0 0 627 157" fill="none" xmlns="http://www.w3.org/2000/svg">
<path d="M54.8322 157C49.1738 157 43.9196 156.552 39.2043 155.655C34.3543 154.759 29.7737 153.265 25.5973 151.173C21.4209 149.081 17.2445 146.541 13.3376 143.254C9.43059 140.117 5.52363 136.083 1.7514 131.6L0 129.509L20.7473 106.051L22.2293 110.235C23.5765 113.97 25.4626 117.406 27.8876 120.544C30.3126 123.682 33.0071 126.52 35.8363 128.761C38.6654 131.003 41.7641 132.945 44.8627 134.14C47.8266 135.336 50.6558 136.083 53.3502 136.083C56.7183 136.083 59.8169 135.784 62.6461 135.336C65.4753 134.887 67.7656 133.991 69.7864 132.796C71.6725 131.75 73.0198 130.405 74.0975 128.612C75.0406 126.969 75.5795 124.877 75.5795 122.337C75.5795 120.395 75.1753 118.9 74.5017 117.705C73.6934 116.36 72.6156 115.016 71.2684 113.97C69.9211 112.924 68.1697 111.878 66.4183 111.131C64.3975 110.235 62.5114 109.637 60.4905 109.039C58.335 108.442 56.3141 107.844 54.2933 107.396C52.1377 106.948 50.2516 106.35 48.6349 105.752C45.5363 104.707 42.303 103.661 38.9349 102.615C35.4321 101.42 32.064 100.075 28.8307 98.5807C25.4626 97.0866 22.2293 95.2937 19.2654 93.3514C16.1667 91.2596 13.3376 88.8691 10.9125 86.0303C8.48754 83.1915 6.60142 79.9045 5.11947 76.1693C3.63752 72.434 2.9639 68.1011 2.9639 63.1706C2.9639 57.6424 3.63752 52.5625 4.85002 48.0802C6.06253 43.5979 7.94864 39.7133 10.3737 36.4263C12.6639 33.1392 15.4931 30.3005 18.7265 28.0593C21.8251 25.8182 25.3279 24.0252 29.1001 22.6806C32.7376 21.3359 36.7793 20.4394 40.821 19.8418C44.8627 19.2441 49.0391 18.9453 53.3502 18.9453C59.1433 18.9453 64.6669 19.543 69.517 20.7382C74.367 21.9335 78.9476 23.7264 82.9892 25.9676C87.1656 28.2087 90.9379 30.8981 94.306 34.0357C97.674 37.1733 100.907 40.6097 103.871 44.345L105.488 46.4367L84.6059 70.0434L83.2587 65.4117C82.0462 61.5271 80.4295 57.9413 78.4087 54.8036C76.3878 51.666 73.9628 48.9767 71.4031 46.7355C68.8433 44.4944 66.2836 42.7015 63.4544 41.5062C60.76 40.3109 58.2002 39.7133 55.7752 39.7133C52.2724 39.7133 49.0391 40.0121 46.2099 40.4603C43.5155 40.9085 41.0904 41.805 39.2043 42.8509C37.4529 43.8967 36.1057 45.2414 35.1626 46.8849C34.2196 48.5284 33.8154 50.6202 33.8154 53.1601C33.8154 55.1025 34.0849 56.746 34.7585 58.0907C35.4321 59.4354 36.3752 60.6306 37.5877 61.6765C38.9349 62.7224 40.4168 63.6188 42.0335 64.3659C43.7849 65.1129 45.671 65.7106 47.6919 66.3082C49.7127 66.9058 51.5988 67.3541 53.4849 67.8023C55.5058 68.2505 57.3919 68.6988 59.1433 69.2964L69.1128 72.434C72.6156 73.6293 76.1184 74.974 79.6212 76.4681C83.124 77.9622 86.3573 79.7551 89.5907 81.6974C92.824 83.7891 95.7879 86.1797 98.2129 89.0185C100.773 91.8573 102.793 95.2937 104.275 99.0289C105.757 102.914 106.566 107.246 106.566 112.177C106.566 117.855 105.892 123.084 104.545 127.417C103.198 131.899 101.312 135.784 98.8865 139.071C96.4615 142.358 93.4976 145.197 90.2643 147.288C87.0309 149.38 83.5281 151.173 79.6212 152.518C75.8489 153.713 71.8073 154.759 67.7656 155.207C63.5892 155.805 59.4128 155.954 55.2363 155.954L54.8322 157Z" fill="url(#paint0_linear_3840_5)"/>
<path d="M103.602 112.924C103.602 118.303 102.928 123.084 101.716 127.267C100.503 131.451 98.752 135.037 96.4617 138.025C94.1715 141.013 91.6117 143.553 88.5131 145.645C85.4145 147.736 82.1811 149.38 78.5436 150.575C74.9061 151.77 71.1339 152.667 67.0922 153.265C63.0505 153.862 59.0088 154.012 54.8324 154.012C49.3088 154.012 44.324 153.563 39.7434 152.667C35.1629 151.77 30.717 150.276 26.6753 148.334C22.6337 146.392 18.7267 143.852 14.9545 140.714C11.1822 137.577 7.40998 133.841 3.77246 129.359L19.9392 111.28C21.4211 115.314 23.442 119.05 26.0017 122.486C28.5615 125.923 31.3906 128.761 34.4893 131.301C37.5879 133.841 40.8212 135.634 44.0546 137.128C47.2879 138.622 50.5213 139.22 53.4852 139.22C56.988 139.22 60.2213 138.921 63.3199 138.324C66.4186 137.726 68.9783 136.829 71.2686 135.634C73.5589 134.439 75.3103 132.646 76.6575 130.554C78.0047 128.463 78.5436 125.773 78.5436 122.486C78.5436 120.096 78.0047 118.004 77.0617 116.211C76.1186 114.418 74.7714 112.924 73.1547 111.729C71.538 110.533 69.7866 109.338 67.6311 108.591C65.4755 107.844 63.4547 106.948 61.2991 106.35C59.1435 105.752 57.1227 105.155 54.9671 104.706C52.8116 104.258 51.0602 103.66 49.5782 103.212C46.4796 102.166 43.2462 101.121 39.8782 100.075C36.5101 99.0288 33.142 97.6841 29.9087 96.19C26.6753 94.6959 23.5767 93.0524 20.6128 91.1101C17.6489 89.1678 15.0892 86.9266 12.9336 84.3866C10.778 81.8467 9.02665 78.7091 7.67942 75.4221C6.33219 72.135 5.65858 68.101 5.65858 63.6187C5.65858 58.2399 6.19747 53.6082 7.40998 49.4248C8.62248 45.2413 10.2392 41.8049 12.3947 38.6673C14.5503 35.5297 17.11 33.1391 20.0739 31.0474C23.0378 28.9556 26.2712 27.3121 29.774 26.1168C33.2768 24.9216 37.049 24.0251 40.9559 23.4275C44.8629 22.8298 49.0393 22.531 53.2157 22.531C58.8741 22.531 64.1283 23.1286 68.7088 24.3239C73.2894 25.5192 77.7353 27.1627 81.6422 29.2544C85.5492 31.3462 89.1867 34.0356 92.5548 37.0238C95.9229 40.0119 98.8867 43.299 101.851 47.0342L85.6839 65.1128C84.4714 60.9293 82.72 57.0447 80.4297 53.7576C78.1394 50.4706 75.7144 47.4824 73.02 45.0919C70.3255 42.7013 67.3616 40.759 64.3977 39.4143C61.4338 38.0696 58.4699 37.472 55.7755 37.472C52.1379 37.472 48.7699 37.7708 45.806 38.3684C42.8421 38.9661 40.1476 39.8625 37.992 41.0578C35.8365 42.2531 34.0851 44.046 32.8726 46.1377C31.6601 48.2295 31.1212 50.9189 31.1212 54.0565C31.1212 56.5964 31.5254 58.6882 32.4684 60.4811C33.4115 62.274 34.624 63.7681 36.1059 64.9634C37.5879 66.1587 39.3393 67.2045 41.2254 67.9516C43.1115 68.6986 45.1324 69.4457 47.1532 70.0433C49.174 70.6409 51.1949 71.0892 53.2157 71.5374C55.2366 71.9856 56.988 72.4339 58.6046 73.0315C61.7033 74.0774 65.0713 75.1232 68.5741 76.1691C72.0769 77.215 75.445 78.5597 78.8131 80.0538C82.1811 81.5479 85.4145 83.1914 88.3784 85.1337C91.3423 87.076 94.1715 89.3172 96.4617 92.0065C98.752 94.6959 100.638 97.6841 101.985 101.27C103.333 104.856 104.006 108.74 104.006 113.223L103.602 112.924Z" fill="url(#paint1_linear_3840_5)"/>
<path d="M165.843 156.402C161.128 156.402 156.413 155.805 151.967 154.609C147.521 153.414 143.21 151.621 139.303 149.38C135.396 147.139 131.624 144.3 128.39 141.013C125.022 137.726 122.193 133.991 119.768 129.807C117.478 125.624 115.592 121.142 114.244 116.211C112.897 111.281 112.224 106.051 112.224 100.672C112.224 95.2937 112.897 89.915 114.244 85.1339C115.592 80.2033 117.478 75.721 119.768 71.5376C122.193 67.3541 125.022 63.6188 128.39 60.3318C131.758 57.0448 135.396 54.206 139.303 51.9649C143.21 49.7237 147.521 47.9308 151.967 46.7355C156.413 45.5403 161.128 44.9426 165.843 44.9426C170.559 44.9426 175.274 45.5403 179.72 46.7355C184.166 47.9308 188.477 49.7237 192.384 51.9649C196.291 54.206 200.063 57.0448 203.296 60.3318C206.664 63.6188 209.493 67.3541 211.918 71.5376C214.209 75.721 216.095 80.2033 217.442 85.1339C218.789 90.0644 219.463 95.2937 219.463 100.672C219.463 106.051 218.789 111.43 217.442 116.36C216.095 121.142 214.209 125.773 211.918 129.807C209.493 133.991 206.664 137.726 203.296 141.013C199.928 144.3 196.291 147.139 192.384 149.38C188.477 151.621 184.166 153.414 179.72 154.609C175.274 155.805 170.559 156.402 165.843 156.402ZM165.843 62.7224C163.284 62.7224 160.859 63.32 158.838 64.3659C156.817 65.4118 154.931 66.9059 153.449 68.8482C151.832 70.7905 150.485 73.0317 149.542 75.4222C148.464 78.1116 147.521 80.801 146.847 83.6398C146.174 86.4785 145.635 89.3173 145.365 92.3055C145.096 95.2937 144.961 97.9831 144.961 100.523C144.961 103.063 145.096 105.902 145.365 108.741C145.635 111.579 146.174 114.568 146.847 117.406C147.521 120.245 148.464 123.084 149.542 125.624C150.62 128.164 151.967 130.405 153.449 132.198C154.931 133.991 156.817 135.485 158.838 136.68C160.859 137.726 163.149 138.324 165.843 138.324C168.538 138.324 170.963 137.726 173.118 136.68C175.274 135.634 177.025 134.14 178.507 132.347C180.124 130.554 181.336 128.313 182.414 125.773C183.492 123.233 184.435 120.544 185.109 117.556C185.782 114.717 186.321 111.729 186.591 108.741C186.86 105.752 186.995 102.914 186.995 100.224C186.995 97.5349 186.86 94.6961 186.591 91.7079C186.321 88.7197 185.782 85.7315 185.243 82.8927C184.57 80.0539 183.761 77.3645 182.684 74.8246C181.606 72.2846 180.259 70.1929 178.777 68.2505C177.295 66.4576 175.409 64.9635 173.388 63.9177C171.367 62.8718 168.942 62.2742 166.113 62.2742L165.843 62.7224Z" fill="url(#paint2_linear_3840_5)"/>
<path d="M216.769 100.672C216.769 105.902 216.095 110.832 214.883 115.464C213.67 120.096 211.919 124.279 209.629 128.313C207.338 132.347 204.644 135.784 201.545 138.921C198.447 142.059 194.944 144.748 191.172 146.84C187.399 148.932 183.358 150.725 179.047 151.77C174.735 152.816 170.29 153.563 165.844 153.563C161.398 153.563 156.952 152.966 152.641 151.77C148.33 150.575 144.423 148.932 140.651 146.84C136.878 144.748 133.376 142.059 130.277 138.921C127.178 135.784 124.484 132.347 122.194 128.313C119.903 124.279 118.152 120.096 116.939 115.464C115.727 110.832 115.053 105.902 115.053 100.672C115.053 95.443 115.727 90.5124 116.939 85.8807C118.152 81.249 119.903 76.9162 122.194 73.0315C124.484 69.1468 127.178 65.561 130.277 62.4234C133.376 59.2858 136.878 56.5964 140.651 54.5047C144.423 52.4129 148.464 50.62 152.641 49.5742C156.817 48.5283 161.263 47.7812 165.844 47.7812C170.424 47.7812 174.735 48.3789 179.047 49.5742C183.358 50.7694 187.399 52.4129 191.172 54.5047C194.944 56.5964 198.447 59.2858 201.545 62.4234C204.644 65.561 207.338 68.9974 209.629 73.0315C211.919 77.0656 213.67 81.249 214.883 85.8807C216.095 90.5124 216.769 95.443 216.769 100.672ZM189.555 100.672C189.555 97.8335 189.42 94.8453 189.151 91.8571C188.881 88.8689 188.342 85.7313 187.669 82.5937C186.995 79.4561 186.052 76.7667 184.84 73.928C183.627 71.0892 182.145 68.6986 180.394 66.6069C178.642 64.5151 176.622 62.8716 174.197 61.6764C171.772 60.4811 168.942 59.734 165.709 59.734C162.476 59.734 159.916 60.3317 157.626 61.6764C155.335 63.021 153.18 64.6646 151.428 66.7563C149.677 68.848 148.195 71.388 146.983 74.2268C145.77 77.0656 144.827 79.9043 144.153 82.8925C143.48 85.8807 142.941 88.8689 142.537 92.0065C142.132 95.1441 141.998 97.9829 141.998 100.672C141.998 103.362 142.132 106.2 142.537 109.338C142.941 112.476 143.345 115.464 144.153 118.452C144.962 121.44 145.905 124.428 146.983 127.118C148.06 129.807 149.677 132.347 151.428 134.439C153.18 136.531 155.201 138.324 157.626 139.519C160.051 140.714 162.745 141.461 165.709 141.461C168.673 141.461 171.637 140.864 174.062 139.519C176.487 138.174 178.508 136.531 180.394 134.439C182.28 132.347 183.627 129.957 184.84 127.118C186.052 124.279 186.995 121.44 187.669 118.452C188.342 115.464 188.881 112.326 189.151 109.189C189.42 106.051 189.555 103.212 189.555 100.373V100.672Z" fill="url(#paint3_linear_3840_5)"/>
<path d="M276.451 156.402C269.31 156.402 262.439 155.058 256.242 152.368C250.045 149.679 244.656 145.794 240.075 140.714C235.495 135.784 231.992 129.807 229.432 123.084C226.873 116.36 225.525 108.741 225.525 100.672C225.525 92.6043 226.738 84.9844 229.298 78.1116C231.857 71.2387 235.36 65.2623 239.941 60.3318C244.387 55.4013 249.91 51.5167 256.107 48.8273C262.305 46.1379 269.176 44.7932 276.451 44.7932C281.031 44.7932 285.612 45.3909 290.058 46.4367C294.503 47.632 298.68 49.4249 302.452 51.6661C306.224 54.0566 309.727 57.1942 312.826 60.7801C315.924 64.5153 318.349 68.9976 320.236 74.0775L321.313 76.9163L304.608 84.2374L303.799 81.2492C302.183 75.4222 299.488 71.0893 295.581 67.9517C291.809 64.9635 287.094 63.32 281.57 63.32C278.606 63.32 276.046 63.7682 273.891 64.8141C271.601 65.86 269.714 67.2047 267.963 68.8482C266.212 70.6411 264.73 72.7328 263.517 75.1234C262.305 77.5139 261.227 80.2033 260.419 82.8927C259.61 85.7315 259.071 88.5703 258.667 91.5585C258.263 94.5467 258.128 97.5349 258.128 100.374C258.128 103.511 258.263 106.649 258.532 109.786C258.802 112.924 259.341 115.912 260.014 118.751C260.688 121.59 261.631 124.13 262.844 126.52C263.921 128.761 265.403 130.853 267.02 132.497C268.637 134.14 270.658 135.485 273.083 136.531C275.373 137.577 278.202 138.025 281.301 138.025C283.726 138.025 286.151 137.577 288.441 136.83C290.731 135.933 292.752 134.887 294.638 133.244C296.524 131.75 298.276 129.957 299.758 127.865C301.24 125.773 302.317 123.383 303.26 120.843L304.203 118.004L321.044 124.877L319.966 127.716C318.08 132.646 315.655 136.979 312.556 140.565C309.458 144.151 305.955 147.139 302.183 149.38C298.41 151.621 294.234 153.414 289.788 154.46C285.477 155.506 281.031 156.103 276.585 156.103L276.451 156.402Z" fill="url(#paint4_linear_3840_5)"/>
<path d="M317.677 75.2726L306.091 80.3526C304.204 73.928 301.106 68.9974 296.795 65.561C292.484 62.1246 287.229 60.3317 281.302 60.3317C278.068 60.3317 275.104 60.9293 272.545 61.9752C269.985 63.021 267.695 64.6645 265.808 66.6069C263.922 68.5492 262.306 70.9398 260.958 73.4797C259.611 76.0197 258.533 78.8585 257.725 81.8467C256.917 84.8349 256.243 87.9725 255.974 91.1101C255.704 94.2477 255.435 97.3853 255.435 100.373C255.435 103.511 255.57 106.798 255.974 110.085C256.378 113.372 256.782 116.51 257.59 119.498C258.399 122.486 259.342 125.325 260.689 127.865C262.036 130.405 263.518 132.795 265.404 134.588C267.29 136.381 269.581 138.025 272.275 139.071C274.97 140.116 277.933 140.714 281.436 140.714C284.265 140.714 286.825 140.266 289.385 139.369C291.945 138.473 294.235 137.128 296.391 135.485C298.546 133.841 300.297 131.75 302.049 129.508C303.8 127.267 305.013 124.578 305.956 121.739L317.542 126.52C315.791 131.152 313.5 135.186 310.671 138.473C307.842 141.76 304.609 144.599 300.971 146.84C297.334 149.081 293.427 150.575 289.25 151.77C285.074 152.966 280.897 153.414 276.586 153.414C269.715 153.414 263.249 152.069 257.456 149.529C251.663 146.989 246.408 143.254 242.232 138.622C238.056 133.991 234.553 128.313 232.128 121.888C229.703 115.464 228.49 108.292 228.49 100.672C228.49 93.0524 229.703 85.7313 232.128 79.3067C234.553 72.8821 237.786 67.2045 242.097 62.5728C246.408 57.9411 251.393 54.3553 257.321 51.6659C263.249 48.9765 269.715 47.7812 276.721 47.7812C281.167 47.7812 285.478 48.3789 289.654 49.4248C293.831 50.4706 297.738 52.1141 301.375 54.3553C305.013 56.5964 308.246 59.4352 311.075 62.8716C313.904 66.3081 316.195 70.4915 317.946 75.2726H317.677Z" fill="url(#paint5_linear_3840_5)"/>
<path d="M330.88 154.46V47.3331H363.078V154.31H330.88V154.46ZM346.912 45.0919C344.487 45.0919 342.331 44.6437 340.175 43.5978C338.155 42.5519 336.268 41.2073 334.787 39.5638C333.17 37.7708 331.957 35.8285 331.149 33.438C330.206 31.0474 329.802 28.5074 329.802 25.9675C329.802 23.4275 330.206 20.8875 331.149 18.497C332.092 16.2558 333.305 14.1641 334.787 12.5206C336.403 10.8771 338.155 9.38299 340.175 8.48653C342.331 7.44066 344.487 6.99243 346.912 6.99243C349.337 6.99243 351.492 7.44066 353.648 8.48653C355.803 9.5324 357.555 10.8771 359.171 12.5206C360.653 14.3135 362.001 16.2558 362.809 18.497C363.752 20.8875 364.156 23.2781 364.156 25.9675C364.156 28.6568 363.752 31.0474 362.809 33.438C361.866 35.8285 360.653 37.7708 359.171 39.5638C357.555 41.3567 355.803 42.7014 353.648 43.5978C351.492 44.6437 349.202 45.0919 346.912 45.0919Z" fill="url(#paint6_linear_3840_5)"/>
<path d="M361.461 25.8181C361.461 28.0593 361.057 30.151 360.384 32.0933C359.71 34.0357 358.632 35.8286 357.285 37.3227C355.938 38.8168 354.456 39.8627 352.57 40.7591C350.684 41.6556 348.932 41.9544 346.911 41.9544C344.891 41.9544 343.004 41.5062 341.253 40.7591C339.502 40.0121 337.885 38.8168 336.672 37.3227C335.46 35.8286 334.382 34.1851 333.574 32.0933C332.766 30.0016 332.496 28.0593 332.496 25.8181C332.496 23.577 332.9 21.4853 333.574 19.5429C334.247 17.6006 335.325 15.8077 336.672 14.463C338.02 13.1183 339.502 11.923 341.253 11.0266C343.004 10.1301 344.891 9.8313 346.911 9.8313C348.932 9.8313 350.818 10.2795 352.57 11.0266C354.321 11.7736 355.938 12.9689 357.285 14.463C358.632 15.9571 359.575 17.6006 360.384 19.5429C361.192 21.4853 361.461 23.577 361.461 25.8181ZM360.249 151.322H333.439V50.3213H360.249V151.322Z" fill="url(#paint7_linear_3840_5)"/>
<path d="M421.682 156.402C414.407 156.402 407.806 154.908 401.878 152.069C396.085 149.231 391.1 145.197 387.059 140.117C383.017 135.037 379.918 129.06 377.897 122.337C375.742 115.613 374.799 108.292 374.799 100.672C374.799 93.0526 375.877 85.7315 377.897 79.008C380.053 72.2846 383.152 66.3082 387.059 61.2283C391.1 56.1484 396.085 52.1143 401.878 49.2755C407.671 46.4367 414.273 44.9426 421.682 44.9426C425.455 44.9426 429.092 45.5403 432.595 46.885C435.963 48.0802 439.196 50.0226 442.026 52.2637C444.855 54.5049 447.414 57.3436 449.57 60.6307C450.648 62.2742 451.726 64.0671 452.534 65.86L462.503 47.4826H477.053V154.609H444.989V147.288C442.699 149.529 440.139 151.472 437.445 152.816C432.73 155.356 427.341 156.552 421.682 156.552V156.402ZM425.993 64.9635C423.434 64.9635 421.143 65.4118 419.392 66.4576C417.506 67.5035 415.889 68.8482 414.542 70.4917C413.195 72.2846 411.982 74.3763 411.039 76.6175C410.096 79.008 409.288 81.6974 408.749 84.3868C408.21 87.0762 407.806 89.915 407.536 92.6043C407.267 95.4431 407.132 97.9831 407.132 100.523C407.132 103.063 407.132 105.603 407.536 108.442C407.806 111.281 408.21 113.97 408.749 116.659C409.288 119.349 410.096 121.889 411.039 124.429C411.982 126.819 413.06 128.911 414.542 130.554C415.889 132.198 417.506 133.692 419.392 134.588C421.278 135.634 423.434 136.083 425.993 136.083C428.284 136.083 430.305 135.634 432.056 134.588C433.807 133.543 435.424 132.049 436.906 130.256C438.388 128.313 439.6 126.222 440.544 123.831C441.621 121.291 442.43 118.751 443.103 116.062C443.777 113.372 444.181 110.683 444.585 107.994C444.855 105.304 444.989 102.764 444.989 100.672C444.989 98.1325 444.989 95.4431 444.585 92.6043C444.316 89.7655 443.912 87.0762 443.373 84.3868C442.834 81.6974 442.025 79.1575 441.082 76.7669C440.139 74.5258 439.062 72.434 437.58 70.6411C436.232 68.9976 434.616 67.6529 432.595 66.607C430.709 65.7106 428.419 65.1129 425.859 65.1129L425.993 64.9635Z" fill="url(#paint8_linear_3840_5)"/>
<path d="M474.494 151.322H447.818V139.22C444.72 144.001 440.813 147.587 436.367 149.828C431.921 152.069 427.071 153.265 421.682 153.265C414.677 153.265 408.479 151.92 403.091 149.081C397.702 146.242 392.986 142.656 389.214 137.875C385.442 133.094 382.478 127.566 380.592 121.141C378.706 114.717 377.628 107.844 377.628 100.523C377.628 93.2018 378.571 86.329 380.592 79.9043C382.613 73.4797 385.442 67.9516 389.214 63.1705C392.986 58.3893 397.567 54.6541 403.091 51.9647C408.614 49.2753 414.811 47.7812 421.682 47.7812C425.185 47.7812 428.553 48.3789 431.786 49.5742C435.02 50.7694 437.849 52.4129 440.543 54.5047C443.238 56.5964 445.528 59.1364 447.549 62.274C449.57 65.4116 451.187 68.5492 452.264 72.2844L464.12 50.3212H474.359V151.472L474.494 151.322ZM447.684 100.672C447.684 97.9829 447.684 95.2936 447.28 92.3054C446.875 89.3172 446.606 86.4784 446.067 83.6396C445.528 80.8008 444.72 78.1114 443.642 75.4221C442.564 72.7327 441.352 70.4915 439.735 68.5492C438.118 66.6069 436.232 64.9634 433.942 63.7681C431.652 62.5728 429.092 61.9752 425.993 61.9752C422.895 61.9752 420.335 62.5728 418.179 63.7681C416.024 64.9634 414.138 66.6069 412.521 68.5492C410.904 70.4915 409.692 72.8821 408.614 75.5715C407.536 78.2608 406.728 80.9502 406.189 83.789C405.65 86.6278 405.246 89.4666 404.977 92.4548C404.707 95.443 404.572 98.1323 404.572 100.672C404.572 103.212 404.572 106.051 404.977 108.89C405.381 111.729 405.65 114.717 406.189 117.556C406.728 120.394 407.536 123.233 408.614 125.773C409.692 128.313 410.904 130.704 412.521 132.795C414.138 134.887 416.024 136.381 418.179 137.577C420.335 138.772 423.03 139.369 425.993 139.369C428.688 139.369 431.113 138.772 433.268 137.427C435.424 136.082 437.31 134.439 438.927 132.347C440.543 130.255 441.891 127.865 442.969 125.175C444.046 122.486 444.989 119.647 445.663 116.809C446.337 113.97 446.875 111.131 447.145 108.292C447.414 105.453 447.684 102.913 447.684 100.523V100.672Z" fill="url(#paint9_linear_3840_5)"/>
<path d="M494.028 154.46V0.717285H508.578L526.092 33.5874V154.46H494.028Z" fill="url(#paint10_linear_3840_5)"/>
<path d="M523.398 151.322H496.723V3.70532H506.962L523.398 34.4837V151.472V151.322Z" fill="url(#paint11_linear_3840_5)"/>
<path d="M581.733 156.402C577.018 156.402 572.842 156.103 569.339 155.356C565.701 154.609 562.199 153.564 558.831 152.069C555.462 150.575 552.229 148.633 548.996 146.242C545.762 144.001 542.26 141.162 538.353 137.726L535.658 135.485L556.406 116.659L557.887 119.946C559.1 122.636 560.851 125.026 563.007 127.267C565.163 129.509 567.453 131.6 569.878 133.244C572.168 134.887 574.458 136.083 576.749 136.979C579.308 138.025 580.79 138.174 581.599 138.174C582.811 138.174 584.158 138.174 585.506 138.174C586.988 138.174 588.47 137.875 589.952 137.726C591.433 137.427 592.781 137.128 594.263 136.68C595.475 136.232 596.688 135.634 597.631 134.887C598.439 134.29 599.113 133.393 599.652 132.497C600.056 131.6 600.325 130.405 600.325 129.06C600.325 127.716 600.056 126.52 599.382 125.474C598.708 124.279 597.631 123.233 596.553 122.337C595.206 121.44 593.724 120.544 592.107 119.797C590.221 119.05 588.47 118.452 586.583 117.855C584.697 117.257 582.946 116.809 581.195 116.36C579.308 115.912 577.692 115.464 576.344 115.016L568.665 112.775C565.971 112.028 563.142 110.982 560.447 109.936C557.618 108.89 555.058 107.545 552.499 106.051C549.939 104.557 547.514 102.615 545.628 100.523C543.607 98.2819 541.855 95.7419 540.643 92.7537C539.43 89.7655 538.757 86.1797 538.757 82.1456C538.757 75.1234 540.104 68.9976 542.664 64.2165C545.224 59.4354 548.592 55.5507 552.768 52.5625C556.81 49.7237 561.525 47.632 566.779 46.5861C571.764 45.3909 577.018 44.7932 582.272 44.7932C585.91 44.7932 589.817 45.2414 593.724 45.9885C597.765 46.7355 601.672 48.0802 605.445 49.5743C609.217 51.2178 612.854 53.1602 616.088 55.5507C619.456 57.9413 622.285 60.7801 624.575 63.7682L626.327 66.0094L605.714 84.6856L604.367 80.801C603.289 77.6634 601.942 74.8246 600.325 72.7328C598.574 70.4917 596.822 68.5494 594.802 67.2047C592.781 65.7106 590.895 64.6647 588.874 64.0671C586.853 63.4694 584.967 63.0212 583.35 63.0212C581.464 63.0212 579.443 63.0212 577.153 63.32C574.997 63.4694 572.976 63.9177 571.225 64.6647C569.474 65.2624 568.126 66.3082 566.914 67.6529C565.971 68.6988 565.567 70.3423 565.567 72.434C565.567 73.9281 565.836 75.1234 566.375 76.1693C567.049 77.3645 567.992 78.4104 569.069 79.1575C570.282 80.0539 571.764 80.9504 573.381 81.548C575.132 82.2951 576.883 82.8927 578.769 83.3409C580.656 83.9386 582.407 84.3868 584.158 84.6856C586.045 85.1338 587.661 85.5821 589.143 86.0303C591.568 86.7774 594.128 87.5244 596.822 88.2715C599.652 89.0185 602.346 90.0644 605.04 91.1102C607.735 92.1561 610.429 93.3514 612.989 94.8455C615.684 96.3396 618.109 98.2819 620.129 100.374C622.15 102.615 623.902 105.304 625.114 108.292C626.327 111.281 627 114.866 627 118.9C627 123.682 626.327 128.014 625.114 131.75C623.902 135.485 622.15 138.921 619.86 141.611C617.704 144.45 615.01 146.691 612.046 148.633C609.217 150.426 605.983 151.92 602.75 153.115C599.517 154.161 596.014 155.058 592.511 155.506C589.008 155.954 585.506 156.253 582.003 156.253L581.733 156.402Z" fill="url(#paint12_linear_3840_5)"/>
<path d="M624.171 119.05C624.171 123.532 623.632 127.417 622.42 130.853C621.207 134.29 619.725 137.278 617.704 139.818C615.683 142.358 613.393 144.449 610.564 146.242C607.735 148.035 604.906 149.38 601.807 150.426C598.708 151.472 595.34 152.219 591.972 152.667C588.604 153.115 585.101 153.414 581.733 153.414C577.153 153.414 573.246 153.115 569.743 152.517C566.24 151.92 563.007 150.874 559.773 149.38C556.54 147.886 553.441 146.093 550.343 143.852C547.244 141.611 543.741 138.772 539.834 135.485L555.328 121.44C556.81 124.428 558.696 127.118 560.986 129.508C563.276 131.899 565.701 133.991 568.261 135.784C570.821 137.577 573.246 138.921 575.536 139.818C577.826 140.714 579.847 141.162 581.329 141.162C582.542 141.162 583.889 141.162 585.371 141.162C586.853 141.162 588.469 140.864 590.086 140.565C591.703 140.266 593.185 139.967 594.801 139.369C596.418 138.772 597.631 138.174 598.843 137.278C600.056 136.381 600.999 135.186 601.672 133.841C602.346 132.497 602.75 130.853 602.75 128.911C602.75 126.968 602.346 125.176 601.403 123.681C600.46 122.187 599.247 120.843 597.765 119.797C596.283 118.751 594.667 117.705 592.646 116.958C590.625 116.211 588.874 115.464 586.987 115.016C585.101 114.567 583.215 113.97 581.464 113.522C579.712 113.073 578.096 112.625 576.749 112.326C574.324 111.579 571.764 110.832 569.069 109.936C566.375 109.039 563.68 108.292 561.121 107.246C558.561 106.2 556.001 105.005 553.576 103.661C551.151 102.316 549.13 100.523 547.244 98.5806C545.358 96.6383 544.011 94.2477 542.933 91.7077C541.855 89.1678 541.316 85.8807 541.316 82.4443C541.316 75.8703 542.529 70.4915 544.819 66.0092C547.109 61.527 550.208 58.0905 554.115 55.4012C558.022 52.7118 562.333 50.9189 567.183 49.7236C572.033 48.5283 577.018 48.0801 582.137 48.0801C585.64 48.0801 589.278 48.5283 593.05 49.2754C596.822 50.0224 600.594 51.2177 604.232 52.7118C607.869 54.2059 611.238 56.1482 614.471 58.3893C617.704 60.6305 620.264 63.1705 622.42 66.0092L606.926 80.2032C605.714 76.7668 604.232 73.6291 602.346 71.2386C600.46 68.848 598.439 66.6069 596.283 65.1128C594.128 63.6187 591.837 62.274 589.547 61.527C587.257 60.7799 585.101 60.3317 583.215 60.3317C581.329 60.3317 579.174 60.3317 576.883 60.6305C574.593 60.9293 572.303 61.2281 570.147 62.1246C567.992 63.0211 566.24 64.2163 564.893 65.8598C563.546 67.5033 562.737 69.7445 562.737 72.7327C562.737 74.8244 563.142 76.6173 564.085 78.1114C565.028 79.6055 566.105 80.9502 567.453 81.9961C568.8 83.042 570.551 83.9384 572.303 84.6855C574.054 85.4325 575.94 86.0302 577.826 86.6278C579.712 87.2254 581.599 87.6737 583.35 88.1219C585.101 88.5701 586.718 89.0184 588.2 89.4666C590.625 90.2136 593.185 90.9607 595.879 91.8571C598.574 92.7536 601.268 93.5006 603.828 94.5465C606.388 95.5924 608.947 96.7877 611.507 98.1323C614.067 99.477 616.088 101.121 617.974 103.212C619.86 105.304 621.342 107.545 622.42 110.235C623.497 112.924 624.036 116.062 624.036 119.647L624.171 119.05Z" fill="url(#paint13_linear_3840_5)"/>
<defs>
<linearGradient id="paint0_linear_3840_5" x1="53.0808" y1="19.2441" x2="53.0808" y2="157" gradientUnits="userSpaceOnUse">
<stop offset="0.11" stop-color="#B4792E"/>
<stop offset="0.33" stop-color="#9A5724"/>
<stop offset="0.72" stop-color="#F6DE50"/>
<stop offset="0.84" stop-color="#F7E14C"/>
<stop offset="0.96" stop-color="#FCED40"/>
<stop offset="1" stop-color="#FFF33B"/>
</linearGradient>
<linearGradient id="paint1_linear_3840_5" x1="53.6199" y1="22.2322" x2="53.6199" y2="153.862" gradientUnits="userSpaceOnUse">
<stop stop-color="#FFF33B"/>
<stop offset="0.04" stop-color="#FCED40"/>
<stop offset="0.16" stop-color="#F7E14C"/>
<stop offset="0.28" stop-color="#F6DE50"/>
<stop offset="0.67" stop-color="#9A5724"/>
<stop offset="0.89" stop-color="#B4792E"/>
</linearGradient>
<linearGradient id="paint2_linear_3840_5" x1="165.843" y1="44.7932" x2="165.843" y2="156.402" gradientUnits="userSpaceOnUse">
<stop offset="0.11" stop-color="#B4792E"/>
<stop offset="0.33" stop-color="#9A5724"/>
<stop offset="0.72" stop-color="#F6DE50"/>
<stop offset="0.84" stop-color="#F7E14C"/>
<stop offset="0.96" stop-color="#FCED40"/>
<stop offset="1" stop-color="#FFF33B"/>
</linearGradient>
<linearGradient id="paint3_linear_3840_5" x1="165.844" y1="47.7813" x2="165.844" y2="153.414" gradientUnits="userSpaceOnUse">
<stop stop-color="#FFF33B"/>
<stop offset="0.04" stop-color="#FCED40"/>
<stop offset="0.16" stop-color="#F7E14C"/>
<stop offset="0.28" stop-color="#F6DE50"/>
<stop offset="0.67" stop-color="#9A5724"/>
<stop offset="0.89" stop-color="#B4792E"/>
</linearGradient>
<linearGradient id="paint4_linear_3840_5" x1="273.352" y1="44.7932" x2="273.352" y2="156.402" gradientUnits="userSpaceOnUse">
<stop offset="0.11" stop-color="#B4792E"/>
<stop offset="0.33" stop-color="#9A5724"/>
<stop offset="0.72" stop-color="#F6DE50"/>
<stop offset="0.84" stop-color="#F7E14C"/>
<stop offset="0.96" stop-color="#FCED40"/>
<stop offset="1" stop-color="#FFF33B"/>
</linearGradient>
<linearGradient id="paint5_linear_3840_5" x1="272.949" y1="47.7813" x2="272.949" y2="153.414" gradientUnits="userSpaceOnUse">
<stop stop-color="#FFF33B"/>
<stop offset="0.04" stop-color="#FCED40"/>
<stop offset="0.16" stop-color="#F7E14C"/>
<stop offset="0.28" stop-color="#F6DE50"/>
<stop offset="0.67" stop-color="#9A5724"/>
<stop offset="0.89" stop-color="#B4792E"/>
</linearGradient>
<linearGradient id="paint6_linear_3840_5" x1="346.912" y1="6.69361" x2="346.912" y2="154.46" gradientUnits="userSpaceOnUse">
<stop offset="0.11" stop-color="#B4792E"/>
<stop offset="0.33" stop-color="#9A5724"/>
<stop offset="0.72" stop-color="#F6DE50"/>
<stop offset="0.84" stop-color="#F7E14C"/>
<stop offset="0.96" stop-color="#FCED40"/>
<stop offset="1" stop-color="#FFF33B"/>
</linearGradient>
<linearGradient id="paint7_linear_3840_5" x1="346.911" y1="9.68189" x2="346.911" y2="151.322" gradientUnits="userSpaceOnUse">
<stop stop-color="#FFF33B"/>
<stop offset="0.04" stop-color="#FCED40"/>
<stop offset="0.16" stop-color="#F7E14C"/>
<stop offset="0.28" stop-color="#F6DE50"/>
<stop offset="0.67" stop-color="#9A5724"/>
<stop offset="0.89" stop-color="#B4792E"/>
</linearGradient>
<linearGradient id="paint8_linear_3840_5" x1="425.993" y1="44.7932" x2="425.993" y2="156.402" gradientUnits="userSpaceOnUse">
<stop offset="0.11" stop-color="#B4792E"/>
<stop offset="0.33" stop-color="#9A5724"/>
<stop offset="0.72" stop-color="#F6DE50"/>
<stop offset="0.84" stop-color="#F7E14C"/>
<stop offset="0.96" stop-color="#FCED40"/>
<stop offset="1" stop-color="#FFF33B"/>
</linearGradient>
<linearGradient id="paint9_linear_3840_5" x1="425.993" y1="47.7812" x2="425.993" y2="153.414" gradientUnits="userSpaceOnUse">
<stop stop-color="#FFF33B"/>
<stop offset="0.04" stop-color="#FCED40"/>
<stop offset="0.16" stop-color="#F7E14C"/>
<stop offset="0.28" stop-color="#F6DE50"/>
<stop offset="0.67" stop-color="#9A5724"/>
<stop offset="0.89" stop-color="#B4792E"/>
</linearGradient>
<linearGradient id="paint10_linear_3840_5" x1="510.06" y1="0.717285" x2="510.06" y2="154.46" gradientUnits="userSpaceOnUse">
<stop offset="0.11" stop-color="#B4792E"/>
<stop offset="0.33" stop-color="#9A5724"/>
<stop offset="0.72" stop-color="#F6DE50"/>
<stop offset="0.84" stop-color="#F7E14C"/>
<stop offset="0.96" stop-color="#FCED40"/>
<stop offset="1" stop-color="#FFF33B"/>
</linearGradient>
<linearGradient id="paint11_linear_3840_5" x1="510.061" y1="3.70532" x2="510.061" y2="151.322" gradientUnits="userSpaceOnUse">
<stop stop-color="#FFF33B"/>
<stop offset="0.04" stop-color="#FCED40"/>
<stop offset="0.16" stop-color="#F7E14C"/>
<stop offset="0.28" stop-color="#F6DE50"/>
<stop offset="0.67" stop-color="#9A5724"/>
<stop offset="0.89" stop-color="#B4792E"/>
</linearGradient>
<linearGradient id="paint12_linear_3840_5" x1="581.195" y1="44.7932" x2="581.195" y2="156.402" gradientUnits="userSpaceOnUse">
<stop offset="0.11" stop-color="#B4792E"/>
<stop offset="0.33" stop-color="#9A5724"/>
<stop offset="0.72" stop-color="#F6DE50"/>
<stop offset="0.84" stop-color="#F7E14C"/>
<stop offset="0.96" stop-color="#FCED40"/>
<stop offset="1" stop-color="#FFF33B"/>
</linearGradient>
<linearGradient id="paint13_linear_3840_5" x1="582.003" y1="47.7813" x2="582.003" y2="153.414" gradientUnits="userSpaceOnUse">
<stop stop-color="#FFF33B"/>
<stop offset="0.04" stop-color="#FCED40"/>
<stop offset="0.16" stop-color="#F7E14C"/>
<stop offset="0.28" stop-color="#F6DE50"/>
<stop offset="0.67" stop-color="#9A5724"/>
<stop offset="0.89" stop-color="#B4792E"/>
</linearGradient>
</defs>
</svg>
