<svg width="612" height="137" viewBox="0 0 612 137" fill="none" xmlns="http://www.w3.org/2000/svg">
<path d="M58.8697 132.873C53.4024 132.873 48.0621 132.237 43.1033 130.838C38.0174 129.44 33.3129 127.532 28.9898 125.117C24.6668 122.574 20.5981 119.522 17.0379 116.089C13.4777 112.529 10.4262 108.587 7.8832 104.264C5.34024 99.9407 3.43301 95.2361 2.03438 90.1501C0.635742 85.064 0 79.8509 0 74.3834C0 68.9159 0.635742 63.5755 2.03438 58.6166C3.43301 53.5306 5.34024 48.826 7.8832 44.5029C10.4262 40.1797 13.4777 36.2381 17.0379 32.6778C20.5981 29.1176 24.5397 26.066 28.9898 23.6501C33.3129 21.2342 38.1445 19.1998 43.1033 17.9283C48.1893 16.5296 53.4024 15.8939 58.8697 15.8939C64.3371 15.8939 69.2959 16.5296 74.3819 17.8012C79.4678 19.0727 84.1723 20.9799 88.6225 23.5229C93.0727 26.066 97.0143 29.2447 100.447 33.0593C103.88 36.8738 106.678 41.5784 108.585 46.6644L109.475 48.9531L91.9283 56.3279L91.0383 53.6577C90.1483 50.6061 88.8768 47.8088 87.351 45.3929C85.8252 42.9771 84.0451 40.8155 81.8836 39.1625C79.8492 37.5096 77.4334 36.1109 74.7633 35.0937C72.0932 34.0765 69.1688 33.695 65.9901 33.695C62.557 33.695 59.5055 34.2036 56.7082 35.348C53.9109 36.4923 51.368 38.0182 49.0793 39.9254C46.7906 41.8327 44.7563 44.2486 43.1033 46.7916C41.3233 49.4617 39.9246 52.3862 38.7803 55.4378C37.6359 58.4895 36.7459 61.6682 36.1102 64.847C35.6016 68.153 35.2201 71.3317 35.2201 74.5105C35.2201 79.4694 35.8559 84.5554 37.0002 89.5143C38.1445 94.3461 39.9246 98.7963 42.4676 102.611C44.8834 106.425 48.0621 109.477 52.0037 111.893C55.8182 114.182 60.5227 115.326 65.9901 115.326C68.7873 115.326 71.5846 114.817 74.1276 113.927C76.6705 112.91 79.0863 111.639 81.1207 109.986C83.2822 108.333 85.0623 106.298 86.7153 103.882C88.3682 101.594 89.6397 98.9235 90.5297 96.2533L91.4197 93.7103L109.093 100.831L108.203 103.247C106.169 108.206 103.499 112.656 99.9387 116.47C96.5057 120.158 92.5641 123.336 88.1139 125.752C83.7908 128.168 78.9592 130.076 74.0004 131.22C69.0416 132.491 63.9557 133 58.8697 133V132.873Z" fill="url(#paint0_linear_3251_945)"/>
<path d="M106.169 47.5545L93.4541 52.8948C92.4369 49.7161 91.1655 46.6644 89.5125 43.9943C87.8596 41.3241 85.8252 39.0354 83.5365 37.1281C81.2479 35.2208 78.5778 33.695 75.6533 32.6778C72.7289 31.6606 69.5502 31.0248 65.9901 31.0248C62.3027 31.0248 58.8697 31.6606 55.691 32.805C52.5123 33.9493 49.8422 35.7294 47.2992 37.891C44.7563 40.0526 42.7219 42.4684 40.8147 45.3929C38.9074 48.3174 37.3816 51.2419 36.2373 54.4206C35.093 57.5994 34.0758 60.9053 33.44 64.3384C32.8043 67.7715 32.55 71.0774 32.55 74.3834C32.55 79.5966 33.1857 84.8097 34.3301 89.8958C35.4744 94.9818 37.5088 99.6864 40.1789 103.882C42.849 108.078 46.282 111.384 50.4779 113.927C54.6738 116.47 59.7598 117.742 65.8629 117.742C69.0416 117.742 72.0932 117.233 74.8904 116.089C77.6877 114.945 80.2307 113.546 82.6465 111.639C85.0623 109.731 86.9696 107.57 88.7496 105.027C90.5297 102.484 91.9283 99.8136 92.9455 96.8891L105.788 101.975C103.88 106.68 101.337 110.876 98.0315 114.436C94.7256 117.996 91.0383 120.921 86.8424 123.209C82.6465 125.498 78.1963 127.278 73.3647 128.423C68.533 129.567 63.7014 130.203 58.8697 130.203C53.6567 130.203 48.5707 129.567 43.7391 128.295C38.9074 127.024 34.3301 125.117 30.2613 122.828C26.1926 120.539 22.251 117.615 18.9451 114.182C15.6393 110.749 12.5877 107.061 10.1719 102.992C7.75606 98.9235 5.84883 94.3461 4.57734 89.5143C3.30586 84.6826 2.54297 79.5966 2.54297 74.3834C2.54297 69.1702 3.17871 64.0841 4.57734 59.2524C5.97598 54.4207 7.75606 49.9703 10.1719 45.7744C12.5877 41.5784 15.5121 37.891 18.9451 34.4579C22.3781 31.0248 26.1926 28.2275 30.2613 25.8116C34.3301 23.3958 38.9074 21.6157 43.7391 20.3442C48.5707 19.0726 53.6567 18.4369 58.8697 18.4369C64.0828 18.4369 68.9145 19.0727 73.7461 20.217C78.5778 21.3614 83.1551 23.2686 87.2239 25.5574C91.2926 27.8461 95.1071 31.0248 98.4129 34.5851C101.719 38.1453 104.262 42.4684 106.169 47.4273V47.5545Z" fill="url(#paint1_linear_3251_945)"/>
<path d="M152.705 132.746C146.475 132.746 140.88 131.729 136.176 129.567C131.471 127.533 127.403 124.608 124.224 120.793C121.045 117.106 118.757 112.656 117.104 107.57C115.578 102.611 114.815 97.1434 114.815 91.1673C114.815 87.0985 115.196 82.9025 115.832 78.5793C116.468 74.2562 117.485 69.9331 118.757 65.6099C120.028 61.2868 121.554 57.0908 123.461 52.7677C125.241 48.5717 127.403 44.5029 129.691 40.6883L130.454 39.4168H153.85L152.705 42.7227C151.434 46.4101 150.417 50.2247 149.399 54.1664C148.509 58.108 147.619 62.1769 146.983 66.1185C146.348 70.0602 145.839 74.0019 145.458 77.8165C145.076 81.631 144.949 85.064 144.949 88.37C144.949 90.2772 144.949 92.3117 145.203 94.3461C145.331 96.5077 145.712 98.5421 146.093 100.704C146.475 102.738 147.111 104.772 147.874 106.68C148.636 108.46 149.526 110.113 150.671 111.384C151.688 112.656 152.959 113.673 154.612 114.436C156.138 115.199 157.918 115.58 160.08 115.58C162.241 115.58 163.894 115.199 165.547 114.182C167.2 113.164 168.726 111.893 169.997 110.367C171.269 108.714 172.54 106.807 173.43 104.772C174.448 102.611 175.21 100.322 175.846 97.9063C176.482 95.6176 176.991 93.2017 177.245 91.0401C177.499 88.7514 177.753 86.8442 177.753 85.0641V39.4168H208.015V130.584H194.283L184.365 113.419C183.348 115.326 182.204 116.979 180.932 118.632C178.771 121.556 176.228 123.972 173.43 126.134C170.633 128.168 167.454 129.821 163.894 130.966C160.461 132.11 156.647 132.619 152.705 132.619V132.746Z" fill="url(#paint2_linear_3251_945)"/>
<path d="M117.358 91.4216C117.358 87.4799 117.739 83.411 118.375 79.2151C119.011 75.0191 120.028 70.8231 121.3 66.5C122.571 62.1768 124.097 58.108 125.877 54.0392C127.657 49.9703 129.691 46.0287 131.853 42.2141H150.289C149.018 45.9015 148.001 49.8432 146.984 53.912C145.966 57.9809 145.203 62.0497 144.568 66.1185C143.932 70.1873 143.423 74.129 143.042 77.9436C142.66 81.7581 142.533 85.4455 142.533 88.7514C142.533 90.6587 142.533 92.8202 142.788 94.9818C143.042 97.1434 143.296 99.4321 143.678 101.594C144.059 103.755 144.695 105.917 145.585 107.951C146.475 109.986 147.492 111.766 148.764 113.292C150.035 114.817 151.688 116.089 153.468 116.979C155.248 117.869 157.537 118.378 160.08 118.378C162.623 118.378 164.784 117.869 166.692 116.725C168.599 115.58 170.379 114.182 171.905 112.274C173.43 110.367 174.702 108.333 175.719 106.044C176.736 103.755 177.626 101.339 178.262 98.7963C178.898 96.2533 179.406 93.9646 179.788 91.5487C180.169 89.1329 180.296 87.0984 180.296 85.1912V42.087H205.472V128.168H195.809L184.238 108.078C182.839 111.384 181.059 114.436 179.025 117.106C176.991 119.776 174.575 122.192 172.032 124.099C169.489 126.007 166.437 127.532 163.259 128.55C160.08 129.567 156.647 130.075 152.832 130.075C146.856 130.075 141.643 129.058 137.32 127.151C132.997 125.244 129.183 122.574 126.258 119.141C123.334 115.707 121.172 111.639 119.647 106.934C118.121 102.229 117.485 97.0162 117.485 91.2944L117.358 91.4216Z" fill="url(#paint3_linear_3251_945)"/>
<path d="M223.909 130.711V0H237.514L254.17 27.9732V130.711H223.909Z" fill="url(#paint4_linear_3251_945)"/>
<path d="M251.627 128.168H226.451V2.543H236.114L251.627 28.7361V128.295V128.168Z" fill="url(#paint5_linear_3251_945)"/>
<path d="M277.184 130.711V54.6749H261.544V39.6711H277.184V8.0105H307.572V39.6711H333.638V54.6749H307.572V130.711H277.184Z" fill="url(#paint6_linear_3251_945)"/>
<g filter="url(#filter0_d_3251_945)">
<path d="M305.029 128.168H279.727V52.1319H264.087V42.087H279.727V10.4264H305.029V42.087H331.095V52.1319H305.029V128.168Z" fill="url(#paint7_linear_3251_945)"/>
<path d="M305.029 42.587H330.595V51.6319H305.029H304.529V52.1319V127.668H280.227V52.1319V51.6319H279.727H264.587V42.587H279.727H280.227V42.087V10.9264H304.529V42.087V42.587H305.029Z" stroke="url(#paint8_linear_3251_945)"/>
</g>
<path d="M442.858 130.711V39.5439H456.591L465.109 56.455C466 54.8021 466.89 53.2763 467.78 51.8776C469.687 48.9531 471.976 46.4101 474.391 44.3757C476.934 42.2141 479.859 40.5612 483.037 39.4168C486.216 38.2724 489.903 37.6367 493.972 37.6367C496.007 37.6367 498.295 37.7639 500.838 38.1453C503.381 38.5268 505.924 39.0354 508.34 39.9254C510.756 40.8155 513.172 41.8327 515.206 43.2313C517.495 44.63 519.275 46.5373 520.546 48.5717L521.309 49.8432L503.381 79.5965L501.728 74.1291C501.092 72.2218 500.457 70.0602 499.44 67.6443C498.55 65.3556 497.405 63.1941 496.134 61.1596C494.862 59.2524 493.464 57.5994 491.683 56.3279C490.158 55.1835 488.505 54.6749 486.47 54.6749C484.69 54.6749 483.165 55.0564 481.893 55.9464C480.494 56.9637 479.223 58.2352 478.206 59.8881C477.189 61.6682 476.171 63.5755 475.536 65.7371C474.773 68.0258 474.264 70.3145 473.883 72.7304C473.501 75.1463 473.247 77.3078 473.12 79.5965C472.993 81.7581 472.866 83.6654 472.866 85.3184V130.966H442.477L442.858 130.711Z" fill="url(#paint9_linear_3251_945)"/>
<path d="M518.511 49.7161L504.398 73.239C503.762 71.2046 502.999 69.043 502.109 66.5C501.219 63.957 499.948 61.6682 498.549 59.5067C497.15 57.3451 495.498 55.565 493.59 54.0392C491.683 52.5134 489.394 51.8776 486.851 51.8776C484.563 51.8776 482.528 52.5134 480.748 53.6577C478.968 54.8021 477.57 56.4551 476.425 58.3623C475.281 60.2696 474.264 62.4312 473.501 64.847C472.738 67.2629 472.102 69.6788 471.721 72.0947C471.339 74.5105 470.958 76.9264 470.831 79.2151C470.704 81.5038 470.576 83.4111 470.576 85.0641V128.168H445.274V42.087H454.937L465.109 62.1769C466.508 58.9981 468.033 55.9465 469.941 53.2763C471.848 50.6061 473.755 48.1902 476.171 46.283C478.587 44.3757 481.13 42.8499 484.054 41.7055C486.979 40.5612 490.412 40.0526 494.099 40.0526C496.006 40.0526 498.168 40.1797 500.583 40.5612C502.999 40.9426 505.288 41.4512 507.577 42.2142C509.865 42.9771 512.027 43.9943 513.934 45.2658C515.841 46.5373 517.367 48.0631 518.511 49.8432V49.7161Z" fill="url(#paint10_linear_3251_945)"/>
<path d="M567.209 132.491C560.343 132.491 553.986 131.347 548.137 129.058C542.288 126.77 537.202 123.464 532.879 119.268C528.683 115.072 525.25 109.986 522.834 104.264C520.418 98.542 519.147 92.0573 519.147 85.1912C519.147 78.325 520.418 71.9675 522.834 66.1185C525.25 60.2696 528.556 55.3107 532.879 51.1147C537.075 46.9187 542.288 43.6128 548.137 41.3241C553.986 39.0354 560.343 37.891 567.209 37.891C570.515 37.891 573.821 38.1453 577.254 38.5267C580.687 39.0353 584.12 39.7982 587.299 40.6883C590.604 41.7055 593.783 42.977 596.58 44.63C599.632 46.283 602.302 48.4445 604.464 50.8604C606.752 53.2763 608.532 56.2007 609.804 59.5067C611.075 62.8126 611.838 66.5 611.838 70.696C611.838 74.5105 611.202 78.0707 609.931 81.1223C608.66 84.174 607.007 86.8442 604.718 89.1329C602.556 91.4216 600.141 93.3289 597.343 94.8547C594.673 96.3805 591.622 97.652 588.57 98.542C585.519 99.5592 582.34 100.195 579.034 100.576C575.855 100.958 572.676 101.212 569.625 101.212C565.81 101.212 561.996 100.958 558.182 100.449C555.893 100.068 553.477 99.6864 551.188 99.0506C551.57 100.704 552.206 102.229 552.714 103.882C553.731 106.553 555.257 108.841 557.037 110.876C558.817 112.783 560.979 114.309 563.522 115.453C566.065 116.597 569.243 117.106 572.804 117.106C575.092 117.106 577.381 116.725 579.542 116.089C581.704 115.326 583.611 114.436 585.391 113.037C587.171 111.766 588.697 110.24 590.096 108.46C591.494 106.68 592.639 104.645 593.402 102.484L594.292 100.195L610.058 106.044L609.041 108.46C607.261 112.656 604.845 116.343 601.793 119.395C598.742 122.446 595.309 124.989 591.494 126.897C587.68 128.804 583.611 130.33 579.415 131.22C575.219 132.11 571.024 132.619 566.828 132.619L567.209 132.491ZM549.663 85.3184C552.078 85.827 554.621 86.2084 557.037 86.5898C559.962 86.9713 563.013 87.0985 566.065 87.0985C569.116 87.0985 572.041 86.8442 574.584 86.2084C577 85.6998 579.161 84.8097 580.941 83.5382C582.721 82.2667 583.993 80.7409 585.01 78.7065C586.027 76.6721 586.536 74.0019 586.536 70.696C586.536 68.0258 586.154 65.6099 585.518 63.4484C584.883 61.4139 583.866 59.5067 582.467 58.108C581.195 56.7093 579.543 55.565 577.635 54.6749C575.728 53.7849 573.312 53.4034 570.642 53.4034C568.226 53.4034 565.938 53.912 564.03 54.6749C562.123 55.565 560.343 56.8365 558.817 58.3623C557.292 59.8881 555.893 61.7954 554.876 63.9569C553.731 66.1185 552.841 68.4072 552.078 70.8231C551.316 73.239 550.807 75.6548 550.426 78.0707C550.044 80.4866 549.917 82.9025 549.917 85.064L549.663 85.3184Z" fill="url(#paint11_linear_3251_945)"/>
<path d="M609.549 70.4417C609.549 74.0019 609.041 77.0535 607.896 79.8509C606.752 82.6482 605.226 85.0641 603.192 87.0985C601.158 89.1329 598.996 90.913 596.326 92.4388C593.656 93.9646 590.986 95.109 588.061 95.9991C585.137 96.8891 582.085 97.5249 579.034 98.0335C575.982 98.5421 572.931 98.6692 570.006 98.6692C566.319 98.6692 562.632 98.4149 558.944 97.9063C555.257 97.3977 551.697 96.5076 548.264 95.3633C548.772 98.6692 549.662 101.721 550.934 104.772C552.205 107.824 553.731 110.367 555.766 112.529C557.8 114.69 560.216 116.47 563.14 117.742C566.065 119.013 569.498 119.649 573.439 119.649C576.109 119.649 578.525 119.268 580.941 118.505C583.357 117.742 585.518 116.598 587.553 115.199C589.587 113.8 591.24 112.02 592.766 110.113C594.292 108.206 595.563 105.917 596.453 103.501L607.388 107.57C605.735 111.511 603.446 114.945 600.649 117.742C597.852 120.539 594.546 122.955 590.986 124.862C587.426 126.77 583.611 128.041 579.542 129.058C575.474 130.076 571.532 130.457 567.463 130.457C560.852 130.457 554.876 129.313 549.281 127.151C543.687 124.989 538.982 121.811 534.913 117.869C530.845 113.927 527.793 109.096 525.504 103.628C523.216 98.1606 522.071 92.0573 522.071 85.5726C522.071 79.0879 523.216 72.9847 525.504 67.5172C527.793 62.0497 530.972 57.218 534.913 53.2763C538.855 49.3346 543.687 46.1558 549.281 43.9943C554.876 41.8327 560.852 40.6883 567.463 40.6883C570.642 40.6883 573.948 40.9426 577.254 41.3241C580.56 41.7055 583.865 42.4685 586.917 43.4857C589.969 44.5029 593.02 45.6472 595.817 47.3002C598.615 48.9531 601.03 50.7333 603.065 53.022C605.099 55.3107 606.752 57.8537 608.024 60.9053C609.295 63.957 609.804 67.2629 609.804 71.0774L609.549 70.4417ZM547.501 87.3528C550.553 87.9885 553.604 88.6243 556.783 89.0057C559.962 89.3872 563.013 89.6415 566.065 89.6415C569.116 89.6415 572.422 89.3872 575.219 88.7514C578.017 88.1157 580.432 87.0984 582.467 85.5726C584.501 84.0468 586.154 82.1396 587.298 79.7237C588.443 77.3078 589.078 74.2562 589.078 70.696C589.078 67.7715 588.697 65.1013 587.934 62.6854C587.171 60.2696 585.9 58.108 584.374 56.4551C582.848 54.8021 580.941 53.4034 578.652 52.3862C576.364 51.369 573.694 50.9876 570.642 50.9876C567.845 50.9876 565.302 51.4962 563.013 52.5134C560.724 53.5306 558.817 54.9292 557.037 56.7094C555.257 58.4895 553.858 60.5239 552.587 62.8126C551.315 65.1013 550.425 67.6444 549.535 70.0602C548.645 72.4761 548.137 75.1463 547.882 77.6893C547.628 80.2323 547.374 82.6482 547.374 84.9369V86.0812C547.374 86.0812 547.374 86.8442 547.374 87.2256L547.501 87.3528Z" fill="url(#paint12_linear_3251_945)"/>
<path d="M373.89 133.329C367.66 133.329 362.065 132.312 357.361 130.15C352.656 128.116 348.588 125.191 345.409 121.377C342.23 117.689 339.942 113.239 338.289 108.153C336.763 103.194 336 97.7266 336 91.7505C336 87.6817 336.381 83.4857 337.017 79.1625C337.653 74.8394 338.67 70.5163 339.942 66.1931C341.213 61.87 342.739 57.674 344.646 53.3509C346.426 49.1549 348.588 45.086 350.876 41.2715L351.639 40H375.035L373.89 43.3059C372.619 46.9933 371.602 50.8079 370.584 54.7495C369.694 58.6912 368.804 62.76 368.169 66.7017C367.533 70.6434 367.024 74.5851 366.643 78.3996C366.261 82.2142 366.134 85.6472 366.134 88.9532C366.134 90.8604 366.134 92.8949 366.388 94.9293C366.516 97.0908 366.897 99.1253 367.279 101.287C367.66 103.321 368.296 105.356 369.059 107.263C369.821 109.043 370.712 110.696 371.856 111.968C372.873 113.239 374.145 114.256 375.797 115.019C377.323 115.782 379.103 116.163 381.265 116.163C383.426 116.163 385.079 115.782 386.732 114.765C388.385 113.748 389.911 112.476 391.182 110.95C392.454 109.297 393.725 107.39 394.615 105.356C395.633 103.194 396.396 100.905 397.031 98.4895C397.667 96.2008 398.176 93.7849 398.43 91.6233C398.684 89.3346 398.938 87.4274 398.938 85.6473V40H429.2V131.167H415.468L405.55 114.002C404.533 115.909 403.389 117.562 402.117 119.215C399.956 122.14 397.413 124.555 394.615 126.717C391.818 128.751 388.639 130.404 385.079 131.549C381.646 132.693 377.832 133.202 373.89 133.202V133.329Z" fill="url(#paint13_linear_3251_945)"/>
<path d="M339.627 89.0002L339.512 89.1153C339.581 85.5855 339.944 81.9488 340.512 78.203C341.143 74.0359 342.154 69.863 343.421 65.5541C344.686 61.2539 346.204 57.205 347.977 53.1526C349.709 49.1929 351.685 45.3514 353.787 41.6272H371.234C370.058 45.1449 369.097 48.877 368.141 52.7038C367.119 56.7914 366.353 60.8758 365.716 64.9544C365.079 69.0316 364.569 72.9825 364.186 76.8068C363.803 80.6417 363.675 84.3461 363.675 87.6644V87.676C363.675 89.5766 363.675 91.7625 363.933 93.9533C363.957 94.1583 363.981 94.3647 364.006 94.5723C364.237 96.5463 364.479 98.6218 364.827 100.594C365.215 102.792 365.862 104.992 366.769 107.065C367.672 109.128 368.711 110.953 370.022 112.525C371.34 114.107 373.049 115.421 374.887 116.339C376.748 117.27 379.116 117.791 381.722 117.791C384.335 117.791 386.59 117.267 388.591 116.066C390.536 114.899 392.366 113.464 393.937 111.5C395.487 109.562 396.782 107.491 397.818 105.16C398.844 102.851 399.745 100.408 400.389 97.8306C401.027 95.28 401.539 92.9757 401.924 90.5397C402.31 88.0963 402.438 86.0357 402.438 84.1042V41.5H426.614V126.581H417.74L406.313 106.742L405.811 105.87L405.42 106.797C404.037 110.064 402.278 113.08 400.269 115.716C398.261 118.352 395.878 120.734 393.374 122.612C390.88 124.483 387.88 125.984 384.748 126.986C381.624 127.986 378.243 128.489 374.474 128.489C368.554 128.489 363.412 127.481 359.164 125.607C354.898 123.725 351.149 121.096 348.281 117.729C345.406 114.354 343.273 110.345 341.764 105.693C340.259 101.052 339.627 95.8939 339.627 90.2074V89.0002Z" fill="url(#paint14_linear_3251_945)" stroke="url(#paint15_linear_3251_945)"/>
<defs>
<filter id="filter0_d_3251_945" x="260.087" y="10.4264" width="75.0073" height="125.742" filterUnits="userSpaceOnUse" color-interpolation-filters="sRGB">
<feFlood flood-opacity="0" result="BackgroundImageFix"/>
<feColorMatrix in="SourceAlpha" type="matrix" values="0 0 0 0 0 0 0 0 0 0 0 0 0 0 0 0 0 0 127 0" result="hardAlpha"/>
<feOffset dy="4"/>
<feGaussianBlur stdDeviation="2"/>
<feComposite in2="hardAlpha" operator="out"/>
<feColorMatrix type="matrix" values="0 0 0 0 0 0 0 0 0 0 0 0 0 0 0 0 0 0 0.25 0"/>
<feBlend mode="normal" in2="BackgroundImageFix" result="effect1_dropShadow_3251_945"/>
<feBlend mode="normal" in="SourceGraphic" in2="effect1_dropShadow_3251_945" result="shape"/>
</filter>
<linearGradient id="paint0_linear_3251_945" x1="54.6738" y1="132.873" x2="54.6738" y2="15.8939" gradientUnits="userSpaceOnUse">
<stop stop-color="#FFF33B"/>
<stop offset="0.04" stop-color="#FCED40"/>
<stop offset="0.16" stop-color="#F7E14C"/>
<stop offset="0.28" stop-color="#F6DE50"/>
<stop offset="0.67" stop-color="#9A5724"/>
<stop offset="0.89" stop-color="#B4792E"/>
</linearGradient>
<linearGradient id="paint1_linear_3251_945" x1="54.4195" y1="130.33" x2="54.4195" y2="18.4369" gradientUnits="userSpaceOnUse">
<stop offset="0.11" stop-color="#B4792E"/>
<stop offset="0.33" stop-color="#9A5724"/>
<stop offset="0.72" stop-color="#F6DE50"/>
<stop offset="0.84" stop-color="#F7E14C"/>
<stop offset="0.96" stop-color="#FCED40"/>
<stop offset="1" stop-color="#FFF33B"/>
</linearGradient>
<linearGradient id="paint2_linear_3251_945" x1="161.351" y1="132.746" x2="161.351" y2="39.6711" gradientUnits="userSpaceOnUse">
<stop stop-color="#FFF33B"/>
<stop offset="0.04" stop-color="#FCED40"/>
<stop offset="0.16" stop-color="#F7E14C"/>
<stop offset="0.28" stop-color="#F6DE50"/>
<stop offset="0.67" stop-color="#9A5724"/>
<stop offset="0.89" stop-color="#B4792E"/>
</linearGradient>
<linearGradient id="paint3_linear_3251_945" x1="161.351" y1="130.203" x2="161.351" y2="42.2141" gradientUnits="userSpaceOnUse">
<stop offset="0.11" stop-color="#B4792E"/>
<stop offset="0.33" stop-color="#9A5724"/>
<stop offset="0.72" stop-color="#F6DE50"/>
<stop offset="0.84" stop-color="#F7E14C"/>
<stop offset="0.96" stop-color="#FCED40"/>
<stop offset="1" stop-color="#FFF33B"/>
</linearGradient>
<linearGradient id="paint4_linear_3251_945" x1="239.039" y1="130.711" x2="239.039" y2="0" gradientUnits="userSpaceOnUse">
<stop stop-color="#FFF33B"/>
<stop offset="0.04" stop-color="#FCED40"/>
<stop offset="0.16" stop-color="#F7E14C"/>
<stop offset="0.28" stop-color="#F6DE50"/>
<stop offset="0.67" stop-color="#9A5724"/>
<stop offset="0.89" stop-color="#B4792E"/>
</linearGradient>
<linearGradient id="paint5_linear_3251_945" x1="239.039" y1="128.168" x2="239.039" y2="2.543" gradientUnits="userSpaceOnUse">
<stop offset="0.11" stop-color="#B4792E"/>
<stop offset="0.33" stop-color="#9A5724"/>
<stop offset="0.72" stop-color="#F6DE50"/>
<stop offset="0.84" stop-color="#F7E14C"/>
<stop offset="0.96" stop-color="#FCED40"/>
<stop offset="1" stop-color="#FFF33B"/>
</linearGradient>
<linearGradient id="paint6_linear_3251_945" x1="297" y1="130" x2="298" y2="8" gradientUnits="userSpaceOnUse">
<stop stop-color="#FFF33B"/>
<stop offset="0.0630478" stop-color="#FCED40"/>
<stop offset="0.16" stop-color="#F7E14C"/>
<stop offset="0.28" stop-color="#F6DE50"/>
<stop offset="0.67" stop-color="#9A5724"/>
<stop offset="0.89" stop-color="#B4792E"/>
</linearGradient>
<linearGradient id="paint7_linear_3251_945" x1="297.527" y1="128.168" x2="297.527" y2="10.5535" gradientUnits="userSpaceOnUse">
<stop offset="0.11" stop-color="#B4792E"/>
<stop offset="0.33" stop-color="#9A5724"/>
<stop offset="0.72" stop-color="#F6DE50"/>
<stop offset="0.84" stop-color="#F7E14C"/>
<stop offset="0.96" stop-color="#FCED40"/>
<stop offset="1" stop-color="#FFF33B"/>
</linearGradient>
<linearGradient id="paint8_linear_3251_945" x1="297.591" y1="10.4264" x2="297.591" y2="128.168" gradientUnits="userSpaceOnUse">
<stop stop-color="#FFF33B"/>
<stop offset="0.04" stop-color="#FCED40"/>
<stop offset="0.16" stop-color="#F7E14C"/>
<stop offset="0.28" stop-color="#F6DE50"/>
<stop offset="0.67" stop-color="#9A5724"/>
<stop offset="0.89" stop-color="#B4792E"/>
</linearGradient>
<linearGradient id="paint9_linear_3251_945" x1="482.147" y1="130.711" x2="482.147" y2="37.5095" gradientUnits="userSpaceOnUse">
<stop stop-color="#FFF33B"/>
<stop offset="0.04" stop-color="#FCED40"/>
<stop offset="0.16" stop-color="#F7E14C"/>
<stop offset="0.28" stop-color="#F6DE50"/>
<stop offset="0.67" stop-color="#9A5724"/>
<stop offset="0.89" stop-color="#B4792E"/>
</linearGradient>
<linearGradient id="paint10_linear_3251_945" x1="481.893" y1="128.168" x2="481.893" y2="40.0526" gradientUnits="userSpaceOnUse">
<stop offset="0.11" stop-color="#B4792E"/>
<stop offset="0.33" stop-color="#9A5724"/>
<stop offset="0.72" stop-color="#F6DE50"/>
<stop offset="0.84" stop-color="#F7E14C"/>
<stop offset="0.96" stop-color="#FCED40"/>
<stop offset="1" stop-color="#FFF33B"/>
</linearGradient>
<linearGradient id="paint11_linear_3251_945" x1="565.683" y1="132.491" x2="565.683" y2="37.5095" gradientUnits="userSpaceOnUse">
<stop stop-color="#FFF33B"/>
<stop offset="0.04" stop-color="#FCED40"/>
<stop offset="0.16" stop-color="#F7E14C"/>
<stop offset="0.28" stop-color="#F6DE50"/>
<stop offset="0.67" stop-color="#9A5724"/>
<stop offset="0.89" stop-color="#B4792E"/>
</linearGradient>
<linearGradient id="paint12_linear_3251_945" x1="565.683" y1="129.948" x2="565.683" y2="40.0526" gradientUnits="userSpaceOnUse">
<stop offset="0.11" stop-color="#B4792E"/>
<stop offset="0.33" stop-color="#9A5724"/>
<stop offset="0.72" stop-color="#F6DE50"/>
<stop offset="0.84" stop-color="#F7E14C"/>
<stop offset="0.96" stop-color="#FCED40"/>
<stop offset="1" stop-color="#FFF33B"/>
</linearGradient>
<linearGradient id="paint13_linear_3251_945" x1="382.536" y1="133.329" x2="382.536" y2="40.2543" gradientUnits="userSpaceOnUse">
<stop stop-color="#FFF33B"/>
<stop offset="0.04" stop-color="#FCED40"/>
<stop offset="0.16" stop-color="#F7E14C"/>
<stop offset="0.28" stop-color="#F6DE50"/>
<stop offset="0.67" stop-color="#9A5724"/>
<stop offset="0.89" stop-color="#B4792E"/>
</linearGradient>
<linearGradient id="paint14_linear_3251_945" x1="383" y1="129" x2="382.993" y2="41.1272" gradientUnits="userSpaceOnUse">
<stop offset="0.11" stop-color="#B4792E"/>
<stop offset="0.33" stop-color="#9A5724"/>
<stop offset="0.72" stop-color="#F6DE50"/>
<stop offset="0.84" stop-color="#F7E14C"/>
<stop offset="0.96" stop-color="#FCED40"/>
<stop offset="1" stop-color="#FFF33B"/>
</linearGradient>
<linearGradient id="paint15_linear_3251_945" x1="2590.2" y1="610.919" x2="-1823.74" y2="610.919" gradientUnits="userSpaceOnUse">
<stop stop-color="#B4792E"/>
<stop offset="0.11" stop-color="#B4792E"/>
<stop offset="0.33" stop-color="#9A5724"/>
<stop offset="0.72" stop-color="#F6DE50"/>
<stop offset="0.84" stop-color="#F7E14C"/>
<stop offset="0.96" stop-color="#FCED40"/>
<stop offset="1" stop-color="#FFF33B"/>
</linearGradient>
</defs>
</svg>
