<svg width="1372" height="164" viewBox="0 0 1372 164" fill="none" xmlns="http://www.w3.org/2000/svg">
<path d="M64.4227 145.545C58.4396 145.545 52.5956 144.85 47.1691 143.319C41.6034 141.788 36.4552 139.701 31.7243 137.058C26.9935 134.275 22.541 130.935 18.645 127.178C14.749 123.282 11.4096 118.969 8.62679 114.238C5.84396 109.507 3.75683 104.359 2.22627 98.7927C0.695709 93.2269 0 87.522 0 81.5388C0 75.5556 0.695709 69.7115 2.22627 64.2849C3.75683 58.7191 5.84396 53.5707 8.62679 48.8398C11.4096 44.1089 14.749 39.7954 18.645 35.8993C22.541 32.0033 26.8544 28.6638 31.7243 26.0201C36.4552 23.3763 41.7426 21.15 47.1691 19.7585C52.7348 18.2279 58.4396 17.5322 64.4227 17.5322C70.4058 17.5322 75.8323 18.228 81.398 19.6194C86.9637 21.0109 92.1119 23.098 96.9819 25.8809C101.852 28.6638 106.165 32.1425 109.922 36.3168C113.679 40.4911 116.74 45.6395 118.827 51.2053L119.801 53.7099L100.6 61.7802L99.6256 58.8582C98.6516 55.5187 97.2602 52.4575 95.5905 49.8138C93.9208 47.17 91.9728 44.8046 89.6074 42.9957C87.3811 41.1868 84.7374 39.6563 81.8154 38.5431C78.8934 37.4299 75.6932 37.0125 72.2146 37.0125C68.4578 37.0125 65.1184 37.5691 62.0573 38.8214C58.9961 40.0737 56.2133 41.7434 53.7088 43.8306C51.2042 45.9177 48.9779 48.5615 47.1691 51.3444C45.2211 54.2664 43.6905 57.4668 42.4383 60.8062C41.186 64.1457 40.212 67.6243 39.5163 71.103C38.9597 74.7207 38.5423 78.1993 38.5423 81.6779C38.5423 87.1046 39.238 92.6704 40.4903 98.097C41.7426 103.385 43.6905 108.255 46.4734 112.429C49.1171 116.603 52.5956 119.943 56.909 122.586C61.0833 125.091 66.2315 126.343 72.2146 126.343C75.2757 126.343 78.3369 125.787 81.1197 124.813C83.9025 123.7 86.5462 122.308 88.7725 120.499C91.1379 118.69 93.0859 116.464 94.8947 113.82C96.7036 111.316 98.095 108.394 99.069 105.472L100.043 102.689L119.384 110.481L118.41 113.125C116.183 118.551 113.261 123.421 109.366 127.596C105.609 131.631 101.295 135.11 96.4253 137.753C91.6945 140.397 86.4071 142.484 80.9806 143.737C75.554 145.128 69.9884 145.685 64.4227 145.685V145.545Z" fill="url(#paint0_linear_3136_202)"/>
<path d="M116.183 52.0401L102.269 57.8842C101.156 54.4056 99.7646 51.0661 97.9557 48.1441C96.1469 45.222 93.9206 42.7174 91.4161 40.6303C88.9115 38.5431 85.9895 36.8734 82.7893 35.7602C79.589 34.6471 76.1105 33.9513 72.2145 33.9513C68.1794 33.9513 64.4226 34.647 60.944 35.8993C57.4655 37.1516 54.5435 39.0997 51.7606 41.4651C48.9778 43.8306 46.7515 46.4744 44.6644 49.6747C42.5773 52.875 40.9076 56.0753 39.6553 59.5539C38.403 63.0326 37.2899 66.6503 36.5942 70.4072C35.8985 74.1641 35.6202 77.7819 35.6202 81.3997C35.6202 87.1046 36.3159 92.8095 37.5682 98.3753C38.8205 103.941 41.0467 109.089 43.9687 113.681C46.8907 118.273 50.6475 121.891 55.2392 124.674C59.8309 127.457 65.3965 128.848 72.0754 128.848C75.5539 128.848 78.8933 128.291 81.9544 127.039C85.0155 125.787 87.7984 124.256 90.4421 122.169C93.0858 120.082 95.1729 117.716 97.1209 114.934C99.0689 112.151 100.599 109.229 101.713 106.028L115.766 111.594C113.679 116.742 110.896 121.334 107.278 125.23C103.661 129.126 99.6255 132.327 95.0338 134.831C90.4421 137.336 85.5721 139.284 80.2847 140.536C74.9973 141.788 69.71 142.484 64.4226 142.484C58.7177 142.484 53.1521 141.788 47.8647 140.397C42.5773 139.006 37.5682 136.918 33.1156 134.414C28.6631 131.909 24.3497 128.709 20.732 124.952C17.1143 121.195 13.7749 117.16 11.1312 112.707C8.48753 108.255 6.4004 103.245 5.00898 97.9579C3.61757 92.6704 2.78271 87.1046 2.78271 81.3997C2.78271 75.6947 3.47842 70.129 5.00898 64.8415C6.53954 59.554 8.48753 54.6839 11.1312 50.0921C13.7749 45.5003 16.9752 41.4651 20.732 37.7082C24.4888 33.9513 28.6631 30.8901 33.1156 28.2464C37.5682 25.6026 42.5773 23.6546 47.8647 22.2632C53.1521 20.8717 58.7177 20.176 64.4226 20.176C70.1274 20.176 75.4148 20.8717 80.7022 22.124C85.9895 23.3763 90.9987 25.4635 95.4512 27.9681C99.9037 30.4727 104.078 33.9513 107.696 37.8474C111.313 41.7434 114.096 46.4744 116.183 51.901V52.0401Z" fill="url(#paint1_linear_3136_202)"/>
<path d="M167.109 145.267C160.291 145.267 154.169 144.154 149.021 141.788C143.873 139.562 139.42 136.362 135.942 132.187C132.463 128.152 129.958 123.282 128.15 117.716C126.48 112.29 125.645 106.306 125.645 99.7667C125.645 95.314 126.062 90.7223 126.758 85.9914C127.454 81.2604 128.567 76.5295 129.958 71.7986C131.35 67.0677 133.02 62.4759 135.107 57.7449C137.055 53.1532 139.42 48.7006 141.925 44.5262L142.759 43.1348H168.362L167.109 46.7526C165.718 50.7878 164.605 54.9621 163.492 59.2755C162.518 63.589 161.544 68.0417 160.848 72.3552C160.152 76.6687 159.596 80.9821 159.178 85.1565C158.761 89.3308 158.622 93.0877 158.622 96.7055C158.622 98.7927 158.622 101.019 158.9 103.245C159.039 105.611 159.456 107.837 159.874 110.202C160.291 112.429 160.987 114.655 161.822 116.742C162.657 118.69 163.631 120.499 164.883 121.891C165.996 123.282 167.388 124.395 169.196 125.23C170.866 126.065 172.814 126.482 175.18 126.482C177.545 126.482 179.354 126.065 181.163 124.952C182.971 123.839 184.641 122.447 186.033 120.778C187.424 118.969 188.815 116.881 189.789 114.655C190.903 112.29 191.737 109.785 192.433 107.141C193.129 104.637 193.685 101.993 193.964 99.6275C194.242 97.1229 194.52 95.0357 194.52 93.0877V43.1348H227.636V142.901H212.609L201.756 124.117C200.642 126.204 199.39 128.013 197.999 129.822C195.633 133.022 192.851 135.666 189.789 138.031C186.728 140.258 183.25 142.067 179.354 143.319C175.597 144.571 171.423 145.128 167.109 145.128V145.267Z" fill="url(#paint2_linear_3136_202)"/>
<path d="M128.428 100.045C128.428 95.7315 128.845 91.2789 129.541 86.6872C130.237 82.0954 131.35 77.5036 132.741 72.7727C134.133 68.0418 135.802 63.5891 137.75 59.1365C139.698 54.6839 141.924 50.3704 144.29 46.1961H164.465C163.074 50.2313 161.961 54.5447 160.848 58.9973C159.735 63.45 158.9 67.9026 158.204 72.3553C157.508 76.8079 156.952 81.1213 156.534 85.2957C156.117 89.47 155.978 93.5052 155.978 97.123C155.978 99.2102 155.978 101.576 156.256 103.941C156.534 106.307 156.813 108.811 157.23 111.177C157.648 113.542 158.343 115.908 159.317 118.134C160.291 120.36 161.404 122.308 162.796 123.978C164.187 125.648 165.996 127.039 167.944 128.013C169.892 128.987 172.397 129.544 175.179 129.544C177.962 129.544 180.328 128.987 182.415 127.735C184.502 126.483 186.45 124.952 188.12 122.865C189.789 120.778 191.181 118.551 192.294 116.047C193.407 113.542 194.381 110.898 195.077 108.115C195.772 105.333 196.329 102.828 196.746 100.184C197.164 97.5405 197.303 95.3141 197.303 93.227V46.0569H224.853V140.258H214.278L201.616 118.273C200.086 121.891 198.138 125.23 195.912 128.152C193.685 131.074 191.042 133.718 188.259 135.805C185.476 137.892 182.136 139.562 178.658 140.675C175.179 141.788 171.423 142.345 167.248 142.345C160.709 142.345 155.004 141.232 150.273 139.145C145.542 137.058 141.368 134.136 138.168 130.379C134.967 126.622 132.602 122.169 130.932 117.021C129.263 111.872 128.567 106.167 128.567 99.9059L128.428 100.045Z" fill="url(#paint3_linear_3136_202)"/>
<path d="M245.029 143.18V0H259.917L278.145 30.6118V143.18H245.029Z" fill="url(#paint4_linear_3136_202)"/>
<path d="M275.362 140.397H247.812V2.92212H258.386L275.362 31.5859V140.536V140.397Z" fill="url(#paint5_linear_3136_202)"/>
<path d="M303.329 143.18V59.8322H286.215V43.4132H303.329V8.76611H336.584V43.4132H365.108V59.8322H336.584V143.18H303.329Z" fill="url(#paint6_linear_3136_202)"/>
<path d="M333.802 140.397H306.112V57.1886H288.998V46.1961H306.112V11.5491H333.802V46.1961H362.326V57.1886H333.802V140.397Z" fill="url(#paint7_linear_3136_202)"/>
<path d="M406.711 145.267C399.893 145.267 393.771 144.154 388.623 141.788C383.475 139.562 379.022 136.362 375.544 132.187C372.065 128.152 369.56 123.282 367.752 117.716C366.082 112.29 365.247 106.306 365.247 99.7667C365.247 95.314 365.664 90.7223 366.36 85.9914C367.056 81.2604 368.169 76.5295 369.56 71.7986C370.952 67.0677 372.622 62.4759 374.709 57.7449C376.657 53.1532 379.022 48.7006 381.527 44.5262L382.362 43.1348H407.964L406.711 46.7526C405.32 50.7878 404.207 54.9621 403.094 59.2755C402.12 63.589 401.146 68.0417 400.45 72.3552C399.754 76.6687 399.198 80.9821 398.78 85.1565C398.363 89.3308 398.224 93.0877 398.224 96.7055C398.224 98.7927 398.224 101.019 398.502 103.245C398.641 105.611 399.059 107.837 399.476 110.202C399.893 112.429 400.589 114.655 401.424 116.742C402.259 118.69 403.233 120.499 404.485 121.891C405.598 123.282 406.99 124.395 408.798 125.23C410.468 126.065 412.416 126.482 414.782 126.482C417.147 126.482 418.956 126.065 420.765 124.952C422.574 123.839 424.243 122.447 425.635 120.778C427.026 118.969 428.417 116.881 429.391 114.655C430.505 112.29 431.339 109.785 432.035 107.141C432.731 104.637 433.287 101.993 433.566 99.6275C433.844 97.1229 434.122 95.0357 434.122 93.0877V43.1348H467.238V142.901H452.211L441.358 124.117C440.245 126.204 438.992 128.013 437.601 129.822C435.235 133.022 432.453 135.666 429.391 138.031C426.33 140.258 422.852 142.067 418.956 143.319C415.199 144.571 411.025 145.128 406.711 145.128V145.267Z" fill="url(#paint8_linear_3136_202)"/>
<path d="M368.03 100.045C368.03 95.7315 368.448 91.2789 369.143 86.6872C369.839 82.0954 370.952 77.5036 372.344 72.7727C373.735 68.0418 375.405 63.5891 377.353 59.1365C379.301 54.6839 381.527 50.3704 383.892 46.1961H404.068C402.677 50.2313 401.563 54.5447 400.45 58.9973C399.337 63.45 398.502 67.9026 397.807 72.3553C397.111 76.8079 396.554 81.1213 396.137 85.2957C395.72 89.47 395.58 93.5052 395.58 97.123C395.58 99.2102 395.58 101.576 395.859 103.941C396.137 106.307 396.415 108.811 396.833 111.177C397.25 113.542 397.946 115.908 398.92 118.134C399.894 120.36 401.007 122.308 402.398 123.978C403.79 125.648 405.599 127.039 407.547 128.013C409.495 128.987 411.999 129.544 414.782 129.544C417.565 129.544 419.93 128.987 422.017 127.735C424.104 126.483 426.052 124.952 427.722 122.865C429.392 120.778 430.783 118.551 431.896 116.047C433.01 113.542 433.984 110.898 434.679 108.115C435.375 105.333 435.931 102.828 436.349 100.184C436.766 97.5405 436.905 95.3141 436.905 93.227V46.0569H464.456V140.258H453.881L441.219 118.273C439.688 121.891 437.74 125.23 435.514 128.152C433.288 131.074 430.644 133.718 427.861 135.805C425.078 137.892 421.739 139.562 418.26 140.675C414.782 141.788 411.025 142.345 406.851 142.345C400.311 142.345 394.606 141.232 389.876 139.145C385.145 137.058 380.97 134.136 377.77 130.379C374.57 126.622 372.205 122.169 370.535 117.021C368.865 111.872 368.169 106.167 368.169 99.9059L368.03 100.045Z" fill="url(#paint9_linear_3136_202)"/>
<path d="M484.631 143.18V43.4131H499.659L508.981 61.9194C509.955 60.1105 510.929 58.4408 511.903 56.9102C513.99 53.7098 516.495 50.9269 519.139 48.7006C521.921 46.3352 525.122 44.5263 528.6 43.274C532.079 42.0217 536.114 41.3259 540.566 41.3259C542.793 41.3259 545.297 41.4651 548.08 41.8825C550.863 42.3 553.646 42.8565 556.289 43.8305C558.933 44.8045 561.577 45.9177 563.803 47.4483C566.308 48.9789 568.256 51.0661 569.647 53.2924L570.482 54.6839L550.863 87.2437L549.054 81.2605C548.358 79.1733 547.663 76.8078 546.549 74.1641C545.575 71.6595 544.323 69.294 542.932 67.0677C541.54 64.9806 540.01 63.1717 538.062 61.7802C536.392 60.5279 534.583 59.9713 532.357 59.9713C530.409 59.9713 528.739 60.3888 527.348 61.3628C525.817 62.476 524.426 63.8674 523.313 65.6762C522.2 67.6243 521.086 69.7115 520.391 72.0769C519.556 74.5815 518.999 77.0861 518.582 79.7299C518.164 82.3736 517.886 84.7391 517.747 87.2437C517.608 89.6092 517.469 91.6963 517.469 93.5052V143.458H484.214L484.631 143.18Z" fill="url(#paint10_linear_3136_202)"/>
<path d="M567.42 54.5447L551.975 80.2865C551.28 78.0602 550.445 75.6947 549.471 72.9118C548.497 70.1289 547.105 67.6243 545.575 65.2588C544.044 62.8934 542.235 60.9454 540.148 59.2756C538.061 57.6059 535.557 56.9102 532.774 56.9102C530.269 56.9102 528.043 57.6059 526.095 58.8582C524.147 60.1105 522.616 61.9194 521.364 64.0065C520.112 66.0937 518.999 68.4592 518.164 71.1029C517.329 73.7467 516.633 76.3904 516.216 79.0342C515.798 81.6779 515.381 84.3217 515.242 86.8263C515.103 89.3309 514.964 91.4181 514.964 93.227V140.397H487.274V46.196H497.849L508.981 68.1809C510.511 64.7023 512.181 61.3628 514.268 58.4408C516.355 55.5187 518.442 52.875 521.086 50.7878C523.73 48.7006 526.512 47.0309 529.713 45.7786C532.913 44.5263 536.67 43.9697 540.705 43.9697C542.792 43.9697 545.157 44.1089 547.801 44.5263C550.445 44.9438 552.949 45.5003 555.454 46.3352C557.958 47.17 560.324 48.2832 562.411 49.6747C564.498 51.0661 566.168 52.7358 567.42 54.6839V54.5447Z" fill="url(#paint11_linear_3136_202)"/>
<path d="M617.373 144.989C609.859 144.989 603.041 143.597 596.919 140.954C590.936 138.31 585.787 134.553 581.613 129.822C577.439 125.091 574.239 119.525 572.151 113.264C569.925 107.002 568.951 100.184 568.951 93.088C568.951 85.9916 570.064 79.1735 572.151 72.912C574.378 66.6505 577.578 61.0847 581.613 56.3538C585.787 51.6229 590.936 47.866 596.919 45.2222C602.902 42.5785 609.72 41.187 617.373 41.187C621.269 41.187 625.025 41.7436 628.643 42.9959C632.122 44.1091 635.461 45.918 638.383 48.0051C641.305 50.0923 643.949 52.736 646.175 55.7972C647.288 57.3278 648.401 58.9976 649.236 60.6673L659.532 43.5524H674.56V143.319H641.444V136.501C639.079 138.588 636.435 140.397 633.652 141.649C628.782 144.015 623.216 145.128 617.373 145.128V144.989ZM621.825 59.8324C619.181 59.8324 616.816 60.2498 615.007 61.2238C613.059 62.1978 611.389 63.4501 609.998 64.9807C608.607 66.6505 607.354 68.5985 606.38 70.6857C605.406 72.912 604.571 75.4166 604.015 77.9212C603.458 80.4258 603.041 83.0695 602.763 85.5741C602.484 88.2179 602.345 90.5834 602.345 92.9488C602.345 95.3143 602.345 97.6798 602.763 100.324C603.041 102.967 603.458 105.472 604.015 107.977C604.571 110.481 605.406 112.847 606.38 115.212C607.354 117.438 608.467 119.386 609.998 120.917C611.389 122.448 613.059 123.839 615.007 124.674C616.955 125.648 619.181 126.065 621.825 126.065C624.19 126.065 626.278 125.648 628.086 124.674C629.895 123.7 631.565 122.308 633.096 120.639C634.626 118.83 635.878 116.882 636.852 114.655C637.966 112.29 638.8 109.925 639.496 107.42C640.192 104.915 640.609 102.411 641.027 99.9061C641.305 97.4015 641.444 95.036 641.444 93.088C641.444 90.7225 641.444 88.2179 641.027 85.5741C640.748 82.9304 640.331 80.4258 639.774 77.9212C639.218 75.4166 638.383 73.0512 637.409 70.8248C636.435 68.7377 635.322 66.7896 633.791 65.1199C632.4 63.5893 630.73 62.337 628.643 61.363C626.695 60.5281 624.33 59.9715 621.686 59.9715L621.825 59.8324Z" fill="url(#paint12_linear_3136_202)"/>
<path d="M671.916 140.397H644.366V129.126C641.166 133.579 637.131 136.918 632.539 139.006C627.947 141.093 622.938 142.206 617.372 142.206C610.137 142.206 603.737 140.954 598.171 138.31C592.605 135.666 587.735 132.327 583.839 127.874C579.943 123.421 576.882 118.273 574.934 112.29C572.986 106.307 571.873 99.9059 571.873 93.0878C571.873 86.2697 572.847 79.869 574.934 73.8858C577.021 67.9026 579.943 62.7542 583.839 58.3016C587.735 53.849 592.466 50.3704 598.171 47.8658C603.876 45.3612 610.276 43.9697 617.372 43.9697C620.99 43.9697 624.469 44.5263 627.808 45.6394C631.147 46.7526 634.069 48.2832 636.852 50.2312C639.635 52.1793 642.001 54.5447 644.088 57.4667C646.175 60.3888 647.845 63.3108 648.958 66.7894L661.202 46.3352H671.777V140.536L671.916 140.397ZM644.088 93.0878C644.088 90.5832 644.088 88.0786 643.67 85.2957C643.253 82.5128 642.975 79.869 642.418 77.2253C641.861 74.5815 641.027 72.077 639.913 69.5724C638.8 67.0677 637.548 64.9806 635.878 63.1717C634.209 61.3628 632.261 59.8322 629.895 58.719C627.53 57.6059 624.886 57.0493 621.686 57.0493C618.486 57.0493 615.842 57.6059 613.616 58.719C611.389 59.8322 609.441 61.3628 607.772 63.1717C606.102 64.9806 604.85 67.2069 603.737 69.7115C602.623 72.2161 601.789 74.7207 601.232 77.3644C600.675 80.0082 600.258 82.6519 599.98 85.4348C599.701 88.2177 599.562 90.7223 599.562 93.0878C599.562 95.4532 599.562 98.097 599.98 100.741C600.397 103.384 600.675 106.167 601.232 108.811C601.789 111.455 602.623 114.099 603.737 116.464C604.85 118.83 606.102 121.056 607.772 123.004C609.441 124.952 611.389 126.343 613.616 127.456C615.842 128.57 618.625 129.126 621.686 129.126C624.469 129.126 626.973 128.57 629.2 127.317C631.426 126.065 633.374 124.534 635.043 122.586C636.713 120.638 638.105 118.412 639.218 115.908C640.331 113.403 641.305 110.759 642.001 108.115C642.696 105.472 643.253 102.828 643.531 100.184C643.809 97.5404 644.088 95.175 644.088 92.9487V93.0878Z" fill="url(#paint13_linear_3136_202)"/>
<path d="M692.092 143.18V0H706.98L725.208 30.6118V143.18H692.092Z" fill="url(#paint14_linear_3136_202)"/>
<path d="M722.425 140.397H694.875V2.92212H705.45L722.425 31.5859V140.536V140.397Z" fill="url(#paint15_linear_3136_202)"/>
<path d="M791.717 143.18V20.176H881.602V40.7694H829.703V71.3812H869.775V91.9747H829.703V122.586H881.602V143.18H791.717Z" fill="url(#paint16_linear_3136_202)"/>
<path d="M878.82 140.397H794.5V22.959H878.82V37.9866H826.92V74.3034H866.993V89.1919H826.92V125.37H878.82V140.397Z" fill="url(#paint17_linear_3136_202)"/>
<path d="M916.11 143.18L879.794 43.4131H913.327L936.425 112.29L958.827 43.4131H984.011L944.634 143.18H916.11Z" fill="url(#paint18_linear_3136_202)"/>
<path d="M942.825 140.397H918.058L883.829 46.196H911.379L936.425 121.195L960.775 46.196H979.837L942.686 140.397H942.825Z" fill="url(#paint19_linear_3136_202)"/>
<path d="M1033.96 144.989C1026.45 144.989 1019.49 143.736 1013.09 141.232C1006.69 138.727 1001.13 135.109 996.394 130.518C991.803 125.926 988.046 120.36 985.402 114.099C982.759 107.837 981.367 100.741 981.367 93.2269C981.367 85.7131 982.759 78.7559 985.402 72.3552C988.046 65.9546 991.664 60.5279 996.394 55.9361C1000.99 51.3444 1006.69 47.7266 1013.09 45.222C1019.49 42.7174 1026.45 41.4651 1033.96 41.4651C1037.58 41.4651 1041.2 41.7434 1044.96 42.1608C1048.71 42.7174 1052.47 43.5523 1055.95 44.5263C1059.56 45.6394 1063.04 47.0309 1066.1 48.8397C1069.44 50.6486 1072.37 53.0141 1074.73 55.6579C1077.24 58.3016 1079.18 61.5019 1080.58 65.1197C1081.97 68.7375 1082.8 72.7726 1082.8 77.3644C1082.8 81.5387 1082.11 85.4348 1080.71 88.7743C1079.32 92.1137 1077.51 95.0358 1075.01 97.5404C1072.64 100.045 1070 102.132 1066.94 103.802C1064.02 105.472 1060.68 106.863 1057.34 107.837C1054 108.95 1050.52 109.646 1046.9 110.063C1043.42 110.481 1039.95 110.759 1036.61 110.759C1032.43 110.759 1028.26 110.481 1024.08 109.924C1021.58 109.507 1018.94 109.089 1016.43 108.394C1016.85 110.203 1017.54 111.872 1018.1 113.681C1019.21 116.603 1020.88 119.108 1022.83 121.334C1024.78 123.421 1027.14 125.091 1029.93 126.343C1032.71 127.596 1036.19 128.152 1040.08 128.152C1042.59 128.152 1045.09 127.735 1047.46 127.039C1049.82 126.204 1051.91 125.23 1053.86 123.7C1055.81 122.308 1057.48 120.638 1059.01 118.69C1060.54 116.742 1061.79 114.516 1062.63 112.151L1063.6 109.646L1080.85 116.047L1079.74 118.69C1077.79 123.282 1075.15 127.317 1071.81 130.657C1068.47 133.996 1064.71 136.779 1060.54 138.866C1056.36 140.953 1051.91 142.623 1047.32 143.597C1042.73 144.571 1038.14 145.128 1033.55 145.128L1033.96 144.989ZM1014.76 93.3661C1017.4 93.9226 1020.19 94.34 1022.83 94.7575C1026.03 95.1749 1029.37 95.3141 1032.71 95.3141C1036.05 95.3141 1039.25 95.0358 1042.03 94.3401C1044.68 93.7835 1047.04 92.8095 1048.99 91.418C1050.94 90.0266 1052.33 88.3568 1053.44 86.1305C1054.56 83.9042 1055.11 80.9822 1055.11 77.3644C1055.11 74.4424 1054.69 71.7986 1054 69.4331C1053.3 67.2068 1052.19 65.1197 1050.66 63.5891C1049.27 62.0585 1047.46 60.8062 1045.37 59.8322C1043.29 58.8582 1040.64 58.4408 1037.72 58.4408C1035.08 58.4408 1032.57 58.9973 1030.48 59.8322C1028.4 60.8062 1026.45 62.1977 1024.78 63.8674C1023.11 65.5371 1021.58 67.6243 1020.47 69.9897C1019.21 72.3552 1018.24 74.8598 1017.4 77.5036C1016.57 80.1473 1016.01 82.7911 1015.6 85.4348C1015.18 88.0786 1015.04 90.7223 1015.04 93.0878L1014.76 93.3661Z" fill="url(#paint20_linear_3136_202)"/>
<path d="M1080.3 77.0862C1080.3 80.9823 1079.74 84.3217 1078.49 87.3829C1077.24 90.4441 1075.57 93.0878 1073.34 95.3141C1071.11 97.5405 1068.75 99.4885 1065.83 101.158C1062.91 102.828 1059.98 104.08 1056.78 105.054C1053.58 106.028 1050.24 106.724 1046.9 107.281C1043.56 107.837 1040.23 107.976 1037.02 107.976C1032.99 107.976 1028.95 107.698 1024.92 107.141C1020.88 106.585 1016.99 105.611 1013.23 104.359C1013.79 107.976 1014.76 111.316 1016.15 114.655C1017.55 117.995 1019.21 120.778 1021.44 123.143C1023.67 125.509 1026.31 127.457 1029.51 128.848C1032.71 130.24 1036.47 130.935 1040.78 130.935C1043.7 130.935 1046.35 130.518 1048.99 129.683C1051.63 128.848 1054 127.596 1056.23 126.065C1058.45 124.535 1060.26 122.586 1061.93 120.499C1063.6 118.412 1064.99 115.908 1065.97 113.264L1077.93 117.716C1076.12 122.03 1073.62 125.787 1070.56 128.848C1067.5 131.909 1063.88 134.553 1059.98 136.64C1056.09 138.727 1051.91 140.119 1047.46 141.232C1043.01 142.345 1038.69 142.763 1034.24 142.763C1027.01 142.763 1020.47 141.51 1014.34 139.145C1008.22 136.779 1003.07 133.301 998.622 128.987C994.169 124.674 990.83 119.386 988.325 113.403C985.821 107.42 984.568 100.741 984.568 93.6444C984.568 86.548 985.821 79.8691 988.325 73.8859C990.83 67.9026 994.308 62.6151 998.622 58.3017C1002.94 53.9882 1008.22 50.5096 1014.34 48.1441C1020.47 45.7786 1027.01 44.5264 1034.24 44.5264C1037.72 44.5264 1041.34 44.8046 1044.96 45.2221C1048.57 45.6395 1052.19 46.4744 1055.53 47.5875C1058.87 48.7007 1062.21 49.953 1065.27 51.7618C1068.33 53.5707 1070.98 55.5188 1073.2 58.0234C1075.43 60.528 1077.24 63.3109 1078.63 66.6504C1080.02 69.9898 1080.58 73.6076 1080.58 77.7819L1080.3 77.0862ZM1012.4 95.5924C1015.74 96.2882 1019.08 96.9839 1022.55 97.4013C1026.03 97.8188 1029.37 98.097 1032.71 98.097C1036.05 98.097 1039.67 97.8188 1042.73 97.123C1045.79 96.4273 1048.43 95.3142 1050.66 93.6444C1052.89 91.9747 1054.7 89.8875 1055.95 87.2438C1057.2 84.6 1057.9 81.2605 1057.9 77.3645C1057.9 74.1641 1057.48 71.2421 1056.64 68.5984C1055.81 65.9546 1054.42 63.5892 1052.75 61.7803C1051.08 59.9714 1048.99 58.4408 1046.49 57.3277C1043.98 56.2145 1041.06 55.7971 1037.72 55.7971C1034.66 55.7971 1031.88 56.3536 1029.37 57.4668C1026.87 58.5799 1024.78 60.1105 1022.83 62.0586C1020.88 64.0066 1019.35 66.2329 1017.96 68.7375C1016.57 71.2421 1015.6 74.025 1014.62 76.6688C1013.65 79.3125 1013.09 82.2346 1012.81 85.0175C1012.54 87.8004 1012.26 90.4441 1012.26 92.9487V94.201C1012.26 94.201 1012.26 95.0359 1012.26 95.4533L1012.4 95.5924Z" fill="url(#paint21_linear_3136_202)"/>
<path d="M1148.2 155.842L1149.59 153.338C1150.98 150.694 1152.37 147.772 1153.63 144.572C1154.88 141.232 1155.99 137.753 1157.1 134.136C1158.08 130.379 1159.05 126.622 1159.89 122.587C1160.72 118.551 1161.42 114.655 1161.97 110.759C1162.53 106.863 1162.95 103.106 1163.23 99.4886C1163.5 95.8709 1163.64 92.3922 1163.64 89.3311C1163.64 87.2439 1163.64 85.0176 1163.36 82.6521C1163.23 80.4258 1162.95 78.0604 1162.39 75.8341C1161.97 73.6077 1161.28 71.3814 1160.44 69.2942C1159.75 67.3462 1158.63 65.6765 1157.52 64.285C1156.27 62.8936 1154.88 61.7804 1153.21 60.9455C1151.54 60.1107 1149.59 59.6933 1147.22 59.6933C1144.86 59.6933 1143.05 60.1107 1141.38 61.0847C1139.57 62.1979 1137.9 63.5893 1136.51 65.259C1134.98 67.0679 1133.73 69.1551 1132.75 71.5206C1131.64 73.886 1130.81 76.3906 1130.11 79.0344C1129.41 81.539 1128.86 84.0436 1128.58 86.5482C1128.3 89.0528 1128.16 91.2791 1128.16 93.2271V143.18H1094.91V43.4133H1109.93L1120.79 62.1978C1121.9 60.2498 1123.15 58.3018 1124.54 56.4929C1126.91 53.2926 1129.83 50.5097 1132.89 48.2834C1135.95 46.0571 1139.43 44.2482 1143.33 42.9959C1147.09 41.7436 1151.26 41.187 1155.57 41.187C1162.39 41.187 1168.51 42.3002 1173.66 44.6656C1178.81 46.8919 1183.26 50.2314 1186.74 54.2666C1190.22 58.3018 1192.72 63.1719 1194.39 68.7377C1196.06 74.1643 1196.9 80.1475 1196.9 86.5482C1196.9 92.9488 1196.06 100.045 1194.53 107.002C1193 113.96 1190.78 121.056 1187.85 127.735C1185.07 134.553 1181.59 140.954 1177.7 146.937C1173.66 152.92 1169.35 158.208 1164.48 162.521L1162.95 163.913L1148.48 155.981L1148.2 155.842Z" fill="url(#paint22_linear_3136_202)"/>
<path d="M1193.7 86.4089C1193.7 92.8095 1192.86 99.3493 1191.33 106.307C1189.8 113.264 1187.58 119.943 1184.79 126.622C1182.01 133.301 1178.67 139.423 1174.91 145.267C1171.16 151.111 1166.84 156.12 1162.25 160.434L1151.96 154.868C1153.49 152.085 1154.88 149.163 1156.13 145.685C1157.38 142.206 1158.63 138.727 1159.61 134.97C1160.58 131.213 1161.56 127.317 1162.53 123.282C1163.5 119.247 1164.06 115.212 1164.62 111.316C1165.17 107.42 1165.59 103.524 1165.87 99.7668C1166.15 96.0099 1166.29 92.5312 1166.29 89.3309C1166.29 87.2437 1166.29 84.8783 1166.01 82.5129C1165.73 80.1474 1165.45 77.6428 1165.03 75.2773C1164.62 72.9119 1163.78 70.5464 1162.95 68.3201C1162.11 66.0938 1160.86 64.1457 1159.47 62.476C1158.08 60.8062 1156.27 59.4148 1154.18 58.4408C1152.09 57.4668 1149.73 56.9102 1146.95 56.9102C1144.16 56.9102 1141.8 57.4668 1139.71 58.7191C1137.62 59.9714 1135.68 61.502 1134.15 63.5892C1132.61 65.6763 1131.08 67.9026 1129.97 70.4072C1128.86 72.9118 1127.88 75.5556 1127.05 78.3385C1126.21 81.1214 1125.8 83.626 1125.52 86.2698C1125.24 88.9135 1124.96 91.279 1124.96 93.227V140.397H1097.27V46.1961H1107.85L1120.51 68.1809C1122.04 64.5632 1123.99 61.2237 1126.21 58.3017C1128.44 55.3796 1131.08 52.7359 1134.01 50.6487C1136.93 48.5615 1140.13 46.8918 1143.61 45.7787C1147.09 44.6655 1150.84 44.1089 1155.02 44.1089C1161.56 44.1089 1167.26 45.222 1171.99 47.3092C1176.72 49.3964 1180.9 52.3185 1184.1 56.2145C1187.3 60.1106 1189.66 64.424 1191.33 69.7115C1193 74.999 1193.7 80.5648 1193.7 86.6872V86.4089Z" fill="url(#paint23_linear_3136_202)"/>
<path d="M1215.96 143.18V59.8322H1198.85V43.4132H1215.96V8.76611H1249.22V43.4132H1277.74V59.8322H1249.22V143.18H1215.96Z" fill="url(#paint24_linear_3136_202)"/>
<path d="M1246.43 140.397H1218.74V57.1886H1201.63V46.1961H1218.74V11.5491H1246.43V46.1961H1274.96V57.1886H1246.43V140.397Z" fill="url(#paint25_linear_3136_202)"/>
<path d="M1324.35 144.989C1319.48 144.989 1315.17 144.711 1311.55 144.015C1307.79 143.319 1304.18 142.345 1300.7 140.954C1297.22 139.562 1293.88 137.753 1290.54 135.527C1287.2 133.44 1283.58 130.796 1279.55 127.596L1276.77 125.509L1298.19 107.976L1299.72 111.038C1300.98 113.542 1302.79 115.769 1305.01 117.856C1307.24 119.943 1309.6 121.891 1312.11 123.422C1314.47 124.952 1316.84 126.065 1319.2 126.9C1321.85 127.874 1323.38 128.013 1324.21 128.013C1325.47 128.013 1326.86 128.013 1328.25 128.013C1329.78 128.013 1331.31 127.735 1332.84 127.596C1334.37 127.318 1335.76 127.039 1337.29 126.622C1338.54 126.204 1339.8 125.648 1340.77 124.952C1341.61 124.395 1342.3 123.561 1342.86 122.726C1343.28 121.891 1343.55 120.778 1343.55 119.525C1343.55 118.273 1343.28 117.16 1342.58 116.186C1341.88 115.073 1340.77 114.099 1339.66 113.264C1338.27 112.429 1336.74 111.594 1335.07 110.898C1333.12 110.203 1331.31 109.646 1329.36 109.09C1327.41 108.533 1325.6 108.116 1323.8 107.698C1321.85 107.281 1320.18 106.863 1318.79 106.446L1310.86 104.359C1308.07 103.663 1305.15 102.689 1302.37 101.715C1299.45 100.741 1296.8 99.4886 1294.16 98.0972C1291.51 96.7057 1289.01 94.8968 1287.06 92.9488C1284.97 90.8616 1283.17 88.4962 1281.91 85.7133C1280.66 82.9304 1279.97 79.5909 1279.97 75.834C1279.97 69.2942 1281.36 63.5893 1284 59.1367C1286.64 54.684 1290.12 51.0662 1294.44 48.2833C1298.61 45.6396 1303.48 43.6916 1308.91 42.7176C1314.06 41.6044 1319.48 41.0479 1324.91 41.0479C1328.67 41.0479 1332.7 41.4653 1336.74 42.161C1340.91 42.8567 1344.95 44.109 1348.84 45.5005C1352.74 47.0311 1356.49 48.8399 1359.83 51.0662C1363.31 53.2925 1366.23 55.9363 1368.6 58.7192L1370.41 60.8064L1349.12 78.1995L1347.73 74.5817C1346.61 71.6597 1345.22 69.0159 1343.55 67.0679C1341.74 64.9807 1339.94 63.1719 1337.85 61.9196C1335.76 60.5281 1333.81 59.5541 1331.73 58.9975C1329.64 58.4409 1327.69 58.0235 1326.02 58.0235C1324.07 58.0235 1321.99 58.0235 1319.62 58.3018C1317.4 58.4409 1315.31 58.8583 1313.5 59.5541C1311.69 60.1106 1310.3 61.0847 1309.05 62.337C1308.07 63.311 1307.66 64.8416 1307.66 66.7896C1307.66 68.181 1307.93 69.2942 1308.49 70.2682C1309.19 71.3814 1310.16 72.3554 1311.27 73.0511C1312.53 73.886 1314.06 74.7209 1315.73 75.2774C1317.53 75.9732 1319.34 76.5297 1321.29 76.9472C1323.24 77.5037 1325.05 77.9212 1326.86 78.1995C1328.8 78.6169 1330.47 79.0343 1332 79.4518C1334.51 80.1475 1337.15 80.8432 1339.94 81.539C1342.86 82.2347 1345.64 83.2087 1348.42 84.1827C1351.21 85.1567 1353.99 86.2699 1356.63 87.6613C1359.42 89.0527 1361.92 90.8616 1364.01 92.8096C1366.09 94.8968 1367.9 97.4015 1369.16 100.184C1370.41 102.967 1371.1 106.307 1371.1 110.064C1371.1 114.516 1370.41 118.551 1369.16 122.03C1367.9 125.509 1366.09 128.709 1363.73 131.214C1361.5 133.857 1358.72 135.945 1355.66 137.753C1352.74 139.423 1349.4 140.815 1346.06 141.928C1342.72 142.902 1339.1 143.737 1335.48 144.154C1331.87 144.571 1328.25 144.85 1324.63 144.85L1324.35 144.989Z" fill="url(#paint26_linear_3136_202)"/>
<path d="M1368.18 110.203C1368.18 114.377 1367.63 117.995 1366.37 121.195C1365.12 124.395 1363.59 127.178 1361.5 129.544C1359.42 131.909 1357.05 133.857 1354.13 135.527C1351.21 137.197 1348.28 138.449 1345.08 139.423C1341.88 140.397 1338.41 141.093 1334.93 141.51C1331.45 141.928 1327.83 142.206 1324.35 142.206C1319.62 142.206 1315.59 141.928 1311.97 141.371C1308.35 140.814 1305.01 139.84 1301.67 138.449C1298.33 137.058 1295.13 135.388 1291.93 133.301C1288.73 131.214 1285.11 128.57 1281.08 125.509L1297.08 112.429C1298.61 115.212 1300.56 117.716 1302.92 119.943C1305.29 122.169 1307.79 124.117 1310.44 125.787C1313.08 127.457 1315.59 128.709 1317.95 129.544C1320.32 130.379 1322.4 130.796 1323.93 130.796C1325.19 130.796 1326.58 130.796 1328.11 130.796C1329.64 130.796 1331.31 130.518 1332.98 130.239C1334.65 129.961 1336.18 129.683 1337.85 129.126C1339.52 128.57 1340.77 128.013 1342.02 127.178C1343.28 126.343 1344.25 125.23 1344.95 123.978C1345.64 122.726 1346.06 121.195 1346.06 119.386C1346.06 117.577 1345.64 115.908 1344.67 114.516C1343.69 113.125 1342.44 111.872 1340.91 110.898C1339.38 109.924 1337.71 108.95 1335.62 108.255C1333.54 107.559 1331.73 106.863 1329.78 106.446C1327.83 106.028 1325.88 105.472 1324.07 105.054C1322.27 104.637 1320.6 104.219 1319.2 103.941C1316.7 103.245 1314.06 102.55 1311.27 101.715C1308.49 100.88 1305.71 100.184 1303.06 99.2102C1300.42 98.2362 1297.78 97.123 1295.27 95.8707C1292.77 94.6184 1290.68 92.9487 1288.73 91.1398C1286.78 89.3309 1285.39 87.1046 1284.28 84.7392C1283.17 82.3737 1282.61 79.3125 1282.61 76.1122C1282.61 69.9898 1283.86 64.9806 1286.23 60.8063C1288.59 56.6319 1291.79 53.4316 1295.83 50.927C1299.86 48.4224 1304.32 46.7526 1309.32 45.6395C1314.33 44.5263 1319.48 44.1089 1324.77 44.1089C1328.39 44.1089 1332.14 44.5263 1336.04 45.2221C1339.94 45.9178 1343.83 47.0309 1347.59 48.4224C1351.35 49.8138 1354.82 51.6227 1358.16 53.7099C1361.5 55.7971 1364.15 58.1625 1366.37 60.8063L1350.37 74.025C1349.12 70.8247 1347.59 67.9026 1345.64 65.6763C1343.69 63.45 1341.61 61.3628 1339.38 59.9714C1337.15 58.5799 1334.79 57.3277 1332.42 56.6319C1330.06 55.9362 1327.83 55.5187 1325.88 55.5187C1323.93 55.5187 1321.71 55.5188 1319.34 55.797C1316.98 56.0753 1314.61 56.3537 1312.39 57.1885C1310.16 58.0234 1308.35 59.1365 1306.96 60.6671C1305.57 62.1977 1304.73 64.2849 1304.73 67.0678C1304.73 69.0158 1305.15 70.6856 1306.12 72.077C1307.1 73.4684 1308.21 74.7207 1309.6 75.6947C1310.99 76.6688 1312.8 77.5036 1314.61 78.1993C1316.42 78.8951 1318.37 79.4517 1320.32 80.0082C1322.27 80.5648 1324.21 80.9822 1326.02 81.3997C1327.83 81.8171 1329.5 82.2345 1331.03 82.652C1333.54 83.3477 1336.18 84.0434 1338.96 84.8783C1341.75 85.7132 1344.53 86.4089 1347.17 87.3829C1349.82 88.3569 1352.46 89.4701 1355.1 90.7224C1357.75 91.9747 1359.83 93.5053 1361.78 95.4533C1363.73 97.4013 1365.26 99.4885 1366.37 101.993C1367.49 104.498 1368.04 107.42 1368.04 110.759L1368.18 110.203Z" fill="url(#paint27_linear_3136_202)"/>
<defs>
<linearGradient id="paint0_linear_3136_202" x1="59.9701" y1="17.3931" x2="59.9701" y2="145.545" gradientUnits="userSpaceOnUse">
<stop offset="0.11" stop-color="#B4792E"/>
<stop offset="0.33" stop-color="#9A5724"/>
<stop offset="0.72" stop-color="#F6DE50"/>
<stop offset="0.84" stop-color="#F7E14C"/>
<stop offset="0.96" stop-color="#FCED40"/>
<stop offset="1" stop-color="#FFF33B"/>
</linearGradient>
<linearGradient id="paint1_linear_3136_202" x1="59.5526" y1="20.176" x2="59.5526" y2="142.623" gradientUnits="userSpaceOnUse">
<stop stop-color="#FFF33B"/>
<stop offset="0.04" stop-color="#FCED40"/>
<stop offset="0.16" stop-color="#F7E14C"/>
<stop offset="0.28" stop-color="#F6DE50"/>
<stop offset="0.67" stop-color="#9A5724"/>
<stop offset="0.89" stop-color="#B4792E"/>
</linearGradient>
<linearGradient id="paint2_linear_3136_202" x1="176.571" y1="43.4131" x2="176.571" y2="145.267" gradientUnits="userSpaceOnUse">
<stop offset="0.11" stop-color="#B4792E"/>
<stop offset="0.33" stop-color="#9A5724"/>
<stop offset="0.72" stop-color="#F6DE50"/>
<stop offset="0.84" stop-color="#F7E14C"/>
<stop offset="0.96" stop-color="#FCED40"/>
<stop offset="1" stop-color="#FFF33B"/>
</linearGradient>
<linearGradient id="paint3_linear_3136_202" x1="176.571" y1="46.196" x2="176.571" y2="142.484" gradientUnits="userSpaceOnUse">
<stop stop-color="#FFF33B"/>
<stop offset="0.04" stop-color="#FCED40"/>
<stop offset="0.16" stop-color="#F7E14C"/>
<stop offset="0.28" stop-color="#F6DE50"/>
<stop offset="0.67" stop-color="#9A5724"/>
<stop offset="0.89" stop-color="#B4792E"/>
</linearGradient>
<linearGradient id="paint4_linear_3136_202" x1="261.587" y1="0" x2="261.587" y2="143.18" gradientUnits="userSpaceOnUse">
<stop offset="0.11" stop-color="#B4792E"/>
<stop offset="0.33" stop-color="#9A5724"/>
<stop offset="0.72" stop-color="#F6DE50"/>
<stop offset="0.84" stop-color="#F7E14C"/>
<stop offset="0.96" stop-color="#FCED40"/>
<stop offset="1" stop-color="#FFF33B"/>
</linearGradient>
<linearGradient id="paint5_linear_3136_202" x1="261.587" y1="2.78297" x2="261.587" y2="140.397" gradientUnits="userSpaceOnUse">
<stop stop-color="#FFF33B"/>
<stop offset="0.04" stop-color="#FCED40"/>
<stop offset="0.16" stop-color="#F7E14C"/>
<stop offset="0.28" stop-color="#F6DE50"/>
<stop offset="0.67" stop-color="#9A5724"/>
<stop offset="0.89" stop-color="#B4792E"/>
</linearGradient>
<linearGradient id="paint6_linear_3136_202" x1="325.731" y1="8.76611" x2="325.731" y2="143.18" gradientUnits="userSpaceOnUse">
<stop offset="0.11" stop-color="#B4792E"/>
<stop offset="0.33" stop-color="#9A5724"/>
<stop offset="0.72" stop-color="#F6DE50"/>
<stop offset="0.84" stop-color="#F7E14C"/>
<stop offset="0.96" stop-color="#FCED40"/>
<stop offset="1" stop-color="#FFF33B"/>
</linearGradient>
<linearGradient id="paint7_linear_3136_202" x1="325.731" y1="11.5491" x2="325.731" y2="140.397" gradientUnits="userSpaceOnUse">
<stop stop-color="#FFF33B"/>
<stop offset="0.04" stop-color="#FCED40"/>
<stop offset="0.16" stop-color="#F7E14C"/>
<stop offset="0.28" stop-color="#F6DE50"/>
<stop offset="0.67" stop-color="#9A5724"/>
<stop offset="0.89" stop-color="#B4792E"/>
</linearGradient>
<linearGradient id="paint8_linear_3136_202" x1="416.173" y1="43.4131" x2="416.173" y2="145.267" gradientUnits="userSpaceOnUse">
<stop offset="0.11" stop-color="#B4792E"/>
<stop offset="0.33" stop-color="#9A5724"/>
<stop offset="0.72" stop-color="#F6DE50"/>
<stop offset="0.84" stop-color="#F7E14C"/>
<stop offset="0.96" stop-color="#FCED40"/>
<stop offset="1" stop-color="#FFF33B"/>
</linearGradient>
<linearGradient id="paint9_linear_3136_202" x1="416.173" y1="46.196" x2="416.173" y2="142.484" gradientUnits="userSpaceOnUse">
<stop stop-color="#FFF33B"/>
<stop offset="0.04" stop-color="#FCED40"/>
<stop offset="0.16" stop-color="#F7E14C"/>
<stop offset="0.28" stop-color="#F6DE50"/>
<stop offset="0.67" stop-color="#9A5724"/>
<stop offset="0.89" stop-color="#B4792E"/>
</linearGradient>
<linearGradient id="paint10_linear_3136_202" x1="527.626" y1="41.0476" x2="527.626" y2="143.18" gradientUnits="userSpaceOnUse">
<stop offset="0.11" stop-color="#B4792E"/>
<stop offset="0.33" stop-color="#9A5724"/>
<stop offset="0.72" stop-color="#F6DE50"/>
<stop offset="0.84" stop-color="#F7E14C"/>
<stop offset="0.96" stop-color="#FCED40"/>
<stop offset="1" stop-color="#FFF33B"/>
</linearGradient>
<linearGradient id="paint11_linear_3136_202" x1="527.347" y1="43.8306" x2="527.347" y2="140.397" gradientUnits="userSpaceOnUse">
<stop stop-color="#FFF33B"/>
<stop offset="0.04" stop-color="#FCED40"/>
<stop offset="0.16" stop-color="#F7E14C"/>
<stop offset="0.28" stop-color="#F6DE50"/>
<stop offset="0.67" stop-color="#9A5724"/>
<stop offset="0.89" stop-color="#B4792E"/>
</linearGradient>
<linearGradient id="paint12_linear_3136_202" x1="621.825" y1="41.0479" x2="621.825" y2="144.989" gradientUnits="userSpaceOnUse">
<stop offset="0.11" stop-color="#B4792E"/>
<stop offset="0.33" stop-color="#9A5724"/>
<stop offset="0.72" stop-color="#F6DE50"/>
<stop offset="0.84" stop-color="#F7E14C"/>
<stop offset="0.96" stop-color="#FCED40"/>
<stop offset="1" stop-color="#FFF33B"/>
</linearGradient>
<linearGradient id="paint13_linear_3136_202" x1="621.825" y1="43.8306" x2="621.825" y2="142.206" gradientUnits="userSpaceOnUse">
<stop stop-color="#FFF33B"/>
<stop offset="0.04" stop-color="#FCED40"/>
<stop offset="0.16" stop-color="#F7E14C"/>
<stop offset="0.28" stop-color="#F6DE50"/>
<stop offset="0.67" stop-color="#9A5724"/>
<stop offset="0.89" stop-color="#B4792E"/>
</linearGradient>
<linearGradient id="paint14_linear_3136_202" x1="708.65" y1="0" x2="708.65" y2="143.18" gradientUnits="userSpaceOnUse">
<stop offset="0.11" stop-color="#B4792E"/>
<stop offset="0.33" stop-color="#9A5724"/>
<stop offset="0.72" stop-color="#F6DE50"/>
<stop offset="0.84" stop-color="#F7E14C"/>
<stop offset="0.96" stop-color="#FCED40"/>
<stop offset="1" stop-color="#FFF33B"/>
</linearGradient>
<linearGradient id="paint15_linear_3136_202" x1="708.65" y1="2.78297" x2="708.65" y2="140.397" gradientUnits="userSpaceOnUse">
<stop stop-color="#FFF33B"/>
<stop offset="0.04" stop-color="#FCED40"/>
<stop offset="0.16" stop-color="#F7E14C"/>
<stop offset="0.28" stop-color="#F6DE50"/>
<stop offset="0.67" stop-color="#9A5724"/>
<stop offset="0.89" stop-color="#B4792E"/>
</linearGradient>
<linearGradient id="paint16_linear_3136_202" x1="836.66" y1="20.176" x2="836.66" y2="143.18" gradientUnits="userSpaceOnUse">
<stop offset="0.11" stop-color="#B4792E"/>
<stop offset="0.33" stop-color="#9A5724"/>
<stop offset="0.72" stop-color="#F6DE50"/>
<stop offset="0.84" stop-color="#F7E14C"/>
<stop offset="0.96" stop-color="#FCED40"/>
<stop offset="1" stop-color="#FFF33B"/>
</linearGradient>
<linearGradient id="paint17_linear_3136_202" x1="836.66" y1="22.959" x2="836.66" y2="140.397" gradientUnits="userSpaceOnUse">
<stop stop-color="#FFF33B"/>
<stop offset="0.04" stop-color="#FCED40"/>
<stop offset="0.16" stop-color="#F7E14C"/>
<stop offset="0.28" stop-color="#F6DE50"/>
<stop offset="0.67" stop-color="#9A5724"/>
<stop offset="0.89" stop-color="#B4792E"/>
</linearGradient>
<linearGradient id="paint18_linear_3136_202" x1="931.833" y1="43.4131" x2="931.833" y2="143.18" gradientUnits="userSpaceOnUse">
<stop offset="0.11" stop-color="#B4792E"/>
<stop offset="0.33" stop-color="#9A5724"/>
<stop offset="0.72" stop-color="#F6DE50"/>
<stop offset="0.84" stop-color="#F7E14C"/>
<stop offset="0.96" stop-color="#FCED40"/>
<stop offset="1" stop-color="#FFF33B"/>
</linearGradient>
<linearGradient id="paint19_linear_3136_202" x1="931.833" y1="46.196" x2="931.833" y2="140.397" gradientUnits="userSpaceOnUse">
<stop stop-color="#FFF33B"/>
<stop offset="0.04" stop-color="#FCED40"/>
<stop offset="0.16" stop-color="#F7E14C"/>
<stop offset="0.28" stop-color="#F6DE50"/>
<stop offset="0.67" stop-color="#9A5724"/>
<stop offset="0.89" stop-color="#B4792E"/>
</linearGradient>
<linearGradient id="paint20_linear_3136_202" x1="1032.29" y1="41.0477" x2="1032.29" y2="144.989" gradientUnits="userSpaceOnUse">
<stop offset="0.11" stop-color="#B4792E"/>
<stop offset="0.33" stop-color="#9A5724"/>
<stop offset="0.72" stop-color="#F6DE50"/>
<stop offset="0.84" stop-color="#F7E14C"/>
<stop offset="0.96" stop-color="#FCED40"/>
<stop offset="1" stop-color="#FFF33B"/>
</linearGradient>
<linearGradient id="paint21_linear_3136_202" x1="1032.29" y1="43.8306" x2="1032.29" y2="142.206" gradientUnits="userSpaceOnUse">
<stop stop-color="#FFF33B"/>
<stop offset="0.04" stop-color="#FCED40"/>
<stop offset="0.16" stop-color="#F7E14C"/>
<stop offset="0.28" stop-color="#F6DE50"/>
<stop offset="0.67" stop-color="#9A5724"/>
<stop offset="0.89" stop-color="#B4792E"/>
</linearGradient>
<linearGradient id="paint22_linear_3136_202" x1="1145.55" y1="41.0479" x2="1145.55" y2="163.773" gradientUnits="userSpaceOnUse">
<stop offset="0.11" stop-color="#B4792E"/>
<stop offset="0.33" stop-color="#9A5724"/>
<stop offset="0.72" stop-color="#F6DE50"/>
<stop offset="0.84" stop-color="#F7E14C"/>
<stop offset="0.96" stop-color="#FCED40"/>
<stop offset="1" stop-color="#FFF33B"/>
</linearGradient>
<linearGradient id="paint23_linear_3136_202" x1="1145.55" y1="43.8306" x2="1145.55" y2="160.434" gradientUnits="userSpaceOnUse">
<stop stop-color="#FFF33B"/>
<stop offset="0.04" stop-color="#FCED40"/>
<stop offset="0.16" stop-color="#F7E14C"/>
<stop offset="0.28" stop-color="#F6DE50"/>
<stop offset="0.67" stop-color="#9A5724"/>
<stop offset="0.89" stop-color="#B4792E"/>
</linearGradient>
<linearGradient id="paint24_linear_3136_202" x1="1238.22" y1="8.76611" x2="1238.22" y2="143.18" gradientUnits="userSpaceOnUse">
<stop offset="0.11" stop-color="#B4792E"/>
<stop offset="0.33" stop-color="#9A5724"/>
<stop offset="0.72" stop-color="#F6DE50"/>
<stop offset="0.84" stop-color="#F7E14C"/>
<stop offset="0.96" stop-color="#FCED40"/>
<stop offset="1" stop-color="#FFF33B"/>
</linearGradient>
<linearGradient id="paint25_linear_3136_202" x1="1238.22" y1="11.5491" x2="1238.22" y2="140.397" gradientUnits="userSpaceOnUse">
<stop stop-color="#FFF33B"/>
<stop offset="0.04" stop-color="#FCED40"/>
<stop offset="0.16" stop-color="#F7E14C"/>
<stop offset="0.28" stop-color="#F6DE50"/>
<stop offset="0.67" stop-color="#9A5724"/>
<stop offset="0.89" stop-color="#B4792E"/>
</linearGradient>
<linearGradient id="paint26_linear_3136_202" x1="1323.8" y1="41.0479" x2="1323.8" y2="144.989" gradientUnits="userSpaceOnUse">
<stop offset="0.11" stop-color="#B4792E"/>
<stop offset="0.33" stop-color="#9A5724"/>
<stop offset="0.72" stop-color="#F6DE50"/>
<stop offset="0.84" stop-color="#F7E14C"/>
<stop offset="0.96" stop-color="#FCED40"/>
<stop offset="1" stop-color="#FFF33B"/>
</linearGradient>
<linearGradient id="paint27_linear_3136_202" x1="1324.63" y1="43.8306" x2="1324.63" y2="142.206" gradientUnits="userSpaceOnUse">
<stop stop-color="#FFF33B"/>
<stop offset="0.04" stop-color="#FCED40"/>
<stop offset="0.16" stop-color="#F7E14C"/>
<stop offset="0.28" stop-color="#F6DE50"/>
<stop offset="0.67" stop-color="#9A5724"/>
<stop offset="0.89" stop-color="#B4792E"/>
</linearGradient>
</defs>
</svg>
