<svg width="1424" height="133" viewBox="0 0 1424 133" fill="none" xmlns="http://www.w3.org/2000/svg">
<path d="M100.337 115.388L93.4055 53.9568L76.7217 115.388H48.1714L28.4329 51.2706L21.7359 115.388H0L17.6237 12.1461H46.2915L67.7924 81.7527L89.5283 12.1461H118.314L133 115.388H100.337Z" fill="url(#paint0_linear_3149_8500)"/>
<path d="M26.9505 39.6375L19.2069 112.959H2.4292L19.3243 14.5753H44.3149L67.4282 89.6453L90.8936 14.5753H115.884L129.963 112.959H102.157L93.9441 41.5026L74.5852 112.959H49.5946L26.9505 39.6375Z" fill="url(#paint1_linear_3149_8500)"/>
<path d="M143.043 115.388V31.682H170.934V115.388H143.043ZM156.93 29.8115C154.83 29.8115 152.963 29.4608 151.095 28.6424C149.345 27.8241 147.711 26.7719 146.427 25.4859C145.027 24.083 143.977 22.5632 143.277 20.6927C142.46 18.8222 142.11 16.8347 142.11 14.8473C142.11 12.8599 142.46 10.8724 143.277 9.00191C144.093 7.24829 145.144 5.61158 146.427 4.32559C147.828 3.03961 149.345 1.87053 151.095 1.16908C152.963 0.350724 154.83 0 156.93 0C159.031 0 160.898 0.350724 162.765 1.16908C164.632 1.98743 166.149 3.03961 167.55 4.32559C168.833 5.72849 170 7.24829 170.701 9.00191C171.518 10.8724 171.868 12.743 171.868 14.8473C171.868 16.9517 171.518 18.8222 170.701 20.6927C169.884 22.5632 168.833 24.083 167.55 25.4859C166.149 26.8888 164.632 27.941 162.765 28.6424C160.898 29.4608 158.914 29.8115 156.93 29.8115Z" fill="url(#paint2_linear_3149_8500)"/>
<path d="M169.438 14.9178C169.438 16.6685 169.091 18.3026 168.512 19.8199C167.933 21.3372 167.006 22.7377 165.848 23.9049C164.69 25.0721 163.416 25.8891 161.795 26.5894C160.173 27.2897 158.668 27.5231 156.931 27.5231C155.194 27.5231 153.572 27.1729 152.067 26.5894C150.561 26.0058 149.171 25.0721 148.129 23.9049C147.087 22.7377 146.16 21.4539 145.465 19.8199C144.77 18.1858 144.539 16.6685 144.539 14.9178C144.539 13.1671 144.886 11.533 145.465 10.0157C146.044 8.49844 146.971 7.09785 148.129 6.04741C149.287 4.99697 150.561 4.06325 152.067 3.36295C153.572 2.66266 155.194 2.42923 156.931 2.42923C158.668 2.42923 160.289 2.77938 161.795 3.36295C163.3 3.94653 164.69 4.88026 165.848 6.04741C167.006 7.21457 167.817 8.49844 168.512 10.0157C169.207 11.533 169.438 13.1671 169.438 14.9178ZM168.396 112.959H145.35V34.0592H168.396V112.959Z" fill="url(#paint3_linear_3149_8500)"/>
<path d="M219.087 116.709C215.233 116.69 211.829 116.453 208.969 115.9L208.965 115.899C205.847 115.318 202.852 114.507 199.978 113.351C197.103 112.195 194.339 110.691 191.569 108.834L191.563 108.83L191.557 108.826C188.784 107.084 185.772 104.872 182.403 102.185L182.403 102.185L182.392 102.177L180.57 100.803L197.527 86.8546L198.528 88.8674C199.609 91.0413 201.165 92.9606 203.058 94.7451C204.933 96.5127 206.939 98.1751 209.072 99.4867C211.085 100.795 213.097 101.747 215.108 102.461C217.365 103.297 218.704 103.427 219.47 103.427H222.847C223.73 103.427 224.639 103.317 225.511 103.211C225.93 103.16 226.34 103.11 226.735 103.074L226.758 103.072L226.78 103.068C228.066 102.833 229.247 102.596 230.548 102.239L230.562 102.235L230.575 102.231C231.646 101.872 232.742 101.386 233.612 100.763C234.386 100.242 235.01 99.4801 235.491 98.755L235.508 98.7291L235.522 98.7013C235.908 97.9238 236.156 96.9101 236.156 95.7861C236.156 94.6605 235.907 93.6198 235.258 92.6994C234.624 91.6872 233.636 90.8268 232.697 90.1186L232.676 90.1031L232.654 90.0897C231.477 89.3801 230.174 88.6645 228.746 88.0665L228.734 88.0615L228.722 88.0571C227.078 87.4669 225.553 86.9953 223.917 86.5252C222.274 86.0533 220.75 85.6997 219.239 85.3492L219.234 85.3479L219.234 85.3479L219.226 85.3462C217.605 84.9969 216.221 84.6489 215.073 84.3027L215.065 84.3002L215.057 84.298L208.419 82.5419L208.419 82.5419L208.413 82.5404C206.108 81.961 203.681 81.148 201.354 80.3293L201.354 80.3293L201.347 80.3269C198.938 79.5196 196.753 78.4797 194.552 77.3152C192.379 76.1655 190.325 74.6726 188.734 73.0729C187.018 71.3481 185.545 69.4066 184.527 67.1335C183.512 64.8648 182.941 62.1262 182.941 59.0257C182.941 53.5908 184.091 48.8837 186.248 45.2315C188.421 41.5516 191.278 38.565 194.821 36.2663C198.259 34.0776 202.273 32.4628 206.75 31.6549L206.759 31.6533L206.767 31.6514C211.039 30.7229 215.545 30.258 220.052 30.258C223.161 30.258 226.509 30.6054 229.865 31.1872L229.868 31.1877C233.316 31.7654 236.658 32.8067 239.905 33.9722C243.141 35.2509 246.248 36.7566 249.002 38.6024L249.002 38.6025L249.01 38.6076C251.877 40.4523 254.285 42.643 256.234 44.9488L256.237 44.9525L257.417 46.3207L240.533 60.189L239.617 57.7949C239.617 57.7945 239.617 57.7941 239.617 57.7937C238.674 55.3064 237.485 53.0245 236.037 51.3259L236.035 51.3238C234.514 49.5596 232.962 47.9917 231.15 46.8967C229.377 45.7093 227.7 44.8629 225.888 44.3772C224.137 43.9079 222.452 43.5407 220.984 43.5407H220.975C219.357 43.5407 217.595 43.5407 215.598 43.7748C213.67 43.7798 211.876 44.2631 210.34 44.8559C208.737 45.3549 207.51 46.2248 206.423 47.3173C205.471 48.275 205.113 49.7251 205.113 51.4161C205.113 52.6578 205.362 53.6826 205.877 54.59L205.882 54.5985L205.887 54.6069C206.508 55.6057 207.375 56.4782 208.369 57.1037C209.439 57.8206 210.754 58.5428 212.197 59.0279C213.724 59.6178 215.255 60.0915 216.903 60.4475C218.537 60.9164 220.062 61.2706 221.592 61.5078C223.205 61.8558 224.589 62.2036 225.858 62.5515C227.958 63.138 230.174 63.7244 232.507 64.3106L232.507 64.3106L232.512 64.3119C234.928 64.8903 237.233 65.7008 239.566 66.5217C241.882 67.3366 244.185 68.2638 246.368 69.4187L246.368 69.4188L246.377 69.4235C248.657 70.5693 250.711 72.0602 252.425 73.6671C254.131 75.3836 255.606 77.4395 256.626 79.7174C257.641 81.9861 258.212 84.7248 258.212 87.8252C258.212 91.5203 257.638 94.8577 256.611 97.7248C255.581 100.602 254.099 103.231 252.176 105.278L252.166 105.288L252.157 105.299C250.343 107.465 248.066 109.186 245.535 110.691C243.129 112.072 240.371 113.229 237.602 114.157C234.828 114.97 231.833 115.664 228.845 116.011C225.829 116.361 222.822 116.593 219.82 116.593H219.587H219.087V116.709Z" fill="url(#paint4_linear_3149_8500)" stroke="url(#paint5_linear_3149_8500)"/>
<path d="M256.283 87.8354C256.283 91.35 255.814 94.396 254.757 97.0906C253.701 99.7851 252.409 102.128 250.649 104.12C248.888 106.111 246.892 107.752 244.427 109.157C241.962 110.563 239.497 111.618 236.797 112.438C234.097 113.258 231.162 113.844 228.228 114.195C225.293 114.547 222.241 114.781 219.306 114.781C215.315 114.781 211.911 114.547 208.859 114.078C205.807 113.609 202.99 112.789 200.172 111.618C197.355 110.446 194.655 109.04 191.955 107.283C189.255 105.526 186.203 103.3 182.799 100.722L196.299 89.7099C197.59 92.0529 199.233 94.1617 201.229 96.0362C203.224 97.9106 205.337 99.5508 207.568 100.957C209.798 102.362 211.911 103.417 213.907 104.12C215.902 104.823 217.663 105.174 218.954 105.174H222.476C223.767 105.174 225.176 104.94 226.584 104.706C227.993 104.471 229.284 104.237 230.693 103.768C232.101 103.3 233.158 102.831 234.214 102.128C235.271 101.425 236.093 100.488 236.68 99.4336C237.266 98.3793 237.619 97.0906 237.619 95.5676C237.619 94.0446 237.266 92.6387 236.445 91.4672C235.623 90.2956 234.567 89.2412 233.275 88.4212C231.984 87.6011 230.575 86.781 228.815 86.1952C227.054 85.6095 225.528 85.0237 223.884 84.6722C222.241 84.3208 220.598 83.8522 219.072 83.5007C217.546 83.1492 216.137 82.7978 214.963 82.5635C212.85 81.9777 210.62 81.3919 208.272 80.689C205.924 79.9861 203.577 79.4003 201.346 78.5802C198.998 77.7601 196.885 76.8229 194.773 75.7685C192.66 74.7141 190.899 73.3083 189.255 71.7853C187.612 70.2623 186.438 68.3878 185.499 66.3962C184.56 64.4046 184.09 61.8272 184.09 59.1327C184.09 53.9779 185.147 49.7603 187.142 46.2457C189.138 42.7311 191.838 40.0365 195.242 37.9278C198.646 35.819 202.403 34.4132 206.629 33.4759C210.854 32.5387 215.198 32.1872 219.658 32.1872C222.711 32.1872 225.88 32.5387 229.167 33.1245C232.454 33.7102 235.74 34.6475 238.91 35.819C242.079 36.9905 245.014 38.5135 247.831 40.2709C250.649 42.0282 252.879 44.0198 254.757 46.2457L241.258 57.3753C240.201 54.6808 238.91 52.2206 237.266 50.3461C235.623 48.4716 233.862 46.7143 231.984 45.5428C230.106 44.3712 228.11 43.3169 226.115 42.7311C224.119 42.1453 222.241 41.7939 220.598 41.7939C218.954 41.7939 217.076 41.7939 215.08 42.0282C213.085 42.2625 211.089 42.4968 209.211 43.1997C207.333 43.9026 205.807 44.8399 204.633 46.1286C203.459 47.4173 202.755 49.1746 202.755 51.5176C202.755 53.1578 203.107 54.5636 203.929 55.7352C204.633 56.9067 205.689 57.9611 206.863 58.7812C208.037 59.6013 209.563 60.3042 211.089 60.89C212.615 61.4757 214.259 61.9444 215.902 62.413C217.546 62.8816 219.189 63.233 220.715 63.5845C222.241 63.936 223.65 64.2874 224.941 64.6389C227.054 65.2247 229.284 65.8104 231.632 66.5134C233.98 67.2163 236.327 67.8021 238.558 68.6221C240.788 69.4422 243.018 70.3794 245.249 71.4338C247.479 72.4882 249.24 73.7769 250.883 75.4171C252.527 77.0572 253.818 78.8145 254.757 80.9233C255.696 83.0321 256.166 85.4923 256.166 88.304V87.8354H256.283Z" fill="url(#paint6_linear_3149_8500)"/>
<path d="M302.487 117.21C298.38 117.21 294.742 116.976 291.691 116.391C288.523 115.805 285.472 114.986 282.539 113.815C279.605 112.644 276.789 111.122 273.973 109.249C271.157 107.493 268.106 105.269 264.703 102.576L262.356 100.82L280.427 86.0692L281.717 88.6447C282.774 90.752 284.299 92.6251 286.176 94.3812C288.054 96.1373 290.049 97.7763 292.161 99.064C294.156 100.352 296.15 101.288 298.145 101.991C300.375 102.81 301.665 102.927 302.369 102.927H305.772C307.063 102.927 308.354 102.693 309.645 102.576C310.935 102.342 312.109 102.108 313.399 101.757C314.456 101.405 315.512 100.937 316.333 100.352C317.037 99.8835 317.624 99.1811 318.093 98.4787C318.445 97.7763 318.68 96.8397 318.68 95.7861C318.68 94.7324 318.445 93.7958 317.858 92.9763C317.272 92.0398 316.333 91.2203 315.394 90.5179C314.221 89.8154 312.93 89.113 311.522 88.5276C309.879 87.9423 308.354 87.474 306.711 87.0057C305.068 86.5374 303.543 86.1862 302.017 85.835C300.375 85.4838 298.967 85.1326 297.793 84.7814L291.105 83.0253C288.758 82.44 286.294 81.6205 283.947 80.801C281.483 79.9815 279.253 78.9278 277.024 77.7571C274.794 76.5864 272.682 75.0645 271.039 73.4255C269.279 71.6694 267.754 69.6792 266.698 67.3378C265.642 64.9964 265.055 62.1867 265.055 59.0257C265.055 53.5234 266.228 48.7235 268.458 44.9772C270.687 41.231 273.621 38.1871 277.258 35.8457C280.779 33.6213 284.886 31.9823 289.462 31.1628C293.804 30.2263 298.38 29.758 302.956 29.758C306.124 29.758 309.527 30.1092 312.93 30.6946C316.45 31.2799 319.853 32.3336 323.139 33.5043C326.424 34.792 329.592 36.314 332.409 38.1871C335.342 40.0602 337.806 42.2846 339.801 44.626L341.327 46.3821L323.373 61.016L322.2 57.9721C321.261 55.5136 320.088 53.2893 318.68 51.6503C317.154 49.8942 315.629 48.3723 313.869 47.3186C312.109 46.1479 310.466 45.3284 308.706 44.8602C306.946 44.3919 305.303 44.0407 303.895 44.0407C302.252 44.0407 300.492 44.0407 298.497 44.2748C296.62 44.2748 294.86 44.7431 293.334 45.3284C291.809 45.7967 290.635 46.6162 289.579 47.6699C288.758 48.4894 288.406 49.7771 288.406 51.4161C288.406 52.5868 288.641 53.5234 289.11 54.3429C289.697 55.2795 290.518 56.099 291.457 56.6843C292.513 57.3868 293.804 58.0892 295.212 58.5575C296.737 59.1428 298.262 59.6111 299.905 59.9623C301.548 60.4306 303.073 60.7818 304.599 61.016C306.242 61.3672 307.65 61.7184 308.941 62.0696C311.053 62.655 313.282 63.2403 315.629 63.8257C318.093 64.411 320.44 65.2305 322.787 66.05C325.134 66.8695 327.48 67.8061 329.71 68.9768C332.057 70.1475 334.169 71.6694 335.929 73.3084C337.689 75.0645 339.214 77.1718 340.271 79.5132C341.327 81.8546 341.913 84.6643 341.913 87.8252C341.913 91.5715 341.327 94.9666 340.271 97.8933C339.214 100.82 337.689 103.513 335.694 105.62C333.817 107.844 331.47 109.6 328.888 111.122C326.424 112.527 323.608 113.698 320.792 114.634C317.976 115.454 314.925 116.156 311.874 116.508C308.823 116.859 305.772 117.093 302.721 117.093H302.487V117.21Z" fill="url(#paint7_linear_3149_8500)"/>
<path d="M339.484 87.8354C339.484 91.35 339.014 94.396 337.958 97.0906C336.902 99.7851 335.61 102.128 333.849 104.12C332.089 106.111 330.093 107.752 327.628 109.157C325.163 110.563 322.698 111.618 319.998 112.438C317.298 113.258 314.363 113.844 311.429 114.195C308.494 114.547 305.442 114.781 302.507 114.781C298.516 114.781 295.112 114.547 292.06 114.078C289.008 113.609 286.19 112.789 283.373 111.618C280.556 110.446 277.856 109.04 275.156 107.283C272.456 105.526 269.404 103.3 266 100.722L279.499 89.7099C280.791 92.0529 282.434 94.1617 284.43 96.0362C286.425 97.9106 288.538 99.5508 290.769 100.957C292.999 102.362 295.112 103.417 297.107 104.12C299.103 104.823 300.864 105.174 302.155 105.174H305.677C306.968 105.174 308.377 104.94 309.785 104.706C311.194 104.471 312.485 104.237 313.894 103.768C315.302 103.3 316.359 102.831 317.415 102.128C318.472 101.425 319.294 100.488 319.88 99.4336C320.467 98.3793 320.82 97.0906 320.82 95.5676C320.82 94.0446 320.467 92.6387 319.646 91.4672C318.824 90.2956 317.767 89.2412 316.476 88.4212C315.185 87.6011 313.776 86.781 312.016 86.1952C310.255 85.6095 308.729 85.0237 307.085 84.6722C305.442 84.3208 303.798 83.8522 302.272 83.5007C300.746 83.1492 299.338 82.7978 298.164 82.5635C296.051 81.9777 293.821 81.3919 291.473 80.689C289.125 79.9861 286.777 79.4003 284.547 78.5802C282.199 77.7601 280.086 76.8229 277.973 75.7685C275.86 74.7141 274.1 73.3083 272.456 71.7853C270.813 70.2623 269.639 68.3878 268.7 66.3962C267.761 64.4046 267.291 61.8272 267.291 59.1327C267.291 53.9779 268.348 49.7603 270.343 46.2457C272.339 42.7311 275.039 40.0365 278.443 37.9278C281.847 35.819 285.604 34.4132 289.829 33.4759C294.055 32.5387 298.399 32.1872 302.859 32.1872C305.911 32.1872 309.081 32.5387 312.368 33.1245C315.655 33.7102 318.941 34.6475 322.111 35.819C325.28 36.9905 328.215 38.5135 331.032 40.2709C333.849 42.0282 336.08 44.0198 337.958 46.2457L324.459 57.3753C323.402 54.6808 322.111 52.2206 320.467 50.3461C318.824 48.4716 317.063 46.7143 315.185 45.5428C313.307 44.3712 311.311 43.3169 309.316 42.7311C307.32 42.1453 305.442 41.7939 303.798 41.7939C302.155 41.7939 300.277 41.7939 298.281 42.0282C296.286 42.2625 294.29 42.4968 292.412 43.1997C290.534 43.9026 289.008 44.8399 287.834 46.1286C286.66 47.4173 285.956 49.1746 285.956 51.5176C285.956 53.1578 286.308 54.5636 287.13 55.7352C287.834 56.9067 288.89 57.9611 290.064 58.7812C291.238 59.6013 292.764 60.3042 294.29 60.89C295.816 61.4757 297.46 61.9444 299.103 62.413C300.746 62.8816 302.39 63.233 303.916 63.5845C305.442 63.936 306.851 64.2874 308.142 64.6389C310.255 65.2247 312.485 65.8104 314.833 66.5134C317.181 67.2163 319.528 67.8021 321.759 68.6221C323.989 69.4422 326.219 70.3794 328.45 71.4338C330.68 72.4882 332.441 73.7769 334.084 75.4171C335.728 77.0572 337.019 78.8145 337.958 80.9233C338.897 83.0321 339.367 85.4923 339.367 88.304V87.8354H339.484Z" fill="url(#paint8_linear_3149_8500)"/>
<path d="M351.957 115.388V31.682H379.847V115.388H351.957ZM365.844 29.8115C363.743 29.8115 361.876 29.4608 360.009 28.6424C358.258 27.8241 356.624 26.7719 355.341 25.4859C353.94 24.083 352.89 22.5632 352.19 20.6927C351.373 18.8222 351.023 16.8347 351.023 14.8473C351.023 12.8599 351.373 10.8724 352.19 9.00191C353.007 7.24829 354.057 5.61158 355.341 4.32559C356.741 3.03961 358.258 1.87053 360.009 1.16908C361.876 0.350724 363.743 0 365.844 0C367.944 0 369.811 0.350724 371.679 1.16908C373.546 1.98743 375.063 3.03961 376.463 4.32559C377.747 5.72849 378.914 7.24829 379.614 9.00191C380.431 10.8724 380.781 12.743 380.781 14.8473C380.781 16.9517 380.431 18.8222 379.614 20.6927C378.797 22.5632 377.747 24.083 376.463 25.4859C375.063 26.8888 373.546 27.941 371.679 28.6424C369.811 29.4608 367.827 29.8115 365.844 29.8115Z" fill="url(#paint9_linear_3149_8500)"/>
<path d="M378.352 14.9178C378.352 16.6685 378.004 18.3026 377.425 19.8199C376.846 21.3372 375.92 22.7377 374.762 23.9049C373.603 25.0721 372.329 25.8891 370.708 26.5894C369.087 27.2897 367.581 27.5231 365.844 27.5231C364.107 27.5231 362.485 27.1729 360.98 26.5894C359.474 26.0058 358.085 25.0721 357.042 23.9049C356 22.7377 355.074 21.4539 354.379 19.8199C353.684 18.1858 353.452 16.6685 353.452 14.9178C353.452 13.1671 353.8 11.533 354.379 10.0157C354.958 8.49844 355.884 7.09785 357.042 6.04741C358.2 4.99697 359.474 4.06325 360.98 3.36295C362.485 2.66266 364.107 2.42923 365.844 2.42923C367.581 2.42923 369.203 2.77938 370.708 3.36295C372.214 3.94653 373.603 4.88026 374.762 6.04741C375.92 7.21457 376.73 8.49844 377.425 10.0157C378.12 11.533 378.352 13.1671 378.352 14.9178ZM377.309 112.959H354.263V34.0592H377.309V112.959Z" fill="url(#paint10_linear_3149_8500)"/>
<path d="M436.349 117.21C432.264 117.21 428.178 116.741 424.326 115.803C420.474 114.865 416.738 113.459 413.353 111.7C409.968 109.942 406.7 107.715 403.898 105.136C400.98 102.557 398.528 99.6258 396.427 96.3435C394.443 93.0611 392.809 89.5443 391.641 85.6757C390.474 81.8072 389.89 77.7042 389.89 73.484C389.89 69.2638 390.474 65.0436 391.641 61.2923C392.809 57.4238 394.443 53.907 396.427 50.6246C398.528 47.3422 400.98 44.4115 403.898 41.8325C406.816 39.2535 409.968 37.0261 413.353 35.2677C416.738 33.5093 420.474 32.1026 424.326 31.1647C428.178 30.2269 432.264 29.758 436.349 29.758C440.435 29.758 444.52 30.2269 448.373 31.1647C452.225 32.1026 455.96 33.5093 459.345 35.2677C462.73 37.0261 465.999 39.2535 468.8 41.8325C471.719 44.4115 474.17 47.3422 476.271 50.6246C478.256 53.907 479.89 57.4238 481.057 61.2923C482.225 65.1608 482.808 69.2638 482.808 73.484C482.808 77.7042 482.225 81.9244 481.057 85.793C479.89 89.5443 478.256 93.1783 476.271 96.3435C474.17 99.6258 471.719 102.557 468.8 105.136C465.882 107.715 462.73 109.942 459.345 111.7C455.96 113.459 452.225 114.865 448.373 115.803C444.52 116.741 440.435 117.21 436.349 117.21ZM436.583 43.3564C434.064 43.3564 432.03 44.177 430.279 44.9976C428.528 45.8182 426.894 46.9905 425.61 48.5145C424.209 50.0384 423.042 51.7969 422.225 53.6725C421.291 55.7826 420.474 57.8927 419.89 60.12C419.307 62.3474 418.84 64.5747 418.606 66.9193C418.373 69.2638 418.256 71.3739 418.256 73.3668C418.256 75.3597 418.256 77.587 418.606 79.8143C418.956 82.0417 419.307 84.3862 419.89 86.6136C420.474 88.8409 421.291 91.0682 422.225 93.0611C423.159 95.054 424.326 96.8124 425.61 98.2191C426.894 99.6259 428.528 100.798 430.279 101.736C432.03 102.557 434.015 103.025 436.349 103.025C438.684 103.025 440.785 102.557 442.653 101.736C444.52 100.915 446.038 99.7431 447.322 98.3363C448.723 96.9296 449.773 95.1712 450.707 93.1783C451.641 91.1854 452.458 89.0753 453.042 86.7308C453.625 84.5034 454.092 82.1589 454.326 79.8143C454.559 77.4698 454.676 75.2424 454.676 73.1323C454.676 71.0222 454.676 68.7949 454.326 66.4503C454.092 64.1058 453.625 61.7612 453.159 59.5339C452.575 57.3066 451.874 55.1965 450.941 53.2036C450.007 51.2107 448.839 49.5695 447.555 48.0456C446.271 46.6388 444.637 45.4665 442.886 44.6459C441.135 43.8254 439.034 43.3564 436.583 43.3564Z" fill="url(#paint11_linear_3149_8500)"/>
<path d="M480.986 73.484C480.986 77.567 480.399 81.4167 479.342 85.0331C478.285 88.6495 476.758 91.9159 474.762 95.0657C472.766 98.2154 470.417 100.899 467.716 103.348C465.014 105.798 461.961 107.898 458.673 109.531C455.385 111.164 451.861 112.564 448.103 113.381C444.345 114.198 440.47 114.781 436.594 114.781C432.719 114.781 428.843 114.314 425.085 113.381C421.327 112.448 417.921 111.164 414.633 109.531C411.345 107.898 408.291 105.798 405.59 103.348C402.889 100.899 400.54 98.2154 398.544 95.0657C396.547 91.9159 395.021 88.6495 393.964 85.0331C392.907 81.4167 392.32 77.567 392.32 73.484C392.32 69.401 392.907 65.5513 393.964 61.9349C395.021 58.3185 396.547 54.9355 398.544 51.9024C400.54 48.8693 402.889 46.0695 405.59 43.6197C408.291 41.1699 411.345 39.07 414.633 37.4368C417.921 35.8036 421.445 34.4037 425.085 33.5871C428.726 32.7705 432.601 32.1872 436.594 32.1872C440.587 32.1872 444.345 32.6539 448.103 33.5871C451.861 34.5204 455.385 35.8036 458.673 37.4368C461.961 39.07 465.014 41.1699 467.716 43.6197C470.417 46.0695 472.766 48.7526 474.762 51.9024C476.758 55.0521 478.285 58.3185 479.342 61.9349C480.399 65.5513 480.986 69.401 480.986 73.484ZM457.381 73.484C457.381 71.2675 457.381 68.9344 457.029 66.6012C456.676 64.2681 456.324 61.8183 455.737 59.3685C455.15 56.9186 454.328 54.8188 453.271 52.6023C452.214 50.3858 450.922 48.5193 449.395 46.8861C447.868 45.2529 446.107 43.9696 443.993 43.0364C441.879 42.1031 439.413 41.5198 436.594 41.5198C433.776 41.5198 431.544 41.9865 429.548 43.0364C427.551 44.0863 425.672 45.3695 424.146 47.0027C422.619 48.636 421.327 50.6191 420.27 52.8356C419.213 55.0521 418.391 57.2686 417.804 59.6018C417.217 61.9349 416.747 64.2681 416.395 66.7179C416.042 69.1677 415.925 71.3842 415.925 73.484C415.925 75.5839 415.925 77.8004 416.395 80.2502C416.864 82.7 417.099 85.0331 417.804 87.3663C418.509 89.6994 419.331 92.0326 420.27 94.1324C421.21 96.2323 422.619 98.2154 424.146 99.8486C425.672 101.482 427.434 102.882 429.548 103.815C431.662 104.748 434.011 105.332 436.594 105.332C439.178 105.332 441.762 104.865 443.875 103.815C445.989 102.765 447.751 101.482 449.395 99.8486C451.039 98.2154 452.214 96.3489 453.271 94.1324C454.328 91.9159 455.15 89.6994 455.737 87.3663C456.324 85.0331 456.794 82.5833 457.029 80.1335C457.263 77.6837 457.381 75.4672 457.381 73.2507V73.484Z" fill="url(#paint12_linear_3149_8500)"/>
<path d="M538.192 126.328L539.369 124.221C540.545 121.997 541.722 119.539 542.781 116.846C543.839 114.037 544.781 111.111 545.722 108.067C546.545 104.907 547.369 101.746 548.075 98.3519C548.781 94.9573 549.369 91.6798 549.84 88.4023C550.31 85.1247 550.663 81.9643 550.898 78.9209C551.134 75.8774 551.251 72.9511 551.251 70.3759C551.251 68.6201 551.251 66.7472 551.016 64.7573C551.016 62.8844 550.663 60.8945 550.193 59.0216C549.84 57.1487 549.251 55.2759 548.545 53.5201C547.957 51.8813 547.016 50.4766 546.075 49.3061C545.016 48.1355 543.839 47.1991 542.428 46.4968C541.016 45.7945 539.369 45.4433 537.369 45.4433C535.369 45.4433 533.839 45.7945 532.427 46.6138C530.898 47.5503 529.486 48.7208 528.31 50.1255C527.016 51.6472 525.957 53.403 525.133 55.3929C524.192 57.3828 523.486 59.4898 522.898 61.7139C522.31 63.8208 521.839 65.9278 521.604 68.0348C521.368 70.1418 521.251 72.0146 521.251 73.6534V115.676H493.132V31.6309H505.839L515.015 47.4332C515.956 45.7945 517.015 44.1557 518.192 42.634C520.192 39.9417 522.662 37.6006 525.251 35.7278C527.839 33.8549 530.78 32.3332 534.075 31.2797C537.251 30.2262 540.781 29.758 544.428 29.758C550.193 29.758 555.369 30.6944 559.722 32.6844C564.075 34.5572 567.84 37.3665 570.781 40.7611C573.723 44.1557 575.84 48.2526 577.252 52.9348C578.664 57.4999 579.37 62.5332 579.37 67.9177C579.37 73.3022 578.664 79.272 577.37 85.1247C576.076 90.9775 574.193 96.9473 571.722 102.566C569.369 108.302 566.428 113.686 563.134 118.719C559.722 123.753 556.075 128.201 551.957 131.829L550.663 133L538.428 126.328H538.192Z" fill="url(#paint13_linear_3149_8500)"/>
<path d="M576.333 67.7422C576.333 73.1223 575.629 78.6192 574.337 84.4671C573.045 90.315 571.166 95.9289 568.818 101.543C566.469 107.157 563.651 112.303 560.48 117.215C557.31 122.127 553.669 126.338 549.794 129.963L541.104 125.285C542.396 122.946 543.57 120.49 544.627 117.566C545.684 114.642 546.741 111.718 547.563 108.56C548.385 105.402 549.207 102.128 550.029 98.7359C550.851 95.3441 551.321 91.9524 551.79 88.6776C552.26 85.4028 552.612 82.128 552.847 78.9701C553.082 75.8123 553.2 72.8883 553.2 70.1983C553.2 68.444 553.2 66.4557 552.965 64.4674C552.73 62.4792 552.495 60.3739 552.143 58.3856C551.79 56.3974 551.086 54.4091 550.381 52.5378C549.677 50.6665 548.62 49.0291 547.446 47.6256C546.271 46.2221 544.745 45.0525 542.983 44.2338C541.222 43.4151 539.225 42.9473 536.877 42.9473C534.528 42.9473 532.532 43.4151 530.77 44.4677C529.009 45.5204 527.365 46.8069 526.073 48.5612C524.782 50.3156 523.49 52.1869 522.55 54.2921C521.611 56.3974 520.789 58.6196 520.084 60.9587C519.497 63.1809 519.027 65.4031 518.793 67.6253C518.558 69.8475 518.323 71.8357 518.323 73.4731V113.122H494.954V33.9416H503.879L514.565 52.4208C515.857 49.3799 517.501 46.573 519.38 44.1169C521.259 41.6608 523.49 39.4386 525.956 37.6842C528.422 35.9299 531.123 34.5264 534.059 33.5907C536.994 32.6551 540.165 32.1872 543.688 32.1872C549.207 32.1872 554.022 33.1229 558.014 34.8772C562.007 36.6316 565.53 39.0877 568.231 42.3625C570.932 45.6373 572.928 49.263 574.337 53.7074C575.746 58.1517 576.333 62.83 576.333 67.9761V67.7422Z" fill="url(#paint14_linear_3149_8500)"/>
<path d="M671.758 117.21C666.857 117.21 662.355 117.184 658.271 116.48C654.069 115.776 650.101 114.603 646.484 112.96C642.866 111.317 639.248 109.322 635.864 106.741C632.48 104.276 629.095 101.108 625.828 97.5876L624.311 95.9448L642.283 77.5216L643.566 80.8073C644.733 83.7409 646.367 86.4398 648.468 88.9041C650.568 91.3683 652.902 93.5979 655.353 95.3581C657.804 97.1182 660.488 98.6437 663.172 99.5825C665.739 100.521 668.19 101.108 670.524 101.108C673.442 101.108 676.126 100.873 678.577 100.521C681.027 100.169 683.011 99.4651 684.762 98.5264C686.395 97.7049 687.562 96.6488 688.496 95.2407C689.313 93.9499 689.78 92.3071 689.78 90.3122C689.78 88.7867 689.43 87.6133 688.846 86.6745C688.146 85.6184 687.212 84.5623 686.045 83.7409C684.878 82.9195 683.361 82.0981 681.844 81.5114C680.094 80.8073 678.46 80.3379 676.709 79.8685C674.842 79.3992 673.092 78.9298 671.341 78.5777C669.474 78.2257 667.84 77.7563 666.44 77.2869C663.755 76.4655 660.955 75.6441 658.037 74.8227C655.003 73.8839 652.085 72.8278 649.285 71.6544C646.367 70.4809 643.566 69.0728 640.999 67.5473C638.315 65.9045 635.864 64.027 633.763 61.7974C631.663 59.5679 630.029 56.9863 628.745 54.0527C627.461 51.119 626.878 47.716 626.878 43.8437C626.878 39.5019 627.461 35.5122 628.512 31.9918C629.562 28.4715 631.196 25.4205 633.297 22.8389C635.28 20.2574 637.731 18.0278 640.532 16.2676C643.216 14.5075 646.25 13.0993 649.518 12.0432C652.669 10.9871 656.17 10.283 659.671 9.81366C663.172 9.34428 666.79 9.10959 670.524 9.10959C675.542 9.10959 680.327 9.57897 684.528 10.5177C688.73 11.4565 692.697 12.8646 696.198 14.6248C699.816 16.385 703.084 18.4972 706.001 20.9614C708.919 23.4257 711.72 26.1246 714.287 29.0582L715.687 30.701L697.599 49.2415L696.432 45.6038C695.381 42.5529 693.981 39.7366 692.231 37.2724C690.48 34.8081 688.379 32.6959 686.162 30.9357C683.945 29.1756 681.727 27.7674 679.277 26.8287C676.943 25.8899 674.725 25.4205 672.625 25.4205C669.591 25.4205 666.79 25.6552 664.339 26.0072C662.005 26.3593 659.904 27.0634 658.271 27.8848C656.753 28.7062 655.586 29.7623 654.77 31.0531C653.953 32.3439 653.603 33.9867 653.603 35.9816C653.603 37.507 653.836 38.7978 654.419 39.8539C655.003 40.91 655.82 41.8488 656.87 42.6702C658.037 43.4916 659.321 44.1957 660.721 44.7824C662.238 45.3691 663.872 45.8385 665.623 46.3079C667.373 46.7773 669.007 47.1293 670.641 47.4814C672.391 47.8334 674.025 48.1854 675.542 48.6548L684.178 51.119C687.212 52.0578 690.247 53.1139 693.281 54.2874C696.315 55.4608 699.116 56.8689 701.917 58.3944C704.718 60.0373 707.285 61.9148 709.386 64.1443C711.603 66.3739 713.353 69.0728 714.637 72.0064C715.921 75.0574 716.621 78.4604 716.621 82.3328C716.621 86.7919 716.038 90.899 714.871 94.302C713.704 97.8223 712.07 100.873 709.969 103.455C707.868 106.036 705.301 108.266 702.5 109.909C699.699 111.552 696.665 112.96 693.281 114.016C690.013 114.955 686.512 115.776 683.011 116.128C679.39 116.758 675.376 117.21 671.758 117.21Z" fill="url(#paint15_linear_3149_8500)"/>
<path d="M714.799 83.3596C714.799 87.5832 713.859 91.1028 712.801 94.3878C711.743 97.6727 710.215 100.488 708.217 102.835C706.219 105.181 703.985 107.176 701.282 108.818C698.578 110.461 695.757 111.751 692.584 112.69C689.41 113.628 686.119 114.332 682.592 114.802C679.066 115.271 675.54 115.388 671.896 115.388C667.077 115.388 662.728 115.036 658.731 114.332C654.735 113.628 650.856 112.455 647.329 110.93C643.803 109.405 640.394 107.41 637.103 104.947C633.812 102.483 630.521 99.5499 627.347 96.0302L641.452 81.8345C642.745 85.0021 644.508 87.9351 646.742 90.6335C648.975 93.3319 651.443 95.561 654.147 97.5554C656.85 99.5499 659.672 100.958 662.493 102.131C665.314 103.304 668.135 103.773 670.721 103.773C673.777 103.773 676.598 103.539 679.301 103.069C682.005 102.6 684.238 101.896 686.236 100.958C688.234 100.019 689.763 98.6113 690.938 96.9688C692.113 95.3263 692.584 93.2146 692.584 90.6335C692.584 88.7564 692.113 87.1139 691.291 85.706C690.468 84.2982 689.292 83.125 687.882 82.1864C686.471 81.2479 684.943 80.3093 683.063 79.7227C681.182 79.1361 679.419 78.4322 677.538 77.9629C675.657 77.4936 673.894 77.0243 672.014 76.6724C670.133 76.3204 668.605 75.8511 667.312 75.4992C664.608 74.6779 661.787 73.8567 658.849 73.0354C655.91 72.2142 652.972 71.1583 650.151 69.9851C647.329 68.8119 644.626 67.5214 642.04 65.9962C639.454 64.471 637.221 62.7112 635.34 60.7168C633.459 58.7223 631.931 56.2586 630.756 53.6776C629.58 51.0965 628.993 47.9289 628.993 44.4092C628.993 40.1857 629.463 36.5488 630.521 33.2638C631.579 29.9788 632.989 27.2805 634.87 24.8167C636.751 22.353 638.984 20.4759 641.57 18.8334C644.156 17.1909 646.977 15.9004 650.033 14.9618C653.089 14.0232 656.38 13.3193 659.789 12.85C663.198 12.3808 666.842 12.1461 670.485 12.1461C675.422 12.1461 680.006 12.6154 684.003 13.554C687.999 14.4925 691.878 15.7831 695.287 17.4255C698.696 19.068 701.87 21.1798 704.808 23.5262C707.747 25.8726 710.333 28.4537 712.919 31.3867L698.813 45.5825C697.755 42.2975 696.227 39.2471 694.229 36.6661C692.231 34.085 690.115 31.7386 687.764 29.8615C685.413 27.9844 682.828 26.4592 680.242 25.4033C677.656 24.3474 675.07 23.8782 672.719 23.8782C669.545 23.8782 666.607 24.1128 664.021 24.5821C661.435 25.0514 659.084 25.7553 657.203 26.6939C655.322 27.6324 653.794 29.0403 652.736 30.6828C651.679 32.3252 651.208 34.437 651.208 36.9007C651.208 38.8952 651.561 40.5377 652.384 41.9455C653.207 43.3534 654.265 44.5266 655.557 45.4651C656.85 46.4037 658.379 47.2249 660.024 47.8115C661.67 48.3981 663.433 48.9847 665.196 49.454C666.959 49.9233 668.722 50.2753 670.485 50.6272C672.249 50.9792 673.777 51.3312 675.187 51.8004C677.891 52.6217 680.829 53.4429 683.885 54.2642C686.941 55.0854 689.88 56.1413 692.819 57.3145C695.757 58.4877 698.578 59.7782 701.164 61.3034C703.75 62.8286 706.219 64.5884 708.217 66.7001C710.215 68.8119 711.861 71.1583 713.036 73.974C714.212 76.7897 714.799 79.84 714.799 83.3596Z" fill="url(#paint16_linear_3149_8500)"/>
<path d="M732.935 115.388V45.4612H718.443V31.546H732.935V2.42923H761.093V31.546H785.247V45.4612H761.093V115.388H732.935Z" fill="url(#paint17_linear_3149_8500)"/>
<path d="M758.721 112.959H735.33V43.1489H720.872V33.9265H735.33V4.85846H758.721V33.9265H782.817V43.1489H758.721V112.959Z" fill="url(#paint18_linear_3149_8500)"/>
<path d="M824.964 117.093C818.612 117.093 812.849 115.922 807.674 113.698C802.616 111.474 798.264 108.313 794.735 104.332C791.207 100.352 788.502 95.669 786.737 90.4008C784.855 85.1326 784.032 79.3961 784.032 73.4255C784.032 67.4549 784.973 61.7184 786.737 56.4502C788.619 51.182 791.324 46.4992 794.735 42.5187C798.264 38.5383 802.616 35.3774 807.674 33.1531C812.731 30.9287 818.495 29.758 824.964 29.758C828.257 29.758 831.433 30.2263 834.491 31.2799C837.432 32.2165 840.255 33.7384 842.725 35.4945C845.195 37.2505 847.429 39.4749 849.311 42.0505C850.252 43.3382 851.193 44.7431 851.899 46.1479L860.603 31.7482H873.306V115.688H845.312V109.952C843.313 111.708 841.078 113.23 838.726 114.283C834.609 116.273 829.904 117.21 824.964 117.21V117.093ZM828.728 45.4455C826.493 45.4455 824.493 45.7967 822.964 46.6162C821.318 47.4357 819.906 48.4894 818.73 49.7771C817.554 51.182 816.495 52.821 815.672 54.5771C814.849 56.4502 814.143 58.5575 813.672 60.6647C813.202 62.772 812.849 64.9964 812.614 67.1036C812.379 69.328 812.261 71.3182 812.261 73.3084C812.261 75.2986 812.261 77.2888 812.614 79.5132C812.849 81.7375 813.202 83.8448 813.672 85.9521C814.143 88.0594 814.849 90.0496 815.672 92.0398C816.495 93.9129 817.436 95.5519 818.73 96.8397C819.906 98.1275 821.318 99.2982 822.964 100.001C824.611 100.82 826.493 101.171 828.728 101.171C830.727 101.171 832.492 100.82 834.021 100.001C835.55 99.1811 836.961 98.0104 838.255 96.6055C839.549 95.0836 840.607 93.4446 841.431 91.5715C842.372 89.5813 843.077 87.5911 843.666 85.4838C844.254 83.3765 844.607 81.2692 844.959 79.162C845.195 77.0547 845.312 75.0645 845.312 73.4255C845.312 71.4353 845.312 69.328 844.959 67.1036C844.724 64.8793 844.371 62.772 843.901 60.6647C843.43 58.5575 842.725 56.5673 841.901 54.6941C841.078 52.9381 840.137 51.2991 838.843 49.8942C837.667 48.6064 836.255 47.5528 834.491 46.7333C832.844 46.0309 830.845 45.5626 828.61 45.5626H828.728V45.4455Z" fill="url(#paint19_linear_3149_8500)"/>
<path d="M870.877 113.26H847.63V103.784C844.93 107.528 841.525 110.335 837.651 112.09C833.776 113.845 829.55 114.781 824.853 114.781C818.748 114.781 813.347 113.728 808.651 111.505C803.955 109.282 799.846 106.475 796.558 102.731C793.271 98.9874 790.688 94.6589 789.044 89.6284C787.4 84.5979 786.461 79.2164 786.461 73.484C786.461 67.7516 787.283 62.3702 789.044 57.3397C790.805 52.3092 793.271 47.9806 796.558 44.237C799.846 40.4934 803.837 37.5687 808.651 35.4629C813.465 33.3571 818.866 32.1872 824.853 32.1872C827.906 32.1872 830.841 32.6552 833.659 33.5911C836.477 34.527 838.942 35.8139 841.29 37.4517C843.638 39.0895 845.634 41.0783 847.395 43.5351C849.156 45.9918 850.565 48.4486 851.505 51.3733L861.836 34.176H870.759V113.377H870.877V113.26ZM847.513 73.484C847.513 71.3782 847.513 69.2725 847.161 66.9327C846.808 64.5929 846.573 62.3702 846.104 60.1474C845.634 57.9246 844.93 55.8188 843.991 53.713C843.051 51.6073 841.995 49.8524 840.586 48.3316C839.177 46.8107 837.533 45.5239 835.537 44.588C833.541 43.6521 831.311 43.1841 828.61 43.1841C825.91 43.1841 823.679 43.6521 821.801 44.588C819.922 45.5239 818.278 46.8107 816.87 48.3316C815.461 49.8524 814.404 51.7242 813.465 53.83C812.526 55.9358 811.821 58.0416 811.351 60.2644C810.882 62.4871 810.53 64.7099 810.295 67.0497C810.06 69.3894 809.943 71.4952 809.943 73.484C809.943 75.4728 809.943 77.6956 810.295 79.9184C810.647 82.1411 810.882 84.4809 811.351 86.7037C811.821 88.9265 812.526 91.1492 813.465 93.138C814.404 95.1268 815.461 96.9986 816.87 98.6365C818.278 100.274 819.922 101.444 821.801 102.38C823.679 103.316 826.027 103.784 828.61 103.784C830.958 103.784 833.072 103.316 834.95 102.263C836.829 101.21 838.472 99.9233 839.881 98.2855C841.29 96.6477 842.464 94.7759 843.404 92.6701C844.343 90.5643 845.165 88.3415 845.752 86.1187C846.339 83.896 846.808 81.6732 847.043 79.4504C847.278 77.2276 847.513 75.2388 847.513 73.367V73.484Z" fill="url(#paint20_linear_3149_8500)"/>
<path d="M894.478 115.388V45.4612H879.986V31.546H894.478V2.42923H922.637V31.546H946.79V45.4612H922.637V115.388H894.478Z" fill="url(#paint21_linear_3149_8500)"/>
<path d="M920.264 112.959H896.873V43.1489H882.416V33.9265H896.873V4.85846H920.264V33.9265H944.361V43.1489H920.264V112.959Z" fill="url(#paint22_linear_3149_8500)"/>
<path d="M988.762 117.093C982.419 117.093 976.546 116.036 971.142 113.923C965.739 111.81 961.041 108.758 957.047 104.885C953.171 101.011 949.999 96.3155 947.767 91.0331C945.535 85.7508 944.361 79.7641 944.361 73.4253C944.361 67.0865 945.535 61.2173 947.767 55.8175C949.999 50.4178 953.053 45.8398 957.047 41.9661C960.923 38.0924 965.739 35.0403 971.142 32.9274C976.546 30.8145 982.419 29.758 988.762 29.758C991.816 29.758 994.87 29.9928 998.041 30.3449C1001.21 30.8145 1004.38 31.5188 1007.32 32.3405C1010.37 33.2796 1013.31 34.4534 1015.9 35.9794C1018.71 37.5054 1021.18 39.501 1023.18 41.7313C1025.29 43.9616 1026.94 46.6615 1028.11 49.7135C1029.29 52.7655 1029.99 56.1697 1029.99 60.0434C1029.99 63.565 1029.4 66.8517 1028.23 69.669C1027.05 72.4862 1025.53 74.9513 1023.41 77.0643C1021.42 79.1772 1019.18 80.938 1016.6 82.3466C1014.13 83.7552 1011.31 84.9291 1008.5 85.7508C1005.68 86.6899 1002.74 87.2768 999.686 87.629C996.749 87.9811 993.813 88.2159 990.993 88.2159C987.47 88.2159 983.946 87.9811 980.422 87.5116C978.307 87.1594 976.076 86.8073 973.961 86.2203C974.314 87.7463 974.901 89.155 975.371 90.681C976.311 93.1461 977.72 95.259 979.365 97.1372C981.009 98.8979 983.006 100.307 985.355 101.363C987.705 102.42 990.641 102.889 993.93 102.889C996.044 102.889 998.159 102.537 1000.16 101.95C1002.15 101.246 1003.91 100.424 1005.56 99.1327C1007.2 97.9589 1008.61 96.5502 1009.9 94.9068C1011.2 93.2634 1012.25 91.3853 1012.96 89.3897L1013.78 87.2768L1028.35 92.6765L1027.41 94.9068C1025.76 98.7806 1023.53 102.185 1020.71 105.002C1017.89 107.819 1014.72 110.167 1011.2 111.928C1007.67 113.688 1003.91 115.097 1000.04 115.919C996.162 116.741 992.286 117.21 988.409 117.21H988.762V117.093ZM972.552 73.4253C974.784 73.8949 977.133 74.247 979.365 74.5992C982.066 74.9513 984.885 75.0687 987.705 75.0687C990.524 75.0687 993.225 74.834 995.574 74.247C997.806 73.7775 999.803 72.9558 1001.45 71.7819C1003.09 70.6081 1004.27 69.1995 1005.21 67.3213C1006.15 65.4431 1006.62 62.978 1006.62 59.926C1006.62 57.4609 1006.26 55.2306 1005.68 53.2351C1005.09 51.3569 1004.15 49.5961 1002.86 48.3049C1001.68 47.0136 1000.16 45.9572 998.394 45.1355C996.632 44.3138 994.4 43.9616 991.933 43.9616C989.701 43.9616 987.587 44.4312 985.825 45.1355C984.063 45.9572 982.419 47.131 981.009 48.5396C979.6 49.9483 978.308 51.709 977.368 53.7046C976.311 55.7001 975.488 57.8131 974.784 60.0434C974.079 62.2737 973.609 64.504 973.257 66.7344C972.904 68.9647 972.787 71.195 972.787 73.1906L972.552 73.4253Z" fill="url(#paint23_linear_3149_8500)"/>
<path d="M1027.93 59.7637C1027.93 63.0635 1027.47 65.8918 1026.41 68.4845C1025.36 71.0772 1023.95 73.3163 1022.08 75.2019C1020.21 77.0874 1018.22 78.7373 1015.76 80.1515C1013.3 81.5657 1010.84 82.6263 1008.15 83.4512C1005.46 84.2762 1002.65 84.8654 999.84 85.3368C997.031 85.8082 994.221 85.9261 991.529 85.9261C988.134 85.9261 984.74 85.6904 981.345 85.219C977.95 84.7476 974.672 83.9226 971.512 82.862C971.98 85.9261 972.799 88.7544 973.97 91.5828C975.14 94.4111 976.545 96.7681 978.418 98.7715C980.291 100.775 982.515 102.425 985.208 103.603C987.9 104.782 991.061 105.371 994.69 105.371C997.148 105.371 999.372 105.017 1001.6 104.31C1003.82 103.603 1005.81 102.543 1007.68 101.246C1009.56 99.95 1011.08 98.3001 1012.48 96.5324C1013.89 94.7647 1015.06 92.6434 1015.88 90.4043L1025.94 94.1754C1024.42 97.8287 1022.32 101.011 1019.74 103.603C1017.17 106.196 1014.12 108.435 1010.84 110.203C1007.57 111.971 1004.05 113.149 1000.31 114.092C996.563 115.035 992.934 115.388 989.188 115.388C983.101 115.388 977.599 114.327 972.448 112.324C967.297 110.321 962.966 107.374 959.22 103.721C955.474 100.068 952.665 95.5896 950.558 90.5221C948.451 85.4547 947.397 79.7979 947.397 73.7877C947.397 67.7774 948.451 62.1207 950.558 57.0532C952.665 51.9857 955.591 47.5075 959.22 43.8542C962.849 40.2009 967.297 37.2547 972.448 35.2513C977.599 33.2479 983.101 32.1872 989.188 32.1872C992.114 32.1872 995.158 32.4229 998.201 32.7765C1001.24 33.13 1004.29 33.8371 1007.1 34.7799C1009.91 35.7227 1012.72 36.7833 1015.29 38.3153C1017.87 39.8474 1020.09 41.4972 1021.96 43.6185C1023.84 45.7398 1025.36 48.0967 1026.53 50.9251C1027.7 53.7535 1028.17 56.8175 1028.17 60.353L1027.93 59.7637ZM970.809 75.5554C973.619 76.1446 976.428 76.7339 979.355 77.0874C982.281 77.441 985.091 77.6767 987.9 77.6767C990.71 77.6767 993.753 77.441 996.328 76.8517C998.904 76.2625 1001.13 75.3197 1003 73.9055C1004.87 72.4913 1006.4 70.7236 1007.45 68.4845C1008.5 66.2454 1009.09 63.417 1009.09 60.1173C1009.09 57.4068 1008.74 54.9319 1008.03 52.6928C1007.33 50.4537 1006.16 48.4503 1004.76 46.9183C1003.35 45.3862 1001.6 44.0899 999.489 43.1471C997.382 42.2043 994.924 41.8508 992.114 41.8508C989.539 41.8508 987.198 42.3222 985.091 43.265C982.984 44.2078 981.228 45.5041 979.589 47.154C977.95 48.8038 976.662 50.6894 975.492 52.8107C974.321 54.932 973.502 57.2889 972.682 59.528C971.863 61.7672 971.395 64.242 971.16 66.5989C970.926 68.9559 970.692 71.195 970.692 73.3163V75.4376L970.809 75.5554Z" fill="url(#paint24_linear_3149_8500)"/>
<path d="M1126.61 126.335L1127.78 124.231C1129.08 122.009 1130.25 119.437 1131.31 116.514C1132.36 113.591 1133.42 110.551 1134.24 107.277C1135.18 104.003 1135.89 100.73 1136.59 97.3388C1137.3 93.9481 1137.88 90.4404 1138.35 87.0497C1138.82 83.659 1139.18 80.3852 1139.41 77.1114C1139.65 73.9545 1139.76 70.9145 1139.76 68.1084C1139.76 66.5884 1139.76 64.8346 1139.65 62.9638C1139.65 61.21 1139.41 59.3392 1139.06 57.5854C1138.82 55.8316 1138.35 54.1947 1137.77 52.5578C1137.3 51.0378 1136.59 49.7516 1135.65 48.5824C1134.83 47.5301 1133.77 46.7117 1132.6 46.0101C1131.42 45.4255 1129.9 45.0748 1128.14 45.0748C1126.49 45.0748 1125.2 45.4255 1124.14 46.244C1122.85 47.1794 1121.8 48.4655 1120.97 49.8686C1120.03 51.5055 1119.21 53.2593 1118.74 55.3639C1118.15 57.4685 1117.68 59.69 1117.45 61.7946C1117.1 64.0161 1116.98 66.1207 1116.86 68.1084C1116.86 70.096 1116.75 71.8499 1116.75 73.136V115.111H1088.8V70.096C1088.8 67.8745 1088.8 65.653 1088.68 63.1977C1088.56 60.8592 1088.21 58.4039 1087.86 56.0654C1087.5 53.8439 1086.8 51.8562 1085.98 50.1024C1085.16 48.4655 1084.22 47.2963 1082.81 46.244C1081.63 45.3086 1080.11 44.9578 1078.11 44.9578C1076.58 44.9578 1075.41 45.3086 1074.35 46.1271C1073.18 47.0624 1072.24 48.3486 1071.42 49.8686C1070.59 51.5055 1069.89 53.3762 1069.42 55.3639C1068.95 57.5854 1068.48 59.69 1068.24 61.9115C1068.01 64.133 1067.89 66.2376 1067.77 68.1084V115.111H1039.71V31.7457H1052.51L1059.32 46.4778C1061.32 42.1517 1063.9 38.6441 1067.07 35.8379C1071.65 31.8626 1077.76 29.8749 1085.16 29.8749C1091.73 29.8749 1097.37 31.278 1101.83 34.0841C1105.24 36.1887 1108.17 39.4625 1110.4 43.5548C1111.11 42.3856 1111.93 41.3333 1112.75 40.281C1114.51 38.0595 1116.51 36.1887 1118.62 34.6687C1120.86 33.1487 1123.32 31.8626 1125.91 31.0441C1128.61 30.2257 1131.54 29.758 1134.71 29.758C1140.47 29.758 1145.4 30.6934 1149.51 32.5641C1153.62 34.4349 1157.14 37.1241 1159.73 40.5148C1162.31 43.9055 1164.31 47.8809 1165.48 52.4408C1166.66 56.8839 1167.24 61.7946 1167.24 66.9392C1167.24 72.5514 1166.54 78.3975 1165.25 84.4774C1163.95 90.4405 1162.08 96.4035 1159.73 102.133C1157.38 107.862 1154.44 113.357 1151.15 118.385C1147.75 123.529 1143.99 127.972 1139.88 131.831L1138.71 133L1126.37 126.335H1126.61Z" fill="url(#paint25_linear_3149_8500)"/>
<path d="M1165.3 66.9988C1165.3 72.3724 1164.71 78.0965 1163.42 83.9374C1162.13 89.7783 1160.36 95.6191 1158.01 101.11C1155.66 106.6 1152.95 111.974 1149.66 116.997C1146.36 122.02 1142.72 126.225 1138.72 129.963L1130.01 125.291C1131.31 122.954 1132.6 120.268 1133.66 117.23C1134.72 114.193 1135.78 111.156 1136.72 107.885C1137.66 104.614 1138.48 101.226 1139.19 97.7219C1139.89 94.2173 1140.48 90.8296 1140.95 87.3251C1141.42 83.8206 1141.77 80.5497 1142.01 77.2788C1142.25 74.0079 1142.36 70.9706 1142.36 68.167C1142.36 66.5316 1142.36 64.7793 1142.25 62.9102C1142.13 61.0411 1142.01 59.1721 1141.66 57.303C1141.3 55.4339 1140.95 53.6816 1140.36 51.9294C1139.78 50.1771 1138.95 48.6585 1137.89 47.3735C1136.83 46.0885 1135.54 44.9203 1134.01 44.1026C1132.48 43.2849 1130.6 42.9344 1128.48 42.9344C1126.36 42.9344 1124.6 43.5185 1123.07 44.5699C1121.54 45.6212 1120.25 47.1399 1119.19 48.8921C1118.13 50.6444 1117.31 52.6303 1116.72 54.9666C1116.13 57.303 1115.66 59.4057 1115.31 61.7421C1114.95 64.0784 1114.72 66.1811 1114.6 68.167C1114.48 70.1529 1114.48 71.9052 1114.48 73.4238V113.025H1091.31V70.3866C1091.31 68.0502 1091.31 65.7139 1091.19 63.2607C1091.07 60.8075 1090.72 58.3543 1090.25 55.9012C1089.78 53.448 1089.07 51.2285 1088.13 49.3594C1087.19 47.4903 1085.9 45.8549 1084.25 44.6867C1082.6 43.5185 1080.6 42.8176 1078.13 42.8176C1076.02 42.8176 1074.37 43.4017 1072.96 44.5699C1071.55 45.7381 1070.37 47.1399 1069.43 49.0089C1068.49 50.878 1067.78 52.8639 1067.19 55.0835C1066.61 57.303 1066.25 59.6393 1066.02 61.8589C1065.78 64.0784 1065.66 66.2979 1065.55 68.2838V112.908H1042.14V34.0563H1051.08L1059.66 52.5135C1061.55 46.0885 1064.61 41.1822 1068.84 37.5608C1073.08 33.9395 1078.49 32.1872 1085.43 32.1872C1091.66 32.1872 1096.72 33.4722 1100.84 36.0422C1104.95 38.6122 1108.13 42.7008 1110.48 48.5417C1111.78 46.0885 1113.31 43.7522 1114.95 41.7663C1116.6 39.7804 1118.37 38.0281 1120.36 36.6263C1122.36 35.2245 1124.6 34.1731 1127.07 33.3554C1129.54 32.6545 1132.25 32.1872 1135.19 32.1872C1140.6 32.1872 1145.19 33.1218 1149.07 34.874C1152.95 36.6263 1156.01 39.0795 1158.48 42.1167C1160.95 45.154 1162.71 48.8921 1163.77 53.2144C1164.83 57.5366 1165.42 62.0925 1165.42 67.1157L1165.3 66.9988Z" fill="url(#paint26_linear_3149_8500)"/>
<path d="M1218.01 117.093C1211.71 117.093 1205.88 116.036 1200.51 113.923C1195.15 111.81 1190.48 108.758 1186.52 104.885C1182.67 101.011 1179.52 96.3155 1177.3 91.0331C1175.09 85.7508 1173.92 79.7641 1173.92 73.4253C1173.92 67.0865 1175.09 61.2173 1177.3 55.8175C1179.52 50.4178 1182.55 45.8398 1186.52 41.9661C1190.37 38.0924 1195.15 35.0403 1200.51 32.9274C1205.88 30.8145 1211.71 29.758 1218.01 29.758C1221.04 29.758 1224.07 29.9928 1227.22 30.3449C1230.37 30.8145 1233.52 31.5188 1236.44 32.3405C1239.47 33.2796 1242.38 34.4534 1244.95 35.9794C1247.75 37.5054 1250.2 39.501 1252.18 41.7313C1254.28 43.9616 1255.91 46.6615 1257.08 49.7135C1258.25 52.7655 1258.95 56.1697 1258.95 60.0434C1258.95 63.565 1258.36 66.8517 1257.2 69.669C1256.03 72.4862 1254.51 74.9513 1252.41 77.0643C1250.43 79.1772 1248.22 80.938 1245.65 82.3466C1243.2 83.7552 1240.4 84.9291 1237.6 85.7508C1234.8 86.6899 1231.89 87.2768 1228.85 87.629C1225.94 87.9811 1223.02 88.2159 1220.22 88.2159C1216.73 88.2159 1213.23 87.9811 1209.73 87.5116C1207.63 87.1594 1205.41 86.8073 1203.31 86.2203C1203.66 87.7463 1204.25 89.155 1204.71 90.681C1205.65 93.1461 1207.05 95.259 1208.68 97.1372C1210.31 98.8979 1212.29 100.307 1214.63 101.363C1216.96 102.42 1219.87 102.889 1223.14 102.889C1225.24 102.889 1227.34 102.537 1229.32 101.95C1231.3 101.246 1233.05 100.424 1234.69 99.1327C1236.32 97.9589 1237.72 96.5502 1239 94.9068C1240.28 93.2634 1241.33 91.3853 1242.03 89.3897L1242.85 87.2768L1257.31 92.6765L1256.38 94.9068C1254.75 98.7806 1252.53 102.185 1249.73 105.002C1246.93 107.819 1243.78 110.167 1240.28 111.928C1236.79 113.688 1233.05 115.097 1229.2 115.919C1225.36 116.741 1221.51 117.21 1217.66 117.21H1218.01V117.093ZM1201.91 73.4253C1204.13 73.8949 1206.46 74.247 1208.68 74.5992C1211.36 74.9513 1214.16 75.0687 1216.96 75.0687C1219.76 75.0687 1222.44 74.834 1224.77 74.247C1226.99 73.7775 1228.97 72.9558 1230.6 71.7819C1232.24 70.6081 1233.4 69.1995 1234.34 67.3213C1235.27 65.4431 1235.74 62.978 1235.74 59.926C1235.74 57.4609 1235.39 55.2306 1234.8 53.2351C1234.22 51.3569 1233.29 49.5961 1232 48.3049C1230.84 47.0136 1229.32 45.9572 1227.57 45.1355C1225.82 44.3138 1223.61 43.9616 1221.16 43.9616C1218.94 43.9616 1216.84 44.4312 1215.09 45.1355C1213.34 45.9572 1211.71 47.131 1210.31 48.5396C1208.91 49.9483 1207.63 51.709 1206.7 53.7046C1205.65 55.7001 1204.83 57.8131 1204.13 60.0434C1203.43 62.2737 1202.96 64.504 1202.61 66.7344C1202.26 68.9647 1202.15 71.195 1202.15 73.1906L1201.91 73.4253Z" fill="url(#paint27_linear_3149_8500)"/>
<path d="M1256.89 59.7637C1256.89 63.0635 1256.42 65.8918 1255.37 68.4845C1254.31 71.0772 1252.91 73.3163 1251.04 75.2019C1249.16 77.0874 1247.17 78.7373 1244.71 80.1515C1242.26 81.5657 1239.8 82.6263 1237.11 83.4512C1234.41 84.2762 1231.6 84.8654 1228.79 85.3368C1225.99 85.8082 1223.18 85.9261 1220.48 85.9261C1217.09 85.9261 1213.69 85.6904 1210.3 85.219C1206.9 84.7476 1203.63 83.9226 1200.47 82.862C1200.93 85.9261 1201.75 88.7544 1202.92 91.5828C1204.09 94.4111 1205.5 96.7681 1207.37 98.7715C1209.25 100.775 1211.47 102.425 1214.16 103.603C1216.85 104.782 1220.02 105.371 1223.64 105.371C1226.1 105.371 1228.33 105.017 1230.55 104.31C1232.77 103.603 1234.76 102.543 1236.64 101.246C1238.51 99.95 1240.03 98.3001 1241.44 96.5324C1242.84 94.7647 1244.01 92.6434 1244.83 90.4043L1254.9 94.1754C1253.38 97.8287 1251.27 101.011 1248.69 103.603C1246.12 106.196 1243.08 108.435 1239.8 110.203C1236.52 111.971 1233.01 113.149 1229.26 114.092C1225.52 115.035 1221.89 115.388 1218.14 115.388C1212.05 115.388 1206.55 114.327 1201.4 112.324C1196.25 110.321 1191.92 107.374 1188.17 103.721C1184.43 100.068 1181.62 95.5896 1179.51 90.5221C1177.41 85.4547 1176.35 79.7979 1176.35 73.7877C1176.35 67.7774 1177.41 62.1207 1179.51 57.0532C1181.62 51.9857 1184.55 47.5075 1188.17 43.8542C1191.8 40.2009 1196.25 37.2547 1201.4 35.2513C1206.55 33.2479 1212.05 32.1872 1218.14 32.1872C1221.07 32.1872 1224.11 32.4229 1227.16 32.7765C1230.2 33.13 1233.24 33.8371 1236.05 34.7799C1238.86 35.7227 1241.67 36.7833 1244.25 38.3153C1246.82 39.8474 1249.05 41.4972 1250.92 43.6185C1252.79 45.7398 1254.31 48.0967 1255.48 50.9251C1256.66 53.7535 1257.12 56.8175 1257.12 60.353L1256.89 59.7637ZM1199.65 75.5554C1202.46 76.1446 1205.27 76.7339 1208.19 77.0874C1211.12 77.441 1213.93 77.6767 1216.74 77.6767C1219.55 77.6767 1222.59 77.441 1225.17 76.8517C1227.74 76.2625 1229.97 75.3197 1231.84 73.9055C1233.71 72.4913 1235.23 70.7236 1236.29 68.4845C1237.34 66.2454 1237.93 63.417 1237.93 60.1173C1237.93 57.4068 1237.57 54.9319 1236.87 52.6928C1236.17 50.4537 1235 48.4503 1233.59 46.9183C1232.19 45.3862 1230.43 44.0899 1228.33 43.1471C1226.22 42.2043 1223.76 41.8508 1220.95 41.8508C1218.38 41.8508 1216.04 42.3222 1213.93 43.265C1211.82 44.2078 1210.06 45.5041 1208.43 47.154C1206.79 48.8038 1205.5 50.6894 1204.33 52.8107C1203.16 54.932 1202.34 57.2889 1201.52 59.528C1200.7 61.7672 1200.23 64.242 1200 66.5989C1199.76 68.9559 1199.53 71.195 1199.53 73.3163V75.4376L1199.65 75.5554Z" fill="url(#paint28_linear_3149_8500)"/>
<path d="M1314.33 126.328L1315.51 124.221C1316.68 121.997 1317.86 119.539 1318.92 116.846C1319.98 114.037 1320.92 111.111 1321.86 108.067C1322.68 104.907 1323.51 101.746 1324.21 98.3519C1324.92 94.9573 1325.51 91.6798 1325.98 88.4023C1326.45 85.1247 1326.8 81.9643 1327.04 78.9209C1327.27 75.8774 1327.39 72.9511 1327.39 70.3759C1327.39 68.6201 1327.39 66.7472 1327.15 64.7573C1327.04 62.8844 1326.8 60.8945 1326.33 59.0216C1325.98 57.1487 1325.39 55.2759 1324.68 53.5201C1324.09 51.8813 1323.15 50.4766 1322.21 49.3061C1321.15 48.1355 1319.98 47.1991 1318.56 46.4968C1317.15 45.7945 1315.51 45.4433 1313.51 45.4433C1311.51 45.4433 1309.98 45.7945 1308.56 46.6138C1307.04 47.5503 1305.62 48.7208 1304.45 50.1255C1303.15 51.6472 1302.09 53.403 1301.27 55.3929C1300.33 57.3828 1299.62 59.4898 1299.03 61.7139C1298.45 63.8208 1297.98 65.9278 1297.74 68.0348C1297.51 70.1418 1297.39 72.0146 1297.39 73.6534V115.676H1269.27V31.6309H1281.98L1291.15 47.4332C1292.09 45.7945 1293.15 44.1557 1294.33 42.634C1296.33 39.9417 1298.8 37.6006 1301.39 35.7278C1303.98 33.8549 1306.92 32.3332 1310.21 31.2797C1313.39 30.2262 1316.92 29.758 1320.56 29.758C1326.33 29.758 1331.51 30.6944 1335.86 32.6844C1340.21 34.5572 1343.98 37.3665 1346.92 40.7611C1349.86 44.1557 1351.98 48.2526 1353.39 52.9348C1354.8 57.4999 1355.51 62.5332 1355.51 67.9177C1355.51 73.3022 1354.8 79.272 1353.51 85.1247C1352.21 90.9775 1350.33 96.9473 1347.86 102.566C1345.51 108.302 1342.57 113.686 1339.27 118.719C1335.86 123.753 1332.21 128.201 1328.09 131.829L1326.8 133L1314.56 126.328H1314.33Z" fill="url(#paint29_linear_3149_8500)"/>
<path d="M1352.47 67.7422C1352.47 73.1223 1351.77 78.6192 1350.47 84.4671C1349.18 90.315 1347.3 95.9289 1344.95 101.543C1342.61 107.157 1339.79 112.303 1336.62 117.215C1333.45 122.127 1329.81 126.338 1325.93 129.963L1317.24 125.285C1318.53 122.946 1319.71 120.49 1320.76 117.566C1321.82 114.642 1322.88 111.718 1323.7 108.56C1324.52 105.402 1325.34 102.128 1326.17 98.7359C1326.99 95.3441 1327.46 91.9524 1327.93 88.6776C1328.4 85.4028 1328.75 82.128 1328.98 78.9701C1329.22 75.8123 1329.34 72.8883 1329.34 70.1983C1329.34 68.444 1329.34 66.4557 1329.1 64.4674C1328.87 62.4792 1328.63 60.3739 1328.28 58.3856C1327.93 56.3974 1327.22 54.4091 1326.52 52.5378C1325.81 50.6665 1324.76 49.0291 1323.58 47.6256C1322.41 46.2221 1320.88 45.0525 1319.12 44.2338C1317.36 43.4151 1315.36 42.9473 1313.01 42.9473C1310.67 42.9473 1308.67 43.4151 1306.91 44.4677C1305.15 45.5204 1303.5 46.8069 1302.21 48.5612C1300.92 50.3156 1299.63 52.1869 1298.69 54.2921C1297.75 56.3974 1296.93 58.6196 1296.22 60.9587C1295.63 63.1809 1295.16 65.4031 1294.93 67.6253C1294.69 69.8475 1294.46 71.8357 1294.46 73.4731V113.122H1271.09V33.9416H1280.02L1290.7 52.4208C1291.99 49.3799 1293.64 46.573 1295.52 44.1169C1297.4 41.6608 1299.63 39.4386 1302.09 37.6842C1304.56 35.9299 1307.26 34.5264 1310.2 33.5907C1313.13 32.6551 1316.3 32.1872 1319.82 32.1872C1325.34 32.1872 1330.16 33.1229 1334.15 34.8772C1338.14 36.6316 1341.67 39.0877 1344.37 42.3625C1347.07 45.6373 1349.06 49.263 1350.47 53.7074C1351.88 58.1517 1352.47 62.83 1352.47 67.9761V67.7422Z" fill="url(#paint30_linear_3149_8500)"/>
<path d="M1371.21 115.388V45.4612H1356.72V31.546H1371.21V2.42923H1399.37V31.546H1423.53V45.4612H1399.37V115.388H1371.21Z" fill="url(#paint31_linear_3149_8500)"/>
<path d="M1397 112.959H1373.61V43.1489H1359.15V33.9265H1373.61V4.85846H1397V33.9265H1421.1V43.1489H1397V112.959Z" fill="url(#paint32_linear_3149_8500)"/>
<defs>
<linearGradient id="paint0_linear_3149_8500" x1="66.5" y1="12.1461" x2="66.5" y2="115.388" gradientUnits="userSpaceOnUse">
<stop offset="0.11" stop-color="#B4792E"/>
<stop offset="0.33" stop-color="#9A5724"/>
<stop offset="0.72" stop-color="#F6DE50"/>
<stop offset="0.84" stop-color="#F7E14C"/>
<stop offset="0.96" stop-color="#FCED40"/>
<stop offset="1" stop-color="#FFF33B"/>
</linearGradient>
<linearGradient id="paint1_linear_3149_8500" x1="66.255" y1="14.5753" x2="66.255" y2="112.959" gradientUnits="userSpaceOnUse">
<stop stop-color="#FFF33B"/>
<stop offset="0.04" stop-color="#FCED40"/>
<stop offset="0.16" stop-color="#F7E14C"/>
<stop offset="0.28" stop-color="#F6DE50"/>
<stop offset="0.67" stop-color="#9A5724"/>
<stop offset="0.89" stop-color="#B4792E"/>
</linearGradient>
<linearGradient id="paint2_linear_3149_8500" x1="156.989" y1="0" x2="156.989" y2="115.388" gradientUnits="userSpaceOnUse">
<stop stop-color="#FFF33B"/>
<stop offset="0.04" stop-color="#FCED40"/>
<stop offset="0.16" stop-color="#F7E14C"/>
<stop offset="0.28" stop-color="#F6DE50"/>
<stop offset="0.67" stop-color="#9A5724"/>
<stop offset="0.89" stop-color="#B4792E"/>
</linearGradient>
<linearGradient id="paint3_linear_3149_8500" x1="157.046" y1="2.31251" x2="157.046" y2="112.959" gradientUnits="userSpaceOnUse">
<stop stop-color="#FFF33B"/>
<stop offset="0.04" stop-color="#FCED40"/>
<stop offset="0.16" stop-color="#F7E14C"/>
<stop offset="0.28" stop-color="#F6DE50"/>
<stop offset="0.67" stop-color="#9A5724"/>
<stop offset="0.89" stop-color="#B4792E"/>
</linearGradient>
<linearGradient id="paint4_linear_3149_8500" x1="219" y1="115.5" x2="219" y2="30" gradientUnits="userSpaceOnUse">
<stop stop-color="#FFF33B"/>
<stop offset="0.04" stop-color="#FCED40"/>
<stop offset="0.16" stop-color="#F7E14C"/>
<stop offset="0.28" stop-color="#F6DE50"/>
<stop offset="0.67" stop-color="#9A5724"/>
<stop offset="0.89" stop-color="#B4792E"/>
</linearGradient>
<linearGradient id="paint5_linear_3149_8500" x1="2196.83" y1="596.203" x2="-1758.05" y2="596.203" gradientUnits="userSpaceOnUse">
<stop offset="0.0385578" stop-color="#B4792E"/>
<stop offset="0.11" stop-color="#B4792E"/>
<stop offset="0.33" stop-color="#9A5724"/>
<stop offset="0.72" stop-color="#F6DE50"/>
<stop offset="0.84" stop-color="#F7E14C"/>
<stop offset="0.96" stop-color="#FCED40"/>
<stop offset="1" stop-color="#FFF33B"/>
</linearGradient>
<linearGradient id="paint6_linear_3149_8500" x1="219.541" y1="31.9529" x2="219.541" y2="114.781" gradientUnits="userSpaceOnUse">
<stop stop-color="#FFF33B"/>
<stop offset="0.04" stop-color="#FCED40"/>
<stop offset="0.16" stop-color="#F7E14C"/>
<stop offset="0.28" stop-color="#F6DE50"/>
<stop offset="0.67" stop-color="#9A5724"/>
<stop offset="0.89" stop-color="#B4792E"/>
</linearGradient>
<linearGradient id="paint7_linear_3149_8500" x1="302.135" y1="29.758" x2="302.135" y2="117.21" gradientUnits="userSpaceOnUse">
<stop offset="0.11" stop-color="#B4792E"/>
<stop offset="0.33" stop-color="#9A5724"/>
<stop offset="0.72" stop-color="#F6DE50"/>
<stop offset="0.84" stop-color="#F7E14C"/>
<stop offset="0.96" stop-color="#FCED40"/>
<stop offset="1" stop-color="#FFF33B"/>
</linearGradient>
<linearGradient id="paint8_linear_3149_8500" x1="302.742" y1="31.9529" x2="302.742" y2="114.781" gradientUnits="userSpaceOnUse">
<stop stop-color="#FFF33B"/>
<stop offset="0.04" stop-color="#FCED40"/>
<stop offset="0.16" stop-color="#F7E14C"/>
<stop offset="0.28" stop-color="#F6DE50"/>
<stop offset="0.67" stop-color="#9A5724"/>
<stop offset="0.89" stop-color="#B4792E"/>
</linearGradient>
<linearGradient id="paint9_linear_3149_8500" x1="365.902" y1="0" x2="365.902" y2="115.388" gradientUnits="userSpaceOnUse">
<stop stop-color="#FFF33B"/>
<stop offset="0.04" stop-color="#FCED40"/>
<stop offset="0.16" stop-color="#F7E14C"/>
<stop offset="0.28" stop-color="#F6DE50"/>
<stop offset="0.67" stop-color="#9A5724"/>
<stop offset="0.89" stop-color="#B4792E"/>
</linearGradient>
<linearGradient id="paint10_linear_3149_8500" x1="365.844" y1="2.31251" x2="365.844" y2="112.959" gradientUnits="userSpaceOnUse">
<stop stop-color="#FFF33B"/>
<stop offset="0.04" stop-color="#FCED40"/>
<stop offset="0.16" stop-color="#F7E14C"/>
<stop offset="0.28" stop-color="#F6DE50"/>
<stop offset="0.67" stop-color="#9A5724"/>
<stop offset="0.89" stop-color="#B4792E"/>
</linearGradient>
<linearGradient id="paint11_linear_3149_8500" x1="436.349" y1="29.6408" x2="436.349" y2="117.21" gradientUnits="userSpaceOnUse">
<stop offset="0.11" stop-color="#B4792E"/>
<stop offset="0.33" stop-color="#9A5724"/>
<stop offset="0.72" stop-color="#F6DE50"/>
<stop offset="0.84" stop-color="#F7E14C"/>
<stop offset="0.96" stop-color="#FCED40"/>
<stop offset="1" stop-color="#FFF33B"/>
</linearGradient>
<linearGradient id="paint12_linear_3149_8500" x1="436.712" y1="32.3039" x2="436.712" y2="114.781" gradientUnits="userSpaceOnUse">
<stop stop-color="#FFF33B"/>
<stop offset="0.04" stop-color="#FCED40"/>
<stop offset="0.16" stop-color="#F7E14C"/>
<stop offset="0.28" stop-color="#F6DE50"/>
<stop offset="0.67" stop-color="#9A5724"/>
<stop offset="0.89" stop-color="#B4792E"/>
</linearGradient>
<linearGradient id="paint13_linear_3149_8500" x1="536.31" y1="29.758" x2="536.31" y2="133" gradientUnits="userSpaceOnUse">
<stop offset="0.11" stop-color="#B4792E"/>
<stop offset="0.33" stop-color="#9A5724"/>
<stop offset="0.72" stop-color="#F6DE50"/>
<stop offset="0.84" stop-color="#F7E14C"/>
<stop offset="0.96" stop-color="#FCED40"/>
<stop offset="1" stop-color="#FFF33B"/>
</linearGradient>
<linearGradient id="paint14_linear_3149_8500" x1="535.585" y1="32.0703" x2="535.585" y2="129.963" gradientUnits="userSpaceOnUse">
<stop stop-color="#FFF33B"/>
<stop offset="0.04" stop-color="#FCED40"/>
<stop offset="0.16" stop-color="#F7E14C"/>
<stop offset="0.28" stop-color="#F6DE50"/>
<stop offset="0.67" stop-color="#9A5724"/>
<stop offset="0.89" stop-color="#B4792E"/>
</linearGradient>
<linearGradient id="paint15_linear_3149_8500" x1="670.407" y1="9.46162" x2="670.407" y2="117.536" gradientUnits="userSpaceOnUse">
<stop offset="0.11" stop-color="#B4792E"/>
<stop offset="0.33" stop-color="#9A5724"/>
<stop offset="0.72" stop-color="#F6DE50"/>
<stop offset="0.84" stop-color="#F7E14C"/>
<stop offset="0.96" stop-color="#FCED40"/>
<stop offset="1" stop-color="#FFF33B"/>
</linearGradient>
<linearGradient id="paint16_linear_3149_8500" x1="671.073" y1="12.0288" x2="671.073" y2="115.388" gradientUnits="userSpaceOnUse">
<stop stop-color="#FFF33B"/>
<stop offset="0.04" stop-color="#FCED40"/>
<stop offset="0.16" stop-color="#F7E14C"/>
<stop offset="0.28" stop-color="#F6DE50"/>
<stop offset="0.67" stop-color="#9A5724"/>
<stop offset="0.89" stop-color="#B4792E"/>
</linearGradient>
<linearGradient id="paint17_linear_3149_8500" x1="751.845" y1="2.42923" x2="751.845" y2="115.388" gradientUnits="userSpaceOnUse">
<stop stop-color="#FFF33B"/>
<stop offset="0.04" stop-color="#FCED40"/>
<stop offset="0.16" stop-color="#F7E14C"/>
<stop offset="0.28" stop-color="#F6DE50"/>
<stop offset="0.67" stop-color="#9A5724"/>
<stop offset="0.89" stop-color="#B4792E"/>
</linearGradient>
<linearGradient id="paint18_linear_3149_8500" x1="751.845" y1="112.959" x2="751.845" y2="4.85846" gradientUnits="userSpaceOnUse">
<stop offset="0.11" stop-color="#B4792E"/>
<stop offset="0.33" stop-color="#9A5724"/>
<stop offset="0.72" stop-color="#F6DE50"/>
<stop offset="0.84" stop-color="#F7E14C"/>
<stop offset="0.96" stop-color="#FCED40"/>
<stop offset="1" stop-color="#FFF33B"/>
</linearGradient>
<linearGradient id="paint19_linear_3149_8500" x1="828.61" y1="29.6409" x2="828.61" y2="117.093" gradientUnits="userSpaceOnUse">
<stop offset="0.11" stop-color="#B4792E"/>
<stop offset="0.33" stop-color="#9A5724"/>
<stop offset="0.72" stop-color="#F6DE50"/>
<stop offset="0.84" stop-color="#F7E14C"/>
<stop offset="0.96" stop-color="#FCED40"/>
<stop offset="1" stop-color="#FFF33B"/>
</linearGradient>
<linearGradient id="paint20_linear_3149_8500" x1="828.728" y1="32.1872" x2="828.728" y2="114.898" gradientUnits="userSpaceOnUse">
<stop stop-color="#FFF33B"/>
<stop offset="0.04" stop-color="#FCED40"/>
<stop offset="0.16" stop-color="#F7E14C"/>
<stop offset="0.28" stop-color="#F6DE50"/>
<stop offset="0.67" stop-color="#9A5724"/>
<stop offset="0.89" stop-color="#B4792E"/>
</linearGradient>
<linearGradient id="paint21_linear_3149_8500" x1="913.388" y1="2.42923" x2="913.388" y2="115.388" gradientUnits="userSpaceOnUse">
<stop stop-color="#FFF33B"/>
<stop offset="0.04" stop-color="#FCED40"/>
<stop offset="0.16" stop-color="#F7E14C"/>
<stop offset="0.28" stop-color="#F6DE50"/>
<stop offset="0.67" stop-color="#9A5724"/>
<stop offset="0.89" stop-color="#B4792E"/>
</linearGradient>
<linearGradient id="paint22_linear_3149_8500" x1="913.388" y1="112.959" x2="913.388" y2="4.85846" gradientUnits="userSpaceOnUse">
<stop offset="0.11" stop-color="#B4792E"/>
<stop offset="0.33" stop-color="#9A5724"/>
<stop offset="0.72" stop-color="#F6DE50"/>
<stop offset="0.84" stop-color="#F7E14C"/>
<stop offset="0.96" stop-color="#FCED40"/>
<stop offset="1" stop-color="#FFF33B"/>
</linearGradient>
<linearGradient id="paint23_linear_3149_8500" x1="987.235" y1="29.4058" x2="987.235" y2="117.093" gradientUnits="userSpaceOnUse">
<stop offset="0.11" stop-color="#B4792E"/>
<stop offset="0.33" stop-color="#9A5724"/>
<stop offset="0.72" stop-color="#F6DE50"/>
<stop offset="0.84" stop-color="#F7E14C"/>
<stop offset="0.96" stop-color="#FCED40"/>
<stop offset="1" stop-color="#FFF33B"/>
</linearGradient>
<linearGradient id="paint24_linear_3149_8500" x1="987.783" y1="31.7158" x2="987.783" y2="115.035" gradientUnits="userSpaceOnUse">
<stop stop-color="#FFF33B"/>
<stop offset="0.04" stop-color="#FCED40"/>
<stop offset="0.16" stop-color="#F7E14C"/>
<stop offset="0.28" stop-color="#F6DE50"/>
<stop offset="0.67" stop-color="#9A5724"/>
<stop offset="0.89" stop-color="#B4792E"/>
</linearGradient>
<linearGradient id="paint25_linear_3149_8500" x1="1103.48" y1="29.8749" x2="1103.48" y2="133" gradientUnits="userSpaceOnUse">
<stop offset="0.11" stop-color="#B4792E"/>
<stop offset="0.33" stop-color="#9A5724"/>
<stop offset="0.72" stop-color="#F6DE50"/>
<stop offset="0.84" stop-color="#F7E14C"/>
<stop offset="0.96" stop-color="#FCED40"/>
<stop offset="1" stop-color="#FFF33B"/>
</linearGradient>
<linearGradient id="paint26_linear_3149_8500" x1="1103.78" y1="32.1872" x2="1103.78" y2="129.963" gradientUnits="userSpaceOnUse">
<stop stop-color="#FFF33B"/>
<stop offset="0.04" stop-color="#FCED40"/>
<stop offset="0.16" stop-color="#F7E14C"/>
<stop offset="0.28" stop-color="#F6DE50"/>
<stop offset="0.67" stop-color="#9A5724"/>
<stop offset="0.89" stop-color="#B4792E"/>
</linearGradient>
<linearGradient id="paint27_linear_3149_8500" x1="1216.49" y1="29.4058" x2="1216.49" y2="117.093" gradientUnits="userSpaceOnUse">
<stop offset="0.11" stop-color="#B4792E"/>
<stop offset="0.33" stop-color="#9A5724"/>
<stop offset="0.72" stop-color="#F6DE50"/>
<stop offset="0.84" stop-color="#F7E14C"/>
<stop offset="0.96" stop-color="#FCED40"/>
<stop offset="1" stop-color="#FFF33B"/>
</linearGradient>
<linearGradient id="paint28_linear_3149_8500" x1="1216.74" y1="31.7158" x2="1216.74" y2="115.035" gradientUnits="userSpaceOnUse">
<stop stop-color="#FFF33B"/>
<stop offset="0.04" stop-color="#FCED40"/>
<stop offset="0.16" stop-color="#F7E14C"/>
<stop offset="0.28" stop-color="#F6DE50"/>
<stop offset="0.67" stop-color="#9A5724"/>
<stop offset="0.89" stop-color="#B4792E"/>
</linearGradient>
<linearGradient id="paint29_linear_3149_8500" x1="1312.45" y1="29.758" x2="1312.45" y2="133" gradientUnits="userSpaceOnUse">
<stop offset="0.11" stop-color="#B4792E"/>
<stop offset="0.33" stop-color="#9A5724"/>
<stop offset="0.72" stop-color="#F6DE50"/>
<stop offset="0.84" stop-color="#F7E14C"/>
<stop offset="0.96" stop-color="#FCED40"/>
<stop offset="1" stop-color="#FFF33B"/>
</linearGradient>
<linearGradient id="paint30_linear_3149_8500" x1="1311.84" y1="32.0703" x2="1311.84" y2="129.963" gradientUnits="userSpaceOnUse">
<stop stop-color="#FFF33B"/>
<stop offset="0.04" stop-color="#FCED40"/>
<stop offset="0.16" stop-color="#F7E14C"/>
<stop offset="0.28" stop-color="#F6DE50"/>
<stop offset="0.67" stop-color="#9A5724"/>
<stop offset="0.89" stop-color="#B4792E"/>
</linearGradient>
<linearGradient id="paint31_linear_3149_8500" x1="1390.12" y1="2.42923" x2="1390.12" y2="115.388" gradientUnits="userSpaceOnUse">
<stop stop-color="#FFF33B"/>
<stop offset="0.04" stop-color="#FCED40"/>
<stop offset="0.16" stop-color="#F7E14C"/>
<stop offset="0.28" stop-color="#F6DE50"/>
<stop offset="0.67" stop-color="#9A5724"/>
<stop offset="0.89" stop-color="#B4792E"/>
</linearGradient>
<linearGradient id="paint32_linear_3149_8500" x1="1390.12" y1="112.959" x2="1390.12" y2="4.85846" gradientUnits="userSpaceOnUse">
<stop offset="0.11" stop-color="#B4792E"/>
<stop offset="0.33" stop-color="#9A5724"/>
<stop offset="0.72" stop-color="#F6DE50"/>
<stop offset="0.84" stop-color="#F7E14C"/>
<stop offset="0.96" stop-color="#FCED40"/>
<stop offset="1" stop-color="#FFF33B"/>
</linearGradient>
</defs>
</svg>
