<svg width="1084" height="159" viewBox="0 0 1084 159" fill="none" xmlns="http://www.w3.org/2000/svg">
<path d="M0.574219 138.119V15.1152H90.3207V35.7086H38.4208V66.3205H78.4937V86.9138H38.4208V138.119H0.574219Z" fill="url(#paint0_linear_3136_6378)"/>
<path d="M35.6383 135.337H3.35742V17.8984H87.6774V32.9261H35.7775V69.2429H75.8503V84.1313H35.7775V135.337H35.6383Z" fill="url(#paint1_linear_3136_6378)"/>
<path d="M130.951 140.206C124.133 140.206 118.01 139.093 112.862 136.728C107.714 134.501 103.261 131.301 99.7828 127.127C96.3043 123.092 93.7997 118.222 91.9909 112.656C90.3212 107.229 89.4863 101.246 89.4863 94.7061C89.4863 90.2535 89.9038 85.6616 90.5995 80.9307C91.2952 76.1998 92.4083 71.4689 93.7997 66.738C95.1911 62.0071 96.8608 57.4153 98.948 52.6843C100.896 48.0926 103.261 43.64 105.766 39.4656L106.601 38.0742H132.203L130.951 41.6919C129.559 45.7271 128.446 49.9015 127.333 54.2149C126.359 58.5284 125.385 62.9811 124.689 67.2946C123.994 71.6081 123.437 75.9215 123.02 80.0959C122.602 84.2702 122.463 88.0271 122.463 91.6449C122.463 93.7321 122.463 95.9584 122.741 98.1847C122.88 100.55 123.298 102.776 123.715 105.142C124.133 107.368 124.828 109.595 125.663 111.682C126.498 113.63 127.472 115.439 128.724 116.83C129.837 118.222 131.229 119.335 133.038 120.17C134.707 121.004 136.655 121.422 139.021 121.422C141.386 121.422 143.195 121.004 145.004 119.891C146.813 118.778 148.482 117.387 149.874 115.717C151.265 113.908 152.657 111.821 153.631 109.595C154.744 107.229 155.579 104.725 156.274 102.081C156.97 99.5761 157.527 96.9324 157.805 94.5669C158.083 92.0623 158.362 89.9751 158.362 88.0271V38.0742H191.477V137.841H176.45L165.597 119.056C164.484 121.144 163.232 122.952 161.84 124.761C159.475 127.962 156.692 130.605 153.631 132.971C150.57 135.197 147.091 137.006 143.195 138.258C139.438 139.511 135.264 140.067 130.951 140.067V140.206Z" fill="url(#paint2_linear_3136_6378)"/>
<path d="M92.2695 94.9842C92.2695 90.6707 92.687 86.2181 93.3827 81.6263C94.0784 77.0345 95.1915 72.4428 96.5829 67.7118C97.9743 62.9809 99.6441 58.5283 101.592 54.0756C103.54 49.623 105.766 45.3096 108.132 41.1353H128.307C126.916 45.1705 125.803 49.4839 124.69 53.9366C123.576 58.3892 122.742 62.8418 122.046 67.2944C121.35 71.7471 120.794 76.0605 120.376 80.2349C119.959 84.4092 119.82 88.4444 119.82 92.0622C119.82 94.1493 119.82 96.5148 120.098 98.8802C120.376 101.246 120.654 103.75 121.072 106.116C121.489 108.481 122.185 110.847 123.159 113.073C124.133 115.299 125.246 117.247 126.638 118.917C128.029 120.587 129.838 121.978 131.786 122.952C133.734 123.926 136.238 124.483 139.021 124.483C141.804 124.483 144.169 123.926 146.257 122.674C148.344 121.422 150.292 119.891 151.961 117.804C153.631 115.717 155.022 113.49 156.136 110.986C157.249 108.481 158.223 105.838 158.918 103.055C159.614 100.272 160.171 97.7671 160.588 95.1234C161.006 92.4796 161.145 90.2533 161.145 88.1661V40.9961H188.695V135.197H178.12L165.458 113.212C163.928 116.83 161.98 120.169 159.753 123.091C157.527 126.014 154.883 128.657 152.101 130.744C149.318 132.832 145.978 134.501 142.5 135.614C139.021 136.728 135.264 137.284 131.09 137.284C124.55 137.284 118.846 136.171 114.115 134.084C109.384 131.997 105.21 129.075 102.009 125.318C98.8092 121.561 96.4438 117.108 94.7741 111.96C93.1044 106.812 92.4087 101.107 92.4087 94.845L92.2695 94.9842Z" fill="url(#paint3_linear_3136_6378)"/>
<path d="M262.301 150.782L263.693 148.277C265.084 145.633 266.475 142.711 267.728 139.511C268.98 136.172 270.093 132.693 271.206 129.075C272.18 125.318 273.154 121.561 273.989 117.526C274.824 113.491 275.52 109.595 276.076 105.699C276.633 101.803 277.05 98.0458 277.328 94.428C277.607 90.8103 277.746 87.3317 277.746 84.2705C277.746 82.1833 277.746 79.957 277.468 77.5915C277.328 75.3652 277.05 72.9998 276.494 70.7735C276.076 68.5471 275.38 66.3208 274.546 64.2336C273.85 62.2856 272.737 60.6159 271.624 59.2244C270.371 57.833 268.98 56.7199 267.31 55.885C265.641 55.0501 263.693 54.6326 261.327 54.6326C258.962 54.6326 257.153 55.0501 255.483 56.0242C253.674 57.1373 252.005 58.5287 250.613 60.1984C249.083 62.0073 247.83 64.0946 246.856 66.46C245.743 68.8255 244.908 71.33 244.213 73.9737C243.517 76.4783 242.96 78.983 242.682 81.4876C242.404 83.9922 242.265 86.2185 242.265 88.1665V138.119H209.01V38.3527H224.037L234.89 57.1372C236.003 55.1892 237.256 53.2412 238.647 51.4324C241.012 48.232 243.934 45.4491 246.995 43.2228C250.057 40.9965 253.535 39.1876 257.431 37.9353C261.188 36.683 265.362 36.1265 269.676 36.1265C276.494 36.1265 282.616 37.2396 287.764 39.6051C292.912 41.8314 297.365 45.1708 300.843 49.206C304.322 53.2412 306.826 58.1113 308.496 63.6771C310.166 69.1037 311.001 75.0869 311.001 81.4876C311.001 87.8882 310.166 94.9846 308.635 101.942C307.105 108.899 304.879 115.995 301.957 122.674C299.174 129.492 295.695 135.893 291.799 141.876C287.764 147.86 283.451 153.147 278.581 157.461L277.05 158.852L262.579 150.921L262.301 150.782Z" fill="url(#paint4_linear_3136_6378)"/>
<path d="M307.939 81.3483C307.939 87.749 307.104 94.2888 305.574 101.246C304.043 108.203 301.817 114.882 299.034 121.561C296.251 128.24 292.912 134.362 289.155 140.206C285.398 146.051 281.085 151.06 276.493 155.373L266.196 149.807C267.727 147.025 269.118 144.103 270.371 140.624C271.623 137.145 272.875 133.667 273.849 129.91C274.823 126.153 275.797 122.257 276.771 118.222C277.745 114.186 278.302 110.151 278.858 106.255C279.415 102.359 279.832 98.4631 280.111 94.7062C280.389 90.9493 280.528 87.4707 280.528 84.2704C280.528 82.1832 280.528 79.8177 280.25 77.4522C279.971 75.0867 279.693 72.5822 279.276 70.2167C278.858 67.8513 278.023 65.4858 277.189 63.2595C276.354 61.0332 275.101 59.0852 273.71 57.4154C272.319 55.7457 270.51 54.3542 268.423 53.3802C266.336 52.4062 263.97 51.8496 261.187 51.8496C258.404 51.8496 256.039 52.4062 253.952 53.6585C251.865 54.9108 249.917 56.4414 248.386 58.5286C246.856 60.6158 245.325 62.8421 244.212 65.3467C243.099 67.8513 242.125 70.495 241.29 73.2779C240.455 76.0608 240.038 78.5654 239.759 81.2092C239.481 83.8529 239.203 86.2184 239.203 88.1664V135.336H211.514V41.1355H222.088L234.75 63.1203C236.281 59.5026 238.229 56.1631 240.455 53.2411C242.681 50.319 245.325 47.6753 248.247 45.5882C251.169 43.501 254.369 41.8312 257.848 40.718C261.326 39.6049 265.083 39.0483 269.258 39.0483C275.797 39.0483 281.502 40.1614 286.233 42.2486C290.964 44.3358 295.138 47.2578 298.338 51.1539C301.538 55.0499 303.904 59.3634 305.574 64.6509C307.243 69.9384 307.939 75.5042 307.939 81.6266V81.3483Z" fill="url(#paint5_linear_3136_6378)"/>
<path d="M366.518 140.206C359.004 140.206 352.186 138.815 346.064 136.171C340.081 133.528 334.933 129.771 330.759 125.04C326.584 120.309 323.384 114.743 321.297 108.482C319.071 102.22 318.097 95.402 318.097 88.3056C318.097 81.2092 319.21 74.391 321.297 68.1295C323.523 61.868 326.723 56.3023 330.759 51.5714C334.933 46.8405 340.081 43.2227 346.064 40.4398C352.047 37.796 358.865 36.4046 366.518 36.4046C372.362 36.4046 377.928 37.5177 382.798 39.8832C385.58 41.1355 388.224 42.9444 390.59 45.0316V3.56641H423.705V137.98H408.678L398.382 120.865C397.547 122.535 396.434 124.205 395.32 125.735C393.094 128.657 390.45 131.301 387.528 133.388C384.606 135.476 381.267 137.145 377.789 138.398C374.171 139.511 370.414 140.206 366.518 140.206ZM370.971 55.1891C368.327 55.1891 365.961 55.6065 364.153 56.5805C362.205 57.5545 360.535 58.8069 359.144 60.3375C357.752 62.0072 356.5 63.9552 355.526 66.0423C354.552 68.2687 353.717 70.7733 353.16 73.2779C352.604 75.7825 352.186 78.4262 351.908 80.9308C351.63 83.5746 351.491 85.9401 351.491 88.3056C351.491 90.671 351.491 93.0365 351.908 95.6802C352.186 98.1848 352.604 100.829 353.16 103.333C353.717 105.838 354.552 108.203 355.526 110.569C356.5 112.795 357.613 114.743 359.144 116.413C360.535 117.943 362.205 119.335 364.153 120.17C366.101 121.144 368.327 121.561 370.971 121.561C373.614 121.561 375.98 121.144 377.928 120.17C379.876 119.196 381.685 117.943 383.076 116.413C384.467 114.743 385.72 112.795 386.694 110.708C387.668 108.482 388.502 106.116 389.059 103.611C389.616 100.968 390.033 98.463 390.311 95.8193C390.59 93.1755 390.729 90.671 390.729 88.3056C390.729 86.2184 390.59 83.992 390.311 81.4874C390.033 78.9828 389.476 76.4782 388.781 73.9736C388.085 71.469 387.25 68.9644 386.137 66.7381C385.163 64.5118 383.772 62.4246 382.38 60.7549C380.989 59.0851 379.319 57.6937 377.371 56.7197C375.562 55.7457 373.475 55.3282 371.11 55.3282L370.971 55.1891Z" fill="url(#paint6_linear_3136_6378)"/>
<path d="M420.922 135.336H410.348L398.103 114.882C396.851 118.361 395.32 121.422 393.233 124.205C391.146 126.988 388.781 129.353 385.998 131.301C383.215 133.249 380.293 134.78 376.954 135.893C373.614 137.006 370.136 137.563 366.518 137.563C359.283 137.563 352.882 136.31 347.316 133.667C341.751 131.023 336.881 127.683 332.985 123.231C329.089 118.778 326.028 113.63 324.08 107.647C322.132 101.663 321.019 95.2626 321.019 88.4445C321.019 81.6264 321.993 75.2258 324.08 69.2426C326.167 63.2593 329.089 58.1109 332.985 53.6583C336.881 49.2057 341.612 45.7271 347.316 43.2225C353.021 40.7179 359.422 39.3264 366.518 39.3264C371.944 39.3264 377.093 40.4396 381.684 42.5268C386.276 44.614 390.172 47.9534 393.511 52.4061V6.48828H421.062V135.336H420.922ZM393.233 88.3054C393.233 86.0791 393.094 83.7136 392.677 81.0698C392.259 78.4261 391.842 75.7823 391.146 73.1386C390.45 70.4948 389.476 67.8511 388.363 65.3465C387.25 62.8419 385.859 60.6156 384.189 58.6675C382.519 56.7195 380.571 55.189 378.345 53.9367C376.119 52.6844 373.614 52.1277 370.831 52.1277C367.77 52.1277 364.987 52.6843 362.761 53.7975C360.535 54.9107 358.587 56.4412 356.917 58.2501C355.247 60.059 353.995 62.2853 352.882 64.7899C351.769 67.2945 350.934 69.7992 350.377 72.4429C349.821 75.0867 349.403 77.7304 349.125 80.5132C348.847 83.2961 348.708 85.8008 348.708 88.1662C348.708 90.5317 348.708 93.0362 349.125 95.8191C349.543 98.602 349.821 101.246 350.377 103.89C350.934 106.533 351.769 109.177 352.882 111.543C353.995 113.908 355.247 116.134 356.917 118.082C358.587 120.03 360.535 121.422 362.761 122.535C364.987 123.648 367.77 124.205 370.831 124.205C373.892 124.205 376.675 123.648 379.041 122.535C381.406 121.422 383.354 120.03 385.024 118.082C386.693 116.134 388.085 114.047 389.059 111.682C390.033 109.316 391.007 106.672 391.563 104.029C392.12 101.385 392.537 98.6021 392.816 95.9583C393.094 93.3146 393.233 90.6709 393.233 88.1662V88.3054Z" fill="url(#paint7_linear_3136_6378)"/>
<path d="M441.237 138.119V38.3523H456.264L465.587 56.8586C466.561 55.0497 467.535 53.38 468.509 51.8494C470.596 48.6491 473.1 45.8661 475.744 43.6398C478.527 41.2743 481.727 39.4655 485.206 38.2132C488.684 36.9609 492.719 36.2651 497.172 36.2651C499.398 36.2651 501.903 36.4043 504.685 36.8217C507.468 37.2392 510.251 37.7957 512.895 38.7697C515.539 39.7438 518.182 40.8569 520.408 42.3875C522.913 43.9181 524.861 46.0053 526.252 48.2316L527.087 49.623L507.468 82.1829L505.659 76.1997C504.964 74.1125 504.268 71.747 503.155 69.1033C502.181 66.5987 500.929 64.2333 499.537 62.007C498.146 59.9198 496.615 58.1109 494.667 56.7194C492.998 55.4671 491.189 54.9106 488.962 54.9106C487.014 54.9106 485.345 55.328 483.953 56.302C482.423 57.4152 481.031 58.8066 479.918 60.6155C478.805 62.5635 477.692 64.6506 476.996 67.0161C476.161 69.5207 475.605 72.0254 475.187 74.6691C474.77 77.3129 474.492 79.6783 474.353 82.1829C474.213 84.5484 474.074 86.6355 474.074 88.4444V138.397H440.819L441.237 138.119Z" fill="url(#paint8_linear_3136_6378)"/>
<path d="M524.027 49.4842L508.582 75.226C507.886 72.9996 507.051 70.6342 506.077 67.8513C505.103 65.0684 503.712 62.5638 502.181 60.1983C500.651 57.8328 498.842 55.8848 496.755 54.2151C494.668 52.5453 492.163 51.8496 489.38 51.8496C486.876 51.8496 484.649 52.5454 482.701 53.7977C480.753 55.05 479.223 56.8589 477.971 58.9461C476.718 61.0332 475.605 63.3986 474.77 66.0424C473.936 68.6861 473.24 71.3298 472.822 73.9736C472.405 76.6173 471.988 79.2612 471.848 81.7658C471.709 84.2704 471.57 86.3575 471.57 88.1664V135.336H443.881V41.1355H454.456L465.587 63.1203C467.118 59.6417 468.787 56.3023 470.874 53.3802C472.962 50.4582 475.049 47.8144 477.692 45.7272C480.336 43.6401 483.119 41.9703 486.319 40.718C489.519 39.4657 493.276 38.9092 497.311 38.9092C499.398 38.9092 501.764 39.0483 504.408 39.4658C507.051 39.8832 509.556 40.4397 512.06 41.2746C514.565 42.1095 516.93 43.2227 519.017 44.6142C521.105 46.0056 522.774 47.6752 524.027 49.6233V49.4842Z" fill="url(#paint9_linear_3136_6378)"/>
<path d="M573.978 139.928C566.464 139.928 559.646 138.537 553.524 135.893C547.541 133.249 542.393 129.492 538.219 124.762C534.044 120.031 530.844 114.465 528.757 108.203C526.531 101.942 525.557 95.1238 525.557 88.0274C525.557 80.931 526.67 74.1129 528.757 67.8514C530.983 61.5899 534.183 56.0241 538.219 51.2932C542.393 46.5623 547.541 42.8053 553.524 40.1616C559.507 37.5178 566.325 36.1265 573.978 36.1265C577.874 36.1265 581.631 36.683 585.248 37.9353C588.727 39.0485 592.066 40.8574 594.988 42.9445C597.91 45.0317 600.554 47.6754 602.78 50.7366C603.893 52.2672 605.007 53.9369 605.841 55.6066L616.138 38.4919H631.165V138.259H598.05V131.441C595.684 133.528 593.04 135.337 590.258 136.589C585.388 138.954 579.822 140.067 573.978 140.067V139.928ZM578.431 54.7718C575.787 54.7718 573.421 55.1892 571.613 56.1632C569.665 57.1372 567.995 58.3896 566.603 59.9202C565.212 61.5899 563.96 63.5379 562.986 65.6251C562.012 67.8514 561.177 70.356 560.62 72.8607C560.064 75.3653 559.646 78.0089 559.368 80.5135C559.09 83.1573 558.951 85.5227 558.951 87.8882C558.951 90.2537 558.951 92.6192 559.368 95.263C559.646 97.9067 560.064 100.411 560.62 102.916C561.177 105.42 562.012 107.786 562.986 110.151C563.96 112.378 565.073 114.326 566.603 115.856C567.995 117.387 569.665 118.778 571.613 119.613C573.561 120.587 575.787 121.005 578.431 121.005C580.796 121.005 582.883 120.587 584.692 119.613C586.501 118.639 588.17 117.248 589.701 115.578C591.232 113.769 592.484 111.821 593.458 109.595C594.571 107.229 595.406 104.864 596.102 102.359C596.797 99.8547 597.215 97.35 597.632 94.8454C597.91 92.3408 598.05 89.9754 598.05 88.0274C598.05 85.6619 598.049 83.1573 597.632 80.5135C597.354 77.8698 596.936 75.3653 596.38 72.8607C595.823 70.356 594.988 67.9906 594.014 65.7642C593.04 63.6771 591.927 61.729 590.397 60.0593C589.005 58.5287 587.336 57.2764 585.248 56.3024C583.3 55.4675 580.935 54.911 578.291 54.911L578.431 54.7718Z" fill="url(#paint10_linear_3136_6378)"/>
<path d="M628.521 135.336H600.971V124.066C597.771 128.518 593.736 131.858 589.144 133.945C584.553 136.032 579.544 137.145 573.978 137.145C566.743 137.145 560.342 135.893 554.776 133.249C549.211 130.606 544.341 127.266 540.445 122.813C536.549 118.361 533.488 113.212 531.54 107.229C529.592 101.246 528.479 94.8453 528.479 88.0272C528.479 81.2091 529.452 74.8085 531.54 68.8253C533.627 62.8421 536.549 57.6937 540.445 53.2411C544.341 48.7884 549.072 45.3098 554.776 42.8052C560.481 40.3006 566.882 38.9092 573.978 38.9092C577.596 38.9092 581.074 39.4658 584.414 40.579C587.753 41.6921 590.675 43.2226 593.458 45.1706C596.241 47.1187 598.606 49.4842 600.693 52.4062C602.78 55.3283 604.45 58.2503 605.563 61.7289L617.808 41.2746H628.382V135.476L628.521 135.336ZM600.693 88.0272C600.693 85.5226 600.693 83.0181 600.276 80.2352C599.858 77.4523 599.58 74.8085 599.023 72.1648C598.467 69.521 597.632 67.0164 596.519 64.5118C595.406 62.0071 594.153 59.92 592.484 58.1111C590.814 56.3022 588.866 54.7716 586.501 53.6585C584.135 52.5453 581.492 51.9888 578.291 51.9888C575.091 51.9888 572.447 52.5453 570.221 53.6585C567.995 54.7716 566.047 56.3022 564.377 58.1111C562.707 59.92 561.455 62.1463 560.342 64.6509C559.229 67.1555 558.394 69.6602 557.837 72.3039C557.281 74.9477 556.863 77.5914 556.585 80.3743C556.307 83.1572 556.168 85.6618 556.168 88.0272C556.168 90.3927 556.168 93.0365 556.585 95.6802C557.003 98.324 557.281 101.107 557.837 103.751C558.394 106.394 559.229 109.038 560.342 111.404C561.455 113.769 562.707 115.995 564.377 117.943C566.047 119.891 567.995 121.283 570.221 122.396C572.447 123.509 575.23 124.066 578.291 124.066C581.074 124.066 583.579 123.509 585.805 122.257C588.031 121.005 589.979 119.474 591.649 117.526C593.319 115.578 594.71 113.352 595.823 110.847C596.936 108.342 597.91 105.699 598.606 103.055C599.302 100.411 599.858 97.7674 600.137 95.1236C600.415 92.4799 600.693 90.1144 600.693 87.8881V88.0272Z" fill="url(#paint11_linear_3136_6378)"/>
<path d="M648.697 138.119V38.4914H681.952V138.119H648.697ZM665.255 36.265C662.75 36.265 660.524 35.8476 658.298 34.8736C656.211 33.8996 654.263 32.6473 652.732 31.1167C651.063 29.447 649.81 27.6381 648.975 25.4118C648.001 23.1855 647.584 20.82 647.584 18.4545C647.584 16.0891 648.001 13.7236 648.975 11.4973C649.949 9.41013 651.202 7.46208 652.732 5.93149C654.402 4.4009 656.211 3.0095 658.298 2.17463C660.524 1.20062 662.75 0.783203 665.255 0.783203C667.76 0.783203 669.986 1.20062 672.212 2.17463C674.438 3.14864 676.247 4.4009 677.917 5.93149C679.447 7.60122 680.839 9.41013 681.674 11.4973C682.648 13.7236 683.065 15.9499 683.065 18.4545C683.065 20.9591 682.648 23.1855 681.674 25.4118C680.7 27.6381 679.447 29.447 677.917 31.1167C676.247 32.7865 674.438 34.0387 672.212 34.8736C669.986 35.8476 667.62 36.265 665.255 36.265Z" fill="url(#paint12_linear_3136_6378)"/>
<path d="M680.421 18.3157C680.421 20.4029 680.004 22.351 679.308 24.1599C678.613 25.9688 677.499 27.6385 676.108 29.0299C674.717 30.4214 673.186 31.3953 671.238 32.2302C669.29 33.0651 667.481 33.3434 665.394 33.3434C663.307 33.3434 661.359 32.9259 659.55 32.2302C657.741 31.5345 656.071 30.4214 654.819 29.0299C653.567 27.6385 652.454 26.1079 651.619 24.1599C650.784 22.2119 650.506 20.4029 650.506 18.3157C650.506 16.2286 650.923 14.2806 651.619 12.4717C652.315 10.6628 653.428 8.99311 654.819 7.7408C656.211 6.4885 657.741 5.3753 659.55 4.54043C661.359 3.70556 663.307 3.42725 665.394 3.42725C667.481 3.42725 669.429 3.84471 671.238 4.54043C673.047 5.23615 674.717 6.34936 676.108 7.7408C677.499 9.13225 678.473 10.6628 679.308 12.4717C680.143 14.2806 680.421 16.2286 680.421 18.3157ZM679.169 135.336H651.48V41.2746H679.169V135.336Z" fill="url(#paint13_linear_3136_6378)"/>
<path d="M739.557 139.928C734.687 139.928 730.374 139.65 726.756 138.954C722.999 138.259 719.382 137.285 715.903 135.893C712.425 134.502 709.085 132.693 705.746 130.467C702.406 128.379 698.789 125.736 694.754 122.535L691.971 120.448L713.399 102.916L714.929 105.977C716.181 108.482 717.99 110.708 720.216 112.795C722.443 114.882 724.808 116.83 727.313 118.361C729.678 119.892 732.044 121.005 734.409 121.84C737.053 122.814 738.583 122.953 739.418 122.953C740.67 122.953 742.062 122.953 743.453 122.953C744.984 122.953 746.514 122.674 748.045 122.535C749.575 122.257 750.967 121.979 752.497 121.561C753.75 121.144 755.002 120.587 755.976 119.892C756.811 119.335 757.507 118.5 758.063 117.665C758.481 116.83 758.759 115.717 758.759 114.465C758.759 113.213 758.481 112.099 757.785 111.125C757.089 110.012 755.976 109.038 754.863 108.203C753.471 107.369 751.941 106.534 750.271 105.838C748.323 105.142 746.514 104.586 744.566 104.029C742.618 103.472 740.81 103.055 739.001 102.638C737.053 102.22 735.383 101.803 733.992 101.385L726.06 99.2981C723.278 98.6023 720.356 97.6284 717.573 96.6544C714.651 95.6804 712.007 94.428 709.363 93.0366C706.72 91.6452 704.215 89.8362 702.267 87.8882C700.18 85.801 698.371 83.4356 697.119 80.6527C695.867 77.8698 695.171 74.5304 695.171 70.7735C695.171 64.2337 696.562 58.5287 699.206 54.076C701.85 49.6234 705.328 46.0057 709.642 43.2228C713.816 40.579 718.686 38.6311 724.112 37.6571C729.261 36.5439 734.687 35.9873 740.114 35.9873C743.871 35.9873 747.906 36.4048 751.941 37.1005C756.115 37.7962 760.15 39.0485 764.046 40.4399C767.942 41.9705 771.699 43.7794 775.038 46.0057C778.517 48.2321 781.439 50.8757 783.804 53.6586L785.613 55.7458L764.324 73.1389L762.933 69.5211C761.82 66.5991 760.428 63.9554 758.759 62.0074C756.95 59.9202 755.141 58.1113 753.054 56.859C750.967 55.4676 749.019 54.4936 746.932 53.937C744.845 53.3804 742.897 52.963 741.227 52.963C739.279 52.963 737.192 52.9629 734.826 53.2412C732.6 53.3804 730.513 53.7978 728.704 54.4936C726.895 55.0502 725.504 56.0241 724.252 57.2764C723.278 58.2504 722.86 59.781 722.86 61.729C722.86 63.1205 723.138 64.2337 723.695 65.2077C724.391 66.3208 725.365 67.2948 726.478 67.9905C727.73 68.8254 729.261 69.6603 730.93 70.2169C732.739 70.9126 734.548 71.4692 736.496 71.8867C738.444 72.4432 740.253 72.8606 742.062 73.1389C744.01 73.5563 745.679 73.9738 747.21 74.3913C749.715 75.087 752.358 75.7826 755.141 76.4784C758.063 77.1741 760.846 78.1481 763.629 79.1221C766.412 80.0961 769.194 81.2093 771.838 82.6007C774.621 83.9922 777.126 85.8011 779.213 87.7491C781.3 89.8363 783.109 92.3409 784.361 95.1238C785.613 97.9067 786.309 101.246 786.309 105.003C786.309 109.456 785.613 113.491 784.361 116.97C783.109 120.448 781.3 123.648 778.934 126.153C776.708 128.797 773.925 130.884 770.864 132.693C767.942 134.363 764.603 135.754 761.263 136.867C757.924 137.841 754.306 138.676 750.689 139.093C747.071 139.511 743.453 139.789 739.835 139.789L739.557 139.928Z" fill="url(#paint14_linear_3136_6378)"/>
<path d="M783.247 105.142C783.247 109.316 782.691 112.934 781.439 116.135C780.186 119.335 778.656 122.118 776.569 124.483C774.481 126.849 772.116 128.797 769.194 130.466C766.272 132.136 763.35 133.388 760.15 134.362C756.95 135.336 753.471 136.032 749.992 136.45C746.514 136.867 742.896 137.145 739.418 137.145C734.687 137.145 730.652 136.867 727.034 136.31C723.416 135.754 720.077 134.78 716.738 133.388C713.398 131.997 710.198 130.327 706.998 128.24C703.797 126.153 700.18 123.509 696.145 120.448L712.146 107.368C713.676 110.151 715.624 112.656 717.99 114.882C720.355 117.108 722.86 119.056 725.503 120.726C728.147 122.396 730.652 123.648 733.017 124.483C735.383 125.318 737.47 125.735 739 125.735C740.253 125.735 741.644 125.735 743.174 125.735C744.705 125.735 746.375 125.457 748.044 125.179C749.714 124.901 751.245 124.622 752.914 124.066C754.584 123.509 755.836 122.953 757.089 122.118C758.341 121.283 759.315 120.17 760.011 118.917C760.706 117.665 761.124 116.134 761.124 114.326C761.124 112.517 760.706 110.847 759.732 109.456C758.758 108.064 757.506 106.812 755.976 105.838C754.445 104.864 752.775 103.89 750.688 103.194C748.601 102.498 746.792 101.803 744.844 101.385C742.896 100.968 740.948 100.411 739.139 99.9937C737.331 99.5762 735.661 99.1588 734.269 98.8805C731.765 98.1848 729.121 97.4891 726.338 96.6542C723.555 95.8194 720.773 95.1236 718.129 94.1496C715.485 93.1756 712.842 92.0625 710.337 90.8102C707.832 89.5579 705.745 87.8881 703.797 86.0792C701.849 84.2703 700.458 82.044 699.345 79.6786C698.232 77.3131 697.675 74.2519 697.675 71.0516C697.675 64.9292 698.927 59.92 701.293 55.7457C703.658 51.5713 706.858 48.371 710.894 45.8664C714.929 43.3618 719.381 41.6921 724.39 40.5789C729.399 39.4658 734.548 39.0483 739.835 39.0483C743.453 39.0483 747.21 39.4657 751.106 40.1614C755.002 40.8571 758.897 41.9703 762.654 43.3618C766.411 44.7532 769.89 46.5621 773.229 48.6493C776.569 50.7364 779.212 53.1019 781.439 55.7457L765.437 68.9645C764.185 65.7641 762.654 62.842 760.706 60.6157C758.758 58.3894 756.671 56.3023 754.445 54.9108C752.219 53.5194 749.853 52.2671 747.488 51.5714C745.122 50.8757 742.896 50.4582 740.948 50.4582C739 50.4582 736.774 50.4582 734.409 50.7364C732.043 51.0147 729.678 51.293 727.451 52.1279C725.225 52.9627 723.416 54.0759 722.025 55.6065C720.634 57.1371 719.799 59.2243 719.799 62.0072C719.799 63.9553 720.216 65.6249 721.19 67.0163C722.164 68.4078 723.277 69.6601 724.669 70.6341C726.06 71.6082 727.869 72.443 729.678 73.1387C731.487 73.8345 733.435 74.391 735.383 74.9476C737.331 75.5042 739.278 75.9217 741.087 76.3391C742.896 76.7566 744.566 77.1739 746.096 77.5914C748.601 78.2871 751.245 78.9829 754.028 79.8177C756.81 80.6526 759.593 81.3483 762.237 82.3223C764.881 83.2964 767.524 84.4095 770.168 85.6618C772.812 86.9141 774.899 88.4446 776.847 90.3927C778.795 92.3407 780.325 94.4279 781.439 96.9325C782.552 99.4371 783.108 102.359 783.108 105.699L783.247 105.142Z" fill="url(#paint15_linear_3136_6378)"/>
<path d="M844.888 139.928C837.374 139.928 830.417 138.676 824.016 136.171C817.616 133.666 812.05 130.049 807.319 125.457C802.728 120.865 798.971 115.299 796.327 109.038C793.683 102.776 792.292 95.68 792.292 88.1661C792.292 80.6523 793.683 73.6951 796.327 67.2944C798.971 60.8938 802.589 55.4671 807.319 50.8754C811.911 46.2836 817.616 42.6658 824.016 40.1612C830.417 37.6566 837.374 36.4043 844.888 36.4043C848.505 36.4043 852.123 36.6826 855.88 37.1001C859.637 37.6566 863.393 38.4915 866.872 39.4655C870.49 40.5787 873.968 41.9701 877.029 43.7789C880.369 45.5878 883.291 47.9533 885.656 50.597C888.161 53.2408 890.109 56.4411 891.5 60.0589C892.892 63.6766 893.726 67.7119 893.726 72.3036C893.726 76.478 893.031 80.374 891.639 83.7135C890.248 87.053 888.439 89.975 885.934 92.4796C883.569 94.9842 880.925 97.0714 877.864 98.7412C874.942 100.411 871.603 101.802 868.263 102.776C864.924 103.889 861.445 104.585 857.828 105.003C854.349 105.42 850.871 105.698 847.531 105.698C843.357 105.698 839.183 105.42 835.009 104.863C832.504 104.446 829.86 104.029 827.356 103.333C827.773 105.142 828.469 106.812 829.025 108.62C830.139 111.542 831.808 114.047 833.756 116.273C835.704 118.36 838.07 120.03 840.853 121.283C843.635 122.535 847.114 123.091 851.01 123.091C853.514 123.091 856.019 122.674 858.384 121.978C860.75 121.143 862.837 120.169 864.785 118.639C866.733 117.247 868.403 115.578 869.933 113.63C871.464 111.682 872.716 109.455 873.551 107.09L874.525 104.585L891.778 110.986L890.665 113.63C888.717 118.221 886.074 122.257 882.734 125.596C879.395 128.936 875.638 131.718 871.464 133.806C867.289 135.893 862.837 137.563 858.245 138.537C853.654 139.511 849.062 140.067 844.47 140.067L844.888 139.928ZM825.686 88.3053C828.33 88.8619 831.113 89.2793 833.756 89.6967C836.957 90.1142 840.296 90.2533 843.635 90.2533C846.975 90.2533 850.175 89.975 852.958 89.2793C855.602 88.7227 857.967 87.7487 859.915 86.3573C861.863 84.9658 863.254 83.296 864.367 81.0697C865.481 78.8434 866.037 75.9214 866.037 72.3036C866.037 69.3816 865.62 66.7379 864.924 64.3724C864.228 62.1461 863.115 60.0589 861.585 58.5284C860.193 56.9978 858.384 55.7454 856.297 54.7714C854.21 53.7974 851.566 53.38 848.644 53.38C846.001 53.38 843.496 53.9365 841.409 54.7714C839.322 55.7454 837.374 57.1369 835.704 58.8066C834.035 60.4763 832.504 62.5635 831.391 64.929C830.139 67.2945 829.165 69.7991 828.33 72.4428C827.495 75.0866 826.938 77.7303 826.521 80.3741C826.103 83.0178 825.964 85.6615 825.964 88.027L825.686 88.3053Z" fill="url(#paint16_linear_3136_6378)"/>
<path d="M891.222 72.0256C891.222 75.9217 890.665 79.2612 889.413 82.3224C888.161 85.3836 886.491 88.0273 884.265 90.2537C882.038 92.48 879.673 94.428 876.751 96.0977C873.829 97.7674 870.907 99.0197 867.707 99.9937C864.507 100.968 861.167 101.664 857.828 102.22C854.488 102.777 851.149 102.916 847.949 102.916C843.914 102.916 839.878 102.638 835.843 102.081C831.808 101.524 827.912 100.55 824.155 99.298C824.712 102.916 825.686 106.255 827.077 109.595C828.469 112.934 830.139 115.717 832.365 118.083C834.591 120.448 837.235 122.396 840.435 123.787C843.635 125.179 847.392 125.875 851.706 125.875C854.627 125.875 857.271 125.457 859.915 124.622C862.559 123.788 864.924 122.535 867.15 121.005C869.377 119.474 871.185 117.526 872.855 115.439C874.525 113.352 875.916 110.847 876.89 108.203L888.856 112.656C887.048 116.969 884.543 120.726 881.482 123.787C878.421 126.849 874.803 129.492 870.907 131.58C867.011 133.667 862.837 135.058 858.384 136.171C853.932 137.284 849.618 137.702 845.166 137.702C837.93 137.702 831.391 136.45 825.269 134.084C819.146 131.719 813.998 128.24 809.546 123.927C805.093 119.613 801.754 114.326 799.249 108.342C796.744 102.359 795.492 95.6803 795.492 88.5839C795.492 81.4875 796.744 74.8086 799.249 68.8254C801.754 62.8421 805.232 57.5546 809.546 53.2411C813.859 48.9276 819.146 45.4491 825.269 43.0836C831.391 40.7182 837.93 39.4658 845.166 39.4658C848.644 39.4658 852.262 39.744 855.88 40.1615C859.497 40.5789 863.115 41.4139 866.455 42.527C869.794 43.6402 873.133 44.8924 876.194 46.7013C879.256 48.5102 881.899 50.4583 884.126 52.9629C886.352 55.4675 888.161 58.2503 889.552 61.5898C890.944 64.9292 891.5 68.5471 891.5 72.7214L891.222 72.0256ZM823.321 90.5319C826.66 91.2276 829.999 91.9233 833.478 92.3407C836.956 92.7582 840.296 93.0365 843.635 93.0365C846.975 93.0365 850.592 92.7582 853.653 92.0625C856.715 91.3668 859.358 90.2536 861.585 88.5839C863.811 86.9141 865.62 84.827 866.872 82.1832C868.124 79.5395 868.82 76.2 868.82 72.304C868.82 69.1036 868.403 66.1815 867.568 63.5378C866.733 60.894 865.341 58.5286 863.672 56.7197C862.002 54.9109 859.915 53.3803 857.41 52.2671C854.906 51.1539 851.984 50.7365 848.644 50.7365C845.583 50.7365 842.8 51.2931 840.296 52.4063C837.791 53.5194 835.704 55.0501 833.756 56.9981C831.808 58.9461 830.278 61.1724 828.886 63.677C827.495 66.1816 826.521 68.9645 825.547 71.6082C824.573 74.252 824.016 77.174 823.738 79.9569C823.46 82.7398 823.181 85.3835 823.181 87.8881V89.1405C823.181 89.1405 823.181 89.9753 823.181 90.3927L823.321 90.5319Z" fill="url(#paint17_linear_3136_6378)"/>
<path d="M905.693 138.119V38.3523H920.72L930.043 56.8586C931.017 55.0497 931.991 53.38 932.965 51.8494C935.052 48.6491 937.556 45.8661 940.2 43.6398C942.983 41.2743 946.183 39.4655 949.662 38.2132C953.14 36.9609 957.175 36.2651 961.628 36.2651C963.854 36.2651 966.359 36.4043 969.142 36.8217C971.924 37.2392 974.707 37.7957 977.351 38.7697C979.995 39.7438 982.638 40.8569 984.865 42.3875C987.369 43.9181 989.317 46.0053 990.708 48.2316L991.543 49.623L971.924 82.1829L970.116 76.1997C969.42 74.1125 968.724 71.747 967.611 69.1033C966.637 66.5987 965.385 64.2333 963.993 62.007C962.602 59.9198 961.071 58.1109 959.123 56.7194C957.454 55.4671 955.645 54.9106 953.418 54.9106C951.47 54.9106 949.801 55.328 948.409 56.302C946.879 57.4152 945.487 58.8066 944.374 60.6155C943.261 62.5635 942.148 64.6506 941.452 67.0161C940.617 69.5207 940.061 72.0254 939.643 74.6691C939.226 77.3129 938.948 79.6783 938.809 82.1829C938.669 84.5484 938.53 86.6355 938.53 88.4444V138.397H905.275L905.693 138.119Z" fill="url(#paint18_linear_3136_6378)"/>
<path d="M988.482 49.4842L973.037 75.226C972.341 72.9996 971.506 70.6342 970.532 67.8513C969.558 65.0684 968.167 62.5638 966.636 60.1983C965.106 57.8328 963.297 55.8848 961.21 54.2151C959.123 52.5453 956.618 51.8496 953.835 51.8496C951.331 51.8496 949.105 52.5454 947.157 53.7977C945.209 55.05 943.678 56.8589 942.426 58.9461C941.173 61.0332 940.06 63.3986 939.225 66.0424C938.391 68.6861 937.695 71.3298 937.277 73.9736C936.86 76.6173 936.443 79.2612 936.303 81.7658C936.164 84.2704 936.025 86.3575 936.025 88.1664V135.336H908.336V41.1355H918.911L930.042 63.1203C931.573 59.6417 933.242 56.3023 935.329 53.3802C937.417 50.4582 939.504 47.8144 942.147 45.7272C944.791 43.6401 947.574 41.9703 950.774 40.718C953.975 39.4657 957.731 38.9092 961.766 38.9092C963.853 38.9092 966.219 39.0483 968.863 39.4658C971.506 39.8832 974.011 40.4397 976.515 41.2746C979.02 42.1095 981.385 43.2227 983.473 44.6142C985.56 46.0056 987.229 47.6752 988.482 49.6233V49.4842Z" fill="url(#paint19_linear_3136_6378)"/>
<path d="M1037.18 139.928C1032.31 139.928 1028 139.65 1024.38 138.954C1020.62 138.259 1017.01 137.285 1013.53 135.893C1010.05 134.502 1006.71 132.693 1003.37 130.467C1000.03 128.379 996.413 125.736 992.378 122.535L989.595 120.448L1011.02 102.916L1012.55 105.977C1013.81 108.482 1015.61 110.708 1017.84 112.795C1020.07 114.882 1022.43 116.83 1024.94 118.361C1027.3 119.892 1029.67 121.005 1032.03 121.84C1034.68 122.814 1036.21 122.953 1037.04 122.953C1038.29 122.953 1039.69 122.953 1041.08 122.953C1042.61 122.953 1044.14 122.674 1045.67 122.535C1047.2 122.257 1048.59 121.979 1050.12 121.561C1051.37 121.144 1052.63 120.587 1053.6 119.892C1054.43 119.335 1055.13 118.5 1055.69 117.665C1056.1 116.83 1056.38 115.717 1056.38 114.465C1056.38 113.213 1056.1 112.099 1055.41 111.125C1054.71 110.012 1053.6 109.038 1052.49 108.203C1051.1 107.369 1049.56 106.534 1047.9 105.838C1045.95 105.142 1044.14 104.586 1042.19 104.029C1040.24 103.472 1038.43 103.055 1036.62 102.638C1034.68 102.22 1033.01 101.803 1031.62 101.385L1023.68 99.2981C1020.9 98.6023 1017.98 97.6284 1015.2 96.6544C1012.27 95.6804 1009.63 94.428 1006.99 93.0366C1004.34 91.6452 1001.84 89.8362 999.891 87.8882C997.804 85.801 995.995 83.4356 994.743 80.6527C993.491 77.8698 992.795 74.5304 992.795 70.7735C992.795 64.2337 994.186 58.5287 996.83 54.076C999.474 49.6234 1002.95 46.0057 1007.27 43.2228C1011.44 40.579 1016.31 38.6311 1021.74 37.6571C1026.88 36.5439 1032.31 35.9873 1037.74 35.9873C1041.49 35.9873 1045.53 36.4048 1049.56 37.1005C1053.74 37.7962 1057.77 39.0485 1061.67 40.4399C1065.57 41.9705 1069.32 43.7794 1072.66 46.0057C1076.14 48.2321 1079.06 50.8757 1081.43 53.6586L1083.24 55.7458L1061.95 73.1389L1060.56 69.5211C1059.44 66.5991 1058.05 63.9554 1056.38 62.0074C1054.57 59.9202 1052.77 58.1113 1050.68 56.859C1048.59 55.4676 1046.64 54.4936 1044.56 53.937C1042.47 53.3804 1040.52 52.963 1038.85 52.963C1036.9 52.963 1034.82 52.9629 1032.45 53.2412C1030.22 53.3804 1028.14 53.7978 1026.33 54.4936C1024.52 55.0502 1023.13 56.0241 1021.88 57.2764C1020.9 58.2504 1020.48 59.781 1020.48 61.729C1020.48 63.1205 1020.76 64.2337 1021.32 65.2077C1022.01 66.3208 1022.99 67.2948 1024.1 67.9905C1025.35 68.8254 1026.88 69.6603 1028.55 70.2169C1030.36 70.9126 1032.17 71.4692 1034.12 71.8867C1036.07 72.4432 1037.88 72.8606 1039.69 73.1389C1041.63 73.5563 1043.3 73.9738 1044.83 74.3913C1047.34 75.087 1049.98 75.7826 1052.77 76.4784C1055.69 77.1741 1058.47 78.1481 1061.25 79.1221C1064.04 80.0961 1066.82 81.2093 1069.46 82.6007C1072.25 83.9922 1074.75 85.8011 1076.84 87.7491C1078.92 89.8363 1080.73 92.3409 1081.99 95.1238C1083.24 97.9067 1083.93 101.246 1083.93 105.003C1083.93 109.456 1083.24 113.491 1081.99 116.97C1080.73 120.448 1078.92 123.648 1076.56 126.153C1074.33 128.797 1071.55 130.884 1068.49 132.693C1065.57 134.363 1062.23 135.754 1058.89 136.867C1055.55 137.841 1051.93 138.676 1048.31 139.093C1044.69 139.511 1041.08 139.789 1037.46 139.789L1037.18 139.928Z" fill="url(#paint20_linear_3136_6378)"/>
<path d="M1081.01 105.142C1081.01 109.316 1080.45 112.934 1079.2 116.135C1077.95 119.335 1076.42 122.118 1074.33 124.483C1072.25 126.849 1069.88 128.797 1066.96 130.466C1064.04 132.136 1061.11 133.388 1057.91 134.362C1054.71 135.336 1051.23 136.032 1047.76 136.45C1044.28 136.867 1040.66 137.145 1037.18 137.145C1032.45 137.145 1028.42 136.867 1024.8 136.31C1021.18 135.754 1017.84 134.78 1014.5 133.388C1011.16 131.997 1007.96 130.327 1004.76 128.24C1001.56 126.153 997.943 123.509 993.908 120.448L1009.91 107.368C1011.44 110.151 1013.39 112.656 1015.75 114.882C1018.12 117.108 1020.62 119.056 1023.27 120.726C1025.91 122.396 1028.42 123.648 1030.78 124.483C1033.15 125.318 1035.23 125.735 1036.76 125.735C1038.02 125.735 1039.41 125.735 1040.94 125.735C1042.47 125.735 1044.14 125.457 1045.81 125.179C1047.48 124.901 1049.01 124.622 1050.68 124.066C1052.35 123.509 1053.6 122.953 1054.85 122.118C1056.1 121.283 1057.08 120.17 1057.77 118.917C1058.47 117.665 1058.89 116.134 1058.89 114.326C1058.89 112.517 1058.47 110.847 1057.5 109.456C1056.52 108.064 1055.27 106.812 1053.74 105.838C1052.21 104.864 1050.54 103.89 1048.45 103.194C1046.36 102.498 1044.56 101.803 1042.61 101.385C1040.66 100.968 1038.71 100.411 1036.9 99.9937C1035.09 99.5762 1033.42 99.1588 1032.03 98.8805C1029.53 98.1848 1026.88 97.4891 1024.1 96.6542C1021.32 95.8194 1018.54 95.1236 1015.89 94.1496C1013.25 93.1756 1010.61 92.0625 1008.1 90.8102C1005.6 89.5579 1003.51 87.8881 1001.56 86.0792C999.613 84.2703 998.222 82.044 997.108 79.6786C995.995 77.3131 995.439 74.2519 995.439 71.0516C995.439 64.9292 996.691 59.92 999.056 55.7457C1001.42 51.5713 1004.62 48.371 1008.66 45.8664C1012.69 43.3618 1017.14 41.6921 1022.15 40.5789C1027.16 39.4658 1032.31 39.0483 1037.6 39.0483C1041.22 39.0483 1044.97 39.4657 1048.87 40.1614C1052.77 40.8571 1056.66 41.9703 1060.42 43.3618C1064.17 44.7532 1067.65 46.5621 1070.99 48.6493C1074.33 50.7364 1076.98 53.1019 1079.2 55.7457L1063.2 68.9645C1061.95 65.7641 1060.42 62.842 1058.47 60.6157C1056.52 58.3894 1054.43 56.3023 1052.21 54.9108C1049.98 53.5194 1047.62 52.2671 1045.25 51.5714C1042.89 50.8757 1040.66 50.4582 1038.71 50.4582C1036.76 50.4582 1034.54 50.4582 1032.17 50.7364C1029.81 51.0147 1027.44 51.293 1025.22 52.1279C1022.99 52.9627 1021.18 54.0759 1019.79 55.6065C1018.4 57.1371 1017.56 59.2243 1017.56 62.0072C1017.56 63.9553 1017.98 65.6249 1018.95 67.0163C1019.93 68.4078 1021.04 69.6601 1022.43 70.6341C1023.82 71.6082 1025.63 72.443 1027.44 73.1387C1029.25 73.8345 1031.2 74.391 1033.15 74.9476C1035.09 75.5042 1037.04 75.9217 1038.85 76.3391C1040.66 76.7566 1042.33 77.1739 1043.86 77.5914C1046.36 78.2871 1049.01 78.9829 1051.79 79.8177C1054.57 80.6526 1057.36 81.3483 1060 82.3223C1062.64 83.2964 1065.29 84.4095 1067.93 85.6618C1070.58 86.9141 1072.66 88.4446 1074.61 90.3927C1076.56 92.3407 1078.09 94.4279 1079.2 96.9325C1080.32 99.4371 1080.87 102.359 1080.87 105.699L1081.01 105.142Z" fill="url(#paint21_linear_3136_6378)"/>
<defs>
<linearGradient id="paint0_linear_3136_6378" x1="45.3779" y1="15.1152" x2="45.3779" y2="138.119" gradientUnits="userSpaceOnUse">
<stop offset="0.11" stop-color="#B4792E"/>
<stop offset="0.33" stop-color="#9A5724"/>
<stop offset="0.72" stop-color="#F6DE50"/>
<stop offset="0.84" stop-color="#F7E14C"/>
<stop offset="0.96" stop-color="#FCED40"/>
<stop offset="1" stop-color="#FFF33B"/>
</linearGradient>
<linearGradient id="paint1_linear_3136_6378" x1="45.3783" y1="17.8984" x2="45.3783" y2="135.337" gradientUnits="userSpaceOnUse">
<stop stop-color="#FFF33B"/>
<stop offset="0.04" stop-color="#FCED40"/>
<stop offset="0.16" stop-color="#F7E14C"/>
<stop offset="0.28" stop-color="#F6DE50"/>
<stop offset="0.67" stop-color="#9A5724"/>
<stop offset="0.89" stop-color="#B4792E"/>
</linearGradient>
<linearGradient id="paint2_linear_3136_6378" x1="140.412" y1="38.3525" x2="140.412" y2="140.206" gradientUnits="userSpaceOnUse">
<stop offset="0.11" stop-color="#B4792E"/>
<stop offset="0.33" stop-color="#9A5724"/>
<stop offset="0.72" stop-color="#F6DE50"/>
<stop offset="0.84" stop-color="#F7E14C"/>
<stop offset="0.96" stop-color="#FCED40"/>
<stop offset="1" stop-color="#FFF33B"/>
</linearGradient>
<linearGradient id="paint3_linear_3136_6378" x1="140.413" y1="41.1352" x2="140.413" y2="137.423" gradientUnits="userSpaceOnUse">
<stop stop-color="#FFF33B"/>
<stop offset="0.04" stop-color="#FCED40"/>
<stop offset="0.16" stop-color="#F7E14C"/>
<stop offset="0.28" stop-color="#F6DE50"/>
<stop offset="0.67" stop-color="#9A5724"/>
<stop offset="0.89" stop-color="#B4792E"/>
</linearGradient>
<linearGradient id="paint4_linear_3136_6378" x1="259.797" y1="35.9873" x2="259.797" y2="158.713" gradientUnits="userSpaceOnUse">
<stop offset="0.11" stop-color="#B4792E"/>
<stop offset="0.33" stop-color="#9A5724"/>
<stop offset="0.72" stop-color="#F6DE50"/>
<stop offset="0.84" stop-color="#F7E14C"/>
<stop offset="0.96" stop-color="#FCED40"/>
<stop offset="1" stop-color="#FFF33B"/>
</linearGradient>
<linearGradient id="paint5_linear_3136_6378" x1="259.796" y1="38.7701" x2="259.796" y2="155.373" gradientUnits="userSpaceOnUse">
<stop stop-color="#FFF33B"/>
<stop offset="0.04" stop-color="#FCED40"/>
<stop offset="0.16" stop-color="#F7E14C"/>
<stop offset="0.28" stop-color="#F6DE50"/>
<stop offset="0.67" stop-color="#9A5724"/>
<stop offset="0.89" stop-color="#B4792E"/>
</linearGradient>
<linearGradient id="paint6_linear_3136_6378" x1="370.971" y1="3.70555" x2="370.971" y2="140.206" gradientUnits="userSpaceOnUse">
<stop offset="0.11" stop-color="#B4792E"/>
<stop offset="0.33" stop-color="#9A5724"/>
<stop offset="0.72" stop-color="#F6DE50"/>
<stop offset="0.84" stop-color="#F7E14C"/>
<stop offset="0.96" stop-color="#FCED40"/>
<stop offset="1" stop-color="#FFF33B"/>
</linearGradient>
<linearGradient id="paint7_linear_3136_6378" x1="370.97" y1="6.48828" x2="370.97" y2="137.423" gradientUnits="userSpaceOnUse">
<stop stop-color="#FFF33B"/>
<stop offset="0.04" stop-color="#FCED40"/>
<stop offset="0.16" stop-color="#F7E14C"/>
<stop offset="0.28" stop-color="#F6DE50"/>
<stop offset="0.67" stop-color="#9A5724"/>
<stop offset="0.89" stop-color="#B4792E"/>
</linearGradient>
<linearGradient id="paint8_linear_3136_6378" x1="483.953" y1="36.2651" x2="483.953" y2="138.397" gradientUnits="userSpaceOnUse">
<stop stop-color="#FFF33B"/>
<stop offset="0.04" stop-color="#FCED40"/>
<stop offset="0.16" stop-color="#F7E14C"/>
<stop offset="0.28" stop-color="#F6DE50"/>
<stop offset="0.67" stop-color="#9A5724"/>
<stop offset="0.89" stop-color="#B4792E"/>
</linearGradient>
<linearGradient id="paint9_linear_3136_6378" x1="483.954" y1="135.336" x2="483.954" y2="38.9092" gradientUnits="userSpaceOnUse">
<stop offset="0.11" stop-color="#B4792E"/>
<stop offset="0.33" stop-color="#9A5724"/>
<stop offset="0.72" stop-color="#F6DE50"/>
<stop offset="0.84" stop-color="#F7E14C"/>
<stop offset="0.96" stop-color="#FCED40"/>
<stop offset="1" stop-color="#FFF33B"/>
</linearGradient>
<linearGradient id="paint10_linear_3136_6378" x1="578.431" y1="35.9873" x2="578.431" y2="139.928" gradientUnits="userSpaceOnUse">
<stop offset="0.11" stop-color="#B4792E"/>
<stop offset="0.33" stop-color="#9A5724"/>
<stop offset="0.72" stop-color="#F6DE50"/>
<stop offset="0.84" stop-color="#F7E14C"/>
<stop offset="0.96" stop-color="#FCED40"/>
<stop offset="1" stop-color="#FFF33B"/>
</linearGradient>
<linearGradient id="paint11_linear_3136_6378" x1="578.43" y1="38.77" x2="578.43" y2="137.145" gradientUnits="userSpaceOnUse">
<stop stop-color="#FFF33B"/>
<stop offset="0.04" stop-color="#FCED40"/>
<stop offset="0.16" stop-color="#F7E14C"/>
<stop offset="0.28" stop-color="#F6DE50"/>
<stop offset="0.67" stop-color="#9A5724"/>
<stop offset="0.89" stop-color="#B4792E"/>
</linearGradient>
<linearGradient id="paint12_linear_3136_6378" x1="665.325" y1="0.783203" x2="665.325" y2="138.119" gradientUnits="userSpaceOnUse">
<stop stop-color="#FFF33B"/>
<stop offset="0.04" stop-color="#FCED40"/>
<stop offset="0.16" stop-color="#F7E14C"/>
<stop offset="0.28" stop-color="#F6DE50"/>
<stop offset="0.67" stop-color="#9A5724"/>
<stop offset="0.89" stop-color="#B4792E"/>
</linearGradient>
<linearGradient id="paint13_linear_3136_6378" x1="665.464" y1="135.336" x2="665.464" y2="3.42725" gradientUnits="userSpaceOnUse">
<stop offset="0.11" stop-color="#B4792E"/>
<stop offset="0.33" stop-color="#9A5724"/>
<stop offset="0.72" stop-color="#F6DE50"/>
<stop offset="0.84" stop-color="#F7E14C"/>
<stop offset="0.96" stop-color="#FCED40"/>
<stop offset="1" stop-color="#FFF33B"/>
</linearGradient>
<linearGradient id="paint14_linear_3136_6378" x1="738.862" y1="35.9873" x2="738.862" y2="139.928" gradientUnits="userSpaceOnUse">
<stop offset="0.11" stop-color="#B4792E"/>
<stop offset="0.33" stop-color="#9A5724"/>
<stop offset="0.72" stop-color="#F6DE50"/>
<stop offset="0.84" stop-color="#F7E14C"/>
<stop offset="0.96" stop-color="#FCED40"/>
<stop offset="1" stop-color="#FFF33B"/>
</linearGradient>
<linearGradient id="paint15_linear_3136_6378" x1="739.835" y1="38.7701" x2="739.835" y2="137.145" gradientUnits="userSpaceOnUse">
<stop stop-color="#FFF33B"/>
<stop offset="0.04" stop-color="#FCED40"/>
<stop offset="0.16" stop-color="#F7E14C"/>
<stop offset="0.28" stop-color="#F6DE50"/>
<stop offset="0.67" stop-color="#9A5724"/>
<stop offset="0.89" stop-color="#B4792E"/>
</linearGradient>
<linearGradient id="paint16_linear_3136_6378" x1="843.218" y1="35.9869" x2="843.218" y2="139.928" gradientUnits="userSpaceOnUse">
<stop offset="0.11" stop-color="#B4792E"/>
<stop offset="0.33" stop-color="#9A5724"/>
<stop offset="0.72" stop-color="#F6DE50"/>
<stop offset="0.84" stop-color="#F7E14C"/>
<stop offset="0.96" stop-color="#FCED40"/>
<stop offset="1" stop-color="#FFF33B"/>
</linearGradient>
<linearGradient id="paint17_linear_3136_6378" x1="843.218" y1="38.7701" x2="843.218" y2="137.145" gradientUnits="userSpaceOnUse">
<stop stop-color="#FFF33B"/>
<stop offset="0.04" stop-color="#FCED40"/>
<stop offset="0.16" stop-color="#F7E14C"/>
<stop offset="0.28" stop-color="#F6DE50"/>
<stop offset="0.67" stop-color="#9A5724"/>
<stop offset="0.89" stop-color="#B4792E"/>
</linearGradient>
<linearGradient id="paint18_linear_3136_6378" x1="948.409" y1="36.2651" x2="948.409" y2="138.397" gradientUnits="userSpaceOnUse">
<stop stop-color="#FFF33B"/>
<stop offset="0.04" stop-color="#FCED40"/>
<stop offset="0.16" stop-color="#F7E14C"/>
<stop offset="0.28" stop-color="#F6DE50"/>
<stop offset="0.67" stop-color="#9A5724"/>
<stop offset="0.89" stop-color="#B4792E"/>
</linearGradient>
<linearGradient id="paint19_linear_3136_6378" x1="948.409" y1="135.336" x2="948.409" y2="38.9092" gradientUnits="userSpaceOnUse">
<stop offset="0.11" stop-color="#B4792E"/>
<stop offset="0.33" stop-color="#9A5724"/>
<stop offset="0.72" stop-color="#F6DE50"/>
<stop offset="0.84" stop-color="#F7E14C"/>
<stop offset="0.96" stop-color="#FCED40"/>
<stop offset="1" stop-color="#FFF33B"/>
</linearGradient>
<linearGradient id="paint20_linear_3136_6378" x1="1036.62" y1="35.9873" x2="1036.62" y2="139.928" gradientUnits="userSpaceOnUse">
<stop offset="0.11" stop-color="#B4792E"/>
<stop offset="0.33" stop-color="#9A5724"/>
<stop offset="0.72" stop-color="#F6DE50"/>
<stop offset="0.84" stop-color="#F7E14C"/>
<stop offset="0.96" stop-color="#FCED40"/>
<stop offset="1" stop-color="#FFF33B"/>
</linearGradient>
<linearGradient id="paint21_linear_3136_6378" x1="1037.46" y1="38.7701" x2="1037.46" y2="137.145" gradientUnits="userSpaceOnUse">
<stop stop-color="#FFF33B"/>
<stop offset="0.04" stop-color="#FCED40"/>
<stop offset="0.16" stop-color="#F7E14C"/>
<stop offset="0.28" stop-color="#F6DE50"/>
<stop offset="0.67" stop-color="#9A5724"/>
<stop offset="0.89" stop-color="#B4792E"/>
</linearGradient>
</defs>
</svg>
