<svg xmlns="http://www.w3.org/2000/svg" fill="none" viewBox="0 0 1230.768 30.545454545454547" style="max-height: 500px" width="1230.768" height="30.545454545454547">
<path stroke-linejoin="round" stroke-linecap="round" stroke-miterlimit="10" stroke-width="7" stroke="#540317" d="M-13 4L1514 6"/>
<path fill="#540317" d="M-0.610235 17.3899C3.46563 17.3899 6.76977 14.0857 6.76977 10.0099C6.76977 5.93403 3.46563 2.62988 -0.610235 2.62988C-4.6861 2.62988 -7.99023 5.93403 -7.99023 10.0099C-7.99023 14.0857 -4.6861 17.3899 -0.610235 17.3899Z"/>
<path fill="#540317" d="M19.6798 18.6501C23.7557 18.6501 27.0598 15.346 27.0598 11.2701C27.0598 7.19428 23.7557 3.89014 19.6798 3.89014C15.6039 3.89014 12.2998 7.19428 12.2998 11.2701C12.2998 15.346 15.6039 18.6501 19.6798 18.6501Z"/>
<path fill="#540317" d="M39.9103 18.6501C43.9861 18.6501 47.2903 15.346 47.2903 11.2701C47.2903 7.19428 43.9861 3.89014 39.9103 3.89014C35.8344 3.89014 32.5303 7.19428 32.5303 11.2701C32.5303 15.346 35.8344 18.6501 39.9103 18.6501Z"/>
<path fill="#540317" d="M60.0197 18.6501C64.0955 18.6501 67.3997 15.346 67.3997 11.2701C67.3997 7.19428 64.0955 3.89014 60.0197 3.89014C55.9438 3.89014 52.6396 7.19428 52.6396 11.2701C52.6396 15.346 55.9438 18.6501 60.0197 18.6501Z"/>
<path fill="#540317" d="M80.4298 18.6501C84.5057 18.6501 87.8098 15.346 87.8098 11.2701C87.8098 7.19428 84.5057 3.89014 80.4298 3.89014C76.3539 3.89014 73.0498 7.19428 73.0498 11.2701C73.0498 15.346 76.3539 18.6501 80.4298 18.6501Z"/>
<path fill="#540317" d="M101.64 18.6501C105.716 18.6501 109.02 15.346 109.02 11.2701C109.02 7.19428 105.716 3.89014 101.64 3.89014C97.5639 3.89014 94.2598 7.19428 94.2598 11.2701C94.2598 15.346 97.5639 18.6501 101.64 18.6501Z"/>
<path fill="#540317" d="M122.36 18.6501C126.436 18.6501 129.74 15.346 129.74 11.2701C129.74 7.19428 126.436 3.89014 122.36 3.89014C118.284 3.89014 114.98 7.19428 114.98 11.2701C114.98 15.346 118.284 18.6501 122.36 18.6501Z"/>
<path fill="#540317" d="M142.87 17.3899C146.946 17.3899 150.25 14.0857 150.25 10.0099C150.25 5.93403 146.946 2.62988 142.87 2.62988C138.794 2.62988 135.49 5.93403 135.49 10.0099C135.49 14.0857 138.794 17.3899 142.87 17.3899Z"/>
<path fill="#540317" d="M163.5 18.6501C167.576 18.6501 170.88 15.346 170.88 11.2701C170.88 7.19428 167.576 3.89014 163.5 3.89014C159.424 3.89014 156.12 7.19428 156.12 11.2701C156.12 15.346 159.424 18.6501 163.5 18.6501Z"/>
<path fill="#540317" d="M183.65 18.6501C187.726 18.6501 191.03 15.346 191.03 11.2701C191.03 7.19428 187.726 3.89014 183.65 3.89014C179.574 3.89014 176.27 7.19428 176.27 11.2701C176.27 15.346 179.574 18.6501 183.65 18.6501Z"/>
<path fill="#540317" d="M203.8 18.6501C207.876 18.6501 211.18 15.346 211.18 11.2701C211.18 7.19428 207.876 3.89014 203.8 3.89014C199.724 3.89014 196.42 7.19428 196.42 11.2701C196.42 15.346 199.724 18.6501 203.8 18.6501Z"/>
<path fill="#540317" d="M225.49 17.3899C229.566 17.3899 232.87 14.0857 232.87 10.0099C232.87 5.93403 229.566 2.62988 225.49 2.62988C221.414 2.62988 218.11 5.93403 218.11 10.0099C218.11 14.0857 221.414 17.3899 225.49 17.3899Z"/>
<path fill="#540317" d="M245.26 17.3899C249.336 17.3899 252.64 14.0857 252.64 10.0099C252.64 5.93403 249.336 2.62988 245.26 2.62988C241.184 2.62988 237.88 5.93403 237.88 10.0099C237.88 14.0857 241.184 17.3899 245.26 17.3899Z"/>
<path fill="#540317" d="M263.76 18.6501C267.836 18.6501 271.14 15.346 271.14 11.2701C271.14 7.19428 267.836 3.89014 263.76 3.89014C259.684 3.89014 256.38 7.19428 256.38 11.2701C256.38 15.346 259.684 18.6501 263.76 18.6501Z"/>
<path fill="#540317" d="M285.89 18.6501C289.966 18.6501 293.27 15.346 293.27 11.2701C293.27 7.19428 289.966 3.89014 285.89 3.89014C281.814 3.89014 278.51 7.19428 278.51 11.2701C278.51 15.346 281.814 18.6501 285.89 18.6501Z"/>
<path fill="#540317" d="M306.49 18.6501C310.566 18.6501 313.87 15.346 313.87 11.2701C313.87 7.19428 310.566 3.89014 306.49 3.89014C302.414 3.89014 299.11 7.19428 299.11 11.2701C299.11 15.346 302.414 18.6501 306.49 18.6501Z"/>
<path fill="#540317" d="M326.26 17.3899C330.336 17.3899 333.64 14.0857 333.64 10.0099C333.64 5.93403 330.336 2.62988 326.26 2.62988C322.184 2.62988 318.88 5.93403 318.88 10.0099C318.88 14.0857 322.184 17.3899 326.26 17.3899Z"/>
<path fill="#540317" d="M348.64 18.6501C352.716 18.6501 356.02 15.346 356.02 11.2701C356.02 7.19428 352.716 3.89014 348.64 3.89014C344.564 3.89014 341.26 7.19428 341.26 11.2701C341.26 15.346 344.564 18.6501 348.64 18.6501Z"/>
<path fill="#540317" d="M369.49 18.6501C373.566 18.6501 376.87 15.346 376.87 11.2701C376.87 7.19428 373.566 3.89014 369.49 3.89014C365.414 3.89014 362.11 7.19428 362.11 11.2701C362.11 15.346 365.414 18.6501 369.49 18.6501Z"/>
<path fill="#540317" d="M389.11 18.6501C393.186 18.6501 396.49 15.346 396.49 11.2701C396.49 7.19428 393.186 3.89014 389.11 3.89014C385.034 3.89014 381.73 7.19428 381.73 11.2701C381.73 15.346 385.034 18.6501 389.11 18.6501Z"/>
<path fill="#540317" d="M408.89 18.6501C412.966 18.6501 416.27 15.346 416.27 11.2701C416.27 7.19428 412.966 3.89014 408.89 3.89014C404.814 3.89014 401.51 7.19428 401.51 11.2701C401.51 15.346 404.814 18.6501 408.89 18.6501Z"/>
<path fill="#540317" d="M429.89 18.6501C433.966 18.6501 437.27 15.346 437.27 11.2701C437.27 7.19428 433.966 3.89014 429.89 3.89014C425.814 3.89014 422.51 7.19428 422.51 11.2701C422.51 15.346 425.814 18.6501 429.89 18.6501Z"/>
<path fill="#540317" d="M452.11 18.6501C456.186 18.6501 459.49 15.346 459.49 11.2701C459.49 7.19428 456.186 3.89014 452.11 3.89014C448.035 3.89014 444.73 7.19428 444.73 11.2701C444.73 15.346 448.035 18.6501 452.11 18.6501Z"/>
<path fill="#540317" d="M452.11 17.3899C456.186 17.3899 459.49 14.0857 459.49 10.0099C459.49 5.93403 456.186 2.62988 452.11 2.62988C448.035 2.62988 444.73 5.93403 444.73 10.0099C444.73 14.0857 448.035 17.3899 452.11 17.3899Z"/>
<path fill="#540317" d="M471.89 18.6501C475.966 18.6501 479.27 15.346 479.27 11.2701C479.27 7.19428 475.966 3.89014 471.89 3.89014C467.814 3.89014 464.51 7.19428 464.51 11.2701C464.51 15.346 467.814 18.6501 471.89 18.6501Z"/>
<path fill="#540317" d="M489.89 18.6501C493.966 18.6501 497.27 15.346 497.27 11.2701C497.27 7.19428 493.966 3.89014 489.89 3.89014C485.814 3.89014 482.51 7.19428 482.51 11.2701C482.51 15.346 485.814 18.6501 489.89 18.6501Z"/>
<path fill="#540317" d="M513.49 18.6501C517.566 18.6501 520.87 15.346 520.87 11.2701C520.87 7.19428 517.566 3.89014 513.49 3.89014C509.414 3.89014 506.11 7.19428 506.11 11.2701C506.11 15.346 509.414 18.6501 513.49 18.6501Z"/>
<path fill="#540317" d="M533 18.6501C537.076 18.6501 540.38 15.346 540.38 11.2701C540.38 7.19428 537.076 3.89014 533 3.89014C528.924 3.89014 525.62 7.19428 525.62 11.2701C525.62 15.346 528.924 18.6501 533 18.6501Z"/>
<path fill="#540317" d="M537.01 18.0198C541.086 18.0198 544.39 14.7156 544.39 10.6398C544.39 6.56391 541.086 3.25977 537.01 3.25977C532.934 3.25977 529.63 6.56391 529.63 10.6398C529.63 14.7156 532.934 18.0198 537.01 18.0198Z"/>
<path fill="#540317" d="M556.79 16.76C560.866 16.76 564.17 13.4559 564.17 9.38C564.17 5.30414 560.866 2 556.79 2C552.714 2 549.41 5.30414 549.41 9.38C549.41 13.4559 552.714 16.76 556.79 16.76Z"/>
<path fill="#540317" d="M579.16 18.0198C583.236 18.0198 586.54 14.7156 586.54 10.6398C586.54 6.56391 583.236 3.25977 579.16 3.25977C575.084 3.25977 571.78 6.56391 571.78 10.6398C571.78 14.7156 575.084 18.0198 579.16 18.0198Z"/>
<path fill="#540317" d="M600.01 18.0198C604.086 18.0198 607.39 14.7156 607.39 10.6398C607.39 6.56391 604.086 3.25977 600.01 3.25977C595.934 3.25977 592.63 6.56391 592.63 10.6398C592.63 14.7156 595.934 18.0198 600.01 18.0198Z"/>
<path fill="#540317" d="M619.63 18.0198C623.706 18.0198 627.01 14.7156 627.01 10.6398C627.01 6.56391 623.706 3.25977 619.63 3.25977C615.554 3.25977 612.25 6.56391 612.25 10.6398C612.25 14.7156 615.554 18.0198 619.63 18.0198Z"/>
<path fill="#540317" d="M639.41 18.0198C643.486 18.0198 646.79 14.7156 646.79 10.6398C646.79 6.56391 643.486 3.25977 639.41 3.25977C635.334 3.25977 632.03 6.56391 632.03 10.6398C632.03 14.7156 635.334 18.0198 639.41 18.0198Z"/>
<path fill="#540317" d="M660.41 18.0198C664.486 18.0198 667.79 14.7156 667.79 10.6398C667.79 6.56391 664.486 3.25977 660.41 3.25977C656.334 3.25977 653.03 6.56391 653.03 10.6398C653.03 14.7156 656.334 18.0198 660.41 18.0198Z"/>
<path fill="#540317" d="M682.63 18.0198C686.706 18.0198 690.01 14.7156 690.01 10.6398C690.01 6.56391 686.706 3.25977 682.63 3.25977C678.554 3.25977 675.25 6.56391 675.25 10.6398C675.25 14.7156 678.554 18.0198 682.63 18.0198Z"/>
<path fill="#540317" d="M682.63 16.76C686.706 16.76 690.01 13.4559 690.01 9.38C690.01 5.30414 686.706 2 682.63 2C678.554 2 675.25 5.30414 675.25 9.38C675.25 13.4559 678.554 16.76 682.63 16.76Z"/>
<path fill="#540317" d="M702.41 18.0198C706.486 18.0198 709.79 14.7156 709.79 10.6398C709.79 6.56391 706.486 3.25977 702.41 3.25977C698.334 3.25977 695.03 6.56391 695.03 10.6398C695.03 14.7156 698.334 18.0198 702.41 18.0198Z"/>
<path fill="#540317" d="M720.41 18.0198C724.486 18.0198 727.79 14.7156 727.79 10.6398C727.79 6.56391 724.486 3.25977 720.41 3.25977C716.334 3.25977 713.03 6.56391 713.03 10.6398C713.03 14.7156 716.334 18.0198 720.41 18.0198Z"/>
<path fill="#540317" d="M744.01 18.0198C748.086 18.0198 751.39 14.7156 751.39 10.6398C751.39 6.56391 748.086 3.25977 744.01 3.25977C739.934 3.25977 736.63 6.56391 736.63 10.6398C736.63 14.7156 739.934 18.0198 744.01 18.0198Z"/>
<path fill="#540317" d="M763.521 18.0198C767.596 18.0198 770.901 14.7156 770.901 10.6398C770.901 6.56391 767.596 3.25977 763.521 3.25977C759.445 3.25977 756.141 6.56391 756.141 10.6398C756.141 14.7156 759.445 18.0198 763.521 18.0198Z"/>
<path fill="#540317" d="M764.3 18.0198C768.376 18.0198 771.68 14.7156 771.68 10.6398C771.68 6.56391 768.376 3.25977 764.3 3.25977C760.224 3.25977 756.92 6.56391 756.92 10.6398C756.92 14.7156 760.224 18.0198 764.3 18.0198Z"/>
<path fill="#540317" d="M784.08 16.76C788.156 16.76 791.46 13.4559 791.46 9.38C791.46 5.30414 788.156 2 784.08 2C780.004 2 776.7 5.30414 776.7 9.38C776.7 13.4559 780.004 16.76 784.08 16.76Z"/>
<path fill="#540317" d="M806.46 18.0198C810.536 18.0198 813.84 14.7156 813.84 10.6398C813.84 6.56391 810.536 3.25977 806.46 3.25977C802.384 3.25977 799.08 6.56391 799.08 10.6398C799.08 14.7156 802.384 18.0198 806.46 18.0198Z"/>
<path fill="#540317" d="M827.3 18.0198C831.376 18.0198 834.68 14.7156 834.68 10.6398C834.68 6.56391 831.376 3.25977 827.3 3.25977C823.224 3.25977 819.92 6.56391 819.92 10.6398C819.92 14.7156 823.224 18.0198 827.3 18.0198Z"/>
<path fill="#540317" d="M846.93 18.0198C851.006 18.0198 854.31 14.7156 854.31 10.6398C854.31 6.56391 851.006 3.25977 846.93 3.25977C842.854 3.25977 839.55 6.56391 839.55 10.6398C839.55 14.7156 842.854 18.0198 846.93 18.0198Z"/>
<path fill="#540317" d="M866.71 18.0198C870.786 18.0198 874.09 14.7156 874.09 10.6398C874.09 6.56391 870.786 3.25977 866.71 3.25977C862.634 3.25977 859.33 6.56391 859.33 10.6398C859.33 14.7156 862.634 18.0198 866.71 18.0198Z"/>
<path fill="#540317" d="M887.71 18.0198C891.786 18.0198 895.09 14.7156 895.09 10.6398C895.09 6.56391 891.786 3.25977 887.71 3.25977C883.634 3.25977 880.33 6.56391 880.33 10.6398C880.33 14.7156 883.634 18.0198 887.71 18.0198Z"/>
<path fill="#540317" d="M909.93 18.0198C914.006 18.0198 917.31 14.7156 917.31 10.6398C917.31 6.56391 914.006 3.25977 909.93 3.25977C905.854 3.25977 902.55 6.56391 902.55 10.6398C902.55 14.7156 905.854 18.0198 909.93 18.0198Z"/>
<path fill="#540317" d="M909.93 16.76C914.006 16.76 917.31 13.4559 917.31 9.38C917.31 5.30414 914.006 2 909.93 2C905.854 2 902.55 5.30414 902.55 9.38C902.55 13.4559 905.854 16.76 909.93 16.76Z"/>
<path fill="#540317" d="M929.71 18.0198C933.786 18.0198 937.09 14.7156 937.09 10.6398C937.09 6.56391 933.786 3.25977 929.71 3.25977C925.634 3.25977 922.33 6.56391 922.33 10.6398C922.33 14.7156 925.634 18.0198 929.71 18.0198Z"/>
<path fill="#540317" d="M947.71 18.0198C951.786 18.0198 955.09 14.7156 955.09 10.6398C955.09 6.56391 951.786 3.25977 947.71 3.25977C943.634 3.25977 940.33 6.56391 940.33 10.6398C940.33 14.7156 943.634 18.0198 947.71 18.0198Z"/>
<path fill="#540317" d="M971.3 18.0198C975.376 18.0198 978.68 14.7156 978.68 10.6398C978.68 6.56391 975.376 3.25977 971.3 3.25977C967.224 3.25977 963.92 6.56391 963.92 10.6398C963.92 14.7156 967.224 18.0198 971.3 18.0198Z"/>
<path fill="#540317" d="M990.81 18.0198C994.886 18.0198 998.19 14.7156 998.19 10.6398C998.19 6.56391 994.886 3.25977 990.81 3.25977C986.734 3.25977 983.43 6.56391 983.43 10.6398C983.43 14.7156 986.734 18.0198 990.81 18.0198Z"/>
<path fill="#540317" d="M990.81 19.28C994.886 19.28 998.19 15.9759 998.19 11.9C998.19 7.82416 994.886 4.52002 990.81 4.52002C986.734 4.52002 983.43 7.82416 983.43 11.9C983.43 15.9759 986.734 19.28 990.81 19.28Z"/>
<path fill="#540317" d="M1010.59 18.0198C1014.67 18.0198 1017.97 14.7156 1017.97 10.6398C1017.97 6.56391 1014.67 3.25977 1010.59 3.25977C1006.51 3.25977 1003.21 6.56391 1003.21 10.6398C1003.21 14.7156 1006.51 18.0198 1010.59 18.0198Z"/>
<path fill="#540317" d="M1032.97 19.28C1037.05 19.28 1040.35 15.9759 1040.35 11.9C1040.35 7.82416 1037.05 4.52002 1032.97 4.52002C1028.89 4.52002 1025.59 7.82416 1025.59 11.9C1025.59 15.9759 1028.89 19.28 1032.97 19.28Z"/>
<path fill="#540317" d="M1053.81 19.28C1057.89 19.28 1061.19 15.9759 1061.19 11.9C1061.19 7.82416 1057.89 4.52002 1053.81 4.52002C1049.73 4.52002 1046.43 7.82416 1046.43 11.9C1046.43 15.9759 1049.73 19.28 1053.81 19.28Z"/>
<path fill="#540317" d="M1073.44 19.28C1077.52 19.28 1080.82 15.9759 1080.82 11.9C1080.82 7.82416 1077.52 4.52002 1073.44 4.52002C1069.36 4.52002 1066.06 7.82416 1066.06 11.9C1066.06 15.9759 1069.36 19.28 1073.44 19.28Z"/>
<path fill="#540317" d="M1093.22 19.28C1097.3 19.28 1100.6 15.9759 1100.6 11.9C1100.6 7.82416 1097.3 4.52002 1093.22 4.52002C1089.14 4.52002 1085.84 7.82416 1085.84 11.9C1085.84 15.9759 1089.14 19.28 1093.22 19.28Z"/>
<path fill="#540317" d="M1114.22 19.28C1118.3 19.28 1121.6 15.9759 1121.6 11.9C1121.6 7.82416 1118.3 4.52002 1114.22 4.52002C1110.14 4.52002 1106.84 7.82416 1106.84 11.9C1106.84 15.9759 1110.14 19.28 1114.22 19.28Z"/>
<path fill="#540317" d="M1136.44 19.28C1140.52 19.28 1143.82 15.9759 1143.82 11.9C1143.82 7.82416 1140.52 4.52002 1136.44 4.52002C1132.36 4.52002 1129.06 7.82416 1129.06 11.9C1129.06 15.9759 1132.36 19.28 1136.44 19.28Z"/>
<path fill="#540317" d="M1136.44 18.0198C1140.52 18.0198 1143.82 14.7156 1143.82 10.6398C1143.82 6.56391 1140.52 3.25977 1136.44 3.25977C1132.36 3.25977 1129.06 6.56391 1129.06 10.6398C1129.06 14.7156 1132.36 18.0198 1136.44 18.0198Z"/>
<path fill="#540317" d="M1156.22 19.28C1160.3 19.28 1163.6 15.9759 1163.6 11.9C1163.6 7.82416 1160.3 4.52002 1156.22 4.52002C1152.14 4.52002 1148.84 7.82416 1148.84 11.9C1148.84 15.9759 1152.14 19.28 1156.22 19.28Z"/>
<path fill="#540317" d="M1174.22 19.28C1178.3 19.28 1181.6 15.9759 1181.6 11.9C1181.6 7.82416 1178.3 4.52002 1174.22 4.52002C1170.14 4.52002 1166.84 7.82416 1166.84 11.9C1166.84 15.9759 1170.14 19.28 1174.22 19.28Z"/>
<path fill="#540317" d="M1197.81 19.28C1201.89 19.28 1205.19 15.9759 1205.19 11.9C1205.19 7.82416 1201.89 4.52002 1197.81 4.52002C1193.73 4.52002 1190.43 7.82416 1190.43 11.9C1190.43 15.9759 1193.73 19.28 1197.81 19.28Z"/>
<path fill="#540317" d="M1217.32 19.28C1221.4 19.28 1224.7 15.9759 1224.7 11.9C1224.7 7.82416 1221.4 4.52002 1217.32 4.52002C1213.24 4.52002 1209.94 7.82416 1209.94 11.9C1209.94 15.9759 1213.24 19.28 1217.32 19.28Z"/>
</svg>